<svg id="svg" version="1.1" xmlns="http://www.w3.org/2000/svg" xmlns:xlink="http://www.w3.org/1999/xlink" width="400" height="400" viewBox="0, 0, 400,400"><g id="svgg"><path id="path0" d="M190.200 50.642 C 189.540 50.733,186.480 51.080,183.400 51.414 C 180.320 51.749,176.630 52.277,175.200 52.588 C 173.770 52.900,171.880 53.266,171.000 53.403 C 167.069 54.013,160.430 55.722,154.600 57.625 C 153.280 58.056,151.840 58.412,151.400 58.417 C 150.960 58.422,150.251 58.690,149.824 59.013 C 149.396 59.336,148.800 59.600,148.499 59.600 C 148.197 59.600,146.927 60.068,145.675 60.639 C 141.595 62.503,140.884 62.800,140.510 62.800 C 139.880 62.800,126.342 69.777,123.600 71.515 C 122.170 72.422,120.010 73.746,118.800 74.458 C 117.590 75.170,116.542 75.892,116.472 76.061 C 116.401 76.231,115.681 76.778,114.872 77.276 C 114.062 77.775,112.313 78.997,110.984 79.992 C 108.338 81.973,108.440 81.890,105.000 84.836 C 103.680 85.967,102.181 87.171,101.669 87.513 C 100.488 88.299,88.070 100.783,87.000 102.259 C 86.325 103.189,84.484 105.420,82.262 108.000 C 81.147 109.294,78.104 113.478,77.243 114.900 C 76.743 115.725,76.182 116.400,75.994 116.400 C 75.807 116.400,75.533 116.780,75.386 117.245 C 75.238 117.710,74.189 119.465,73.054 121.145 C 71.918 122.825,70.423 125.280,69.729 126.600 C 66.033 133.640,64.639 136.427,63.729 138.600 C 63.176 139.920,62.482 141.540,62.187 142.200 C 60.807 145.285,59.600 148.428,59.600 148.939 C 59.600 149.249,59.330 149.726,59.000 150.000 C 58.670 150.274,58.402 150.881,58.404 151.349 C 58.406 151.817,58.064 153.280,57.643 154.600 C 51.094 175.139,48.821 198.705,51.530 217.983 C 52.039 221.603,52.524 224.678,52.609 224.815 C 52.694 224.951,52.952 226.309,53.182 227.832 C 53.699 231.243,54.623 235.252,55.801 239.200 C 56.294 240.850,57.103 243.640,57.599 245.400 C 58.096 247.160,58.730 249.140,59.008 249.800 C 59.287 250.460,59.920 252.080,60.415 253.400 C 61.781 257.040,66.142 266.863,66.808 267.800 C 66.964 268.020,68.038 270.000,69.195 272.200 C 70.351 274.400,72.148 277.460,73.188 279.000 C 74.229 280.540,75.597 282.610,76.230 283.600 C 78.052 286.451,82.506 292.440,84.435 294.632 C 85.406 295.736,86.560 297.133,87.000 297.738 C 88.189 299.373,100.689 311.726,103.000 313.551 C 104.100 314.419,105.540 315.588,106.200 316.148 C 109.586 319.022,111.467 320.399,117.800 324.642 C 119.340 325.674,121.090 326.853,121.688 327.262 C 124.319 329.062,133.883 334.024,139.200 336.348 C 142.390 337.742,145.540 339.128,146.200 339.428 C 148.125 340.303,153.410 342.053,159.800 343.932 C 163.447 345.004,169.089 346.276,172.568 346.811 C 174.091 347.046,175.489 347.331,175.675 347.446 C 175.996 347.645,181.167 348.279,190.400 349.252 C 198.228 350.076,220.225 348.811,225.372 347.239 C 226.048 347.033,227.500 346.747,228.600 346.603 C 230.808 346.313,238.241 344.498,242.600 343.184 C 244.140 342.719,246.210 342.095,247.200 341.796 C 248.190 341.497,249.990 340.861,251.200 340.384 C 252.410 339.907,254.062 339.270,254.870 338.970 C 260.118 337.022,273.739 330.206,277.200 327.796 C 278.190 327.107,279.900 326.022,281.000 325.385 C 284.189 323.538,291.258 318.252,296.486 313.805 C 297.524 312.922,298.917 311.750,299.582 311.200 C 300.954 310.066,309.379 301.626,310.962 299.800 C 315.249 294.854,316.625 293.186,318.650 290.479 C 319.917 288.786,321.701 286.410,322.616 285.200 C 323.530 283.990,324.515 282.550,324.803 282.000 C 325.092 281.450,326.198 279.684,327.261 278.075 C 328.324 276.467,330.091 273.456,331.188 271.384 C 332.285 269.312,333.359 267.298,333.576 266.909 C 334.160 265.856,337.200 259.184,337.200 258.954 C 337.200 258.845,337.541 258.001,337.959 257.078 C 340.050 252.452,340.402 251.464,343.114 242.600 C 345.349 235.294,346.283 231.548,346.654 228.400 C 346.797 227.190,347.066 225.789,347.252 225.287 C 349.946 218.014,349.946 181.986,347.252 174.713 C 347.066 174.211,346.796 172.810,346.651 171.600 C 346.257 168.292,345.353 164.705,342.419 154.800 C 338.953 143.100,331.392 127.541,323.857 116.603 C 323.404 115.945,322.190 114.145,321.161 112.603 C 320.131 111.061,318.735 109.170,318.057 108.400 C 317.379 107.630,316.679 106.820,316.501 106.600 C 316.322 106.380,315.227 105.030,314.067 103.600 C 311.718 100.703,299.696 88.423,298.296 87.489 C 297.803 87.161,296.387 86.016,295.148 84.946 C 291.707 81.972,290.395 80.952,287.170 78.742 C 285.536 77.623,283.840 76.394,283.400 76.011 C 282.960 75.629,281.970 74.977,281.200 74.563 C 280.430 74.149,279.440 73.508,279.000 73.139 C 278.560 72.770,275.950 71.254,273.200 69.770 C 266.517 66.165,265.162 65.499,257.400 61.997 C 253.607 60.286,249.105 58.739,240.000 56.021 C 236.432 54.956,231.008 53.706,228.600 53.394 C 227.500 53.252,226.054 52.969,225.386 52.765 C 220.502 51.276,196.248 49.812,190.200 50.642 M213.173 79.168 C 215.907 79.414,219.237 79.862,220.573 80.163 C 221.908 80.464,223.900 80.836,225.000 80.989 C 227.668 81.362,236.219 83.774,240.200 85.278 C 241.960 85.943,244.480 86.887,245.800 87.377 C 251.589 89.526,262.865 95.555,268.800 99.675 C 277.095 105.433,286.776 114.229,292.933 121.600 C 293.943 122.810,295.294 124.430,295.934 125.200 C 298.511 128.300,303.661 136.091,305.672 139.933 C 306.401 141.326,307.223 142.653,307.499 142.882 C 307.774 143.111,308.000 143.477,308.000 143.695 C 308.000 143.913,308.907 145.972,310.016 148.271 C 311.925 152.229,313.282 155.542,314.655 159.600 C 314.990 160.590,315.414 161.760,315.598 162.200 C 315.968 163.087,316.219 164.023,317.953 171.000 C 322.740 190.255,322.582 214.131,317.555 231.000 C 317.096 232.540,316.482 234.700,316.189 235.800 C 315.897 236.900,315.180 239.060,314.597 240.600 C 314.014 242.140,313.276 244.120,312.957 245.000 C 312.639 245.880,312.207 246.960,311.997 247.400 C 311.788 247.840,311.433 248.650,311.209 249.200 C 310.985 249.750,310.632 250.470,310.425 250.800 C 310.218 251.130,309.581 252.480,309.009 253.800 C 308.437 255.120,307.804 256.470,307.601 256.800 C 307.103 257.612,304.445 262.268,303.491 264.000 C 303.067 264.770,302.243 266.027,301.660 266.793 C 301.077 267.560,300.086 268.991,299.457 269.975 C 294.026 278.472,278.457 294.030,270.000 299.411 C 269.010 300.041,267.840 300.867,267.400 301.247 C 266.256 302.234,256.646 307.692,253.800 308.970 C 252.480 309.564,251.130 310.218,250.800 310.425 C 250.470 310.632,249.750 310.985,249.200 311.209 C 248.650 311.433,247.840 311.788,247.400 311.997 C 245.988 312.670,238.259 315.427,235.600 316.207 C 229.146 318.100,227.317 318.550,223.200 319.259 C 208.799 321.738,201.350 322.058,187.200 320.808 C 177.809 319.978,161.372 316.027,156.600 313.452 C 155.940 313.096,155.157 312.804,154.860 312.802 C 154.564 312.801,153.664 312.506,152.860 312.147 C 149.752 310.756,143.771 307.937,143.200 307.593 C 142.257 307.026,137.546 304.342,136.000 303.491 C 135.230 303.067,133.970 302.243,133.201 301.660 C 132.431 301.077,130.811 299.935,129.601 299.122 C 123.089 294.749,112.797 285.287,107.062 278.400 C 106.054 277.190,104.696 275.563,104.044 274.784 C 102.247 272.637,97.163 265.025,94.831 260.989 C 93.690 259.015,92.596 257.130,92.400 256.800 C 91.570 255.407,87.839 247.241,87.191 245.400 C 86.804 244.300,86.099 242.430,85.624 241.244 C 85.149 240.058,84.505 238.168,84.192 237.044 C 81.759 228.306,81.198 226.079,80.453 222.195 C 78.112 209.995,77.975 189.185,80.171 179.400 C 80.468 178.080,80.828 176.100,80.973 175.000 C 81.243 172.941,81.421 172.266,83.776 164.342 C 88.585 148.161,97.953 131.532,109.202 119.206 C 110.851 117.400,112.261 115.757,112.335 115.556 C 112.770 114.377,128.223 101.366,130.802 100.007 C 131.351 99.718,132.278 99.084,132.862 98.599 C 133.445 98.113,135.875 96.602,138.262 95.241 C 140.648 93.879,142.870 92.603,143.200 92.404 C 144.710 91.494,153.277 87.598,154.279 87.365 C 154.896 87.222,155.760 86.887,156.200 86.620 C 158.045 85.503,168.313 82.350,173.400 81.338 C 174.940 81.032,177.550 80.514,179.200 80.188 C 180.850 79.862,184.540 79.400,187.400 79.161 C 190.260 78.923,192.690 78.638,192.800 78.529 C 193.116 78.216,207.683 78.672,213.173 79.168 M175.981 147.300 C 162.302 160.995,150.821 172.650,150.469 173.200 C 150.117 173.750,149.260 174.920,148.566 175.800 C 146.669 178.203,142.028 186.509,141.011 189.323 C 140.518 190.686,139.654 193.060,139.090 194.600 C 136.915 200.538,136.222 205.396,136.211 214.800 C 136.199 224.117,136.470 225.955,139.321 235.886 C 140.271 239.195,145.469 249.290,147.759 252.276 C 148.908 253.774,150.026 255.317,150.243 255.705 C 152.155 259.122,163.065 268.460,169.000 271.759 C 169.660 272.126,171.010 272.887,172.000 273.450 C 185.190 280.959,208.471 282.456,223.225 276.744 C 224.421 276.281,226.245 275.595,227.278 275.220 C 234.619 272.554,249.175 261.598,252.687 256.095 C 253.071 255.493,254.221 253.920,255.243 252.600 C 256.264 251.280,257.653 249.100,258.328 247.754 C 259.004 246.409,260.073 244.429,260.705 243.354 C 267.848 231.194,269.297 207.888,263.812 193.400 C 263.229 191.860,262.583 190.047,262.377 189.372 C 261.988 188.097,258.437 181.336,256.761 178.677 C 253.531 173.555,203.405 122.400,201.616 122.400 C 201.141 122.400,191.482 131.782,175.981 147.300 " stroke="none" fill="#f6fafb" fill-rule="evenodd"></path><path id="path1" d="M0.000 200.000 L 0.000 400.000 200.000 400.000 L 400.000 400.000 400.000 200.000 L 400.000 0.000 200.000 0.000 L 0.000 0.000 0.000 200.000 M211.818 49.610 C 217.324 49.879,221.298 50.279,223.400 50.776 C 225.160 51.192,227.770 51.750,229.200 52.017 C 237.266 53.523,241.372 54.514,242.122 55.134 C 242.385 55.352,243.697 55.728,245.038 55.971 C 246.379 56.214,248.179 56.752,249.038 57.166 C 249.897 57.581,251.590 58.222,252.800 58.591 C 254.010 58.960,256.461 59.968,258.246 60.831 C 260.031 61.694,261.764 62.400,262.097 62.400 C 262.430 62.400,262.926 62.670,263.200 63.000 C 263.474 63.330,263.901 63.599,264.149 63.598 C 265.068 63.594,278.343 70.511,279.574 71.635 C 280.275 72.276,280.956 72.800,281.087 72.800 C 281.218 72.800,281.914 73.250,282.636 73.800 C 283.357 74.350,284.041 74.800,284.156 74.800 C 284.421 74.800,287.313 76.756,287.591 77.124 C 287.893 77.523,290.325 79.200,290.601 79.200 C 290.857 79.200,295.676 83.134,296.000 83.606 C 296.110 83.767,296.833 84.326,297.606 84.849 C 300.155 86.574,314.795 101.151,314.802 101.972 C 314.803 102.097,315.298 102.742,315.902 103.404 C 317.950 105.649,320.800 109.126,320.800 109.380 C 320.800 109.670,322.463 112.096,322.876 112.409 C 323.350 112.767,325.200 115.617,325.200 115.989 C 325.200 116.184,325.434 116.581,325.720 116.871 C 326.956 118.127,329.992 122.890,331.793 126.400 C 335.031 132.707,336.056 134.852,338.865 141.200 C 339.303 142.190,339.897 143.450,340.185 144.000 C 340.472 144.550,340.843 145.630,341.008 146.400 C 341.172 147.170,341.629 148.520,342.022 149.400 C 343.584 152.894,343.929 153.870,344.209 155.591 C 344.370 156.576,344.735 157.746,345.021 158.191 C 345.307 158.636,345.658 159.720,345.801 160.600 C 345.944 161.480,346.232 162.655,346.442 163.210 C 346.651 163.766,347.073 165.746,347.379 167.610 C 348.227 172.784,349.179 177.667,349.600 179.000 C 350.866 183.013,350.859 217.337,349.591 221.089 C 349.210 222.217,348.312 226.874,347.564 231.600 C 347.338 233.030,346.906 235.010,346.605 236.000 C 346.303 236.990,345.934 238.520,345.783 239.400 C 345.633 240.280,345.265 241.392,344.964 241.872 C 344.664 242.351,344.302 243.521,344.160 244.472 C 344.017 245.422,343.680 246.740,343.409 247.400 C 343.139 248.060,342.543 249.500,342.085 250.600 C 341.628 251.700,341.142 253.118,341.006 253.750 C 340.871 254.383,340.030 256.453,339.139 258.350 C 338.247 260.248,336.802 263.330,335.927 265.200 C 335.052 267.070,334.179 268.870,333.987 269.200 C 333.796 269.530,332.788 271.510,331.747 273.600 C 330.707 275.690,329.168 278.271,328.328 279.336 C 327.487 280.401,326.800 281.423,326.800 281.607 C 326.800 281.792,326.566 282.181,326.281 282.471 C 325.995 282.762,325.172 284.035,324.451 285.300 C 323.731 286.565,322.969 287.600,322.758 287.600 C 322.547 287.600,322.256 287.915,322.111 288.300 C 321.768 289.208,318.081 294.122,316.124 296.281 C 315.286 297.205,313.976 298.735,313.212 299.681 C 311.454 301.860,301.896 311.596,301.513 311.598 C 301.356 311.599,300.622 312.205,299.882 312.944 C 297.854 314.972,289.526 321.615,288.500 322.023 C 288.005 322.219,287.600 322.556,287.600 322.771 C 287.600 322.985,286.447 323.806,285.038 324.594 C 283.629 325.382,282.257 326.290,281.989 326.613 C 281.721 326.936,281.329 327.200,281.118 327.200 C 280.907 327.200,279.984 327.804,279.067 328.541 C 278.150 329.279,276.140 330.497,274.600 331.249 C 273.060 332.001,271.080 333.007,270.200 333.485 C 269.320 333.963,266.890 335.154,264.800 336.131 C 262.710 337.109,259.631 338.549,257.958 339.332 C 256.285 340.115,254.395 340.879,253.758 341.029 C 252.700 341.279,250.530 342.088,247.400 343.398 C 246.740 343.675,245.412 344.019,244.449 344.163 C 243.486 344.308,242.321 344.690,241.860 345.013 C 241.399 345.336,240.567 345.608,240.011 345.618 C 239.455 345.627,238.280 345.897,237.400 346.218 C 236.520 346.538,234.540 346.991,233.000 347.225 C 231.460 347.459,229.660 347.799,229.000 347.981 C 228.340 348.163,226.450 348.541,224.800 348.820 C 223.150 349.099,221.514 349.469,221.164 349.643 C 218.695 350.871,181.532 350.818,178.678 349.583 C 177.768 349.189,173.740 348.410,167.217 347.365 C 165.136 347.032,163.246 346.609,163.017 346.425 C 162.788 346.241,161.790 345.963,160.800 345.807 C 159.810 345.651,158.625 345.286,158.167 344.996 C 157.708 344.706,156.448 344.341,155.367 344.184 C 154.285 344.028,152.950 343.669,152.400 343.386 C 150.758 342.543,147.288 341.200,146.752 341.200 C 146.279 341.200,144.616 340.508,141.000 338.807 C 140.120 338.393,137.960 337.401,136.200 336.602 C 132.779 335.049,132.255 334.790,126.400 331.759 C 122.076 329.520,120.340 328.442,119.880 327.710 C 119.704 327.429,119.361 327.200,119.118 327.200 C 118.875 327.200,118.119 326.791,117.438 326.292 C 116.757 325.792,115.690 325.124,115.066 324.806 C 114.442 324.488,113.532 323.862,113.044 323.414 C 112.556 322.966,111.357 322.066,110.378 321.412 C 106.024 318.504,96.475 310.134,91.400 304.777 C 89.860 303.152,87.835 301.022,86.900 300.045 C 85.965 299.068,85.200 298.161,85.200 298.030 C 85.200 297.899,84.705 297.261,84.100 296.613 C 83.495 295.965,82.156 294.346,81.124 293.017 C 80.091 291.688,78.984 290.303,78.663 289.939 C 78.342 289.576,77.959 288.901,77.813 288.439 C 77.666 287.978,77.383 287.600,77.183 287.600 C 76.984 287.600,76.540 287.105,76.198 286.500 C 74.515 283.526,71.176 278.704,70.506 278.280 C 70.228 278.104,69.999 277.744,69.998 277.480 C 69.996 277.216,69.705 276.460,69.351 275.800 C 66.555 270.587,63.600 264.631,63.600 264.209 C 63.600 263.928,63.330 263.474,63.000 263.200 C 62.670 262.926,62.400 262.427,62.400 262.091 C 62.400 261.568,61.284 258.952,59.904 256.238 C 59.690 255.819,59.157 254.379,58.717 253.038 C 58.278 251.697,57.587 249.912,57.182 249.071 C 56.776 248.230,56.235 246.520,55.979 245.271 C 55.723 244.022,55.352 242.801,55.155 242.557 C 54.958 242.314,54.636 241.324,54.439 240.357 C 54.241 239.391,53.786 237.340,53.426 235.800 C 52.797 233.104,52.171 230.099,51.177 225.000 C 50.919 223.680,50.565 222.327,50.390 221.992 C 48.845 219.049,49.165 182.887,50.793 176.400 C 51.207 174.750,51.836 171.870,52.190 170.000 C 53.067 165.369,54.636 158.942,55.365 157.000 C 55.695 156.120,55.973 154.983,55.982 154.474 C 55.992 153.965,56.443 152.580,56.985 151.395 C 57.527 150.211,58.264 148.287,58.623 147.121 C 59.402 144.591,59.484 144.375,59.973 143.600 C 60.531 142.714,62.400 138.501,62.400 138.128 C 62.400 137.815,64.818 132.593,65.700 131.000 C 65.944 130.560,66.751 128.989,67.495 127.509 C 68.238 126.030,69.002 124.723,69.192 124.605 C 69.383 124.487,69.656 123.854,69.800 123.198 C 69.945 122.542,70.283 121.869,70.553 121.702 C 70.956 121.454,73.453 117.837,75.715 114.225 C 75.982 113.799,76.605 113.059,77.100 112.579 C 77.595 112.100,78.000 111.414,78.000 111.054 C 78.000 110.694,78.186 110.400,78.413 110.400 C 78.639 110.400,78.944 110.085,79.089 109.700 C 79.347 109.015,82.135 105.514,84.173 103.316 C 84.738 102.707,85.200 102.082,85.200 101.928 C 85.200 101.628,86.080 100.690,93.054 93.556 C 98.966 87.508,109.933 78.000,110.996 78.000 C 111.155 78.000,111.780 77.595,112.387 77.100 C 113.682 76.042,114.672 75.355,115.865 74.685 C 116.340 74.418,117.510 73.646,118.465 72.968 C 122.285 70.257,123.283 69.642,126.477 68.031 C 128.305 67.109,130.070 66.194,130.400 65.997 C 131.601 65.281,137.839 62.400,138.214 62.387 C 138.426 62.381,139.500 61.932,140.600 61.391 C 141.700 60.850,142.825 60.406,143.100 60.404 C 143.375 60.402,143.600 60.227,143.600 60.015 C 143.600 59.804,144.365 59.435,145.300 59.196 C 146.235 58.956,148.372 58.219,150.048 57.556 C 151.724 56.894,154.064 56.105,155.248 55.802 C 156.432 55.500,158.660 54.865,160.200 54.391 C 162.871 53.569,164.992 53.095,170.800 52.022 C 172.230 51.758,174.750 51.194,176.400 50.769 C 181.532 49.446,197.672 48.918,211.818 49.610 M192.807 80.044 C 190.281 80.225,187.311 80.568,186.207 80.805 C 185.103 81.043,182.324 81.415,180.030 81.633 C 177.737 81.851,175.037 82.271,174.030 82.566 C 171.531 83.298,169.019 83.962,166.400 84.582 C 163.631 85.238,159.766 86.551,158.200 87.369 C 157.540 87.713,156.780 87.996,156.511 87.998 C 156.242 87.999,155.162 88.387,154.111 88.861 C 149.497 90.939,145.354 92.886,144.800 93.236 C 144.470 93.445,143.627 93.880,142.927 94.202 C 142.227 94.524,141.554 94.951,141.431 95.150 C 141.308 95.350,140.260 96.002,139.103 96.601 C 137.947 97.200,136.716 97.939,136.369 98.245 C 136.021 98.550,135.609 98.800,135.452 98.800 C 135.062 98.800,133.143 100.169,129.704 102.900 C 128.111 104.165,126.634 105.200,126.422 105.200 C 126.210 105.200,125.614 105.605,125.098 106.100 C 124.582 106.595,123.089 107.922,121.780 109.049 C 120.471 110.176,118.680 111.846,117.800 112.760 C 116.115 114.509,115.331 115.291,112.895 117.645 C 110.131 120.316,105.200 126.059,105.200 126.607 C 105.200 126.770,104.615 127.573,103.900 128.391 C 101.381 131.276,98.800 134.795,98.800 135.346 C 98.800 135.561,98.555 136.021,98.256 136.369 C 97.957 136.716,97.166 137.990,96.500 139.200 C 95.833 140.410,94.452 142.840,93.431 144.600 C 92.411 146.360,91.464 148.250,91.327 148.800 C 91.190 149.350,90.745 150.229,90.339 150.754 C 89.933 151.279,89.600 151.940,89.600 152.224 C 89.600 152.724,87.454 158.315,86.778 159.575 C 86.258 160.545,84.800 165.133,84.800 165.800 C 84.800 166.128,84.453 167.433,84.029 168.698 C 83.605 169.964,83.134 171.810,82.982 172.800 C 82.831 173.790,82.565 174.871,82.392 175.202 C 82.219 175.533,81.872 177.873,81.622 180.402 C 81.372 182.931,81.006 185.630,80.810 186.400 C 79.487 191.585,79.500 207.735,80.832 213.988 C 81.044 214.985,81.472 217.780,81.783 220.200 C 82.375 224.808,83.380 229.641,83.979 230.762 C 84.174 231.124,84.534 232.533,84.780 233.892 C 85.027 235.252,85.491 236.867,85.812 237.482 C 86.133 238.097,86.396 238.820,86.398 239.089 C 86.399 239.358,86.751 240.348,87.180 241.289 C 87.609 242.230,88.440 244.260,89.025 245.800 C 89.611 247.340,90.318 249.050,90.596 249.600 C 91.569 251.528,92.800 254.290,92.800 254.548 C 92.800 254.691,93.393 255.661,94.118 256.704 C 94.843 257.747,95.943 259.590,96.563 260.800 C 97.183 262.010,97.939 263.284,98.245 263.631 C 98.550 263.979,98.800 264.388,98.800 264.540 C 98.800 264.843,100.842 268.077,101.237 268.400 C 101.690 268.770,105.002 272.989,105.721 274.112 C 107.452 276.813,116.751 286.602,121.010 290.208 C 123.495 292.311,124.596 293.266,125.634 294.219 C 125.982 294.538,126.486 294.800,126.753 294.800 C 127.020 294.800,127.635 295.211,128.119 295.714 C 129.500 297.148,134.886 301.200,135.410 301.200 C 135.506 301.200,136.569 301.830,137.773 302.600 C 138.977 303.370,140.116 304.000,140.305 304.000 C 140.494 304.000,141.038 304.363,141.514 304.806 C 141.990 305.249,142.789 305.789,143.290 306.005 C 143.790 306.221,144.470 306.562,144.800 306.763 C 146.183 307.604,152.418 310.380,155.200 311.394 C 156.850 311.995,158.920 312.799,159.800 313.181 C 160.680 313.562,162.390 314.168,163.600 314.527 C 168.736 316.048,171.563 316.800,172.148 316.800 C 172.491 316.800,173.543 317.057,174.486 317.370 C 175.429 317.684,178.630 318.240,181.600 318.606 C 184.570 318.972,187.990 319.420,189.200 319.602 C 192.264 320.062,208.570 320.035,211.000 319.566 C 212.100 319.353,215.512 318.906,218.581 318.571 C 221.651 318.237,224.351 317.812,224.581 317.627 C 224.812 317.442,225.810 317.164,226.800 317.009 C 229.829 316.536,240.667 313.339,240.985 312.825 C 241.098 312.641,241.795 312.377,242.534 312.239 C 243.273 312.100,244.616 311.630,245.519 311.193 C 246.422 310.757,247.312 310.400,247.496 310.400 C 247.681 310.400,248.994 309.795,250.416 309.056 C 251.837 308.317,253.415 307.581,253.922 307.422 C 254.429 307.263,256.180 306.248,257.813 305.166 C 259.445 304.085,261.028 303.200,261.329 303.200 C 261.630 303.200,262.198 302.845,262.591 302.410 C 262.984 301.976,263.683 301.501,264.145 301.354 C 265.174 301.027,266.542 300.082,270.296 297.100 C 271.889 295.835,273.372 294.800,273.593 294.800 C 273.813 294.800,274.218 294.440,274.493 294.000 C 274.768 293.560,275.155 293.200,275.353 293.200 C 275.883 293.200,279.611 289.938,282.277 287.140 C 283.555 285.799,284.944 284.409,285.364 284.051 C 285.783 283.693,286.600 282.950,287.177 282.400 C 288.617 281.029,294.553 274.068,294.800 273.461 C 294.910 273.190,295.990 271.713,297.200 270.177 C 299.890 266.764,301.200 264.922,301.200 264.554 C 301.200 264.401,301.609 263.719,302.108 263.038 C 302.608 262.357,303.281 261.260,303.604 260.600 C 303.928 259.940,304.754 258.500,305.441 257.400 C 306.815 255.198,309.771 249.090,310.650 246.635 C 310.958 245.774,311.368 244.874,311.559 244.635 C 311.751 244.396,312.029 243.633,312.177 242.939 C 312.325 242.246,312.796 240.992,313.223 240.154 C 313.650 239.316,314.000 238.419,314.000 238.161 C 314.000 237.903,314.269 237.176,314.598 236.546 C 314.926 235.916,315.196 235.024,315.198 234.564 C 315.199 234.104,315.484 232.844,315.830 231.764 C 316.177 230.684,316.705 228.720,317.003 227.400 C 317.301 226.080,317.733 224.190,317.962 223.200 C 318.192 222.210,318.564 219.510,318.790 217.200 C 319.016 214.890,319.398 212.010,319.639 210.800 C 320.219 207.889,320.216 192.898,319.635 189.600 C 319.384 188.170,318.930 184.657,318.627 181.793 C 318.325 178.929,317.812 175.689,317.487 174.593 C 316.676 171.850,316.061 169.462,315.377 166.400 C 315.058 164.970,314.639 163.440,314.446 163.000 C 314.253 162.560,313.600 160.850,312.993 159.200 C 312.387 157.550,311.555 155.437,311.145 154.504 C 310.735 153.572,310.400 152.610,310.400 152.366 C 310.400 152.123,310.073 151.446,309.673 150.862 C 309.273 150.278,308.460 148.656,307.866 147.257 C 307.271 145.858,306.195 143.788,305.474 142.657 C 304.752 141.526,303.739 139.790,303.222 138.800 C 302.704 137.810,302.083 136.730,301.841 136.400 C 301.434 135.847,300.992 135.097,299.838 133.008 C 299.597 132.572,299.193 132.032,298.941 131.808 C 298.179 131.131,294.800 126.831,294.800 126.539 C 294.800 126.390,294.533 125.982,294.206 125.634 C 293.879 125.285,292.075 123.214,290.196 121.031 C 288.317 118.848,286.380 116.784,285.890 116.445 C 285.401 116.106,284.646 115.384,284.213 114.841 C 283.144 113.498,281.395 111.796,278.569 109.345 C 274.847 106.117,273.705 105.200,273.411 105.200 C 273.260 105.200,271.845 104.165,270.266 102.900 C 266.700 100.043,264.941 98.800,264.465 98.800 C 264.263 98.800,263.888 98.547,263.632 98.239 C 263.376 97.930,262.187 97.198,260.991 96.613 C 259.794 96.028,258.700 95.362,258.559 95.134 C 258.418 94.905,257.739 94.464,257.051 94.153 C 256.363 93.842,255.530 93.416,255.200 93.206 C 254.138 92.529,247.875 89.716,245.400 88.805 C 244.080 88.319,242.010 87.505,240.800 86.997 C 237.720 85.704,235.299 84.940,233.200 84.599 C 232.210 84.439,231.086 84.142,230.701 83.940 C 230.317 83.738,228.967 83.383,227.701 83.150 C 226.436 82.917,225.219 82.577,224.997 82.395 C 224.775 82.212,222.435 81.865,219.797 81.623 C 217.159 81.381,214.460 81.015,213.800 80.811 C 212.477 80.402,201.857 79.567,199.125 79.657 C 198.176 79.689,195.333 79.863,192.807 80.044 M228.646 146.393 C 242.921 160.689,254.777 172.794,254.992 173.293 C 255.208 173.792,255.621 174.383,255.909 174.607 C 256.426 175.008,256.967 175.850,258.217 178.200 C 258.568 178.860,259.285 180.120,259.811 181.000 C 261.470 183.775,262.407 185.704,263.697 189.000 C 264.386 190.760,265.186 192.555,265.475 192.989 C 265.764 193.423,266.000 194.115,266.000 194.527 C 266.000 194.939,266.340 196.474,266.755 197.938 C 268.843 205.306,269.532 217.880,268.193 224.200 C 267.867 225.740,267.600 227.464,267.600 228.032 C 267.600 230.287,264.446 239.396,262.140 243.800 C 261.794 244.460,260.776 246.440,259.876 248.200 C 258.977 249.960,257.872 251.881,257.421 252.468 C 256.969 253.055,255.794 254.630,254.810 255.968 C 253.825 257.306,252.802 258.400,252.536 258.400 C 252.271 258.400,251.949 258.731,251.821 259.135 C 251.350 260.617,239.930 270.800,238.739 270.800 C 238.574 270.800,237.666 271.317,236.720 271.949 C 235.774 272.582,233.830 273.677,232.400 274.384 C 230.970 275.091,229.350 275.899,228.800 276.180 C 228.250 276.461,227.260 276.820,226.600 276.977 C 225.940 277.134,225.130 277.489,224.800 277.766 C 224.470 278.043,221.140 279.022,217.400 279.941 L 210.600 281.613 201.136 281.607 C 192.821 281.601,191.363 281.503,189.136 280.805 C 187.741 280.368,186.150 280.007,185.600 280.003 C 185.050 279.999,184.119 279.744,183.531 279.437 C 182.943 279.131,181.589 278.692,180.523 278.464 C 179.456 278.235,178.047 277.768,177.392 277.426 C 176.736 277.085,175.879 276.804,175.487 276.802 C 175.096 276.801,174.679 276.551,174.563 276.247 C 174.446 275.943,173.665 275.585,172.827 275.451 C 171.989 275.317,171.078 274.936,170.803 274.604 C 170.527 274.272,170.076 274.000,169.800 274.000 C 169.524 274.000,169.065 273.720,168.781 273.377 C 168.496 273.034,167.709 272.498,167.032 272.185 C 162.762 270.213,153.114 261.871,148.722 256.354 C 148.129 255.609,147.121 254.370,146.481 253.600 C 145.840 252.830,144.345 250.263,143.158 247.895 C 141.971 245.528,140.604 242.828,140.121 241.895 C 139.638 240.963,138.771 238.670,138.195 236.800 C 137.619 234.930,136.894 232.680,136.583 231.800 C 136.272 230.920,135.836 229.030,135.614 227.600 C 135.391 226.170,135.035 224.190,134.822 223.200 C 133.006 214.758,135.174 199.199,139.589 189.000 C 141.316 185.010,142.084 183.310,142.390 182.800 C 142.587 182.470,143.550 180.850,144.529 179.200 C 147.823 173.650,151.231 169.957,175.961 145.147 C 195.830 125.213,200.802 120.425,201.646 120.414 C 202.504 120.402,207.354 125.069,228.646 146.393 " stroke="none" fill="#3394eb" fill-rule="evenodd"></path><path id="path2" d="M186.400 49.658 C 181.783 49.881,178.379 50.259,176.400 50.769 C 174.750 51.194,172.230 51.758,170.800 52.022 C 164.992 53.095,162.871 53.569,160.200 54.391 C 158.660 54.865,156.432 55.500,155.248 55.802 C 154.064 56.105,151.724 56.894,150.048 57.556 C 148.372 58.219,146.235 58.956,145.300 59.196 C 144.365 59.435,143.600 59.804,143.600 60.015 C 143.600 60.227,143.375 60.402,143.100 60.404 C 142.825 60.406,141.700 60.850,140.600 61.391 C 139.500 61.932,138.426 62.381,138.214 62.387 C 137.839 62.400,131.601 65.281,130.400 65.997 C 130.070 66.194,128.305 67.109,126.477 68.031 C 123.283 69.642,122.285 70.257,118.465 72.968 C 117.510 73.646,116.340 74.418,115.865 74.685 C 114.672 75.355,113.682 76.042,112.387 77.100 C 111.780 77.595,111.155 78.000,110.996 78.000 C 109.933 78.000,98.966 87.508,93.054 93.556 C 86.080 100.690,85.200 101.628,85.200 101.928 C 85.200 102.082,84.738 102.707,84.173 103.316 C 82.135 105.514,79.347 109.015,79.089 109.700 C 78.944 110.085,78.639 110.400,78.413 110.400 C 78.186 110.400,78.000 110.694,78.000 111.054 C 78.000 111.414,77.595 112.100,77.100 112.579 C 76.605 113.059,75.982 113.799,75.715 114.225 C 73.453 117.837,70.956 121.454,70.553 121.702 C 70.283 121.869,69.945 122.542,69.800 123.198 C 69.656 123.854,69.383 124.487,69.192 124.605 C 69.002 124.723,68.238 126.030,67.495 127.509 C 66.751 128.989,65.944 130.560,65.700 131.000 C 64.818 132.593,62.400 137.815,62.400 138.128 C 62.400 138.501,60.531 142.714,59.973 143.600 C 59.484 144.375,59.402 144.591,58.623 147.121 C 58.264 148.287,57.527 150.211,56.985 151.395 C 56.443 152.580,55.992 153.965,55.982 154.474 C 55.973 154.983,55.695 156.120,55.365 157.000 C 54.636 158.942,53.067 165.369,52.190 170.000 C 51.836 171.870,51.207 174.750,50.793 176.400 C 49.165 182.887,48.845 219.049,50.390 221.992 C 50.565 222.327,50.919 223.680,51.177 225.000 C 52.171 230.099,52.797 233.104,53.426 235.800 C 53.786 237.340,54.241 239.391,54.439 240.357 C 54.636 241.324,54.958 242.314,55.155 242.557 C 55.352 242.801,55.723 244.022,55.979 245.271 C 56.235 246.520,56.776 248.230,57.182 249.071 C 57.587 249.912,58.278 251.697,58.717 253.038 C 59.157 254.379,59.690 255.819,59.904 256.238 C 61.284 258.952,62.400 261.568,62.400 262.091 C 62.400 262.427,62.670 262.926,63.000 263.200 C 63.330 263.474,63.600 263.928,63.600 264.209 C 63.600 264.631,66.555 270.587,69.351 275.800 C 69.705 276.460,69.996 277.216,69.998 277.480 C 69.999 277.744,70.228 278.104,70.506 278.280 C 71.176 278.704,74.515 283.526,76.198 286.500 C 76.540 287.105,76.984 287.600,77.183 287.600 C 77.383 287.600,77.666 287.978,77.813 288.439 C 77.959 288.901,78.342 289.576,78.663 289.939 C 78.984 290.303,80.091 291.688,81.124 293.017 C 82.156 294.346,83.495 295.965,84.100 296.613 C 84.705 297.261,85.200 297.899,85.200 298.030 C 85.200 298.161,85.965 299.068,86.900 300.045 C 87.835 301.022,89.860 303.152,91.400 304.777 C 96.475 310.134,106.024 318.504,110.378 321.412 C 111.357 322.066,112.556 322.966,113.044 323.414 C 113.532 323.862,114.442 324.488,115.066 324.806 C 115.690 325.124,116.757 325.792,117.438 326.292 C 118.119 326.791,118.875 327.200,119.118 327.200 C 119.361 327.200,119.704 327.429,119.880 327.710 C 120.340 328.442,122.076 329.520,126.400 331.759 C 132.255 334.790,132.779 335.049,136.200 336.602 C 137.960 337.401,140.120 338.393,141.000 338.807 C 144.616 340.508,146.279 341.200,146.752 341.200 C 147.288 341.200,150.758 342.543,152.400 343.386 C 152.950 343.669,154.285 344.028,155.367 344.184 C 156.448 344.341,157.708 344.706,158.167 344.996 C 158.625 345.286,159.810 345.651,160.800 345.807 C 161.790 345.963,162.788 346.241,163.017 346.425 C 163.246 346.609,165.136 347.032,167.217 347.365 C 173.740 348.410,177.768 349.189,178.678 349.583 C 181.532 350.818,218.695 350.871,221.164 349.643 C 221.514 349.469,223.150 349.099,224.800 348.820 C 226.450 348.541,228.340 348.163,229.000 347.981 C 229.660 347.799,231.460 347.459,233.000 347.225 C 234.540 346.991,236.520 346.538,237.400 346.218 C 238.280 345.897,239.455 345.627,240.011 345.618 C 240.567 345.608,241.399 345.336,241.860 345.013 C 242.321 344.690,243.486 344.308,244.449 344.163 C 245.412 344.019,246.740 343.675,247.400 343.398 C 250.530 342.088,252.700 341.279,253.758 341.029 C 254.395 340.879,256.285 340.115,257.958 339.332 C 259.631 338.549,262.710 337.109,264.800 336.131 C 266.890 335.154,269.320 333.963,270.200 333.485 C 271.080 333.007,273.060 332.001,274.600 331.249 C 276.140 330.497,278.150 329.279,279.067 328.541 C 279.984 327.804,280.907 327.200,281.118 327.200 C 281.329 327.200,281.721 326.936,281.989 326.613 C 282.257 326.290,283.629 325.382,285.038 324.594 C 286.447 323.806,287.600 322.985,287.600 322.771 C 287.600 322.556,288.005 322.219,288.500 322.023 C 289.526 321.615,297.854 314.972,299.882 312.944 C 300.622 312.205,301.356 311.599,301.513 311.598 C 301.896 311.596,311.454 301.860,313.212 299.681 C 313.976 298.735,315.286 297.205,316.124 296.281 C 318.081 294.122,321.768 289.208,322.111 288.300 C 322.256 287.915,322.547 287.600,322.758 287.600 C 322.969 287.600,323.731 286.565,324.451 285.300 C 325.172 284.035,325.995 282.762,326.281 282.471 C 326.566 282.181,326.800 281.792,326.800 281.607 C 326.800 281.423,327.487 280.401,328.328 279.336 C 329.168 278.271,330.707 275.690,331.747 273.600 C 332.788 271.510,333.796 269.530,333.987 269.200 C 334.179 268.870,335.052 267.070,335.927 265.200 C 336.802 263.330,338.247 260.248,339.139 258.350 C 340.030 256.453,340.871 254.383,341.006 253.750 C 341.142 253.118,341.628 251.700,342.085 250.600 C 342.543 249.500,343.139 248.060,343.409 247.400 C 343.680 246.740,344.017 245.422,344.160 244.472 C 344.302 243.521,344.664 242.351,344.964 241.872 C 345.265 241.392,345.633 240.280,345.783 239.400 C 345.934 238.520,346.303 236.990,346.605 236.000 C 346.906 235.010,347.338 233.030,347.564 231.600 C 348.312 226.874,349.210 222.217,349.591 221.089 C 350.859 217.337,350.866 183.013,349.600 179.000 C 349.179 177.667,348.227 172.784,347.379 167.610 C 347.073 165.746,346.651 163.766,346.442 163.210 C 346.232 162.655,345.944 161.480,345.801 160.600 C 345.658 159.720,345.307 158.636,345.021 158.191 C 344.735 157.746,344.370 156.576,344.209 155.591 C 343.929 153.870,343.584 152.894,342.022 149.400 C 341.629 148.520,341.172 147.170,341.008 146.400 C 340.843 145.630,340.472 144.550,340.185 144.000 C 339.897 143.450,339.303 142.190,338.865 141.200 C 336.056 134.852,335.031 132.707,331.793 126.400 C 329.992 122.890,326.956 118.127,325.720 116.871 C 325.434 116.581,325.200 116.184,325.200 115.989 C 325.200 115.617,323.350 112.767,322.876 112.409 C 322.463 112.096,320.800 109.670,320.800 109.380 C 320.800 109.126,317.950 105.649,315.902 103.404 C 315.298 102.742,314.803 102.097,314.802 101.972 C 314.795 101.151,300.155 86.574,297.606 84.849 C 296.833 84.326,296.110 83.767,296.000 83.606 C 295.676 83.134,290.857 79.200,290.601 79.200 C 290.325 79.200,287.893 77.523,287.591 77.124 C 287.313 76.756,284.421 74.800,284.156 74.800 C 284.041 74.800,283.357 74.350,282.636 73.800 C 281.914 73.250,281.218 72.800,281.087 72.800 C 280.956 72.800,280.275 72.276,279.574 71.635 C 278.343 70.511,265.068 63.594,264.149 63.598 C 263.901 63.599,263.474 63.330,263.200 63.000 C 262.926 62.670,262.430 62.400,262.097 62.400 C 261.764 62.400,260.031 61.694,258.246 60.831 C 256.461 59.968,254.010 58.960,252.800 58.591 C 251.590 58.222,249.897 57.581,249.038 57.166 C 248.179 56.752,246.379 56.214,245.038 55.971 C 243.697 55.728,242.385 55.352,242.122 55.134 C 241.372 54.514,237.266 53.523,229.200 52.017 C 227.770 51.750,225.160 51.192,223.400 50.776 C 217.646 49.416,201.498 48.928,186.400 49.658 M217.986 51.547 C 221.388 52.013,224.718 52.561,225.386 52.765 C 226.054 52.969,227.500 53.252,228.600 53.394 C 231.008 53.706,236.432 54.956,240.000 56.021 C 249.105 58.739,253.607 60.286,257.400 61.997 C 265.162 65.499,266.517 66.165,273.200 69.770 C 275.950 71.254,278.560 72.770,279.000 73.139 C 279.440 73.508,280.430 74.149,281.200 74.563 C 281.970 74.977,282.960 75.629,283.400 76.011 C 283.840 76.394,285.536 77.623,287.170 78.742 C 290.395 80.952,291.707 81.972,295.148 84.946 C 296.387 86.016,297.803 87.161,298.296 87.489 C 299.696 88.423,311.718 100.703,314.067 103.600 C 315.227 105.030,316.322 106.380,316.501 106.600 C 316.679 106.820,317.379 107.630,318.057 108.400 C 318.735 109.170,320.131 111.061,321.161 112.603 C 322.190 114.145,323.404 115.945,323.857 116.603 C 330.220 125.840,335.707 136.509,340.311 148.600 C 342.803 155.143,346.127 167.200,346.651 171.600 C 346.796 172.810,347.066 174.211,347.252 174.713 C 349.946 181.986,349.946 218.014,347.252 225.287 C 347.066 225.789,346.797 227.190,346.654 228.400 C 346.283 231.548,345.349 235.294,343.114 242.600 C 340.402 251.464,340.050 252.452,337.959 257.078 C 337.541 258.001,337.200 258.845,337.200 258.954 C 337.200 259.184,334.160 265.856,333.576 266.909 C 333.359 267.298,332.285 269.312,331.188 271.384 C 330.091 273.456,328.324 276.467,327.261 278.075 C 326.198 279.684,325.092 281.450,324.803 282.000 C 324.515 282.550,323.530 283.990,322.616 285.200 C 321.701 286.410,319.917 288.786,318.650 290.479 C 316.625 293.186,315.249 294.854,310.962 299.800 C 309.379 301.626,300.954 310.066,299.582 311.200 C 298.917 311.750,297.524 312.922,296.486 313.805 C 291.258 318.252,284.189 323.538,281.000 325.385 C 279.900 326.022,278.190 327.107,277.200 327.796 C 273.739 330.206,260.118 337.022,254.870 338.970 C 254.062 339.270,252.410 339.907,251.200 340.384 C 249.990 340.861,248.190 341.497,247.200 341.796 C 246.210 342.095,244.140 342.719,242.600 343.184 C 238.241 344.498,230.808 346.313,228.600 346.603 C 227.500 346.747,226.048 347.033,225.372 347.239 C 220.225 348.811,198.228 350.076,190.400 349.252 C 181.167 348.279,175.996 347.645,175.675 347.446 C 175.489 347.331,174.091 347.046,172.568 346.811 C 169.089 346.276,163.447 345.004,159.800 343.932 C 153.410 342.053,148.125 340.303,146.200 339.428 C 145.540 339.128,142.390 337.742,139.200 336.348 C 133.883 334.024,124.319 329.062,121.688 327.262 C 121.090 326.853,119.340 325.674,117.800 324.642 C 111.467 320.399,109.586 319.022,106.200 316.148 C 105.540 315.588,104.100 314.419,103.000 313.551 C 100.689 311.726,88.189 299.373,87.000 297.738 C 86.560 297.133,85.406 295.736,84.435 294.632 C 82.506 292.440,78.052 286.451,76.230 283.600 C 75.597 282.610,74.229 280.540,73.188 279.000 C 72.148 277.460,70.351 274.400,69.195 272.200 C 68.038 270.000,66.964 268.020,66.808 267.800 C 66.142 266.863,61.781 257.040,60.415 253.400 C 59.920 252.080,59.287 250.460,59.008 249.800 C 58.730 249.140,58.096 247.160,57.599 245.400 C 57.103 243.640,56.294 240.850,55.801 239.200 C 54.623 235.252,53.699 231.243,53.182 227.832 C 52.952 226.309,52.694 224.951,52.609 224.815 C 52.524 224.678,52.039 221.603,51.530 217.983 C 48.821 198.705,51.094 175.139,57.643 154.600 C 58.064 153.280,58.406 151.817,58.404 151.349 C 58.402 150.881,58.670 150.274,59.000 150.000 C 59.330 149.726,59.600 149.249,59.600 148.939 C 59.600 148.428,60.807 145.285,62.187 142.200 C 62.482 141.540,63.176 139.920,63.729 138.600 C 64.639 136.427,66.033 133.640,69.729 126.600 C 70.423 125.280,71.918 122.825,73.054 121.145 C 74.189 119.465,75.238 117.710,75.386 117.245 C 75.533 116.780,75.807 116.400,75.994 116.400 C 76.182 116.400,76.743 115.725,77.243 114.900 C 78.104 113.478,81.147 109.294,82.262 108.000 C 84.484 105.420,86.325 103.189,87.000 102.259 C 88.070 100.783,100.488 88.299,101.669 87.513 C 102.181 87.171,103.680 85.967,105.000 84.836 C 108.440 81.890,108.338 81.973,110.984 79.992 C 112.313 78.997,114.062 77.775,114.872 77.276 C 115.681 76.778,116.401 76.231,116.472 76.061 C 116.542 75.892,117.590 75.170,118.800 74.458 C 120.010 73.746,122.170 72.422,123.600 71.515 C 126.342 69.777,139.880 62.800,140.510 62.800 C 140.884 62.800,141.595 62.503,145.675 60.639 C 146.927 60.068,148.197 59.600,148.499 59.600 C 148.800 59.600,149.396 59.336,149.824 59.013 C 150.251 58.690,150.960 58.422,151.400 58.417 C 151.840 58.412,153.280 58.056,154.600 57.625 C 160.430 55.722,167.069 54.013,171.000 53.403 C 171.880 53.266,173.770 52.900,175.200 52.588 C 176.630 52.277,180.320 51.749,183.400 51.414 C 186.480 51.080,189.540 50.733,190.200 50.642 C 193.805 50.148,212.126 50.744,217.986 51.547 M192.800 78.529 C 192.690 78.638,190.260 78.923,187.400 79.161 C 184.540 79.400,180.850 79.862,179.200 80.188 C 177.550 80.514,174.940 81.032,173.400 81.338 C 168.313 82.350,158.045 85.503,156.200 86.620 C 155.760 86.887,154.896 87.222,154.279 87.365 C 153.277 87.598,144.710 91.494,143.200 92.404 C 142.870 92.603,140.648 93.879,138.262 95.241 C 135.875 96.602,133.445 98.113,132.862 98.599 C 132.278 99.084,131.351 99.718,130.802 100.007 C 128.223 101.366,112.770 114.377,112.335 115.556 C 112.261 115.757,110.851 117.400,109.202 119.206 C 97.953 131.532,88.585 148.161,83.776 164.342 C 81.421 172.266,81.243 172.941,80.973 175.000 C 80.828 176.100,80.468 178.080,80.171 179.400 C 77.975 189.185,78.112 209.995,80.453 222.195 C 81.198 226.079,81.759 228.306,84.192 237.044 C 84.505 238.168,85.149 240.058,85.624 241.244 C 86.099 242.430,86.804 244.300,87.191 245.400 C 87.839 247.241,91.570 255.407,92.400 256.800 C 92.596 257.130,93.690 259.015,94.831 260.989 C 97.163 265.025,102.247 272.637,104.044 274.784 C 104.696 275.563,106.054 277.190,107.062 278.400 C 112.797 285.287,123.089 294.749,129.601 299.122 C 130.811 299.935,132.431 301.077,133.201 301.660 C 133.970 302.243,135.230 303.067,136.000 303.491 C 137.546 304.342,142.257 307.026,143.200 307.593 C 143.771 307.937,149.752 310.756,152.860 312.147 C 153.664 312.506,154.564 312.801,154.860 312.802 C 155.157 312.804,155.940 313.096,156.600 313.452 C 159.572 315.056,171.005 318.253,179.200 319.771 C 189.820 321.739,205.877 322.006,216.400 320.389 C 226.743 318.799,232.489 317.422,240.200 314.685 C 244.898 313.017,246.565 312.395,247.400 311.997 C 247.840 311.788,248.650 311.433,249.200 311.209 C 249.750 310.985,250.470 310.632,250.800 310.425 C 251.130 310.218,252.480 309.564,253.800 308.970 C 256.646 307.692,266.256 302.234,267.400 301.247 C 267.840 300.867,269.010 300.041,270.000 299.411 C 278.457 294.030,294.026 278.472,299.457 269.975 C 300.086 268.991,301.077 267.560,301.660 266.793 C 302.243 266.027,303.067 264.770,303.491 264.000 C 304.445 262.268,307.103 257.612,307.601 256.800 C 307.804 256.470,308.437 255.120,309.009 253.800 C 309.581 252.480,310.218 251.130,310.425 250.800 C 310.632 250.470,310.985 249.750,311.209 249.200 C 311.433 248.650,311.788 247.840,311.997 247.400 C 312.207 246.960,312.639 245.880,312.957 245.000 C 313.276 244.120,314.014 242.140,314.597 240.600 C 315.180 239.060,315.897 236.900,316.189 235.800 C 316.482 234.700,317.096 232.540,317.555 231.000 C 322.582 214.131,322.740 190.255,317.953 171.000 C 316.219 164.023,315.968 163.087,315.598 162.200 C 315.414 161.760,314.990 160.590,314.655 159.600 C 313.282 155.542,311.925 152.229,310.016 148.271 C 308.907 145.972,308.000 143.913,308.000 143.695 C 308.000 143.477,307.774 143.111,307.499 142.882 C 307.223 142.653,306.401 141.326,305.672 139.933 C 303.661 136.091,298.511 128.300,295.934 125.200 C 295.294 124.430,293.943 122.810,292.933 121.600 C 286.776 114.229,277.095 105.433,268.800 99.675 C 262.865 95.555,251.589 89.526,245.800 87.377 C 244.480 86.887,241.960 85.943,240.200 85.278 C 236.219 83.774,227.668 81.362,225.000 80.989 C 223.900 80.836,221.908 80.464,220.573 80.163 C 216.067 79.148,193.514 77.821,192.800 78.529 M206.725 80.020 C 209.956 80.251,213.140 80.607,213.800 80.811 C 214.460 81.015,217.159 81.381,219.797 81.623 C 222.435 81.865,224.775 82.212,224.997 82.395 C 225.219 82.577,226.436 82.917,227.701 83.150 C 228.967 83.383,230.317 83.738,230.701 83.940 C 231.086 84.142,232.210 84.439,233.200 84.599 C 235.299 84.940,237.720 85.704,240.800 86.997 C 242.010 87.505,244.080 88.319,245.400 88.805 C 247.875 89.716,254.138 92.529,255.200 93.206 C 255.530 93.416,256.363 93.842,257.051 94.153 C 257.739 94.464,258.418 94.905,258.559 95.134 C 258.700 95.362,259.794 96.028,260.991 96.613 C 262.187 97.198,263.376 97.930,263.632 98.239 C 263.888 98.547,264.263 98.800,264.465 98.800 C 264.941 98.800,266.700 100.043,270.266 102.900 C 271.845 104.165,273.260 105.200,273.411 105.200 C 274.128 105.200,282.449 112.627,284.213 114.841 C 284.646 115.384,285.401 116.106,285.890 116.445 C 286.380 116.784,288.317 118.848,290.196 121.031 C 292.075 123.214,293.879 125.285,294.206 125.634 C 294.533 125.982,294.800 126.390,294.800 126.539 C 294.800 126.831,298.179 131.131,298.941 131.808 C 299.193 132.032,299.597 132.572,299.838 133.008 C 300.992 135.097,301.434 135.847,301.841 136.400 C 302.083 136.730,302.704 137.810,303.222 138.800 C 303.739 139.790,304.752 141.526,305.474 142.657 C 306.195 143.788,307.271 145.858,307.866 147.257 C 308.460 148.656,309.273 150.278,309.673 150.862 C 310.073 151.446,310.400 152.123,310.400 152.366 C 310.400 152.610,310.735 153.572,311.145 154.504 C 311.555 155.437,312.387 157.550,312.993 159.200 C 313.600 160.850,314.253 162.560,314.446 163.000 C 314.639 163.440,315.058 164.970,315.377 166.400 C 316.061 169.462,316.676 171.850,317.487 174.593 C 317.812 175.689,318.325 178.929,318.627 181.793 C 318.930 184.657,319.384 188.170,319.635 189.600 C 320.216 192.898,320.219 207.889,319.639 210.800 C 319.398 212.010,319.016 214.890,318.790 217.200 C 318.564 219.510,318.192 222.210,317.962 223.200 C 317.733 224.190,317.301 226.080,317.003 227.400 C 316.705 228.720,316.177 230.684,315.830 231.764 C 315.484 232.844,315.199 234.104,315.198 234.564 C 315.196 235.024,314.926 235.916,314.598 236.546 C 314.269 237.176,314.000 237.903,314.000 238.161 C 314.000 238.419,313.650 239.316,313.223 240.154 C 312.796 240.992,312.325 242.246,312.177 242.939 C 312.029 243.633,311.751 244.396,311.559 244.635 C 311.368 244.874,310.958 245.774,310.650 246.635 C 309.771 249.090,306.815 255.198,305.441 257.400 C 304.754 258.500,303.928 259.940,303.604 260.600 C 303.281 261.260,302.608 262.357,302.108 263.038 C 301.609 263.719,301.200 264.401,301.200 264.554 C 301.200 264.922,299.890 266.764,297.200 270.177 C 295.990 271.713,294.910 273.190,294.800 273.461 C 294.553 274.068,288.617 281.029,287.177 282.400 C 286.600 282.950,285.783 283.693,285.364 284.051 C 284.944 284.409,283.555 285.799,282.277 287.140 C 279.611 289.938,275.883 293.200,275.353 293.200 C 275.155 293.200,274.768 293.560,274.493 294.000 C 274.218 294.440,273.813 294.800,273.593 294.800 C 273.372 294.800,271.889 295.835,270.296 297.100 C 266.542 300.082,265.174 301.027,264.145 301.354 C 263.683 301.501,262.984 301.976,262.591 302.410 C 262.198 302.845,261.630 303.200,261.329 303.200 C 261.028 303.200,259.445 304.085,257.813 305.166 C 256.180 306.248,254.429 307.263,253.922 307.422 C 253.415 307.581,251.837 308.317,250.416 309.056 C 248.994 309.795,247.681 310.400,247.496 310.400 C 247.312 310.400,246.422 310.757,245.519 311.193 C 244.616 311.630,243.273 312.100,242.534 312.239 C 241.795 312.377,241.098 312.641,240.985 312.825 C 240.667 313.339,229.829 316.536,226.800 317.009 C 225.810 317.164,224.812 317.442,224.581 317.627 C 224.351 317.812,221.651 318.237,218.581 318.571 C 215.512 318.906,212.100 319.353,211.000 319.566 C 208.570 320.035,192.264 320.062,189.200 319.602 C 187.990 319.420,184.570 318.972,181.600 318.606 C 178.630 318.240,175.429 317.684,174.486 317.370 C 173.543 317.057,172.491 316.800,172.148 316.800 C 171.563 316.800,168.736 316.048,163.600 314.527 C 162.390 314.168,160.680 313.562,159.800 313.181 C 158.920 312.799,156.850 311.995,155.200 311.394 C 152.418 310.380,146.183 307.604,144.800 306.763 C 144.470 306.562,143.790 306.221,143.290 306.005 C 142.789 305.789,141.990 305.249,141.514 304.806 C 141.038 304.363,140.494 304.000,140.305 304.000 C 140.116 304.000,138.977 303.370,137.773 302.600 C 136.569 301.830,135.506 301.200,135.410 301.200 C 134.886 301.200,129.500 297.148,128.119 295.714 C 127.635 295.211,127.020 294.800,126.753 294.800 C 126.486 294.800,125.982 294.538,125.634 294.219 C 124.596 293.266,123.495 292.311,121.010 290.208 C 116.751 286.602,107.452 276.813,105.721 274.112 C 105.002 272.989,101.690 268.770,101.237 268.400 C 100.842 268.077,98.800 264.843,98.800 264.540 C 98.800 264.388,98.550 263.979,98.245 263.631 C 97.939 263.284,97.183 262.010,96.563 260.800 C 95.943 259.590,94.843 257.747,94.118 256.704 C 93.393 255.661,92.800 254.691,92.800 254.548 C 92.800 254.290,91.569 251.528,90.596 249.600 C 90.318 249.050,89.611 247.340,89.025 245.800 C 88.440 244.260,87.609 242.230,87.180 241.289 C 86.751 240.348,86.399 239.358,86.398 239.089 C 86.396 238.820,86.133 238.097,85.812 237.482 C 85.491 236.867,85.027 235.252,84.780 233.892 C 84.534 232.533,84.174 231.124,83.979 230.762 C 83.380 229.641,82.375 224.808,81.783 220.200 C 81.472 217.780,81.044 214.985,80.832 213.988 C 79.500 207.735,79.487 191.585,80.810 186.400 C 81.006 185.630,81.372 182.931,81.622 180.402 C 81.872 177.873,82.219 175.533,82.392 175.202 C 82.565 174.871,82.831 173.790,82.982 172.800 C 83.134 171.810,83.605 169.964,84.029 168.698 C 84.453 167.433,84.800 166.128,84.800 165.800 C 84.800 165.133,86.258 160.545,86.778 159.575 C 87.454 158.315,89.600 152.724,89.600 152.224 C 89.600 151.940,89.933 151.279,90.339 150.754 C 90.745 150.229,91.190 149.350,91.327 148.800 C 91.464 148.250,92.411 146.360,93.431 144.600 C 94.452 142.840,95.833 140.410,96.500 139.200 C 97.166 137.990,97.957 136.716,98.256 136.369 C 98.555 136.021,98.800 135.561,98.800 135.346 C 98.800 134.795,101.381 131.276,103.900 128.391 C 104.615 127.573,105.200 126.770,105.200 126.607 C 105.200 126.059,110.131 120.316,112.895 117.645 C 115.331 115.291,116.115 114.509,117.800 112.760 C 118.680 111.846,120.471 110.176,121.780 109.049 C 123.089 107.922,124.582 106.595,125.098 106.100 C 125.614 105.605,126.210 105.200,126.422 105.200 C 126.634 105.200,128.111 104.165,129.704 102.900 C 133.143 100.169,135.062 98.800,135.452 98.800 C 135.609 98.800,136.021 98.550,136.369 98.245 C 136.716 97.939,137.947 97.200,139.103 96.601 C 140.260 96.002,141.308 95.350,141.431 95.150 C 141.554 94.951,142.227 94.524,142.927 94.202 C 143.627 93.880,144.470 93.445,144.800 93.236 C 145.354 92.886,149.497 90.939,154.111 88.861 C 155.162 88.387,156.242 87.999,156.511 87.998 C 156.780 87.996,157.540 87.713,158.200 87.369 C 159.766 86.551,163.631 85.238,166.400 84.582 C 169.019 83.962,171.531 83.298,174.030 82.566 C 175.037 82.271,177.737 81.851,180.030 81.633 C 182.324 81.415,185.103 81.043,186.207 80.805 C 188.048 80.409,194.958 79.795,199.125 79.657 C 200.074 79.626,203.494 79.789,206.725 80.020 M175.961 145.147 C 151.231 169.957,147.823 173.650,144.529 179.200 C 143.550 180.850,142.587 182.470,142.390 182.800 C 142.084 183.310,141.316 185.010,139.589 189.000 C 135.174 199.199,133.006 214.758,134.822 223.200 C 135.035 224.190,135.391 226.170,135.614 227.600 C 135.836 229.030,136.272 230.920,136.583 231.800 C 136.894 232.680,137.619 234.930,138.195 236.800 C 138.771 238.670,139.638 240.963,140.121 241.895 C 140.604 242.828,141.971 245.528,143.158 247.895 C 144.345 250.263,145.840 252.830,146.481 253.600 C 147.121 254.370,148.129 255.609,148.722 256.354 C 153.114 261.871,162.762 270.213,167.032 272.185 C 167.709 272.498,168.496 273.034,168.781 273.377 C 169.065 273.720,169.524 274.000,169.800 274.000 C 170.076 274.000,170.527 274.272,170.803 274.604 C 171.078 274.936,171.989 275.317,172.827 275.451 C 173.665 275.585,174.446 275.943,174.563 276.247 C 174.679 276.551,175.096 276.801,175.487 276.802 C 175.879 276.804,176.736 277.085,177.392 277.426 C 178.047 277.768,179.456 278.235,180.523 278.464 C 181.589 278.692,182.943 279.131,183.531 279.437 C 184.119 279.744,185.050 279.999,185.600 280.003 C 186.150 280.007,187.741 280.368,189.136 280.805 C 191.363 281.503,192.821 281.601,201.136 281.607 L 210.600 281.613 217.400 279.941 C 221.140 279.022,224.470 278.043,224.800 277.766 C 225.130 277.489,225.940 277.134,226.600 276.977 C 227.260 276.820,228.250 276.461,228.800 276.180 C 229.350 275.899,230.970 275.091,232.400 274.384 C 233.830 273.677,235.774 272.582,236.720 271.949 C 237.666 271.317,238.574 270.800,238.739 270.800 C 239.930 270.800,251.350 260.617,251.821 259.135 C 251.949 258.731,252.271 258.400,252.536 258.400 C 252.802 258.400,253.825 257.306,254.810 255.968 C 255.794 254.630,256.969 253.055,257.421 252.468 C 257.872 251.881,258.977 249.960,259.876 248.200 C 260.776 246.440,261.794 244.460,262.140 243.800 C 264.446 239.396,267.600 230.287,267.600 228.032 C 267.600 227.464,267.867 225.740,268.193 224.200 C 269.532 217.880,268.843 205.306,266.755 197.938 C 266.340 196.474,266.000 194.939,266.000 194.527 C 266.000 194.115,265.764 193.423,265.475 192.989 C 265.186 192.555,264.386 190.760,263.697 189.000 C 262.407 185.704,261.470 183.775,259.811 181.000 C 259.285 180.120,258.568 178.860,258.217 178.200 C 256.967 175.850,256.426 175.008,255.909 174.607 C 255.621 174.383,255.208 173.792,254.992 173.293 C 254.145 171.334,202.760 120.399,201.646 120.414 C 200.802 120.425,195.830 125.213,175.961 145.147 M225.922 145.969 C 247.736 167.806,254.288 174.756,256.761 178.677 C 258.437 181.336,261.988 188.097,262.377 189.372 C 262.583 190.047,263.229 191.860,263.812 193.400 C 269.297 207.888,267.848 231.194,260.705 243.354 C 260.073 244.429,259.004 246.409,258.328 247.754 C 257.653 249.100,256.264 251.280,255.243 252.600 C 254.221 253.920,253.071 255.493,252.687 256.095 C 249.175 261.598,234.619 272.554,227.278 275.220 C 226.245 275.595,224.421 276.281,223.225 276.744 C 208.471 282.456,185.190 280.959,172.000 273.450 C 171.010 272.887,169.660 272.126,169.000 271.759 C 163.065 268.460,152.155 259.122,150.243 255.705 C 150.026 255.317,148.908 253.774,147.759 252.276 C 145.469 249.290,140.271 239.195,139.321 235.886 C 136.470 225.955,136.199 224.117,136.211 214.800 C 136.222 205.396,136.915 200.538,139.090 194.600 C 139.654 193.060,140.518 190.686,141.011 189.323 C 142.028 186.509,146.669 178.203,148.566 175.800 C 149.260 174.920,150.117 173.750,150.469 173.200 C 151.792 171.133,200.858 122.400,201.616 122.400 C 202.090 122.400,211.264 131.295,225.922 145.969 " stroke="none" fill="#7bb6e6" fill-rule="evenodd"></path></g></svg>