<svg id="svg" version="1.1" xmlns="http://www.w3.org/2000/svg" xmlns:xlink="http://www.w3.org/1999/xlink" width="400" height="400" viewBox="0, 0, 400,400"><g id="svgg"><path id="path0" d="M110.000 158.838 C 110.000 236.376,110.087 250.832,110.564 252.742 C 110.874 253.984,111.252 256.588,111.402 258.528 C 111.553 260.468,111.928 262.538,112.236 263.128 C 112.543 263.718,112.796 264.833,112.798 265.606 C 112.799 266.379,113.134 267.639,113.541 268.406 C 113.949 269.173,114.406 270.467,114.556 271.283 C 114.707 272.099,115.092 273.269,115.412 273.883 C 115.733 274.497,115.996 275.145,115.998 275.322 C 116.001 275.804,117.430 279.006,119.215 282.532 C 120.087 284.255,120.800 286.010,120.800 286.432 C 120.800 286.855,120.977 287.200,121.194 287.200 C 121.411 287.200,122.073 287.965,122.664 288.900 C 125.655 293.627,127.390 296.239,127.780 296.600 C 128.017 296.820,128.546 297.540,128.956 298.200 C 129.680 299.366,130.011 299.768,132.172 302.118 C 132.737 302.733,133.200 303.306,133.200 303.392 C 133.200 303.625,138.284 308.477,140.832 310.675 C 146.080 315.203,148.112 316.800,148.626 316.800 C 148.768 316.800,149.389 317.205,150.006 317.700 C 152.335 319.568,152.976 320.000,153.419 320.000 C 153.671 320.000,154.202 320.360,154.600 320.800 C 154.998 321.240,155.616 321.600,155.973 321.600 C 156.330 321.600,157.056 321.904,157.586 322.275 C 159.280 323.462,164.218 325.897,165.503 326.179 C 166.186 326.329,166.946 326.694,167.192 326.991 C 167.439 327.288,168.522 327.652,169.600 327.800 C 170.678 327.948,171.771 328.324,172.029 328.635 C 172.287 328.946,172.932 329.200,173.462 329.200 C 173.992 329.200,175.455 329.538,176.713 329.952 C 177.971 330.366,179.975 330.826,181.167 330.975 C 182.359 331.124,183.979 331.533,184.767 331.885 C 187.011 332.886,212.609 332.905,215.200 331.907 C 216.190 331.525,218.080 331.040,219.400 330.828 C 222.527 330.326,226.737 329.227,228.000 328.583 C 228.550 328.303,229.720 327.944,230.600 327.786 C 231.480 327.628,232.470 327.265,232.800 326.980 C 233.130 326.696,233.940 326.328,234.600 326.163 C 236.008 325.812,241.961 322.841,242.729 322.106 C 243.019 321.828,243.531 321.600,243.865 321.600 C 244.200 321.600,244.931 321.240,245.491 320.800 C 246.050 320.360,246.732 320.000,247.005 320.000 C 247.278 320.000,247.714 319.745,247.972 319.434 C 248.231 319.122,249.738 318.001,251.321 316.942 C 252.905 315.883,254.650 314.622,255.200 314.140 C 256.278 313.196,259.400 310.543,260.559 309.588 C 264.855 306.045,273.793 295.649,274.784 293.041 C 275.002 292.468,275.353 292.000,275.563 292.000 C 275.774 292.000,276.062 291.635,276.203 291.190 C 276.563 290.058,278.473 287.200,278.871 287.200 C 279.052 287.200,279.200 286.774,279.200 286.254 C 279.200 285.734,279.535 284.879,279.945 284.354 C 280.355 283.829,280.826 282.950,280.992 282.400 C 281.159 281.850,281.507 281.130,281.766 280.800 C 282.026 280.470,282.651 279.120,283.156 277.800 C 283.661 276.480,284.417 274.557,284.837 273.526 C 285.257 272.495,285.601 271.325,285.601 270.926 C 285.602 270.527,285.932 269.660,286.335 269.000 C 286.737 268.340,287.192 266.732,287.345 265.426 C 287.499 264.121,287.792 262.851,287.997 262.604 C 288.202 262.357,288.553 260.217,288.777 257.847 C 289.002 255.478,289.400 252.788,289.661 251.870 C 290.303 249.619,290.309 235.405,289.669 233.872 C 289.411 233.252,289.022 230.822,288.806 228.472 C 288.590 226.122,288.148 223.480,287.824 222.600 C 287.500 221.720,287.227 220.457,287.218 219.794 C 287.208 219.131,286.840 217.916,286.400 217.096 C 285.960 216.275,285.600 215.136,285.600 214.565 C 285.600 213.993,285.240 213.069,284.800 212.509 C 284.360 211.950,284.000 211.156,284.000 210.745 C 284.000 210.333,283.640 209.325,283.200 208.504 C 282.760 207.684,282.400 206.716,282.400 206.355 C 282.400 205.994,282.142 205.483,281.826 205.221 C 281.510 204.959,281.138 204.230,281.000 203.600 C 280.862 202.970,280.502 202.250,280.200 202.000 C 279.898 201.750,279.532 200.999,279.385 200.332 C 279.238 199.664,278.777 198.777,278.359 198.359 C 277.942 197.942,277.600 197.240,277.600 196.800 C 277.600 196.360,277.450 196.000,277.267 196.000 C 277.084 196.000,276.328 195.063,275.586 193.919 C 274.844 192.774,273.959 191.528,273.619 191.150 C 273.278 190.772,272.280 189.447,271.400 188.207 C 270.520 186.967,269.125 185.228,268.300 184.344 C 267.475 183.459,266.800 182.648,266.800 182.543 C 266.800 182.139,259.468 175.305,256.996 173.405 C 255.568 172.308,254.400 171.273,254.400 171.105 C 254.400 170.937,254.205 170.800,253.967 170.800 C 253.729 170.800,252.765 170.169,251.825 169.399 C 250.884 168.628,249.234 167.533,248.157 166.964 C 247.081 166.396,245.828 165.586,245.374 165.165 C 244.920 164.744,244.256 164.400,243.898 164.400 C 243.540 164.400,243.135 164.218,242.998 163.997 C 242.861 163.775,241.427 162.974,239.811 162.218 C 238.195 161.462,236.756 160.653,236.613 160.421 C 236.470 160.190,235.970 160.000,235.503 160.000 C 235.035 160.000,233.921 159.674,233.026 159.275 C 230.566 158.179,227.647 157.196,225.200 156.639 C 223.990 156.364,222.640 155.952,222.200 155.724 C 221.760 155.496,220.410 155.194,219.200 155.053 C 217.990 154.912,216.190 154.503,215.200 154.144 C 212.582 153.194,187.922 153.174,185.200 154.119 C 184.210 154.463,182.723 154.867,181.896 155.017 C 179.850 155.389,179.934 154.400,180.075 176.492 C 180.210 197.445,180.143 196.760,181.956 195.823 C 182.633 195.473,184.043 195.069,185.089 194.926 C 186.136 194.782,187.216 194.441,187.490 194.167 C 187.764 193.893,189.385 193.560,191.094 193.426 C 192.802 193.292,194.773 192.999,195.473 192.775 C 197.067 192.265,203.903 192.228,204.533 192.726 C 204.790 192.929,206.620 193.222,208.600 193.377 C 210.580 193.531,212.470 193.890,212.800 194.175 C 213.130 194.459,214.228 194.799,215.240 194.930 C 216.252 195.061,217.602 195.429,218.240 195.749 C 221.325 197.292,223.859 198.400,224.306 198.400 C 224.578 198.400,224.800 198.589,224.800 198.819 C 224.800 199.050,225.296 199.455,225.902 199.719 C 227.671 200.491,231.505 203.176,231.750 203.814 C 231.874 204.136,232.251 204.400,232.587 204.400 C 232.924 204.400,233.200 204.670,233.200 205.000 C 233.200 205.330,233.399 205.600,233.641 205.600 C 234.069 205.600,238.684 210.229,240.103 212.082 C 242.005 214.565,242.800 215.802,242.800 216.278 C 242.800 216.565,242.978 216.800,243.195 216.800 C 243.412 216.800,243.866 217.385,244.205 218.100 C 244.544 218.815,245.084 219.850,245.405 220.400 C 245.726 220.950,245.991 221.693,245.994 222.051 C 245.997 222.409,246.270 222.926,246.600 223.200 C 246.930 223.474,247.208 223.991,247.218 224.349 C 247.227 224.707,247.510 225.720,247.846 226.600 C 248.183 227.480,248.702 229.280,249.001 230.600 C 249.301 231.920,249.756 233.875,250.014 234.943 C 250.635 237.517,250.402 252.034,249.726 252.849 C 249.465 253.163,249.123 254.405,248.966 255.610 C 248.809 256.814,248.348 258.427,247.940 259.194 C 247.533 259.961,247.200 260.974,247.200 261.445 C 247.200 261.916,246.930 262.526,246.600 262.800 C 246.270 263.074,246.000 263.612,246.000 263.995 C 246.000 264.378,245.651 265.136,245.225 265.678 C 244.798 266.220,244.325 267.158,244.173 267.764 C 244.021 268.369,243.650 268.959,243.349 269.075 C 243.047 269.191,242.797 269.491,242.793 269.743 C 242.782 270.413,240.601 273.521,239.207 274.854 C 238.543 275.488,237.997 276.140,237.994 276.303 C 237.991 276.467,236.713 277.770,235.153 279.200 C 233.593 280.630,232.026 282.115,231.670 282.500 C 231.314 282.885,230.787 283.200,230.499 283.200 C 230.211 283.200,229.874 283.463,229.750 283.785 C 229.627 284.106,229.184 284.478,228.765 284.611 C 228.347 284.744,227.774 285.066,227.492 285.326 C 226.422 286.314,224.547 287.499,223.592 287.791 C 223.047 287.958,222.330 288.327,222.000 288.610 C 221.670 288.894,220.643 289.327,219.717 289.574 C 218.791 289.820,217.932 290.186,217.808 290.388 C 217.683 290.589,216.731 290.874,215.691 291.020 C 214.651 291.167,213.440 291.511,213.000 291.786 C 212.560 292.060,211.120 292.406,209.800 292.554 C 208.480 292.703,205.860 293.108,203.977 293.456 C 201.188 293.971,200.004 294.006,197.577 293.646 C 195.940 293.404,193.161 293.006,191.401 292.762 C 189.642 292.518,187.716 292.067,187.121 291.759 C 186.526 291.452,185.659 291.200,185.194 291.200 C 184.332 291.200,181.477 290.156,178.600 288.788 C 177.720 288.370,176.505 287.846,175.900 287.624 C 175.295 287.401,174.800 287.035,174.800 286.810 C 174.800 286.584,174.575 286.388,174.300 286.373 C 174.025 286.359,172.990 285.730,172.000 284.975 C 171.010 284.221,169.795 283.427,169.300 283.211 C 168.805 282.996,168.400 282.647,168.400 282.437 C 168.400 282.226,168.040 281.940,167.600 281.800 C 167.160 281.660,166.800 281.300,166.800 281.000 C 166.800 280.700,166.440 280.340,166.000 280.200 C 165.560 280.060,165.200 279.688,165.200 279.373 C 165.200 279.058,164.950 278.800,164.645 278.800 C 164.340 278.800,163.665 278.249,163.145 277.575 C 162.625 276.902,161.528 275.645,160.708 274.783 C 159.887 273.920,158.627 272.205,157.908 270.972 C 157.188 269.738,156.204 268.070,155.721 267.264 C 155.237 266.459,154.651 265.350,154.418 264.800 C 154.185 264.250,153.726 263.322,153.397 262.738 C 153.069 262.154,152.794 261.344,152.786 260.938 C 152.779 260.532,152.425 259.480,152.000 258.600 C 151.575 257.720,151.221 256.499,151.214 255.887 C 151.206 255.275,150.885 254.105,150.500 253.287 C 149.842 251.888,149.788 246.333,149.600 159.600 L 149.400 67.400 129.700 67.296 L 110.000 67.192 110.000 158.838 " stroke="none" fill="#f9fbfb" fill-rule="evenodd"></path><path id="path1" d="M0.000 200.000 L 0.000 400.000 200.000 400.000 L 400.000 400.000 400.000 200.000 L 400.000 0.000 200.000 0.000 L 0.000 0.000 0.000 200.000 M150.010 66.626 C 150.259 67.281,150.406 100.072,150.417 157.326 C 150.429 215.918,150.574 247.624,150.837 248.800 C 151.058 249.790,151.483 251.860,151.781 253.400 C 152.078 254.940,152.602 256.920,152.943 257.800 C 153.285 258.680,153.573 259.652,153.582 259.960 C 153.598 260.458,156.071 265.587,157.983 269.086 C 159.649 272.136,166.342 279.725,169.019 281.600 C 177.116 287.270,180.379 288.824,188.800 291.022 C 192.914 292.096,204.787 292.474,208.800 291.658 C 219.444 289.494,230.019 283.803,235.973 277.033 C 236.538 276.391,237.405 275.470,237.900 274.987 C 238.395 274.504,238.800 273.913,238.800 273.674 C 238.800 273.435,239.026 273.096,239.301 272.920 C 241.710 271.382,247.180 259.730,248.088 254.200 C 248.305 252.880,248.734 251.074,249.041 250.187 C 249.703 248.275,249.820 238.231,249.199 236.598 C 248.979 236.019,248.599 234.261,248.356 232.692 C 248.113 231.123,247.680 229.471,247.395 229.020 C 247.110 228.569,246.754 227.436,246.604 226.502 C 246.453 225.568,246.171 224.706,245.976 224.585 C 245.781 224.465,245.424 223.633,245.183 222.736 C 244.941 221.840,244.569 220.902,244.356 220.653 C 244.143 220.404,243.090 218.760,242.016 217.000 C 239.878 213.496,237.966 210.917,236.364 209.377 C 232.197 205.373,230.852 204.214,228.860 202.909 C 227.617 202.095,226.456 201.197,226.280 200.914 C 226.104 200.631,225.802 200.400,225.608 200.400 C 225.414 200.400,223.578 199.613,221.528 198.652 C 215.569 195.857,214.931 195.600,213.940 195.595 C 213.423 195.592,211.830 195.214,210.400 194.754 C 206.552 193.517,193.443 193.525,189.648 194.765 C 188.244 195.224,186.714 195.601,186.248 195.602 C 185.782 195.604,184.896 195.868,184.280 196.189 C 182.173 197.288,180.449 197.592,179.830 196.973 C 179.167 196.310,178.905 155.848,179.557 154.842 C 180.179 153.883,182.836 153.190,187.400 152.797 C 189.820 152.589,192.970 152.238,194.400 152.017 C 195.830 151.797,198.325 151.612,199.945 151.608 C 206.206 151.591,223.627 154.213,225.372 155.436 C 225.815 155.746,226.633 156.006,227.189 156.014 C 227.745 156.021,228.920 156.375,229.800 156.800 C 230.680 157.225,231.620 157.579,231.889 157.586 C 232.158 157.594,233.238 157.981,234.289 158.448 C 238.056 160.119,239.810 160.923,240.400 161.252 C 240.730 161.435,241.900 162.033,243.000 162.579 C 249.642 165.880,262.743 176.012,266.800 180.985 C 267.350 181.659,268.430 182.865,269.200 183.666 C 271.585 186.146,273.119 188.169,275.865 192.462 C 277.321 194.738,278.804 197.050,279.159 197.600 C 280.290 199.348,284.800 208.830,284.800 209.459 C 284.800 209.664,285.160 210.537,285.600 211.400 C 286.040 212.263,286.400 213.297,286.400 213.699 C 286.400 214.100,286.656 214.827,286.969 215.314 C 287.282 215.801,287.665 217.100,287.821 218.200 C 287.976 219.300,288.338 220.661,288.624 221.225 C 288.910 221.789,289.265 223.409,289.413 224.825 C 289.561 226.241,289.975 228.390,290.333 229.600 C 291.273 232.775,291.258 253.052,290.314 256.600 C 289.963 257.920,289.547 260.080,289.389 261.400 C 289.232 262.720,288.875 264.358,288.597 265.041 C 288.318 265.723,287.960 267.073,287.800 268.041 C 287.640 269.008,287.326 270.027,287.102 270.304 C 286.878 270.581,286.538 271.648,286.347 272.674 C 286.155 273.700,285.729 274.837,285.399 275.201 C 285.070 275.565,284.800 276.184,284.800 276.577 C 284.800 276.970,284.470 277.946,284.068 278.746 C 283.665 279.545,282.541 281.820,281.570 283.800 C 280.599 285.780,279.515 287.850,279.161 288.400 C 274.715 295.303,271.225 300.235,269.398 302.200 C 263.489 308.554,261.924 310.096,258.320 313.113 C 254.722 316.125,249.275 319.993,247.400 320.868 C 246.960 321.073,245.880 321.681,245.000 322.218 C 244.120 322.755,242.827 323.463,242.127 323.791 C 241.427 324.119,240.754 324.550,240.632 324.749 C 240.509 324.947,239.777 325.228,239.004 325.373 C 238.232 325.518,237.600 325.805,237.600 326.011 C 237.600 326.216,237.105 326.504,236.500 326.651 C 235.895 326.797,234.770 327.229,234.000 327.610 C 232.453 328.376,229.375 329.460,227.174 330.013 C 226.389 330.210,225.219 330.646,224.574 330.983 C 223.928 331.320,222.859 331.596,222.199 331.598 C 221.538 331.599,219.739 331.960,218.200 332.400 C 216.661 332.840,214.322 333.200,213.001 333.201 C 211.681 333.201,209.070 333.471,207.200 333.800 C 202.886 334.560,197.604 334.562,193.000 333.805 C 191.020 333.480,188.281 333.211,186.914 333.207 C 185.547 333.203,183.657 332.939,182.714 332.621 C 181.771 332.303,179.747 331.843,178.215 331.600 C 176.684 331.357,175.237 330.997,175.000 330.800 C 174.763 330.603,173.856 330.265,172.984 330.048 C 170.660 329.470,167.597 328.401,166.000 327.610 C 165.230 327.229,164.105 326.797,163.500 326.651 C 162.895 326.504,162.400 326.208,162.400 325.992 C 162.400 325.777,162.192 325.600,161.939 325.600 C 161.396 325.600,157.285 323.591,155.000 322.209 C 154.120 321.677,153.005 321.060,152.522 320.839 C 152.039 320.617,150.689 319.764,149.522 318.942 C 148.355 318.119,146.855 317.075,146.188 316.621 C 139.099 311.791,128.840 300.963,123.998 293.200 C 123.244 291.990,122.511 290.910,122.369 290.800 C 122.122 290.607,119.676 286.118,117.792 282.400 C 116.153 279.165,115.200 276.924,115.200 276.305 C 115.200 275.971,114.952 275.493,114.650 275.241 C 114.347 274.990,113.982 274.049,113.838 273.150 C 113.695 272.252,113.312 271.004,112.989 270.378 C 112.665 269.752,112.403 268.916,112.406 268.520 C 112.409 268.124,112.063 266.630,111.637 265.200 C 111.212 263.770,110.673 261.430,110.441 260.000 C 110.208 258.570,109.842 256.590,109.626 255.600 C 109.010 252.766,109.063 66.697,109.680 66.080 C 110.040 65.720,115.078 65.600,129.890 65.600 L 149.620 65.600 150.010 66.626 " stroke="none" fill="#1c4c83" fill-rule="evenodd"></path><path id="path2" d="M109.680 66.080 C 109.063 66.697,109.010 252.766,109.626 255.600 C 109.842 256.590,110.208 258.570,110.441 260.000 C 110.673 261.430,111.212 263.770,111.637 265.200 C 112.063 266.630,112.409 268.124,112.406 268.520 C 112.403 268.916,112.665 269.752,112.989 270.378 C 113.312 271.004,113.695 272.252,113.838 273.150 C 113.982 274.049,114.347 274.990,114.650 275.241 C 114.952 275.493,115.200 275.971,115.200 276.305 C 115.200 276.924,116.153 279.165,117.792 282.400 C 119.676 286.118,122.122 290.607,122.369 290.800 C 122.511 290.910,123.244 291.990,123.998 293.200 C 128.840 300.963,139.099 311.791,146.188 316.621 C 146.855 317.075,148.355 318.119,149.522 318.942 C 150.689 319.764,152.039 320.617,152.522 320.839 C 153.005 321.060,154.120 321.677,155.000 322.209 C 157.285 323.591,161.396 325.600,161.939 325.600 C 162.192 325.600,162.400 325.777,162.400 325.992 C 162.400 326.208,162.895 326.504,163.500 326.651 C 164.105 326.797,165.230 327.229,166.000 327.610 C 167.597 328.401,170.660 329.470,172.984 330.048 C 173.856 330.265,174.763 330.603,175.000 330.800 C 175.237 330.997,176.684 331.357,178.215 331.600 C 179.747 331.843,181.771 332.303,182.714 332.621 C 183.657 332.939,185.547 333.203,186.914 333.207 C 188.281 333.211,191.020 333.480,193.000 333.805 C 197.604 334.562,202.886 334.560,207.200 333.800 C 209.070 333.471,211.681 333.201,213.001 333.201 C 214.322 333.200,216.661 332.840,218.200 332.400 C 219.739 331.960,221.538 331.599,222.199 331.598 C 222.859 331.596,223.928 331.320,224.574 330.983 C 225.219 330.646,226.389 330.210,227.174 330.013 C 229.375 329.460,232.453 328.376,234.000 327.610 C 234.770 327.229,235.895 326.797,236.500 326.651 C 237.105 326.504,237.600 326.216,237.600 326.011 C 237.600 325.805,238.232 325.518,239.004 325.373 C 239.777 325.228,240.509 324.947,240.632 324.749 C 240.754 324.550,241.427 324.119,242.127 323.791 C 242.827 323.463,244.120 322.755,245.000 322.218 C 245.880 321.681,246.960 321.073,247.400 320.868 C 249.275 319.993,254.722 316.125,258.320 313.113 C 261.924 310.096,263.489 308.554,269.398 302.200 C 271.225 300.235,274.715 295.303,279.161 288.400 C 279.515 287.850,280.599 285.780,281.570 283.800 C 282.541 281.820,283.665 279.545,284.068 278.746 C 284.470 277.946,284.800 276.970,284.800 276.577 C 284.800 276.184,285.070 275.565,285.399 275.201 C 285.729 274.837,286.155 273.700,286.347 272.674 C 286.538 271.648,286.878 270.581,287.102 270.304 C 287.326 270.027,287.640 269.008,287.800 268.041 C 287.960 267.073,288.318 265.723,288.597 265.041 C 288.875 264.358,289.232 262.720,289.389 261.400 C 289.547 260.080,289.963 257.920,290.314 256.600 C 291.258 253.052,291.273 232.775,290.333 229.600 C 289.975 228.390,289.561 226.241,289.413 224.825 C 289.265 223.409,288.910 221.789,288.624 221.225 C 288.338 220.661,287.976 219.300,287.821 218.200 C 287.665 217.100,287.282 215.801,286.969 215.314 C 286.656 214.827,286.400 214.100,286.400 213.699 C 286.400 213.297,286.040 212.263,285.600 211.400 C 285.160 210.537,284.800 209.664,284.800 209.459 C 284.800 208.830,280.290 199.348,279.159 197.600 C 278.804 197.050,277.321 194.738,275.865 192.462 C 273.119 188.169,271.585 186.146,269.200 183.666 C 268.430 182.865,267.350 181.659,266.800 180.985 C 262.743 176.012,249.642 165.880,243.000 162.579 C 241.900 162.033,240.730 161.435,240.400 161.252 C 239.810 160.923,238.056 160.119,234.289 158.448 C 233.238 157.981,232.158 157.594,231.889 157.586 C 231.620 157.579,230.680 157.225,229.800 156.800 C 228.920 156.375,227.745 156.021,227.189 156.014 C 226.633 156.006,225.815 155.746,225.372 155.436 C 223.627 154.213,206.206 151.591,199.945 151.608 C 198.325 151.612,195.830 151.797,194.400 152.017 C 192.970 152.238,189.820 152.589,187.400 152.797 C 182.836 153.190,180.179 153.883,179.557 154.842 C 178.905 155.848,179.167 196.310,179.830 196.973 C 180.449 197.592,182.173 197.288,184.280 196.189 C 184.896 195.868,185.782 195.604,186.248 195.602 C 186.714 195.601,188.244 195.224,189.648 194.765 C 193.443 193.525,206.552 193.517,210.400 194.754 C 211.830 195.214,213.423 195.592,213.940 195.595 C 214.931 195.600,215.569 195.857,221.528 198.652 C 223.578 199.613,225.414 200.400,225.608 200.400 C 225.802 200.400,226.104 200.631,226.280 200.914 C 226.456 201.197,227.617 202.095,228.860 202.909 C 230.852 204.214,232.197 205.373,236.364 209.377 C 237.966 210.917,239.878 213.496,242.016 217.000 C 243.090 218.760,244.143 220.404,244.356 220.653 C 244.569 220.902,244.941 221.840,245.183 222.736 C 245.424 223.633,245.781 224.465,245.976 224.585 C 246.171 224.706,246.453 225.568,246.604 226.502 C 246.754 227.436,247.110 228.569,247.395 229.020 C 247.680 229.471,248.113 231.123,248.356 232.692 C 248.599 234.261,248.979 236.019,249.199 236.598 C 249.820 238.231,249.703 248.275,249.041 250.187 C 248.734 251.074,248.305 252.880,248.088 254.200 C 247.180 259.730,241.710 271.382,239.301 272.920 C 239.026 273.096,238.800 273.435,238.800 273.674 C 238.800 273.913,238.395 274.504,237.900 274.987 C 237.405 275.470,236.538 276.391,235.973 277.033 C 222.908 291.888,196.939 296.630,178.600 287.508 C 175.414 285.923,173.569 284.785,169.019 281.600 C 166.342 279.725,159.649 272.136,157.983 269.086 C 156.071 265.587,153.598 260.458,153.582 259.960 C 153.573 259.652,153.285 258.680,152.943 257.800 C 152.602 256.920,152.078 254.940,151.781 253.400 C 151.483 251.860,151.058 249.790,150.837 248.800 C 150.574 247.624,150.429 215.918,150.417 157.326 C 150.406 100.072,150.259 67.281,150.010 66.626 L 149.620 65.600 129.890 65.600 C 115.078 65.600,110.040 65.720,109.680 66.080 M149.600 159.600 C 149.788 246.333,149.842 251.888,150.500 253.287 C 150.885 254.105,151.206 255.275,151.214 255.887 C 151.221 256.499,151.575 257.720,152.000 258.600 C 152.425 259.480,152.779 260.532,152.786 260.938 C 152.794 261.344,153.069 262.154,153.397 262.738 C 153.726 263.322,154.185 264.250,154.418 264.800 C 154.651 265.350,155.237 266.459,155.721 267.264 C 156.204 268.070,157.188 269.738,157.908 270.972 C 158.627 272.205,159.887 273.920,160.708 274.783 C 161.528 275.645,162.625 276.902,163.145 277.575 C 163.665 278.249,164.340 278.800,164.645 278.800 C 164.950 278.800,165.200 279.058,165.200 279.373 C 165.200 279.688,165.560 280.060,166.000 280.200 C 166.440 280.340,166.800 280.700,166.800 281.000 C 166.800 281.300,167.160 281.660,167.600 281.800 C 168.040 281.940,168.400 282.226,168.400 282.437 C 168.400 282.647,168.805 282.996,169.300 283.211 C 169.795 283.427,171.010 284.221,172.000 284.975 C 172.990 285.730,174.025 286.359,174.300 286.373 C 174.575 286.388,174.800 286.584,174.800 286.810 C 174.800 287.035,175.295 287.401,175.900 287.624 C 176.505 287.846,177.720 288.370,178.600 288.788 C 181.477 290.156,184.332 291.200,185.194 291.200 C 185.659 291.200,186.526 291.452,187.121 291.759 C 187.716 292.067,189.642 292.518,191.401 292.762 C 193.161 293.006,195.940 293.404,197.577 293.646 C 200.004 294.006,201.188 293.971,203.977 293.456 C 205.860 293.108,208.480 292.703,209.800 292.554 C 211.120 292.406,212.560 292.060,213.000 291.786 C 213.440 291.511,214.651 291.167,215.691 291.020 C 216.731 290.874,217.683 290.589,217.808 290.388 C 217.932 290.186,218.791 289.820,219.717 289.574 C 220.643 289.327,221.670 288.894,222.000 288.610 C 222.330 288.327,223.047 287.958,223.592 287.791 C 224.547 287.499,226.422 286.314,227.492 285.326 C 227.774 285.066,228.347 284.744,228.765 284.611 C 229.184 284.478,229.627 284.106,229.750 283.785 C 229.874 283.463,230.211 283.200,230.499 283.200 C 230.787 283.200,231.314 282.885,231.670 282.500 C 232.026 282.115,233.593 280.630,235.153 279.200 C 236.713 277.770,237.991 276.467,237.994 276.303 C 237.997 276.140,238.543 275.488,239.207 274.854 C 240.601 273.521,242.782 270.413,242.793 269.743 C 242.797 269.491,243.047 269.191,243.349 269.075 C 243.650 268.959,244.021 268.369,244.173 267.764 C 244.325 267.158,244.798 266.220,245.225 265.678 C 245.651 265.136,246.000 264.378,246.000 263.995 C 246.000 263.612,246.270 263.074,246.600 262.800 C 246.930 262.526,247.200 261.916,247.200 261.445 C 247.200 260.974,247.533 259.961,247.940 259.194 C 248.348 258.427,248.809 256.814,248.966 255.610 C 249.123 254.405,249.465 253.163,249.726 252.849 C 250.402 252.034,250.635 237.517,250.014 234.943 C 249.756 233.875,249.301 231.920,249.001 230.600 C 248.702 229.280,248.183 227.480,247.846 226.600 C 247.510 225.720,247.227 224.707,247.218 224.349 C 247.208 223.991,246.930 223.474,246.600 223.200 C 246.270 222.926,245.997 222.409,245.994 222.051 C 245.991 221.693,245.726 220.950,245.405 220.400 C 245.084 219.850,244.544 218.815,244.205 218.100 C 243.866 217.385,243.412 216.800,243.195 216.800 C 242.978 216.800,242.800 216.565,242.800 216.278 C 242.800 215.802,242.005 214.565,240.103 212.082 C 238.684 210.229,234.069 205.600,233.641 205.600 C 233.399 205.600,233.200 205.330,233.200 205.000 C 233.200 204.670,232.924 204.400,232.587 204.400 C 232.251 204.400,231.874 204.136,231.750 203.814 C 231.505 203.176,227.671 200.491,225.902 199.719 C 225.296 199.455,224.800 199.050,224.800 198.819 C 224.800 198.589,224.578 198.400,224.306 198.400 C 223.859 198.400,221.325 197.292,218.240 195.749 C 217.602 195.429,216.252 195.061,215.240 194.930 C 214.228 194.799,213.130 194.459,212.800 194.175 C 212.470 193.890,210.580 193.531,208.600 193.377 C 206.620 193.222,204.790 192.929,204.533 192.726 C 203.903 192.228,197.067 192.265,195.473 192.775 C 194.773 192.999,192.802 193.292,191.094 193.426 C 189.385 193.560,187.764 193.893,187.490 194.167 C 187.216 194.441,186.136 194.782,185.089 194.926 C 184.043 195.069,182.633 195.473,181.956 195.823 C 180.143 196.760,180.210 197.445,180.075 176.492 C 179.934 154.400,179.850 155.389,181.896 155.017 C 182.723 154.867,184.210 154.463,185.200 154.119 C 187.922 153.174,212.582 153.194,215.200 154.144 C 216.190 154.503,217.990 154.912,219.200 155.053 C 220.410 155.194,221.760 155.496,222.200 155.724 C 222.640 155.952,223.990 156.364,225.200 156.639 C 227.647 157.196,230.566 158.179,233.026 159.275 C 233.921 159.674,235.035 160.000,235.503 160.000 C 235.970 160.000,236.470 160.190,236.613 160.421 C 236.756 160.653,238.195 161.462,239.811 162.218 C 241.427 162.974,242.861 163.775,242.998 163.997 C 243.135 164.218,243.540 164.400,243.898 164.400 C 244.256 164.400,244.920 164.744,245.374 165.165 C 245.828 165.586,247.081 166.396,248.157 166.964 C 249.234 167.533,250.884 168.628,251.825 169.399 C 252.765 170.169,253.729 170.800,253.967 170.800 C 254.205 170.800,254.400 170.937,254.400 171.105 C 254.400 171.273,255.568 172.308,256.996 173.405 C 259.468 175.305,266.800 182.139,266.800 182.543 C 266.800 182.648,267.475 183.459,268.300 184.344 C 269.125 185.228,270.520 186.967,271.400 188.207 C 272.280 189.447,273.278 190.772,273.619 191.150 C 273.959 191.528,274.844 192.774,275.586 193.919 C 276.328 195.063,277.084 196.000,277.267 196.000 C 277.450 196.000,277.600 196.360,277.600 196.800 C 277.600 197.240,277.942 197.942,278.359 198.359 C 278.777 198.777,279.238 199.664,279.385 200.332 C 279.532 200.999,279.898 201.750,280.200 202.000 C 280.502 202.250,280.862 202.970,281.000 203.600 C 281.138 204.230,281.510 204.959,281.826 205.221 C 282.142 205.483,282.400 205.994,282.400 206.355 C 282.400 206.716,282.760 207.684,283.200 208.504 C 283.640 209.325,284.000 210.333,284.000 210.745 C 284.000 211.156,284.360 211.950,284.800 212.509 C 285.240 213.069,285.600 213.993,285.600 214.565 C 285.600 215.136,285.960 216.275,286.400 217.096 C 286.840 217.916,287.208 219.131,287.218 219.794 C 287.227 220.457,287.500 221.720,287.824 222.600 C 288.148 223.480,288.590 226.122,288.806 228.472 C 289.022 230.822,289.411 233.252,289.669 233.872 C 290.309 235.405,290.303 249.619,289.661 251.870 C 289.400 252.788,289.002 255.478,288.777 257.847 C 288.553 260.217,288.202 262.357,287.997 262.604 C 287.792 262.851,287.499 264.121,287.345 265.426 C 287.192 266.732,286.737 268.340,286.335 269.000 C 285.932 269.660,285.602 270.527,285.601 270.926 C 285.601 271.325,285.257 272.495,284.837 273.526 C 284.417 274.557,283.661 276.480,283.156 277.800 C 282.651 279.120,282.026 280.470,281.766 280.800 C 281.507 281.130,281.159 281.850,280.992 282.400 C 280.826 282.950,280.355 283.829,279.945 284.354 C 279.535 284.879,279.200 285.734,279.200 286.254 C 279.200 286.774,279.052 287.200,278.871 287.200 C 278.473 287.200,276.563 290.058,276.203 291.190 C 276.062 291.635,275.774 292.000,275.563 292.000 C 275.353 292.000,275.002 292.468,274.784 293.041 C 273.793 295.649,264.855 306.045,260.559 309.588 C 259.400 310.543,256.278 313.196,255.200 314.140 C 254.650 314.622,252.905 315.883,251.321 316.942 C 249.738 318.001,248.231 319.122,247.972 319.434 C 247.714 319.745,247.278 320.000,247.005 320.000 C 246.732 320.000,246.050 320.360,245.491 320.800 C 244.931 321.240,244.200 321.600,243.865 321.600 C 243.531 321.600,243.019 321.828,242.729 322.106 C 241.961 322.841,236.008 325.812,234.600 326.163 C 233.940 326.328,233.130 326.696,232.800 326.980 C 232.470 327.265,231.480 327.628,230.600 327.786 C 229.720 327.944,228.550 328.303,228.000 328.583 C 226.737 329.227,222.527 330.326,219.400 330.828 C 218.080 331.040,216.190 331.525,215.200 331.907 C 212.609 332.905,187.011 332.886,184.767 331.885 C 183.979 331.533,182.359 331.124,181.167 330.975 C 179.975 330.826,177.971 330.366,176.713 329.952 C 175.455 329.538,173.992 329.200,173.462 329.200 C 172.932 329.200,172.287 328.946,172.029 328.635 C 171.771 328.324,170.678 327.948,169.600 327.800 C 168.522 327.652,167.439 327.288,167.192 326.991 C 166.946 326.694,166.186 326.329,165.503 326.179 C 164.218 325.897,159.280 323.462,157.586 322.275 C 157.056 321.904,156.330 321.600,155.973 321.600 C 155.616 321.600,154.998 321.240,154.600 320.800 C 154.202 320.360,153.671 320.000,153.419 320.000 C 152.976 320.000,152.335 319.568,150.006 317.700 C 149.389 317.205,148.768 316.800,148.626 316.800 C 148.112 316.800,146.080 315.203,140.832 310.675 C 138.284 308.477,133.200 303.625,133.200 303.392 C 133.200 303.306,132.737 302.733,132.172 302.118 C 130.011 299.768,129.680 299.366,128.956 298.200 C 128.546 297.540,128.017 296.820,127.780 296.600 C 127.390 296.239,125.655 293.627,122.664 288.900 C 122.073 287.965,121.411 287.200,121.194 287.200 C 120.977 287.200,120.800 286.855,120.800 286.432 C 120.800 286.010,120.087 284.255,119.215 282.532 C 117.430 279.006,116.001 275.804,115.998 275.322 C 115.996 275.145,115.733 274.497,115.412 273.883 C 115.092 273.269,114.707 272.099,114.556 271.283 C 114.406 270.467,113.949 269.173,113.541 268.406 C 113.134 267.639,112.799 266.379,112.798 265.606 C 112.796 264.833,112.543 263.718,112.236 263.128 C 111.928 262.538,111.553 260.468,111.402 258.528 C 111.252 256.588,110.874 253.984,110.564 252.742 C 110.087 250.832,110.000 236.376,110.000 158.838 L 110.000 67.192 129.700 67.296 L 149.400 67.400 149.600 159.600 " stroke="none" fill="#94acc6" fill-rule="evenodd"></path></g></svg>