<svg id="svg" version="1.1" xmlns="http://www.w3.org/2000/svg" xmlns:xlink="http://www.w3.org/1999/xlink" width="400" height="312.8712871287129" viewBox="0, 0, 400,312.8712871287129"><g id="svgg"><path id="path0" d="M219.875 83.430 C 219.531 83.480,217.347 83.684,215.023 83.883 C 206.884 84.581,195.504 86.787,189.671 88.799 C 174.091 94.172,162.429 101.752,152.426 113.008 C 151.135 114.461,150.000 115.720,149.904 115.806 C 147.690 117.793,139.818 130.250,136.850 136.463 C 132.476 145.622,129.711 152.482,126.896 161.161 C 125.802 164.533,124.676 167.997,124.393 168.858 C 122.071 175.928,116.073 187.499,111.054 194.589 C 105.142 202.940,100.467 208.036,90.149 217.371 C 88.888 218.512,85.596 221.058,83.877 222.222 C 83.495 222.480,82.601 223.128,81.889 223.662 C 81.177 224.195,78.512 225.871,75.967 227.385 C 70.403 230.696,70.400 230.938,75.900 231.895 C 76.761 232.045,79.366 232.521,81.690 232.952 C 98.769 236.125,117.582 235.850,130.047 232.246 C 134.700 230.900,135.983 230.487,138.028 229.673 C 152.369 223.965,162.430 216.053,171.856 203.069 C 174.685 199.172,180.521 188.638,181.309 186.007 C 181.401 185.698,182.042 184.087,182.733 182.426 C 183.424 180.765,184.764 177.103,185.710 174.289 C 188.178 166.948,192.157 156.251,193.552 153.208 C 193.788 152.692,194.792 150.368,195.782 148.044 C 197.365 144.327,203.741 131.198,204.370 130.360 C 204.499 130.188,205.027 129.272,205.542 128.326 C 208.464 122.963,211.401 118.296,215.786 112.050 C 222.474 102.524,232.474 92.569,239.906 88.038 C 241.157 87.275,245.340 85.217,245.979 85.050 C 246.845 84.824,246.817 84.246,245.931 84.050 C 243.156 83.433,223.157 82.958,219.875 83.430 M297.340 87.019 C 285.162 87.698,272.211 91.607,262.128 97.646 C 261.268 98.161,260.352 98.682,260.094 98.803 C 259.621 99.025,256.303 101.278,254.679 102.481 C 251.699 104.687,247.361 108.428,245.070 110.766 C 242.717 113.169,241.463 114.554,237.691 118.917 C 235.310 121.670,231.188 127.466,228.921 131.249 C 226.764 134.847,226.875 134.589,227.398 134.789 C 227.667 134.893,228.592 134.509,229.510 133.914 C 239.167 127.647,253.842 125.580,262.441 129.277 C 262.786 129.425,264.124 129.983,265.415 130.518 C 270.028 132.430,271.638 133.959,269.038 133.959 C 268.187 133.959,263.872 134.916,260.563 135.839 C 259.186 136.222,257.637 136.647,257.121 136.783 C 250.474 138.524,233.391 147.018,230.673 149.933 C 230.587 150.025,229.390 151.011,228.014 152.124 C 220.324 158.340,212.549 168.111,208.845 176.213 C 206.451 181.449,201.738 190.378,199.958 193.052 C 199.464 193.792,199.061 194.454,199.061 194.523 C 199.061 194.592,198.638 195.274,198.122 196.039 C 197.606 196.804,197.183 197.510,197.183 197.606 C 197.183 197.795,191.957 205.595,190.436 207.676 C 185.679 214.184,178.633 222.332,173.396 227.381 C 170.379 230.290,169.838 230.760,166.264 233.574 C 164.465 234.991,162.622 236.456,162.169 236.830 L 161.346 237.511 162.193 237.835 C 163.769 238.438,172.271 239.698,177.465 240.099 C 189.486 241.027,198.510 240.454,210.329 238.012 C 215.713 236.900,216.483 236.691,219.718 235.465 C 221.354 234.845,223.247 234.139,223.925 233.895 C 234.916 229.945,248.603 219.595,256.111 209.557 C 256.244 209.379,257.018 208.387,257.832 207.352 C 263.102 200.652,269.839 188.599,273.402 179.499 C 273.874 178.294,274.507 176.745,274.809 176.056 C 275.444 174.610,277.589 168.788,278.498 166.041 C 279.783 162.158,283.251 151.208,284.196 148.044 C 288.177 134.728,292.974 121.953,296.648 114.882 C 301.892 104.791,308.168 96.837,315.238 91.321 C 319.590 87.926,318.551 87.514,304.069 86.891 C 302.692 86.832,299.664 86.890,297.340 87.019 " stroke="none" fill="#fc5a6b" fill-rule="evenodd"></path><path id="path1" d="M0.000 156.495 L 0.000 312.989 200.000 312.989 L 400.000 312.989 400.000 156.495 L 400.000 0.000 200.000 0.000 L 0.000 0.000 0.000 156.495 M241.628 83.575 C 246.592 84.014,248.052 84.508,245.979 85.050 C 245.340 85.217,241.157 87.275,239.906 88.038 C 232.474 92.569,222.474 102.524,215.786 112.050 C 211.401 118.296,208.464 122.963,205.542 128.326 C 205.027 129.272,204.499 130.188,204.370 130.360 C 203.741 131.198,197.365 144.327,195.782 148.044 C 194.792 150.368,193.788 152.692,193.552 153.208 C 192.157 156.251,188.178 166.948,185.710 174.289 C 184.764 177.103,183.424 180.765,182.733 182.426 C 182.042 184.087,181.401 185.698,181.309 186.007 C 180.521 188.638,174.685 199.172,171.856 203.069 C 162.430 216.053,152.369 223.965,138.028 229.673 C 135.983 230.487,134.700 230.900,130.047 232.246 C 117.582 235.850,98.769 236.125,81.690 232.952 C 79.366 232.521,76.761 232.045,75.900 231.895 C 70.400 230.938,70.403 230.696,75.967 227.385 C 78.512 225.871,81.177 224.195,81.889 223.662 C 82.601 223.128,83.495 222.480,83.877 222.222 C 85.596 221.058,88.888 218.512,90.149 217.371 C 100.467 208.036,105.142 202.940,111.054 194.589 C 116.073 187.499,122.071 175.928,124.393 168.858 C 124.676 167.997,125.802 164.533,126.896 161.161 C 132.486 143.927,139.586 129.459,147.848 118.466 C 148.883 117.089,149.808 115.892,149.904 115.806 C 150.000 115.720,151.135 114.461,152.426 113.008 C 162.429 101.752,174.091 94.172,189.671 88.799 C 195.504 86.787,206.884 84.581,215.023 83.883 C 217.347 83.684,219.531 83.480,219.875 83.430 C 221.579 83.185,238.484 83.297,241.628 83.575 M309.703 87.176 C 312.925 87.358,316.060 87.818,317.286 88.289 C 318.305 88.680,317.950 89.206,315.238 91.321 C 308.168 96.837,301.892 104.791,296.648 114.882 C 292.974 121.953,288.177 134.728,284.196 148.044 C 283.251 151.208,279.783 162.158,278.498 166.041 C 277.589 168.788,275.444 174.610,274.809 176.056 C 274.507 176.745,273.874 178.294,273.402 179.499 C 269.839 188.599,263.102 200.652,257.832 207.352 C 257.018 208.387,256.244 209.379,256.111 209.557 C 248.603 219.595,234.916 229.945,223.925 233.895 C 223.247 234.139,221.354 234.845,219.718 235.465 C 216.483 236.691,215.713 236.900,210.329 238.012 C 198.510 240.454,189.486 241.027,177.465 240.099 C 172.271 239.698,163.769 238.438,162.193 237.835 L 161.346 237.511 162.169 236.830 C 162.622 236.456,164.465 234.991,166.264 233.574 C 174.132 227.379,182.906 217.978,190.436 207.676 C 191.957 205.595,197.183 197.795,197.183 197.606 C 197.183 197.510,197.606 196.804,198.122 196.039 C 198.638 195.274,199.061 194.592,199.061 194.523 C 199.061 194.454,199.464 193.792,199.958 193.052 C 201.738 190.378,206.451 181.449,208.845 176.213 C 212.549 168.111,220.324 158.340,228.014 152.124 C 229.390 151.011,230.587 150.025,230.673 149.933 C 233.391 147.018,250.474 138.524,257.121 136.783 C 257.637 136.647,259.186 136.222,260.563 135.839 C 263.872 134.916,268.187 133.959,269.038 133.959 C 271.638 133.959,270.028 132.430,265.415 130.518 C 264.124 129.983,262.786 129.425,262.441 129.277 C 253.842 125.580,239.167 127.647,229.510 133.914 C 228.592 134.509,227.667 134.893,227.398 134.789 C 226.875 134.589,226.764 134.847,228.921 131.249 C 231.188 127.466,235.310 121.670,237.691 118.917 C 241.463 114.554,242.717 113.169,245.070 110.766 C 247.361 108.428,251.699 104.687,254.679 102.481 C 256.303 101.278,259.621 99.025,260.094 98.803 C 260.352 98.682,261.268 98.161,262.128 97.646 C 272.211 91.607,285.162 87.698,297.340 87.019 C 301.460 86.789,303.273 86.812,309.703 87.176 " stroke="none" fill="#fcfbfb" fill-rule="evenodd"></path></g></svg>