<svg id="svg" version="1.1" xmlns="http://www.w3.org/2000/svg" xmlns:xlink="http://www.w3.org/1999/xlink" width="400" height="400" viewBox="0, 0, 400,400"><g id="svgg"><path id="path0" d="M174.000 0.400 C 174.000 0.642,172.262 0.800,169.587 0.800 C 166.034 0.800,165.130 0.917,164.945 1.400 C 164.767 1.863,163.993 2.000,161.545 2.000 C 159.096 2.000,158.323 2.137,158.145 2.600 C 157.977 3.037,157.290 3.200,155.619 3.200 C 153.832 3.200,153.164 3.377,152.600 4.000 C 152.047 4.611,151.368 4.800,149.725 4.800 C 148.183 4.800,147.510 4.970,147.345 5.400 C 147.176 5.840,146.482 6.000,144.745 6.000 C 143.007 6.000,142.313 6.160,142.145 6.600 C 141.987 7.010,141.346 7.200,140.120 7.200 C 138.662 7.200,138.286 7.350,138.116 8.000 C 137.943 8.662,137.570 8.800,135.953 8.800 C 134.484 8.800,134.000 8.949,134.000 9.400 C 134.000 9.853,133.511 10.000,132.000 10.000 C 130.489 10.000,130.000 10.147,130.000 10.600 C 130.000 11.000,129.600 11.200,128.800 11.200 C 128.133 11.200,127.244 11.556,126.800 12.000 C 126.352 12.448,125.467 12.800,124.787 12.800 C 124.079 12.800,123.479 13.049,123.345 13.400 C 123.213 13.742,122.617 14.000,121.957 14.000 C 121.195 14.000,120.800 14.205,120.800 14.600 C 120.800 15.016,120.381 15.200,119.433 15.200 C 117.671 15.200,116.800 15.545,116.800 16.243 C 116.800 16.613,116.330 16.800,115.400 16.800 C 114.422 16.800,114.000 16.981,114.000 17.400 C 114.000 17.801,113.599 18.000,112.787 18.000 C 112.079 18.000,111.479 18.249,111.345 18.600 C 111.218 18.930,110.667 19.200,110.120 19.200 C 109.462 19.200,109.054 19.471,108.916 20.000 C 108.759 20.601,108.370 20.800,107.353 20.800 C 106.417 20.800,106.000 20.985,106.000 21.400 C 106.000 21.801,105.599 22.000,104.787 22.000 C 104.102 22.000,103.479 22.250,103.354 22.576 C 103.233 22.892,102.608 23.266,101.967 23.407 C 101.325 23.548,100.800 23.919,100.800 24.232 C 100.800 24.544,100.440 24.800,100.000 24.800 C 99.556 24.800,99.200 25.067,99.200 25.400 C 99.200 25.800,98.800 26.000,98.000 26.000 C 97.200 26.000,96.800 26.200,96.800 26.600 C 96.800 26.930,96.455 27.200,96.033 27.200 C 94.841 27.200,94.000 27.631,94.000 28.243 C 94.000 28.549,93.730 28.800,93.400 28.800 C 93.070 28.800,92.800 29.070,92.800 29.400 C 92.800 29.819,92.378 30.000,91.400 30.000 C 90.422 30.000,90.000 30.181,90.000 30.600 C 90.000 30.930,89.730 31.200,89.400 31.200 C 89.067 31.200,88.800 31.556,88.800 32.000 C 88.800 32.648,88.533 32.800,87.400 32.800 C 86.422 32.800,86.000 32.981,86.000 33.400 C 86.000 33.730,85.730 34.000,85.400 34.000 C 85.070 34.000,84.800 34.270,84.800 34.600 C 84.800 35.004,84.396 35.200,83.563 35.200 C 82.662 35.200,82.268 35.417,82.116 36.000 C 82.001 36.440,81.658 36.800,81.353 36.800 C 81.049 36.800,80.800 37.070,80.800 37.400 C 80.800 37.733,80.444 38.000,80.000 38.000 C 79.556 38.000,79.200 38.267,79.200 38.600 C 79.200 38.979,78.818 39.200,78.163 39.200 C 77.462 39.200,77.057 39.459,76.916 40.000 C 76.800 40.443,76.370 40.800,75.953 40.800 C 75.539 40.800,75.200 41.070,75.200 41.400 C 75.200 41.730,74.930 42.000,74.600 42.000 C 74.270 42.000,74.000 42.256,74.000 42.568 C 74.000 42.881,73.460 43.255,72.800 43.400 C 72.140 43.545,71.600 43.919,71.600 44.232 C 71.600 44.544,71.240 44.800,70.800 44.800 C 70.356 44.800,70.000 45.067,70.000 45.400 C 70.000 45.730,69.730 46.000,69.400 46.000 C 69.070 46.000,68.800 46.249,68.800 46.553 C 68.800 46.858,68.440 47.201,68.000 47.316 C 67.560 47.431,67.200 47.812,67.200 48.163 C 67.200 48.513,66.930 48.800,66.600 48.800 C 66.270 48.800,66.000 49.070,66.000 49.400 C 66.000 49.730,65.730 50.000,65.400 50.000 C 65.070 50.000,64.800 50.249,64.800 50.553 C 64.800 50.858,64.440 51.201,64.000 51.316 C 63.560 51.431,63.200 51.812,63.200 52.163 C 63.200 52.513,62.930 52.800,62.600 52.800 C 62.270 52.800,62.000 53.070,62.000 53.400 C 62.000 53.739,61.642 54.000,61.176 54.000 C 60.073 54.000,54.000 60.073,54.000 61.176 C 54.000 61.642,53.739 62.000,53.400 62.000 C 53.070 62.000,52.800 62.249,52.800 62.553 C 52.800 62.858,52.440 63.201,52.000 63.316 C 51.560 63.431,51.200 63.812,51.200 64.163 C 51.200 64.513,50.930 64.800,50.600 64.800 C 50.270 64.800,50.000 65.070,50.000 65.400 C 50.000 65.730,49.730 66.000,49.400 66.000 C 49.070 66.000,48.800 66.249,48.800 66.553 C 48.800 66.858,48.440 67.201,48.000 67.316 C 47.560 67.431,47.200 67.812,47.200 68.163 C 47.200 68.513,46.930 68.800,46.600 68.800 C 46.270 68.800,46.000 69.070,46.000 69.400 C 46.000 69.730,45.730 70.000,45.400 70.000 C 45.070 70.000,44.800 70.270,44.800 70.600 C 44.800 70.930,44.440 71.560,44.000 72.000 C 43.560 72.440,43.200 73.070,43.200 73.400 C 43.200 73.730,42.930 74.000,42.600 74.000 C 42.270 74.000,42.000 74.270,42.000 74.600 C 42.000 74.930,41.730 75.200,41.400 75.200 C 41.070 75.200,40.800 75.539,40.800 75.953 C 40.800 76.370,40.443 76.800,40.000 76.916 C 39.459 77.057,39.200 77.462,39.200 78.163 C 39.200 78.818,38.979 79.200,38.600 79.200 C 38.267 79.200,38.000 79.556,38.000 80.000 C 38.000 80.444,37.733 80.800,37.400 80.800 C 37.070 80.800,36.800 81.070,36.800 81.400 C 36.800 81.730,36.549 82.000,36.243 82.000 C 35.631 82.000,35.200 82.841,35.200 84.033 C 35.200 84.455,34.930 84.800,34.600 84.800 C 34.270 84.800,34.000 85.070,34.000 85.400 C 34.000 85.730,33.730 86.000,33.400 86.000 C 32.981 86.000,32.800 86.422,32.800 87.400 C 32.800 88.533,32.648 88.800,32.000 88.800 C 31.556 88.800,31.200 89.067,31.200 89.400 C 31.200 89.730,30.930 90.000,30.600 90.000 C 30.181 90.000,30.000 90.422,30.000 91.400 C 30.000 92.378,29.819 92.800,29.400 92.800 C 29.070 92.800,28.800 93.070,28.800 93.400 C 28.800 93.730,28.549 94.000,28.243 94.000 C 27.631 94.000,27.200 94.841,27.200 96.033 C 27.200 96.455,26.930 96.800,26.600 96.800 C 26.200 96.800,26.000 97.200,26.000 98.000 C 26.000 98.800,25.800 99.200,25.400 99.200 C 25.067 99.200,24.800 99.556,24.800 100.000 C 24.800 100.440,24.544 100.800,24.232 100.800 C 23.919 100.800,23.542 101.352,23.394 102.027 C 23.246 102.702,22.872 103.351,22.562 103.470 C 22.253 103.588,22.000 104.206,22.000 104.843 C 22.000 105.605,21.795 106.000,21.400 106.000 C 20.985 106.000,20.800 106.417,20.800 107.353 C 20.800 108.370,20.601 108.759,20.000 108.916 C 19.471 109.054,19.200 109.462,19.200 110.120 C 19.200 110.667,18.930 111.218,18.600 111.345 C 18.249 111.479,18.000 112.079,18.000 112.787 C 18.000 113.599,17.801 114.000,17.400 114.000 C 16.981 114.000,16.800 114.422,16.800 115.400 C 16.800 116.343,16.615 116.800,16.232 116.800 C 15.915 116.800,15.538 117.376,15.381 118.100 C 15.225 118.815,14.851 119.755,14.549 120.189 C 14.247 120.623,14.000 121.459,14.000 122.046 C 14.000 122.634,13.730 123.218,13.400 123.345 C 13.070 123.471,12.800 124.056,12.800 124.643 C 12.800 125.231,12.526 125.912,12.191 126.157 C 11.856 126.402,11.469 127.322,11.330 128.201 C 11.192 129.081,10.836 129.944,10.539 130.120 C 10.216 130.312,10.000 131.151,10.000 132.220 C 10.000 133.536,9.843 134.000,9.400 134.000 C 8.949 134.000,8.800 134.484,8.800 135.953 C 8.800 137.570,8.662 137.943,8.000 138.116 C 7.350 138.286,7.200 138.662,7.200 140.120 C 7.200 141.346,7.010 141.987,6.600 142.145 C 6.160 142.313,6.000 143.007,6.000 144.745 C 6.000 146.482,5.840 147.176,5.400 147.345 C 4.986 147.503,4.800 148.149,4.800 149.424 C 4.800 150.668,4.538 151.607,4.000 152.291 C 3.410 153.040,3.200 153.914,3.200 155.611 C 3.200 157.289,3.037 157.977,2.600 158.145 C 2.137 158.323,2.000 159.096,2.000 161.545 C 2.000 163.993,1.863 164.767,1.400 164.945 C 0.917 165.130,0.800 166.034,0.800 169.587 C 0.800 172.262,0.642 174.000,0.400 174.000 C 0.137 174.000,0.000 182.933,0.000 200.000 C 0.000 217.067,0.137 226.000,0.400 226.000 C 0.642 226.000,0.800 227.738,0.800 230.413 C 0.800 233.966,0.917 234.870,1.400 235.055 C 1.863 235.233,2.000 236.007,2.000 238.455 C 2.000 240.904,2.137 241.677,2.600 241.855 C 3.045 242.026,3.200 242.732,3.200 244.581 C 3.200 246.568,3.363 247.223,4.000 247.800 C 4.592 248.335,4.800 249.032,4.800 250.475 C 4.800 251.839,4.980 252.494,5.400 252.655 C 5.840 252.824,6.000 253.518,6.000 255.255 C 6.000 256.993,6.160 257.687,6.600 257.855 C 7.010 258.013,7.200 258.654,7.200 259.880 C 7.200 261.338,7.350 261.714,8.000 261.884 C 8.662 262.057,8.800 262.430,8.800 264.047 C 8.800 265.516,8.949 266.000,9.400 266.000 C 9.843 266.000,10.000 266.464,10.000 267.780 C 10.000 268.849,10.216 269.688,10.539 269.880 C 10.836 270.056,11.192 270.919,11.330 271.799 C 11.469 272.678,11.856 273.598,12.191 273.843 C 12.526 274.088,12.800 274.769,12.800 275.357 C 12.800 275.944,13.070 276.529,13.400 276.655 C 13.730 276.782,14.000 277.334,14.000 277.881 C 14.000 278.429,14.258 279.354,14.574 279.938 C 14.889 280.522,15.253 281.495,15.381 282.100 C 15.510 282.705,15.882 283.200,16.208 283.200 C 16.618 283.200,16.800 283.630,16.800 284.600 C 16.800 285.578,16.981 286.000,17.400 286.000 C 17.801 286.000,18.000 286.401,18.000 287.213 C 18.000 287.921,18.249 288.521,18.600 288.655 C 18.930 288.782,19.200 289.333,19.200 289.880 C 19.200 290.538,19.471 290.946,20.000 291.084 C 20.601 291.241,20.800 291.630,20.800 292.647 C 20.800 293.583,20.985 294.000,21.400 294.000 C 21.795 294.000,22.000 294.395,22.000 295.157 C 22.000 295.794,22.253 296.412,22.562 296.530 C 22.872 296.649,23.246 297.298,23.394 297.973 C 23.542 298.648,23.919 299.200,24.232 299.200 C 24.544 299.200,24.800 299.560,24.800 300.000 C 24.800 300.444,25.067 300.800,25.400 300.800 C 25.800 300.800,26.000 301.200,26.000 302.000 C 26.000 302.800,26.200 303.200,26.600 303.200 C 26.930 303.200,27.200 303.545,27.200 303.967 C 27.200 305.159,27.631 306.000,28.243 306.000 C 28.549 306.000,28.800 306.270,28.800 306.600 C 28.800 306.930,29.070 307.200,29.400 307.200 C 29.819 307.200,30.000 307.622,30.000 308.600 C 30.000 309.578,30.181 310.000,30.600 310.000 C 30.930 310.000,31.200 310.270,31.200 310.600 C 31.200 310.933,31.556 311.200,32.000 311.200 C 32.648 311.200,32.800 311.467,32.800 312.600 C 32.800 313.578,32.981 314.000,33.400 314.000 C 33.730 314.000,34.000 314.270,34.000 314.600 C 34.000 314.930,34.270 315.200,34.600 315.200 C 34.930 315.200,35.200 315.545,35.200 315.967 C 35.200 317.159,35.631 318.000,36.243 318.000 C 36.549 318.000,36.800 318.270,36.800 318.600 C 36.800 318.930,37.070 319.200,37.400 319.200 C 37.730 319.200,38.000 319.541,38.000 319.957 C 38.000 320.374,38.270 320.818,38.600 320.945 C 38.930 321.071,39.200 321.557,39.200 322.025 C 39.200 322.538,39.517 322.958,40.000 323.084 C 40.443 323.200,40.800 323.630,40.800 324.047 C 40.800 324.461,41.070 324.800,41.400 324.800 C 41.730 324.800,42.000 325.070,42.000 325.400 C 42.000 325.730,42.256 326.000,42.568 326.000 C 42.881 326.000,43.255 326.540,43.400 327.200 C 43.545 327.860,43.919 328.400,44.232 328.400 C 44.544 328.400,44.800 328.760,44.800 329.200 C 44.800 329.644,45.067 330.000,45.400 330.000 C 45.730 330.000,46.000 330.270,46.000 330.600 C 46.000 330.930,46.249 331.200,46.553 331.200 C 46.858 331.200,47.201 331.560,47.316 332.000 C 47.431 332.440,47.812 332.800,48.163 332.800 C 48.513 332.800,48.800 333.070,48.800 333.400 C 48.800 333.730,49.070 334.000,49.400 334.000 C 49.730 334.000,50.000 334.270,50.000 334.600 C 50.000 334.930,50.270 335.200,50.600 335.200 C 50.930 335.200,51.200 335.487,51.200 335.837 C 51.200 336.188,51.560 336.569,52.000 336.684 C 52.440 336.799,52.800 337.142,52.800 337.447 C 52.800 337.751,53.070 338.000,53.400 338.000 C 53.739 338.000,54.000 338.358,54.000 338.824 C 54.000 339.927,60.073 346.000,61.176 346.000 C 61.642 346.000,62.000 346.261,62.000 346.600 C 62.000 346.930,62.270 347.200,62.600 347.200 C 62.930 347.200,63.200 347.487,63.200 347.837 C 63.200 348.188,63.560 348.569,64.000 348.684 C 64.440 348.799,64.800 349.142,64.800 349.447 C 64.800 349.751,65.070 350.000,65.400 350.000 C 65.730 350.000,66.000 350.270,66.000 350.600 C 66.000 350.930,66.270 351.200,66.600 351.200 C 66.930 351.200,67.200 351.487,67.200 351.837 C 67.200 352.188,67.560 352.569,68.000 352.684 C 68.440 352.799,68.800 353.142,68.800 353.447 C 68.800 353.751,69.070 354.000,69.400 354.000 C 69.730 354.000,70.000 354.270,70.000 354.600 C 70.000 354.933,70.356 355.200,70.800 355.200 C 71.240 355.200,71.600 355.456,71.600 355.768 C 71.600 356.081,72.140 356.455,72.800 356.600 C 73.460 356.745,74.000 357.119,74.000 357.432 C 74.000 357.744,74.270 358.000,74.600 358.000 C 74.930 358.000,75.200 358.270,75.200 358.600 C 75.200 358.930,75.539 359.200,75.953 359.200 C 76.370 359.200,76.800 359.557,76.916 360.000 C 77.057 360.541,77.462 360.800,78.163 360.800 C 78.818 360.800,79.200 361.021,79.200 361.400 C 79.200 361.733,79.556 362.000,80.000 362.000 C 80.444 362.000,80.800 362.267,80.800 362.600 C 80.800 362.930,81.049 363.200,81.353 363.200 C 81.658 363.200,82.001 363.560,82.116 364.000 C 82.268 364.583,82.662 364.800,83.563 364.800 C 84.396 364.800,84.800 364.996,84.800 365.400 C 84.800 365.730,85.070 366.000,85.400 366.000 C 85.730 366.000,86.000 366.270,86.000 366.600 C 86.000 367.019,86.422 367.200,87.400 367.200 C 88.533 367.200,88.800 367.352,88.800 368.000 C 88.800 368.444,89.067 368.800,89.400 368.800 C 89.730 368.800,90.000 369.070,90.000 369.400 C 90.000 369.819,90.422 370.000,91.400 370.000 C 92.378 370.000,92.800 370.181,92.800 370.600 C 92.800 370.930,93.070 371.200,93.400 371.200 C 93.730 371.200,94.000 371.451,94.000 371.757 C 94.000 372.369,94.841 372.800,96.033 372.800 C 96.455 372.800,96.800 373.070,96.800 373.400 C 96.800 373.800,97.200 374.000,98.000 374.000 C 98.800 374.000,99.200 374.200,99.200 374.600 C 99.200 374.933,99.556 375.200,100.000 375.200 C 100.440 375.200,100.800 375.456,100.800 375.768 C 100.800 376.081,101.325 376.452,101.967 376.593 C 102.608 376.734,103.233 377.108,103.354 377.424 C 103.479 377.750,104.102 378.000,104.787 378.000 C 105.599 378.000,106.000 378.199,106.000 378.600 C 106.000 379.019,106.422 379.200,107.400 379.200 C 108.533 379.200,108.800 379.352,108.800 380.000 C 108.800 380.616,109.067 380.800,109.957 380.800 C 110.617 380.800,111.213 381.058,111.345 381.400 C 111.479 381.751,112.079 382.000,112.787 382.000 C 113.599 382.000,114.000 382.199,114.000 382.600 C 114.000 383.019,114.422 383.200,115.400 383.200 C 116.330 383.200,116.800 383.387,116.800 383.757 C 116.800 384.455,117.671 384.800,119.433 384.800 C 120.381 384.800,120.800 384.984,120.800 385.400 C 120.800 385.795,121.195 386.000,121.957 386.000 C 122.617 386.000,123.213 386.258,123.345 386.600 C 123.478 386.948,124.076 387.200,124.768 387.200 C 125.436 387.200,126.115 387.476,126.312 387.829 C 126.506 388.175,127.415 388.559,128.332 388.682 C 129.368 388.821,130.000 389.113,130.000 389.453 C 130.000 389.843,130.574 390.000,132.000 390.000 C 133.511 390.000,134.000 390.147,134.000 390.600 C 134.000 391.051,134.484 391.200,135.953 391.200 C 137.570 391.200,137.943 391.338,138.116 392.000 C 138.286 392.650,138.662 392.800,140.120 392.800 C 141.346 392.800,141.987 392.990,142.145 393.400 C 142.313 393.840,143.007 394.000,144.745 394.000 C 146.482 394.000,147.176 394.160,147.345 394.600 C 147.502 395.011,148.145 395.200,149.387 395.200 C 150.667 395.200,151.435 395.435,152.000 396.000 C 152.633 396.633,153.333 396.800,155.357 396.800 C 157.261 396.800,157.973 396.953,158.145 397.400 C 158.323 397.864,159.101 398.000,161.587 398.000 C 164.176 398.000,164.800 398.116,164.800 398.600 C 164.800 399.099,165.578 399.200,169.400 399.200 C 172.200 399.200,174.000 399.357,174.000 399.600 C 174.000 399.863,182.933 400.000,200.000 400.000 C 217.067 400.000,226.000 399.863,226.000 399.600 C 226.000 399.357,227.800 399.200,230.600 399.200 C 234.422 399.200,235.200 399.099,235.200 398.600 C 235.200 398.116,235.824 398.000,238.413 398.000 C 240.899 398.000,241.677 397.864,241.855 397.400 C 242.027 396.953,242.739 396.800,244.643 396.800 C 246.667 396.800,247.367 396.633,248.000 396.000 C 248.565 395.435,249.333 395.200,250.613 395.200 C 251.855 395.200,252.498 395.011,252.655 394.600 C 252.824 394.160,253.518 394.000,255.255 394.000 C 256.993 394.000,257.687 393.840,257.855 393.400 C 258.013 392.990,258.654 392.800,259.880 392.800 C 261.338 392.800,261.714 392.650,261.884 392.000 C 262.057 391.338,262.430 391.200,264.047 391.200 C 265.516 391.200,266.000 391.051,266.000 390.600 C 266.000 390.147,266.489 390.000,268.000 390.000 C 269.511 390.000,270.000 389.853,270.000 389.400 C 270.000 389.000,270.400 388.800,271.200 388.800 C 271.867 388.800,272.756 388.444,273.200 388.000 C 273.648 387.552,274.533 387.200,275.213 387.200 C 275.921 387.200,276.521 386.951,276.655 386.600 C 276.787 386.258,277.383 386.000,278.043 386.000 C 278.805 386.000,279.200 385.795,279.200 385.400 C 279.200 384.984,279.619 384.800,280.567 384.800 C 282.329 384.800,283.200 384.455,283.200 383.757 C 283.200 383.387,283.670 383.200,284.600 383.200 C 285.578 383.200,286.000 383.019,286.000 382.600 C 286.000 382.199,286.401 382.000,287.213 382.000 C 287.921 382.000,288.521 381.751,288.655 381.400 C 288.787 381.058,289.383 380.800,290.043 380.800 C 290.933 380.800,291.200 380.616,291.200 380.000 C 291.200 379.352,291.467 379.200,292.600 379.200 C 293.578 379.200,294.000 379.019,294.000 378.600 C 294.000 378.199,294.401 378.000,295.213 378.000 C 295.898 378.000,296.521 377.750,296.646 377.424 C 296.767 377.108,297.392 376.734,298.033 376.593 C 298.675 376.452,299.200 376.081,299.200 375.768 C 299.200 375.456,299.560 375.200,300.000 375.200 C 300.444 375.200,300.800 374.933,300.800 374.600 C 300.800 374.200,301.200 374.000,302.000 374.000 C 302.800 374.000,303.200 373.800,303.200 373.400 C 303.200 373.070,303.545 372.800,303.967 372.800 C 305.159 372.800,306.000 372.369,306.000 371.757 C 306.000 371.451,306.270 371.200,306.600 371.200 C 306.930 371.200,307.200 370.930,307.200 370.600 C 307.200 370.181,307.622 370.000,308.600 370.000 C 309.578 370.000,310.000 369.819,310.000 369.400 C 310.000 369.070,310.270 368.800,310.600 368.800 C 310.933 368.800,311.200 368.444,311.200 368.000 C 311.200 367.352,311.467 367.200,312.600 367.200 C 313.578 367.200,314.000 367.019,314.000 366.600 C 314.000 366.270,314.270 366.000,314.600 366.000 C 314.930 366.000,315.200 365.730,315.200 365.400 C 315.200 364.996,315.604 364.800,316.437 364.800 C 317.338 364.800,317.732 364.583,317.884 364.000 C 317.999 363.560,318.342 363.200,318.647 363.200 C 318.951 363.200,319.200 362.930,319.200 362.600 C 319.200 362.267,319.556 362.000,320.000 362.000 C 320.444 362.000,320.800 361.733,320.800 361.400 C 320.800 361.021,321.182 360.800,321.837 360.800 C 322.538 360.800,322.943 360.541,323.084 360.000 C 323.200 359.557,323.630 359.200,324.047 359.200 C 324.461 359.200,324.800 358.930,324.800 358.600 C 324.800 358.270,325.070 358.000,325.400 358.000 C 325.730 358.000,326.000 357.744,326.000 357.432 C 326.000 357.119,326.540 356.745,327.200 356.600 C 327.860 356.455,328.400 356.081,328.400 355.768 C 328.400 355.456,328.760 355.200,329.200 355.200 C 329.644 355.200,330.000 354.933,330.000 354.600 C 330.000 354.270,330.270 354.000,330.600 354.000 C 330.930 354.000,331.200 353.751,331.200 353.447 C 331.200 353.142,331.560 352.799,332.000 352.684 C 332.440 352.569,332.800 352.188,332.800 351.837 C 332.800 351.487,333.070 351.200,333.400 351.200 C 333.730 351.200,334.000 350.930,334.000 350.600 C 334.000 350.270,334.270 350.000,334.600 350.000 C 334.930 350.000,335.200 349.751,335.200 349.447 C 335.200 349.142,335.560 348.799,336.000 348.684 C 336.440 348.569,336.800 348.188,336.800 347.837 C 336.800 347.487,337.070 347.200,337.400 347.200 C 337.730 347.200,338.000 346.930,338.000 346.600 C 338.000 346.261,338.358 346.000,338.824 346.000 C 339.927 346.000,346.000 339.927,346.000 338.824 C 346.000 338.358,346.261 338.000,346.600 338.000 C 346.930 338.000,347.200 337.751,347.200 337.447 C 347.200 337.142,347.560 336.799,348.000 336.684 C 348.440 336.569,348.800 336.188,348.800 335.837 C 348.800 335.487,349.070 335.200,349.400 335.200 C 349.730 335.200,350.000 334.930,350.000 334.600 C 350.000 334.270,350.270 334.000,350.600 334.000 C 350.930 334.000,351.200 333.751,351.200 333.447 C 351.200 333.142,351.560 332.799,352.000 332.684 C 352.440 332.569,352.800 332.188,352.800 331.837 C 352.800 331.487,353.070 331.200,353.400 331.200 C 353.730 331.200,354.000 330.930,354.000 330.600 C 354.000 330.270,354.270 330.000,354.600 330.000 C 354.930 330.000,355.200 329.730,355.200 329.400 C 355.200 329.070,355.560 328.440,356.000 328.000 C 356.440 327.560,356.800 326.930,356.800 326.600 C 356.800 326.270,357.070 326.000,357.400 326.000 C 357.730 326.000,358.000 325.730,358.000 325.400 C 358.000 325.070,358.270 324.800,358.600 324.800 C 358.930 324.800,359.200 324.461,359.200 324.047 C 359.200 323.630,359.557 323.200,360.000 323.084 C 360.541 322.943,360.800 322.538,360.800 321.837 C 360.800 321.182,361.021 320.800,361.400 320.800 C 361.733 320.800,362.000 320.444,362.000 320.000 C 362.000 319.556,362.267 319.200,362.600 319.200 C 362.930 319.200,363.200 318.930,363.200 318.600 C 363.200 318.270,363.451 318.000,363.757 318.000 C 364.369 318.000,364.800 317.159,364.800 315.967 C 364.800 315.545,365.070 315.200,365.400 315.200 C 365.730 315.200,366.000 314.930,366.000 314.600 C 366.000 314.270,366.270 314.000,366.600 314.000 C 367.019 314.000,367.200 313.578,367.200 312.600 C 367.200 311.467,367.352 311.200,368.000 311.200 C 368.444 311.200,368.800 310.933,368.800 310.600 C 368.800 310.270,369.070 310.000,369.400 310.000 C 369.819 310.000,370.000 309.578,370.000 308.600 C 370.000 307.622,370.181 307.200,370.600 307.200 C 370.930 307.200,371.200 306.930,371.200 306.600 C 371.200 306.270,371.451 306.000,371.757 306.000 C 372.369 306.000,372.800 305.159,372.800 303.967 C 372.800 303.545,373.070 303.200,373.400 303.200 C 373.800 303.200,374.000 302.800,374.000 302.000 C 374.000 301.200,374.200 300.800,374.600 300.800 C 374.933 300.800,375.200 300.444,375.200 300.000 C 375.200 299.560,375.456 299.200,375.768 299.200 C 376.081 299.200,376.458 298.648,376.606 297.973 C 376.754 297.298,377.128 296.649,377.438 296.530 C 377.747 296.412,378.000 295.794,378.000 295.157 C 378.000 294.395,378.205 294.000,378.600 294.000 C 379.015 294.000,379.200 293.583,379.200 292.647 C 379.200 291.630,379.399 291.241,380.000 291.084 C 380.529 290.946,380.800 290.538,380.800 289.880 C 380.800 289.333,381.070 288.782,381.400 288.655 C 381.751 288.521,382.000 287.921,382.000 287.213 C 382.000 286.401,382.199 286.000,382.600 286.000 C 383.019 286.000,383.200 285.578,383.200 284.600 C 383.200 283.657,383.385 283.200,383.768 283.200 C 384.085 283.200,384.462 282.624,384.619 281.900 C 384.775 281.185,385.149 280.245,385.451 279.811 C 385.753 279.377,386.000 278.541,386.000 277.954 C 386.000 277.366,386.270 276.782,386.600 276.655 C 386.930 276.529,387.200 275.944,387.200 275.357 C 387.200 274.769,387.474 274.088,387.809 273.843 C 388.144 273.598,388.531 272.678,388.670 271.799 C 388.808 270.919,389.164 270.056,389.461 269.880 C 389.784 269.688,390.000 268.849,390.000 267.780 C 390.000 266.464,390.157 266.000,390.600 266.000 C 391.051 266.000,391.200 265.516,391.200 264.047 C 391.200 262.430,391.338 262.057,392.000 261.884 C 392.650 261.714,392.800 261.338,392.800 259.880 C 392.800 258.654,392.990 258.013,393.400 257.855 C 393.840 257.687,394.000 256.993,394.000 255.255 C 394.000 253.518,394.160 252.824,394.600 252.655 C 395.030 252.490,395.200 251.817,395.200 250.275 C 395.200 248.632,395.389 247.953,396.000 247.400 C 396.623 246.836,396.800 246.168,396.800 244.381 C 396.800 242.710,396.963 242.023,397.400 241.855 C 397.863 241.677,398.000 240.904,398.000 238.455 C 398.000 236.007,398.137 235.233,398.600 235.055 C 399.085 234.869,399.200 233.944,399.200 230.213 C 399.200 227.404,399.356 225.600,399.600 225.600 C 399.863 225.600,400.000 216.733,400.000 199.800 C 400.000 182.867,399.863 174.000,399.600 174.000 C 399.358 174.000,399.200 172.262,399.200 169.587 C 399.200 166.034,399.083 165.130,398.600 164.945 C 398.137 164.767,398.000 163.993,398.000 161.545 C 398.000 159.096,397.863 158.323,397.400 158.145 C 396.963 157.977,396.800 157.290,396.800 155.619 C 396.800 153.832,396.623 153.164,396.000 152.600 C 395.389 152.047,395.200 151.368,395.200 149.725 C 395.200 148.183,395.030 147.510,394.600 147.345 C 394.160 147.176,394.000 146.482,394.000 144.745 C 394.000 143.007,393.840 142.313,393.400 142.145 C 392.990 141.987,392.800 141.346,392.800 140.120 C 392.800 138.662,392.650 138.286,392.000 138.116 C 391.338 137.943,391.200 137.570,391.200 135.953 C 391.200 134.484,391.051 134.000,390.600 134.000 C 390.155 134.000,390.000 133.532,390.000 132.187 C 390.000 130.945,389.811 130.302,389.400 130.145 C 389.058 130.013,388.800 129.417,388.800 128.757 C 388.800 128.121,388.440 127.240,388.000 126.800 C 387.552 126.352,387.200 125.467,387.200 124.787 C 387.200 124.079,386.951 123.479,386.600 123.345 C 386.265 123.216,386.000 122.622,386.000 122.000 C 386.000 121.378,385.735 120.784,385.400 120.655 C 385.070 120.529,384.798 120.014,384.795 119.513 C 384.785 117.974,384.335 116.800,383.753 116.800 C 383.388 116.800,383.200 116.325,383.200 115.400 C 383.200 114.422,383.019 114.000,382.600 114.000 C 382.199 114.000,382.000 113.599,382.000 112.787 C 382.000 112.079,381.751 111.479,381.400 111.345 C 381.070 111.218,380.800 110.667,380.800 110.120 C 380.800 109.462,380.529 109.054,380.000 108.916 C 379.399 108.759,379.200 108.370,379.200 107.353 C 379.200 106.417,379.015 106.000,378.600 106.000 C 378.205 106.000,378.000 105.605,378.000 104.843 C 378.000 104.206,377.747 103.588,377.438 103.470 C 377.128 103.351,376.754 102.702,376.606 102.027 C 376.458 101.352,376.081 100.800,375.768 100.800 C 375.456 100.800,375.200 100.440,375.200 100.000 C 375.200 99.556,374.933 99.200,374.600 99.200 C 374.200 99.200,374.000 98.800,374.000 98.000 C 374.000 97.243,373.795 96.800,373.445 96.800 C 373.126 96.800,372.777 96.202,372.626 95.400 C 372.469 94.562,372.130 94.000,371.782 94.000 C 371.462 94.000,371.200 93.730,371.200 93.400 C 371.200 93.070,370.930 92.800,370.600 92.800 C 370.181 92.800,370.000 92.378,370.000 91.400 C 370.000 90.422,369.819 90.000,369.400 90.000 C 369.070 90.000,368.800 89.730,368.800 89.400 C 368.800 89.067,368.444 88.800,368.000 88.800 C 367.352 88.800,367.200 88.533,367.200 87.400 C 367.200 86.422,367.019 86.000,366.600 86.000 C 366.270 86.000,366.000 85.730,366.000 85.400 C 366.000 85.070,365.730 84.800,365.400 84.800 C 365.070 84.800,364.800 84.455,364.800 84.033 C 364.800 82.841,364.369 82.000,363.757 82.000 C 363.451 82.000,363.200 81.730,363.200 81.400 C 363.200 81.070,362.930 80.800,362.600 80.800 C 362.267 80.800,362.000 80.444,362.000 80.000 C 362.000 79.556,361.733 79.200,361.400 79.200 C 361.021 79.200,360.800 78.818,360.800 78.163 C 360.800 77.462,360.541 77.057,360.000 76.916 C 359.557 76.800,359.200 76.370,359.200 75.953 C 359.200 75.539,358.930 75.200,358.600 75.200 C 358.270 75.200,358.000 74.930,358.000 74.600 C 358.000 74.270,357.730 74.000,357.400 74.000 C 357.070 74.000,356.800 73.730,356.800 73.400 C 356.800 73.070,356.440 72.440,356.000 72.000 C 355.560 71.560,355.200 70.930,355.200 70.600 C 355.200 70.270,354.930 70.000,354.600 70.000 C 354.270 70.000,354.000 69.730,354.000 69.400 C 354.000 69.070,353.751 68.800,353.447 68.800 C 353.142 68.800,352.799 68.440,352.684 68.000 C 352.569 67.560,352.188 67.200,351.837 67.200 C 351.487 67.200,351.200 66.930,351.200 66.600 C 351.200 66.270,350.930 66.000,350.600 66.000 C 350.270 66.000,350.000 65.730,350.000 65.400 C 350.000 65.070,349.751 64.800,349.447 64.800 C 349.142 64.800,348.799 64.440,348.684 64.000 C 348.569 63.560,348.188 63.200,347.837 63.200 C 347.487 63.200,347.200 62.930,347.200 62.600 C 347.200 62.270,346.950 62.000,346.643 62.000 C 346.337 62.000,345.975 61.554,345.838 61.008 C 345.515 59.721,340.279 54.485,338.992 54.162 C 338.446 54.025,338.000 53.663,338.000 53.357 C 338.000 53.050,337.751 52.800,337.447 52.800 C 337.142 52.800,336.799 52.440,336.684 52.000 C 336.569 51.560,336.188 51.200,335.837 51.200 C 335.487 51.200,335.200 50.930,335.200 50.600 C 335.200 50.270,334.930 50.000,334.600 50.000 C 334.270 50.000,334.000 49.730,334.000 49.400 C 334.000 49.070,333.751 48.800,333.447 48.800 C 333.142 48.800,332.799 48.440,332.684 48.000 C 332.569 47.560,332.188 47.200,331.837 47.200 C 331.487 47.200,331.200 46.930,331.200 46.600 C 331.200 46.270,330.930 46.000,330.600 46.000 C 330.270 46.000,330.000 45.730,330.000 45.400 C 330.000 45.070,329.730 44.800,329.400 44.800 C 329.070 44.800,328.440 44.440,328.000 44.000 C 327.560 43.560,326.930 43.200,326.600 43.200 C 326.270 43.200,326.000 42.930,326.000 42.600 C 326.000 42.270,325.730 42.000,325.400 42.000 C 325.070 42.000,324.800 41.730,324.800 41.400 C 324.800 41.070,324.461 40.800,324.047 40.800 C 323.630 40.800,323.200 40.443,323.084 40.000 C 322.943 39.459,322.538 39.200,321.837 39.200 C 321.182 39.200,320.800 38.979,320.800 38.600 C 320.800 38.267,320.444 38.000,320.000 38.000 C 319.556 38.000,319.200 37.733,319.200 37.400 C 319.200 37.070,318.930 36.800,318.600 36.800 C 318.270 36.800,318.000 36.549,318.000 36.243 C 318.000 35.631,317.159 35.200,315.967 35.200 C 315.545 35.200,315.200 34.930,315.200 34.600 C 315.200 34.270,314.930 34.000,314.600 34.000 C 314.270 34.000,314.000 33.730,314.000 33.400 C 314.000 32.981,313.578 32.800,312.600 32.800 C 311.467 32.800,311.200 32.648,311.200 32.000 C 311.200 31.556,310.933 31.200,310.600 31.200 C 310.270 31.200,310.000 30.930,310.000 30.600 C 310.000 30.181,309.578 30.000,308.600 30.000 C 307.622 30.000,307.200 29.819,307.200 29.400 C 307.200 29.070,306.930 28.800,306.600 28.800 C 306.270 28.800,306.000 28.549,306.000 28.243 C 306.000 27.631,305.159 27.200,303.967 27.200 C 303.545 27.200,303.200 26.930,303.200 26.600 C 303.200 26.200,302.800 26.000,302.000 26.000 C 301.200 26.000,300.800 25.800,300.800 25.400 C 300.800 25.067,300.444 24.800,300.000 24.800 C 299.560 24.800,299.200 24.544,299.200 24.232 C 299.200 23.919,298.675 23.548,298.033 23.407 C 297.392 23.266,296.767 22.892,296.646 22.576 C 296.521 22.250,295.898 22.000,295.213 22.000 C 294.401 22.000,294.000 21.801,294.000 21.400 C 294.000 20.985,293.583 20.800,292.647 20.800 C 291.630 20.800,291.241 20.601,291.084 20.000 C 290.946 19.471,290.538 19.200,289.880 19.200 C 289.333 19.200,288.782 18.930,288.655 18.600 C 288.521 18.249,287.921 18.000,287.213 18.000 C 286.401 18.000,286.000 17.801,286.000 17.400 C 286.000 16.981,285.578 16.800,284.600 16.800 C 283.670 16.800,283.200 16.613,283.200 16.243 C 283.200 15.545,282.329 15.200,280.567 15.200 C 279.619 15.200,279.200 15.016,279.200 14.600 C 279.200 14.205,278.805 14.000,278.043 14.000 C 277.383 14.000,276.787 13.742,276.655 13.400 C 276.521 13.049,275.921 12.800,275.213 12.800 C 274.533 12.800,273.648 12.448,273.200 12.000 C 272.756 11.556,271.867 11.200,271.200 11.200 C 270.400 11.200,270.000 11.000,270.000 10.600 C 270.000 10.147,269.511 10.000,268.000 10.000 C 266.489 10.000,266.000 9.853,266.000 9.400 C 266.000 8.949,265.516 8.800,264.047 8.800 C 262.430 8.800,262.057 8.662,261.884 8.000 C 261.714 7.350,261.338 7.200,259.880 7.200 C 258.654 7.200,258.013 7.010,257.855 6.600 C 257.687 6.160,256.993 6.000,255.255 6.000 C 253.518 6.000,252.824 5.840,252.655 5.400 C 252.484 4.953,251.771 4.800,249.859 4.800 C 247.630 4.800,247.266 4.695,247.084 4.000 C 246.904 3.312,246.538 3.200,244.480 3.200 C 242.721 3.200,242.025 3.041,241.855 2.600 C 241.677 2.137,240.904 2.000,238.455 2.000 C 236.007 2.000,235.233 1.863,235.055 1.400 C 234.869 0.915,233.944 0.800,230.213 0.800 C 227.404 0.800,225.600 0.644,225.600 0.400 C 225.600 0.137,216.733 0.000,199.800 0.000 C 182.867 0.000,174.000 0.137,174.000 0.400 M276.200 136.387 C 285.633 140.558,282.640 155.648,272.249 156.308 C 265.302 156.749,261.372 153.153,261.422 146.400 C 261.482 138.326,269.026 133.215,276.200 136.387 M227.712 137.400 C 227.256 143.611,227.414 159.474,227.938 160.100 C 228.466 160.731,229.466 160.800,238.013 160.800 C 248.957 160.800,248.536 160.656,248.011 164.218 C 246.859 172.025,241.941 175.971,232.927 176.318 C 230.206 176.423,227.886 176.661,227.771 176.847 C 227.340 177.544,227.496 203.426,227.949 206.331 C 229.446 215.938,236.321 220.727,246.293 219.111 C 251.325 218.295,251.601 218.474,251.598 222.562 C 251.588 240.644,221.053 239.902,212.020 221.600 C 208.423 214.314,208.289 213.033,208.116 184.400 C 207.946 156.182,208.223 148.659,209.565 145.140 C 211.654 139.664,218.066 135.916,225.000 136.118 L 227.800 136.200 227.712 137.400 M101.400 161.989 C 113.325 165.202,120.811 174.724,122.956 189.406 C 123.891 195.803,123.896 230.386,122.963 236.666 C 121.476 246.673,117.581 254.033,111.115 259.056 C 99.630 267.978,76.007 265.994,63.808 255.083 C 60.743 252.342,60.594 251.838,61.979 248.914 C 65.012 242.512,69.804 241.087,76.684 244.542 C 89.064 250.760,98.721 249.564,102.615 241.331 C 104.888 236.527,105.101 223.164,102.881 224.699 C 102.506 224.958,101.390 225.558,100.400 226.033 C 99.410 226.507,98.291 227.052,97.913 227.243 C 91.727 230.373,77.990 228.957,71.443 224.515 C 50.896 210.572,52.965 174.436,74.903 164.076 C 81.898 160.772,93.495 159.859,101.400 161.989 M174.400 161.205 C 188.851 163.420,197.600 172.457,197.600 185.170 C 197.600 201.453,185.545 207.204,155.612 205.200 C 152.024 204.960,151.966 205.055,153.186 209.151 C 154.397 213.219,156.383 215.553,160.267 217.472 L 163.360 219.000 168.780 218.969 C 174.187 218.939,175.666 218.662,179.400 216.980 C 187.735 213.226,191.731 214.267,195.154 221.084 C 196.827 224.416,194.892 226.626,186.800 230.624 C 156.186 245.750,128.046 224.236,134.227 190.431 C 137.994 169.834,154.127 158.097,174.400 161.205 M281.031 162.791 C 281.279 163.039,281.304 164.770,281.101 167.491 C 280.431 176.467,280.913 215.225,281.715 216.836 C 283.040 219.495,284.495 220.207,288.506 220.154 C 292.672 220.100,292.594 219.989,292.327 225.582 C 291.717 238.332,270.185 239.078,263.892 226.567 C 261.607 222.024,261.599 221.936,261.606 198.338 C 261.614 168.925,262.258 166.716,271.728 163.645 C 275.517 162.416,280.224 161.984,281.031 162.791 M341.529 162.748 C 342.803 163.555,343.220 169.733,342.178 172.339 C 340.797 175.790,337.747 177.358,330.385 178.402 C 325.489 179.097,322.802 180.997,320.861 185.137 L 319.800 187.400 319.797 211.000 L 319.793 234.600 315.706 234.535 C 307.084 234.398,302.749 231.491,301.066 224.718 C 300.104 220.843,300.079 191.674,301.035 186.943 C 303.971 172.401,312.595 164.504,327.400 162.798 C 330.917 162.393,340.914 162.357,341.529 162.748 M86.279 177.755 C 74.028 182.306,72.672 204.891,84.316 210.458 C 91.739 214.006,99.219 211.570,102.693 204.474 L 104.198 201.400 104.199 194.600 C 104.200 185.267,102.563 181.348,97.507 178.582 C 94.962 177.190,88.986 176.750,86.279 177.755 M163.600 177.762 C 160.536 178.917,160.067 179.198,157.891 181.186 C 154.649 184.149,152.253 189.777,153.562 191.354 C 155.453 193.633,173.593 193.370,177.085 191.014 C 186.127 184.912,174.626 173.609,163.600 177.762 " stroke="none" fill="#5c3cbc" fill-rule="evenodd"></path><path id="path1" d="M269.292 135.811 C 259.544 138.477,258.436 153.512,267.800 156.054 C 270.333 156.742,274.845 156.300,276.449 155.206 C 286.741 148.191,280.992 132.612,269.292 135.811 M220.018 136.631 C 211.895 138.844,208.987 142.968,208.333 153.200 C 207.679 163.443,208.144 209.283,208.935 212.529 C 212.205 225.948,218.409 232.586,229.926 234.989 C 242.281 237.567,251.593 232.228,251.598 222.562 C 251.601 218.474,251.325 218.295,246.293 219.111 C 236.321 220.727,229.446 215.938,227.949 206.331 C 227.496 203.426,227.340 177.544,227.771 176.847 C 227.886 176.661,230.206 176.423,232.927 176.318 C 241.941 175.971,246.859 172.025,248.011 164.218 C 248.536 160.656,248.957 160.800,238.013 160.800 C 229.466 160.800,228.466 160.731,227.938 160.100 C 227.414 159.474,227.256 143.611,227.712 137.400 L 227.800 136.200 225.000 136.118 C 223.460 136.073,221.218 136.304,220.018 136.631 M84.400 161.215 C 67.171 164.134,57.430 176.407,57.428 195.200 C 57.427 207.175,61.273 216.161,69.329 223.000 C 75.932 228.606,90.845 230.820,97.913 227.243 C 98.291 227.052,99.410 226.507,100.400 226.033 C 101.390 225.558,102.506 224.958,102.881 224.699 C 105.101 223.164,104.888 236.527,102.615 241.331 C 98.721 249.564,89.064 250.760,76.684 244.542 C 69.804 241.087,65.012 242.512,61.979 248.914 C 60.594 251.838,60.743 252.342,63.808 255.083 C 76.007 265.994,99.630 267.978,111.115 259.056 C 121.568 250.936,123.600 243.456,123.600 213.094 C 123.600 185.647,122.523 179.944,115.672 171.109 C 109.635 163.323,96.495 159.165,84.400 161.215 M161.666 161.248 C 147.421 163.617,137.129 174.563,134.227 190.431 C 128.046 224.236,156.186 245.750,186.800 230.624 C 194.892 226.626,196.827 224.416,195.154 221.084 C 191.731 214.267,187.735 213.226,179.400 216.980 C 175.666 218.662,174.187 218.939,168.780 218.969 L 163.360 219.000 160.267 217.472 C 156.383 215.553,154.397 213.219,153.186 209.151 C 151.966 205.055,152.024 204.960,155.612 205.200 C 185.545 207.204,197.600 201.453,197.600 185.170 C 197.600 168.727,181.429 157.962,161.666 161.248 M275.200 162.676 C 268.074 163.868,263.710 167.700,262.204 174.087 C 261.282 177.998,261.322 219.112,262.251 222.338 C 267.546 240.726,296.876 239.489,292.254 221.073 C 292.020 220.141,291.894 220.110,288.506 220.154 C 284.495 220.207,283.040 219.495,281.715 216.836 C 280.913 215.225,280.431 176.467,281.101 167.491 C 281.498 162.175,280.937 161.717,275.200 162.676 M327.400 162.798 C 312.595 164.504,303.971 172.401,301.035 186.943 C 300.079 191.674,300.104 220.843,301.066 224.718 C 302.749 231.491,307.084 234.398,315.706 234.535 L 319.793 234.600 319.797 211.000 L 319.800 187.400 320.861 185.137 C 322.802 180.997,325.489 179.097,330.385 178.402 C 337.747 177.358,340.797 175.790,342.178 172.339 C 343.220 169.733,342.803 163.555,341.529 162.748 C 340.914 162.357,330.917 162.393,327.400 162.798 M97.507 178.582 C 102.563 181.348,104.200 185.267,104.199 194.600 L 104.198 201.400 102.693 204.474 C 99.219 211.570,91.739 214.006,84.316 210.458 C 72.672 204.891,74.028 182.306,86.279 177.755 C 88.986 176.750,94.962 177.190,97.507 178.582 M174.310 177.994 C 182.698 180.904,182.239 190.243,173.600 192.440 C 169.520 193.478,154.656 192.672,153.562 191.354 C 152.253 189.777,154.649 184.149,157.891 181.186 C 160.067 179.198,160.536 178.917,163.600 177.762 C 165.807 176.931,171.607 177.057,174.310 177.994 " stroke="none" fill="#f9d10e" fill-rule="evenodd"></path></g></svg>