<svg id="svg" version="1.1" xmlns="http://www.w3.org/2000/svg" xmlns:xlink="http://www.w3.org/1999/xlink" width="400" height="400" viewBox="0, 0, 400,400"><g id="svgg"><path id="path0" d="M0.000 200.000 L 0.000 400.000 200.000 400.000 L 400.000 400.000 400.000 200.000 L 400.000 0.000 200.000 0.000 L 0.000 0.000 0.000 200.000 M143.410 92.800 C 144.000 93.350,149.632 101.000,155.926 109.800 C 162.220 118.600,167.514 125.980,167.692 126.200 C 168.193 126.821,175.174 136.612,177.326 139.714 C 178.385 141.240,179.418 142.694,179.621 142.945 C 180.313 143.799,182.619 146.995,185.000 150.400 C 186.308 152.270,187.520 153.980,187.694 154.200 C 189.415 156.380,190.400 157.756,190.400 157.980 C 190.400 158.128,190.768 158.644,191.218 159.127 C 191.668 159.610,193.048 161.489,194.283 163.303 C 195.519 165.116,196.654 166.690,196.805 166.800 C 196.956 166.910,197.511 167.654,198.040 168.453 C 199.879 171.236,204.585 177.805,205.290 178.575 C 205.680 179.002,206.000 179.469,206.000 179.613 C 206.000 179.758,206.451 180.399,207.002 181.038 C 207.554 181.677,208.106 182.515,208.229 182.900 C 208.353 183.285,208.622 183.600,208.827 183.600 C 209.032 183.600,209.200 183.778,209.200 183.995 C 209.200 184.213,209.463 184.708,209.785 185.095 C 210.892 186.429,214.514 191.389,215.552 192.993 C 216.124 193.877,216.696 194.690,216.822 194.800 C 216.948 194.910,219.157 197.970,221.730 201.600 C 224.304 205.230,226.722 208.627,227.104 209.150 C 229.257 212.090,269.114 267.773,270.414 269.657 C 271.271 270.899,272.248 272.191,272.586 272.529 C 272.924 272.867,273.200 273.336,273.200 273.571 C 273.200 273.807,273.368 274.000,273.573 274.000 C 273.778 274.000,274.050 274.328,274.178 274.729 C 274.305 275.131,274.728 275.806,275.117 276.229 C 275.507 276.653,276.213 277.630,276.686 278.400 C 277.160 279.170,277.883 280.160,278.294 280.600 C 278.704 281.040,279.385 281.985,279.806 282.700 C 280.228 283.415,280.673 284.000,280.795 284.000 C 280.918 284.000,281.357 284.630,281.772 285.400 C 282.187 286.170,282.678 286.800,282.863 286.800 C 283.048 286.800,283.200 286.988,283.200 287.217 C 283.200 287.609,283.513 288.062,284.700 289.385 C 284.975 289.692,285.200 290.053,285.200 290.188 C 285.200 290.323,285.383 290.651,285.607 290.917 C 286.343 291.791,288.375 294.572,289.446 296.169 C 290.024 297.031,290.833 298.098,291.244 298.539 C 291.655 298.980,292.095 299.669,292.222 300.071 C 292.350 300.472,292.622 300.800,292.827 300.800 C 293.032 300.800,293.200 301.070,293.200 301.400 C 293.200 301.730,293.335 302.001,293.500 302.003 C 295.173 302.017,295.527 306.054,293.969 307.364 L 292.739 308.400 275.419 308.400 C 256.078 308.400,256.022 308.395,254.204 306.577 C 252.966 305.340,244.800 294.223,244.800 293.776 C 244.800 293.660,244.350 293.080,243.800 292.487 C 243.250 291.893,242.800 291.258,242.800 291.076 C 242.800 290.893,242.564 290.507,242.276 290.219 C 241.988 289.931,232.493 276.717,221.176 260.856 C 209.859 244.994,200.272 231.907,199.871 231.772 C 198.101 231.179,197.351 232.075,184.400 250.243 C 177.250 260.274,171.174 268.778,170.899 269.141 C 170.623 269.503,168.933 271.870,167.143 274.400 C 165.353 276.930,163.734 279.060,163.544 279.133 C 163.355 279.207,163.200 279.444,163.200 279.660 C 163.200 279.990,162.468 281.082,160.693 283.400 C 160.525 283.620,158.930 285.870,157.149 288.400 C 155.368 290.930,153.778 293.090,153.615 293.200 C 153.453 293.310,152.845 294.120,152.264 295.000 C 150.223 298.096,145.944 304.129,145.597 304.400 C 145.457 304.510,145.233 304.896,145.100 305.258 C 144.966 305.619,144.184 306.429,143.360 307.058 L 141.863 308.200 123.364 308.200 L 104.865 308.200 103.833 307.230 C 102.466 305.947,102.968 302.015,104.500 302.003 C 104.665 302.001,104.800 301.730,104.800 301.400 C 104.800 301.070,104.968 300.800,105.173 300.800 C 105.378 300.800,105.647 300.485,105.771 300.100 C 105.894 299.715,106.467 298.860,107.044 298.200 C 108.048 297.052,109.716 294.706,110.629 293.158 C 110.865 292.758,111.558 291.839,112.169 291.115 C 112.779 290.392,113.470 289.395,113.704 288.900 C 113.937 288.405,114.280 288.000,114.464 288.000 C 114.649 288.000,114.800 287.745,114.800 287.433 C 114.800 287.122,114.938 286.807,115.106 286.733 C 115.420 286.596,117.931 283.233,120.400 279.642 C 121.170 278.522,122.205 277.110,122.700 276.503 C 123.194 275.896,123.599 275.278,123.600 275.129 C 123.600 274.979,123.825 274.619,124.100 274.329 C 125.115 273.256,126.800 270.841,126.800 270.460 C 126.800 270.244,126.945 270.007,127.122 269.933 C 127.585 269.742,132.000 263.680,132.000 263.237 C 132.000 263.033,132.147 262.807,132.327 262.733 C 132.506 262.660,133.451 261.430,134.427 260.000 C 135.402 258.570,136.335 257.340,136.500 257.267 C 136.665 257.193,136.800 256.893,136.800 256.600 C 136.800 256.307,136.960 256.007,137.157 255.933 C 137.496 255.806,175.254 203.083,176.300 201.275 C 177.383 199.403,178.624 201.419,162.228 178.429 C 154.764 167.963,148.554 159.310,148.428 159.200 C 148.303 159.090,147.391 157.785,146.403 156.300 C 145.415 154.815,144.470 153.600,144.303 153.600 C 144.136 153.600,144.000 153.339,144.000 153.020 C 144.000 152.701,143.756 152.296,143.458 152.120 C 143.160 151.944,142.418 151.004,141.810 150.031 C 141.201 149.059,140.544 148.069,140.350 147.831 C 140.155 147.594,138.518 145.330,136.713 142.800 C 134.907 140.270,133.110 137.853,132.720 137.429 C 132.329 137.006,131.905 136.331,131.778 135.929 C 131.650 135.528,131.378 135.200,131.173 135.200 C 130.968 135.200,130.800 135.012,130.800 134.783 C 130.800 134.553,130.350 133.880,129.800 133.287 C 129.250 132.693,128.800 132.073,128.800 131.907 C 128.800 131.742,128.417 131.166,127.949 130.627 C 127.481 130.089,126.896 129.303,126.649 128.882 C 125.741 127.330,124.065 124.968,123.044 123.800 C 122.467 123.140,121.894 122.285,121.771 121.900 C 121.647 121.515,121.378 121.200,121.173 121.200 C 120.968 121.200,120.800 121.012,120.800 120.783 C 120.800 120.391,120.487 119.938,119.300 118.615 C 119.025 118.308,118.800 117.946,118.800 117.811 C 118.800 117.676,118.350 117.080,117.800 116.487 C 117.250 115.893,116.800 115.196,116.800 114.937 C 116.800 114.679,116.645 114.407,116.457 114.333 C 116.103 114.196,105.569 99.602,103.794 96.791 C 102.502 94.743,102.523 93.476,103.868 92.418 C 104.924 91.587,105.159 91.579,123.636 91.689 L 142.336 91.800 143.410 92.800 M295.425 91.865 C 296.657 92.338,296.605 92.433,290.400 100.988 C 286.549 106.299,285.951 107.129,284.017 109.852 C 282.503 111.984,282.465 112.033,281.006 113.858 C 280.453 114.550,280.000 115.231,280.000 115.372 C 280.000 115.513,279.145 116.782,278.100 118.192 C 277.055 119.602,275.521 121.710,274.692 122.878 C 273.862 124.045,271.936 126.710,270.413 128.800 C 268.110 131.957,265.270 136.003,261.600 141.355 C 261.043 142.166,255.291 150.132,253.623 152.400 C 253.218 152.950,251.563 155.250,249.944 157.511 C 248.325 159.771,246.499 162.291,245.886 163.111 C 245.274 163.930,244.334 165.230,243.799 166.000 C 243.263 166.770,241.875 168.765,240.713 170.434 C 235.455 177.983,229.417 186.000,228.988 186.000 C 228.352 186.000,226.261 183.260,217.394 170.803 C 213.246 164.975,209.527 159.859,209.130 159.433 C 207.482 157.663,207.873 156.713,213.020 150.000 C 213.778 149.010,214.535 147.918,214.700 147.573 C 215.026 146.892,217.400 143.574,220.669 139.233 C 221.806 137.722,224.155 134.441,225.887 131.943 C 229.570 126.631,232.638 122.337,236.800 116.671 C 238.450 114.425,240.070 112.203,240.400 111.734 C 248.017 100.910,253.857 95.671,260.200 93.976 C 260.860 93.799,262.210 93.350,263.200 92.977 C 266.076 91.893,293.072 90.962,295.425 91.865 " stroke="none" fill="#2b3453" fill-rule="evenodd"></path><path id="path1" d="M105.140 92.268 C 104.374 92.471,103.412 94.534,103.715 95.323 C 103.922 95.862,145.135 153.624,145.581 154.000 C 145.712 154.110,146.160 154.735,146.577 155.390 C 146.994 156.044,147.485 156.764,147.667 156.990 C 147.848 157.215,148.836 158.570,149.861 160.000 C 150.886 161.430,152.208 163.230,152.798 164.000 C 153.387 164.770,154.078 165.791,154.332 166.269 C 154.587 166.747,155.023 167.377,155.303 167.669 C 155.582 167.961,156.154 168.735,156.573 169.390 C 156.993 170.044,157.498 170.764,157.696 170.990 C 158.267 171.641,163.137 178.441,164.269 180.169 C 164.834 181.031,165.635 182.100,166.048 182.544 C 166.462 182.988,166.800 183.484,166.800 183.647 C 166.800 183.810,167.033 184.181,167.318 184.471 C 170.011 187.216,177.200 198.277,177.200 199.675 C 177.200 201.486,177.181 201.518,171.413 209.525 C 165.933 217.132,165.585 217.618,164.605 219.044 C 164.168 219.680,163.583 220.438,163.305 220.729 C 163.027 221.019,162.800 221.390,162.800 221.553 C 162.800 221.716,162.471 222.203,162.068 222.635 C 161.665 223.067,160.992 223.956,160.571 224.610 C 160.150 225.265,159.670 225.980,159.505 226.200 C 158.939 226.950,155.751 231.391,152.373 236.138 C 150.518 238.743,148.595 241.443,148.101 242.138 C 147.607 242.832,146.797 243.964,146.301 244.653 C 145.805 245.342,144.189 247.592,142.708 249.653 C 141.227 251.714,139.870 253.580,139.692 253.800 C 139.513 254.020,136.813 257.800,133.691 262.200 C 130.569 266.600,127.866 270.380,127.685 270.600 C 125.118 273.714,103.903 303.994,103.754 304.755 C 103.228 307.454,102.775 307.388,122.616 307.512 C 140.015 307.621,140.542 307.602,142.149 306.797 C 143.608 306.065,146.451 302.248,166.600 273.966 C 179.140 256.364,189.715 241.618,190.100 241.198 C 190.485 240.777,190.800 240.289,190.800 240.113 C 190.800 239.936,191.250 239.307,191.800 238.713 C 192.350 238.120,192.800 237.527,192.800 237.396 C 192.800 237.265,193.788 235.821,194.997 234.187 C 198.654 229.242,200.146 229.609,204.512 236.530 C 204.904 237.151,205.579 238.040,206.012 238.505 C 206.446 238.970,206.800 239.484,206.800 239.647 C 206.800 239.810,207.032 240.181,207.316 240.471 C 208.239 241.416,225.200 265.241,225.200 265.592 C 225.200 265.780,225.349 265.993,225.532 266.067 C 225.714 266.140,231.593 274.210,238.595 284.000 C 254.854 306.732,254.240 305.914,255.731 306.823 C 257.807 308.089,292.198 308.020,293.564 306.748 C 294.247 306.111,294.423 305.613,294.256 304.782 C 294.098 303.989,272.249 272.825,268.328 267.800 C 266.845 265.899,263.937 261.828,262.899 260.200 C 262.197 259.100,261.168 257.677,260.612 257.038 C 260.055 256.399,259.600 255.769,259.599 255.638 C 259.599 255.507,259.059 254.770,258.400 254.000 C 257.741 253.230,257.201 252.478,257.201 252.329 C 257.200 252.179,256.958 251.815,256.663 251.520 C 256.367 251.224,255.650 250.266,255.069 249.391 C 254.488 248.516,252.390 245.589,250.407 242.887 C 248.423 240.184,246.800 237.814,246.800 237.620 C 246.800 237.426,246.659 237.207,246.487 237.133 C 246.315 237.060,245.146 235.560,243.890 233.800 C 242.634 232.040,241.460 230.420,241.282 230.200 C 241.104 229.980,240.027 228.450,238.888 226.800 C 237.748 225.150,236.678 223.620,236.508 223.400 C 235.238 221.749,230.175 214.682,199.401 171.600 C 180.307 144.870,164.572 122.910,164.433 122.800 C 164.295 122.690,163.857 122.091,163.461 121.469 C 163.065 120.847,162.372 119.913,161.920 119.394 C 161.468 118.874,160.896 118.095,160.649 117.662 C 159.749 116.085,155.573 110.163,154.401 108.800 C 153.738 108.030,153.095 107.085,152.971 106.700 C 152.847 106.315,152.590 106.000,152.400 106.000 C 152.210 106.000,151.953 105.685,151.829 105.300 C 151.705 104.915,151.063 103.970,150.403 103.200 C 149.742 102.430,149.201 101.696,149.201 101.570 C 149.200 101.443,148.435 100.338,147.500 99.114 C 146.565 97.890,145.440 96.374,145.000 95.744 C 143.641 93.800,142.084 92.517,140.764 92.253 C 139.368 91.974,106.195 91.988,105.140 92.268 " stroke="none" fill="#f9fafa" fill-rule="evenodd"></path><path id="path2" d="M267.274 92.429 C 262.149 93.095,256.174 95.605,252.665 98.567 C 248.412 102.157,246.697 103.835,245.301 105.773 C 244.498 106.888,242.977 108.814,241.921 110.054 C 240.864 111.294,239.999 112.464,239.997 112.654 C 239.996 112.844,238.691 114.752,237.097 116.893 C 233.718 121.434,229.345 127.498,228.200 129.232 C 227.760 129.898,226.758 131.288,225.973 132.322 C 225.188 133.355,224.061 135.029,223.469 136.041 C 222.877 137.054,222.015 138.224,221.554 138.641 C 221.092 139.059,220.373 140.070,219.955 140.889 C 219.537 141.708,218.611 143.042,217.898 143.853 C 217.184 144.664,216.060 146.183,215.400 147.228 C 214.740 148.273,212.985 150.916,211.500 153.102 C 208.526 157.479,208.301 158.374,209.839 159.703 C 210.411 160.196,211.210 161.230,211.615 162.000 C 212.020 162.770,212.835 163.940,213.427 164.600 C 214.408 165.695,215.451 167.167,219.378 173.000 C 220.119 174.100,221.194 175.509,221.768 176.131 C 222.342 176.752,223.101 177.832,223.455 178.531 C 224.850 181.279,228.045 184.774,229.178 184.791 C 229.897 184.802,232.000 182.830,232.000 182.146 C 232.000 181.869,232.880 180.584,233.956 179.291 C 235.032 177.999,236.274 176.234,236.717 175.371 C 237.160 174.507,237.995 173.260,238.571 172.600 C 239.148 171.940,240.552 170.050,241.692 168.400 C 242.832 166.750,244.763 164.051,245.982 162.402 C 247.202 160.753,248.650 158.746,249.200 157.942 C 252.482 153.140,254.630 150.133,255.421 149.229 C 255.916 148.663,257.357 146.670,258.623 144.800 C 259.888 142.930,261.519 140.731,262.248 139.914 C 262.976 139.097,264.022 137.540,264.572 136.454 C 265.123 135.368,266.302 133.638,267.192 132.609 C 268.083 131.580,269.062 130.257,269.368 129.669 C 269.674 129.081,270.391 128.164,270.962 127.630 C 271.533 127.097,272.000 126.466,272.000 126.228 C 272.000 125.991,272.945 124.504,274.100 122.924 C 277.615 118.117,278.548 116.809,279.850 114.866 C 280.537 113.840,281.506 112.565,282.002 112.034 C 282.498 111.503,283.271 110.423,283.718 109.634 C 284.165 108.845,285.021 107.660,285.618 107.000 C 286.216 106.340,287.205 104.990,287.815 104.000 C 288.425 103.010,289.526 101.461,290.262 100.559 C 290.998 99.656,291.600 98.712,291.600 98.460 C 291.600 98.208,292.261 97.271,293.069 96.377 C 294.998 94.241,294.680 92.770,292.192 92.329 C 290.021 91.943,270.408 92.023,267.274 92.429 " stroke="none" fill="#377bdc" fill-rule="evenodd"></path><path id="path3" d="M103.868 92.418 C 102.523 93.476,102.502 94.743,103.794 96.791 C 105.569 99.602,116.103 114.196,116.457 114.333 C 116.645 114.407,116.800 114.679,116.800 114.937 C 116.800 115.196,117.250 115.893,117.800 116.487 C 118.350 117.080,118.800 117.676,118.800 117.811 C 118.800 117.946,119.025 118.308,119.300 118.615 C 120.487 119.938,120.800 120.391,120.800 120.783 C 120.800 121.012,120.968 121.200,121.173 121.200 C 121.378 121.200,121.647 121.515,121.771 121.900 C 121.894 122.285,122.467 123.140,123.044 123.800 C 124.065 124.968,125.741 127.330,126.649 128.882 C 126.896 129.303,127.481 130.089,127.949 130.627 C 128.417 131.166,128.800 131.742,128.800 131.907 C 128.800 132.073,129.250 132.693,129.800 133.287 C 130.350 133.880,130.800 134.553,130.800 134.783 C 130.800 135.012,130.968 135.200,131.173 135.200 C 131.378 135.200,131.650 135.528,131.778 135.929 C 131.905 136.331,132.329 137.006,132.720 137.429 C 133.110 137.853,134.907 140.270,136.713 142.800 C 138.518 145.330,140.155 147.594,140.350 147.831 C 140.544 148.069,141.201 149.059,141.810 150.031 C 142.418 151.004,143.160 151.944,143.458 152.120 C 143.756 152.296,144.000 152.701,144.000 153.020 C 144.000 153.339,144.136 153.600,144.303 153.600 C 144.470 153.600,145.415 154.815,146.403 156.300 C 147.391 157.785,148.303 159.090,148.428 159.200 C 148.780 159.508,175.732 197.342,176.300 198.324 C 177.396 200.220,179.395 197.100,156.657 228.969 C 146.128 243.726,137.353 255.860,137.157 255.933 C 136.960 256.007,136.800 256.307,136.800 256.600 C 136.800 256.893,136.665 257.193,136.500 257.267 C 136.335 257.340,135.402 258.570,134.427 260.000 C 133.451 261.430,132.506 262.660,132.327 262.733 C 132.147 262.807,132.000 263.033,132.000 263.237 C 132.000 263.680,127.585 269.742,127.122 269.933 C 126.945 270.007,126.800 270.244,126.800 270.460 C 126.800 270.841,125.115 273.256,124.100 274.329 C 123.825 274.619,123.600 274.979,123.600 275.129 C 123.599 275.278,123.194 275.896,122.700 276.503 C 122.205 277.110,121.170 278.522,120.400 279.642 C 117.931 283.233,115.420 286.596,115.106 286.733 C 114.938 286.807,114.800 287.122,114.800 287.433 C 114.800 287.745,114.649 288.000,114.464 288.000 C 114.280 288.000,113.937 288.405,113.704 288.900 C 113.470 289.395,112.779 290.392,112.169 291.115 C 111.558 291.839,110.865 292.758,110.629 293.158 C 109.716 294.706,108.048 297.052,107.044 298.200 C 106.467 298.860,105.894 299.715,105.771 300.100 C 105.647 300.485,105.378 300.800,105.173 300.800 C 104.968 300.800,104.800 301.070,104.800 301.400 C 104.800 301.730,104.665 302.001,104.500 302.003 C 102.968 302.015,102.466 305.947,103.833 307.230 L 104.865 308.200 123.364 308.200 L 141.863 308.200 143.360 307.058 C 144.184 306.429,144.966 305.619,145.100 305.258 C 145.233 304.896,145.457 304.510,145.597 304.400 C 145.944 304.129,150.223 298.096,152.264 295.000 C 152.845 294.120,153.453 293.310,153.615 293.200 C 153.778 293.090,155.368 290.930,157.149 288.400 C 158.930 285.870,160.525 283.620,160.693 283.400 C 162.468 281.082,163.200 279.990,163.200 279.660 C 163.200 279.444,163.355 279.207,163.544 279.133 C 163.734 279.060,165.353 276.930,167.143 274.400 C 168.933 271.870,170.623 269.503,170.899 269.141 C 171.174 268.778,177.250 260.274,184.400 250.243 C 197.351 232.075,198.101 231.179,199.871 231.772 C 200.272 231.907,209.859 244.994,221.176 260.856 C 232.493 276.717,241.988 289.931,242.276 290.219 C 242.564 290.507,242.800 290.893,242.800 291.076 C 242.800 291.258,243.250 291.893,243.800 292.487 C 244.350 293.080,244.800 293.660,244.800 293.776 C 244.800 294.223,252.966 305.340,254.204 306.577 C 256.022 308.395,256.078 308.400,275.419 308.400 L 292.739 308.400 293.969 307.364 C 295.527 306.054,295.173 302.017,293.500 302.003 C 293.335 302.001,293.200 301.730,293.200 301.400 C 293.200 301.070,293.032 300.800,292.827 300.800 C 292.622 300.800,292.350 300.472,292.222 300.071 C 292.095 299.669,291.655 298.980,291.244 298.539 C 290.833 298.098,290.024 297.031,289.446 296.169 C 288.375 294.572,286.343 291.791,285.607 290.917 C 285.383 290.651,285.200 290.323,285.200 290.188 C 285.200 290.053,284.975 289.692,284.700 289.385 C 283.513 288.062,283.200 287.609,283.200 287.217 C 283.200 286.988,283.048 286.800,282.863 286.800 C 282.678 286.800,282.187 286.170,281.772 285.400 C 281.357 284.630,280.918 284.000,280.795 284.000 C 280.673 284.000,280.228 283.415,279.806 282.700 C 279.385 281.985,278.704 281.040,278.294 280.600 C 277.883 280.160,277.160 279.170,276.686 278.400 C 276.213 277.630,275.507 276.653,275.117 276.229 C 274.728 275.806,274.305 275.131,274.178 274.729 C 274.050 274.328,273.778 274.000,273.573 274.000 C 273.368 274.000,273.200 273.807,273.200 273.571 C 273.200 273.336,272.924 272.867,272.586 272.529 C 272.248 272.191,271.271 270.899,270.414 269.657 C 269.114 267.773,229.257 212.090,227.104 209.150 C 226.722 208.627,224.304 205.230,221.730 201.600 C 219.157 197.970,216.948 194.910,216.822 194.800 C 216.696 194.690,216.124 193.877,215.552 192.993 C 214.514 191.389,210.892 186.429,209.785 185.095 C 209.463 184.708,209.200 184.213,209.200 183.995 C 209.200 183.778,209.032 183.600,208.827 183.600 C 208.622 183.600,208.353 183.285,208.229 182.900 C 208.106 182.515,207.554 181.677,207.002 181.038 C 206.451 180.399,206.000 179.758,206.000 179.613 C 206.000 179.469,205.680 179.002,205.290 178.575 C 204.585 177.805,199.879 171.236,198.040 168.453 C 197.511 167.654,196.956 166.910,196.805 166.800 C 196.654 166.690,195.519 165.116,194.283 163.303 C 193.048 161.489,191.668 159.610,191.218 159.127 C 190.768 158.644,190.400 158.128,190.400 157.980 C 190.400 157.756,189.415 156.380,187.694 154.200 C 187.520 153.980,186.308 152.270,185.000 150.400 C 182.619 146.995,180.313 143.799,179.621 142.945 C 179.418 142.694,178.385 141.240,177.326 139.714 C 175.174 136.612,168.193 126.821,167.692 126.200 C 167.514 125.980,162.220 118.600,155.926 109.800 C 149.632 101.000,144.000 93.350,143.410 92.800 L 142.336 91.800 123.636 91.689 C 105.159 91.579,104.924 91.587,103.868 92.418 M275.722 91.899 C 278.099 91.970,281.879 91.969,284.122 91.898 C 286.365 91.827,284.420 91.769,279.800 91.769 C 275.180 91.770,273.345 91.828,275.722 91.899 M291.190 92.149 C 294.742 92.767,295.265 93.945,293.069 96.377 C 292.261 97.271,291.600 98.208,291.600 98.460 C 291.600 98.712,290.998 99.656,290.262 100.559 C 288.822 102.325,286.679 105.600,286.963 105.600 C 287.111 105.600,291.093 100.149,294.900 94.736 C 296.834 91.986,296.402 91.573,291.667 91.649 L 288.600 91.698 291.190 92.149 M140.764 92.253 C 142.084 92.517,143.641 93.800,145.000 95.744 C 145.440 96.374,146.565 97.890,147.500 99.114 C 148.435 100.338,149.200 101.443,149.201 101.570 C 149.201 101.696,149.742 102.430,150.403 103.200 C 151.063 103.970,151.705 104.915,151.829 105.300 C 151.953 105.685,152.210 106.000,152.400 106.000 C 152.590 106.000,152.847 106.315,152.971 106.700 C 153.095 107.085,153.738 108.030,154.401 108.800 C 155.573 110.163,159.749 116.085,160.649 117.662 C 160.896 118.095,161.468 118.874,161.920 119.394 C 162.372 119.913,163.065 120.847,163.461 121.469 C 163.857 122.091,164.295 122.690,164.433 122.800 C 164.572 122.910,180.307 144.870,199.401 171.600 C 230.175 214.682,235.238 221.749,236.508 223.400 C 236.678 223.620,237.748 225.150,238.888 226.800 C 240.027 228.450,241.104 229.980,241.282 230.200 C 241.460 230.420,242.634 232.040,243.890 233.800 C 245.146 235.560,246.315 237.060,246.487 237.133 C 246.659 237.207,246.800 237.426,246.800 237.620 C 246.800 237.814,248.423 240.184,250.407 242.887 C 252.390 245.589,254.488 248.516,255.069 249.391 C 255.650 250.266,256.367 251.224,256.663 251.520 C 256.958 251.815,257.200 252.179,257.201 252.329 C 257.201 252.478,257.741 253.230,258.400 254.000 C 259.059 254.770,259.599 255.507,259.599 255.638 C 259.600 255.769,260.055 256.399,260.612 257.038 C 261.168 257.677,262.197 259.100,262.899 260.200 C 263.937 261.828,266.845 265.899,268.328 267.800 C 272.249 272.825,294.098 303.989,294.256 304.782 C 294.423 305.613,294.247 306.111,293.564 306.748 C 292.198 308.020,257.807 308.089,255.731 306.823 C 254.240 305.914,254.854 306.732,238.595 284.000 C 231.593 274.210,225.714 266.140,225.532 266.067 C 225.349 265.993,225.200 265.780,225.200 265.592 C 225.200 265.241,208.239 241.416,207.316 240.471 C 207.032 240.181,206.800 239.810,206.800 239.647 C 206.800 239.484,206.446 238.970,206.012 238.505 C 205.579 238.040,204.904 237.151,204.512 236.530 C 200.146 229.609,198.654 229.242,194.997 234.187 C 193.788 235.821,192.800 237.265,192.800 237.396 C 192.800 237.527,192.350 238.120,191.800 238.713 C 191.250 239.307,190.800 239.936,190.800 240.113 C 190.800 240.289,190.485 240.777,190.100 241.198 C 189.715 241.618,179.140 256.364,166.600 273.966 C 146.451 302.248,143.608 306.065,142.149 306.797 C 140.542 307.602,140.015 307.621,122.616 307.512 C 102.775 307.388,103.228 307.454,103.754 304.755 C 103.903 303.994,125.118 273.714,127.685 270.600 C 127.866 270.380,130.569 266.600,133.691 262.200 C 136.813 257.800,139.513 254.020,139.692 253.800 C 139.870 253.580,141.227 251.714,142.708 249.653 C 144.189 247.592,145.805 245.342,146.301 244.653 C 146.797 243.964,147.607 242.832,148.101 242.138 C 148.595 241.443,150.518 238.743,152.373 236.138 C 155.751 231.391,158.939 226.950,159.505 226.200 C 159.670 225.980,160.150 225.265,160.571 224.610 C 160.992 223.956,161.665 223.067,162.068 222.635 C 162.471 222.203,162.800 221.716,162.800 221.553 C 162.800 221.390,163.027 221.019,163.305 220.729 C 163.583 220.438,164.168 219.680,164.605 219.044 C 165.585 217.618,165.933 217.132,171.413 209.525 C 177.181 201.518,177.200 201.486,177.200 199.675 C 177.200 198.277,170.011 187.216,167.318 184.471 C 167.033 184.181,166.800 183.810,166.800 183.647 C 166.800 183.484,166.462 182.988,166.048 182.544 C 165.635 182.100,164.834 181.031,164.269 180.169 C 163.137 178.441,158.267 171.641,157.696 170.990 C 157.498 170.764,156.993 170.044,156.573 169.390 C 156.154 168.735,155.582 167.961,155.303 167.669 C 155.023 167.377,154.587 166.747,154.332 166.269 C 154.078 165.791,153.387 164.770,152.798 164.000 C 152.208 163.230,150.886 161.430,149.861 160.000 C 148.836 158.570,147.848 157.215,147.667 156.990 C 147.485 156.764,146.994 156.044,146.577 155.390 C 146.160 154.735,145.712 154.110,145.581 154.000 C 145.135 153.624,103.922 95.862,103.715 95.323 C 103.412 94.534,104.374 92.471,105.140 92.268 C 106.195 91.988,139.368 91.974,140.764 92.253 M265.200 92.402 C 264.600 92.595,265.240 92.637,266.800 92.506 C 268.230 92.386,269.475 92.223,269.567 92.144 C 269.889 91.865,266.188 92.084,265.200 92.402 M262.000 93.400 C 260.694 94.147,261.151 94.155,262.854 93.416 C 263.594 93.094,263.930 92.831,263.600 92.830 C 263.270 92.829,262.550 93.086,262.000 93.400 M258.400 94.600 C 257.153 95.313,257.749 95.313,259.600 94.600 C 260.517 94.247,260.724 94.055,260.200 94.045 C 259.760 94.036,258.950 94.286,258.400 94.600 M251.521 98.862 C 248.360 101.448,245.801 104.171,243.602 107.289 C 241.244 110.634,242.317 109.811,244.940 106.263 C 246.114 104.676,248.018 102.573,249.171 101.589 C 254.800 96.787,256.575 94.728,251.521 98.862 M285.320 107.300 C 284.869 107.795,284.281 108.650,284.014 109.200 C 283.581 110.094,283.639 110.073,284.570 109.000 C 286.359 106.937,287.025 105.428,285.320 107.300 M281.333 112.700 C 280.956 113.305,280.480 114.070,280.274 114.400 C 280.068 114.730,280.377 114.460,280.960 113.800 C 282.752 111.771,282.866 111.600,282.425 111.600 C 282.201 111.600,281.710 112.095,281.333 112.700 M236.710 116.788 C 230.175 125.744,227.924 128.965,228.648 128.324 C 229.068 127.951,230.488 126.096,231.805 124.200 C 233.122 122.304,235.106 119.549,236.213 118.077 C 239.087 114.254,240.086 112.800,239.837 112.800 C 239.717 112.800,238.310 114.595,236.710 116.788 M278.562 116.769 C 277.881 117.556,276.690 119.190,275.916 120.400 C 275.141 121.610,273.943 123.300,273.254 124.155 C 272.564 125.010,272.006 125.910,272.013 126.155 C 272.020 126.400,272.282 126.240,272.595 125.800 C 275.113 122.266,276.464 120.400,278.135 118.146 C 280.268 115.271,280.496 114.534,278.562 116.769 M270.724 127.900 C 270.159 128.505,269.495 129.395,269.246 129.879 C 268.998 130.362,268.073 131.591,267.192 132.610 C 266.310 133.628,265.301 135.033,264.949 135.731 C 264.073 137.468,264.603 136.855,268.002 132.200 C 269.609 130.000,271.194 127.885,271.524 127.500 C 272.489 126.375,271.847 126.695,270.724 127.900 M226.237 131.500 C 225.240 133.053,225.099 133.410,225.801 132.600 C 226.819 131.426,228.172 129.200,227.867 129.200 C 227.782 129.200,227.049 130.235,226.237 131.500 M223.069 135.900 C 222.498 136.725,221.636 137.940,221.152 138.600 L 220.273 139.800 221.478 138.600 C 222.621 137.461,224.668 134.400,224.286 134.400 C 224.187 134.400,223.639 135.075,223.069 135.900 M261.927 140.300 C 261.365 140.905,259.873 142.930,258.613 144.800 C 257.353 146.670,255.916 148.663,255.421 149.229 C 254.925 149.795,253.548 151.660,252.360 153.372 C 249.234 157.878,247.927 159.736,246.816 161.255 C 246.274 161.995,246.136 162.355,246.509 162.057 C 247.072 161.605,250.487 156.959,253.313 152.800 C 254.404 151.194,261.443 141.504,262.393 140.300 C 262.870 139.695,263.191 139.200,263.105 139.200 C 263.020 139.200,262.490 139.695,261.927 140.300 M219.319 141.013 C 218.923 141.570,217.778 143.145,216.773 144.513 C 215.768 145.881,214.820 147.270,214.666 147.600 C 214.512 147.930,213.894 148.846,213.293 149.635 C 208.122 156.425,207.636 157.349,208.562 158.616 C 209.088 159.336,209.111 159.315,208.917 158.299 C 208.751 157.432,209.263 156.397,211.455 153.170 C 212.965 150.947,214.740 148.273,215.400 147.228 C 216.060 146.183,217.182 144.667,217.893 143.859 C 219.144 142.436,220.619 140.000,220.229 140.000 C 220.124 140.000,219.714 140.456,219.319 141.013 M209.987 160.500 C 210.416 160.995,211.055 161.760,211.406 162.200 C 212.018 162.967,212.024 162.958,211.571 162.000 C 210.993 160.780,209.995 159.600,209.541 159.600 C 209.356 159.600,209.557 160.005,209.987 160.500 M244.725 164.100 C 242.712 166.798,241.859 168.134,242.338 167.839 C 242.610 167.670,243.273 166.873,243.812 166.066 C 244.351 165.260,245.085 164.195,245.445 163.700 C 245.804 163.205,246.007 162.800,245.896 162.800 C 245.786 162.800,245.259 163.385,244.725 164.100 M212.288 163.600 C 213.701 165.688,220.167 174.671,220.494 175.000 C 221.338 175.849,219.525 172.741,218.456 171.505 C 217.834 170.787,216.693 169.210,215.919 168.000 C 215.145 166.790,213.920 165.170,213.197 164.400 C 212.474 163.630,212.065 163.270,212.288 163.600 M240.509 170.100 C 239.834 171.035,238.886 172.250,238.403 172.800 C 237.919 173.350,237.263 174.340,236.943 175.000 L 236.363 176.200 237.394 175.000 C 238.879 173.271,242.195 168.400,241.888 168.400 C 241.804 168.400,241.183 169.165,240.509 170.100 M222.210 177.560 C 223.016 178.682,223.745 179.600,223.831 179.600 C 224.286 179.600,222.590 176.893,221.739 176.260 C 220.909 175.643,220.987 175.859,222.210 177.560 M233.454 179.866 C 232.654 180.892,232.000 181.912,232.000 182.132 C 232.000 182.353,232.056 182.458,232.125 182.367 C 235.069 178.433,236.141 176.416,233.454 179.866 M224.430 180.582 C 225.168 181.926,228.592 186.000,228.984 186.000 C 229.240 186.000,229.874 185.415,230.393 184.700 C 231.157 183.647,231.184 183.533,230.536 184.100 C 229.105 185.353,228.242 184.929,225.400 181.579 C 224.740 180.801,224.303 180.352,224.430 180.582 " stroke="none" fill="#787d8c" fill-rule="evenodd"></path></g></svg>