<svg id="svg" version="1.1" xmlns="http://www.w3.org/2000/svg" xmlns:xlink="http://www.w3.org/1999/xlink" width="400" height="400" viewBox="0, 0, 400,400"><g id="svgg"><path id="path0" d="M191.975 56.557 C 191.851 56.681,189.601 56.971,186.975 57.200 C 180.443 57.769,174.601 58.621,170.400 59.617 C 169.410 59.852,167.880 60.200,167.000 60.392 C 166.120 60.583,164.770 60.918,164.000 61.135 C 163.230 61.353,161.520 61.823,160.200 62.181 C 157.394 62.941,154.591 63.901,148.800 66.086 C 142.476 68.472,135.155 71.895,130.859 74.474 C 129.462 75.314,128.243 76.000,128.151 76.000 C 127.678 76.000,119.419 81.468,115.255 84.537 C 107.283 90.414,98.553 98.456,92.389 105.600 C 90.966 107.250,89.708 108.690,89.595 108.800 C 88.806 109.567,82.834 117.749,80.543 121.200 C 78.044 124.966,77.114 126.469,74.726 130.600 C 73.812 132.182,70.409 139.080,68.820 142.572 C 65.829 149.147,61.697 161.513,60.357 167.900 C 60.161 168.835,59.810 170.455,59.579 171.500 C 55.629 189.317,55.645 214.844,59.617 231.600 C 59.852 232.590,60.200 234.120,60.392 235.000 C 60.583 235.880,60.918 237.230,61.135 238.000 C 61.353 238.770,61.821 240.464,62.177 241.764 C 64.456 250.102,71.355 266.680,74.427 271.200 C 74.801 271.750,75.470 272.850,75.916 273.645 C 77.232 275.996,77.782 276.934,78.105 277.380 C 78.272 277.611,79.234 279.054,80.242 280.587 C 81.908 283.120,87.453 290.717,87.989 291.200 C 88.111 291.310,89.011 292.390,89.988 293.600 C 92.310 296.473,102.763 307.035,104.920 308.686 C 105.844 309.394,107.140 310.477,107.800 311.095 C 110.506 313.625,121.438 321.295,126.200 324.004 C 126.860 324.380,128.210 325.156,129.200 325.729 C 138.509 331.122,155.204 337.673,165.000 339.778 C 165.660 339.920,166.920 340.208,167.800 340.419 C 181.666 343.739,202.244 344.809,214.400 342.842 C 216.383 342.521,217.685 342.273,223.000 341.204 C 224.639 340.875,230.458 339.369,234.650 338.191 C 239.302 336.882,250.139 333.300,252.200 332.389 C 253.179 331.957,260.002 329.811,262.200 329.246 C 263.741 328.849,265.041 328.576,270.174 327.573 C 273.274 326.968,289.164 326.975,292.250 327.583 C 293.543 327.838,295.590 328.230,296.800 328.453 C 298.010 328.677,299.630 329.013,300.400 329.200 C 301.170 329.387,302.880 329.748,304.200 330.003 C 305.520 330.257,307.312 330.621,308.182 330.811 C 312.910 331.844,318.879 328.523,321.140 323.600 C 322.755 320.083,322.711 318.248,320.830 310.778 C 318.795 302.697,318.198 296.494,318.753 289.198 C 319.378 280.976,320.930 275.748,325.881 265.200 C 329.523 257.439,331.200 253.724,331.200 253.416 C 331.200 253.310,331.634 252.273,332.164 251.112 C 332.694 249.950,333.522 247.920,334.005 246.600 C 336.363 240.149,338.759 233.092,339.376 230.775 C 340.341 227.154,341.960 220.174,342.386 217.800 C 342.584 216.700,342.972 214.540,343.249 213.000 C 343.903 209.366,343.894 190.175,343.236 185.566 C 342.290 178.931,341.926 176.570,341.546 174.600 C 340.214 167.708,337.967 159.274,336.002 153.800 C 335.292 151.820,334.355 149.210,333.921 148.000 C 332.759 144.761,327.354 133.380,325.276 129.800 C 324.893 129.140,324.058 127.700,323.419 126.600 C 321.516 123.320,313.889 112.265,312.795 111.200 C 312.681 111.090,311.783 110.010,310.797 108.800 C 301.243 97.072,286.767 84.499,274.400 77.189 C 270.047 74.615,269.327 74.222,264.200 71.609 C 254.933 66.886,242.725 62.441,233.200 60.322 C 232.210 60.102,230.680 59.757,229.800 59.556 C 226.283 58.753,219.867 57.768,214.200 57.163 C 209.955 56.709,192.301 56.228,191.975 56.557 M92.944 166.015 C 94.880 166.982,96.542 168.759,97.604 171.000 C 98.054 171.950,98.218 175.538,98.387 188.200 L 98.600 204.200 99.748 206.685 C 102.896 213.501,108.834 216.359,119.904 216.386 C 128.989 216.408,132.800 219.200,132.800 225.833 C 132.800 232.481,128.581 235.200,118.264 235.200 C 99.709 235.200,85.170 225.877,80.838 211.200 C 80.546 210.210,80.162 208.950,79.984 208.400 C 78.443 203.628,78.290 173.634,79.792 170.600 C 82.344 165.441,87.910 163.501,92.944 166.015 M154.089 165.746 C 162.798 169.648,161.034 182.389,151.591 183.789 C 143.519 184.987,137.805 175.973,142.299 169.132 C 144.864 165.228,149.780 163.816,154.089 165.746 M181.200 165.311 C 185.255 166.756,185.647 167.280,191.951 179.651 C 201.819 199.014,204.320 203.773,204.694 203.898 C 204.901 203.967,206.152 201.903,207.474 199.312 C 224.637 165.671,223.341 168.017,225.503 166.683 C 231.262 163.131,237.820 165.236,240.056 171.354 C 241.343 174.874,241.099 175.847,236.884 184.017 C 233.712 190.165,225.829 205.572,218.371 220.200 C 211.838 233.013,210.577 234.485,205.628 235.071 C 200.041 235.733,198.117 233.848,191.879 221.600 C 189.694 217.310,186.189 210.470,184.089 206.400 C 179.964 198.404,173.807 186.376,170.883 180.600 C 168.625 176.141,168.319 173.866,169.583 170.928 C 171.574 166.300,176.836 163.756,181.200 165.311 M264.039 165.964 C 269.368 168.712,269.600 169.625,269.600 187.887 C 269.600 197.758,269.749 203.010,270.056 203.972 C 274.460 217.763,292.084 220.620,299.962 208.819 C 302.498 205.019,302.508 204.947,302.765 187.600 C 302.991 172.408,303.033 171.738,303.863 170.200 C 306.963 164.456,313.864 163.141,318.695 167.375 C 322.002 170.272,322.000 170.258,322.000 188.256 C 322.000 203.359,321.903 204.981,320.732 209.400 C 317.812 220.430,307.182 231.030,296.400 233.664 C 273.448 239.273,253.096 225.875,250.429 203.400 C 249.837 198.407,249.866 174.893,250.467 172.477 C 252.004 166.306,258.582 163.150,264.039 165.964 M152.418 194.106 C 155.310 195.114,157.409 196.918,158.864 199.646 C 160.352 202.434,160.324 226.838,158.830 229.742 C 154.172 238.798,142.941 237.012,140.840 226.880 C 140.259 224.081,140.259 204.956,140.840 202.477 C 142.316 196.178,147.535 192.404,152.418 194.106 " stroke="none" fill="#fbfbfc" fill-rule="evenodd"></path><path id="path1" d="M0.000 200.000 L 0.000 400.000 200.000 400.000 L 400.000 400.000 400.000 200.000 L 400.000 0.000 200.000 0.000 L 0.000 0.000 0.000 200.000 M216.800 56.762 C 218.450 56.980,220.970 57.347,222.400 57.578 C 223.830 57.810,225.810 58.102,226.800 58.229 C 227.790 58.355,228.960 58.613,229.400 58.802 C 229.840 58.991,230.740 59.240,231.400 59.355 C 232.060 59.470,233.500 59.760,234.600 60.000 C 235.700 60.240,237.097 60.539,237.705 60.664 C 238.313 60.790,238.908 61.051,239.029 61.246 C 239.149 61.441,239.689 61.600,240.229 61.600 C 240.769 61.600,241.523 61.759,241.905 61.954 C 242.287 62.149,243.860 62.702,245.400 63.184 C 250.914 64.909,259.072 68.270,264.800 71.177 C 266.843 72.214,267.638 72.651,271.400 74.800 C 272.170 75.240,273.439 75.962,274.219 76.404 C 277.466 78.243,288.394 85.830,289.200 86.805 C 289.310 86.938,289.810 87.327,290.312 87.669 C 294.435 90.485,309.515 105.565,312.331 109.688 C 312.673 110.190,313.062 110.690,313.195 110.800 C 314.364 111.767,323.600 125.236,323.600 125.974 C 323.600 126.208,323.738 126.400,323.906 126.400 C 324.074 126.400,324.522 127.075,324.901 127.900 C 325.280 128.725,326.129 130.300,326.788 131.400 C 329.890 136.582,335.439 149.308,337.164 155.200 C 337.454 156.190,337.826 157.360,337.990 157.800 C 338.319 158.681,338.837 160.448,339.573 163.200 C 339.838 164.190,340.222 165.553,340.427 166.228 C 340.632 166.904,340.800 167.903,340.800 168.448 C 340.800 168.994,340.962 169.611,341.159 169.820 C 341.356 170.029,341.619 170.920,341.743 171.800 C 341.867 172.680,342.164 174.480,342.402 175.800 C 344.954 189.922,345.243 205.130,343.185 217.000 C 342.956 218.320,342.667 220.120,342.543 221.000 C 342.419 221.880,342.156 222.771,341.959 222.980 C 341.762 223.189,341.600 223.856,341.600 224.461 C 341.600 225.067,341.439 225.976,341.242 226.481 C 341.045 226.987,340.672 228.210,340.414 229.200 C 339.381 233.156,335.399 244.835,333.334 249.963 C 331.056 255.622,330.432 257.028,327.107 264.000 C 321.701 275.336,320.172 280.260,319.171 289.551 C 318.437 296.373,320.231 309.846,322.439 314.095 C 323.251 315.656,322.857 321.453,321.779 323.809 C 319.745 328.256,314.804 331.577,310.200 331.594 C 308.751 331.599,307.553 331.385,301.000 329.945 C 298.954 329.496,297.271 329.189,292.000 328.304 C 288.217 327.669,273.977 327.667,270.200 328.301 C 265.818 329.037,263.524 329.497,261.900 329.967 C 261.075 330.205,259.815 330.556,259.100 330.747 C 258.385 330.938,255.640 331.855,253.000 332.784 C 250.360 333.713,245.950 335.196,243.200 336.080 C 240.450 336.963,237.840 337.831,237.400 338.009 C 236.960 338.188,236.150 338.450,235.600 338.594 C 235.050 338.737,233.970 339.034,233.200 339.254 C 232.430 339.473,231.125 339.821,230.300 340.027 C 226.114 341.069,225.269 341.273,223.700 341.622 C 222.765 341.830,221.145 342.191,220.100 342.424 C 206.180 345.529,188.810 345.252,170.600 341.634 C 167.106 340.940,165.046 340.473,163.400 340.004 C 162.520 339.752,161.170 339.403,160.400 339.228 C 154.416 337.867,141.867 332.925,133.600 328.674 C 130.630 327.147,127.796 325.696,127.303 325.449 C 126.810 325.202,126.405 324.865,126.403 324.700 C 126.401 324.535,126.207 324.400,125.972 324.400 C 125.737 324.400,124.759 323.860,123.800 323.200 C 122.841 322.540,121.941 322.000,121.800 322.000 C 121.289 322.000,109.517 313.574,108.400 312.409 C 108.290 312.294,107.030 311.221,105.600 310.025 C 102.273 307.242,92.803 297.778,89.975 294.410 C 88.779 292.985,87.565 291.567,87.278 291.259 C 85.375 289.216,78.000 278.695,78.000 278.022 C 78.000 277.790,77.841 277.600,77.647 277.600 C 77.452 277.600,77.193 277.285,77.071 276.900 C 76.854 276.215,75.596 273.996,75.200 273.600 C 73.319 271.719,65.508 254.427,63.184 247.000 C 62.702 245.460,62.149 243.887,61.954 243.505 C 61.759 243.123,61.600 242.369,61.600 241.829 C 61.600 241.289,61.440 240.748,61.244 240.627 C 61.049 240.506,60.792 239.821,60.673 239.104 C 60.555 238.387,60.255 236.990,60.007 236.000 C 57.056 224.215,56.197 216.388,56.212 201.400 C 56.226 186.580,57.140 178.250,60.007 166.800 C 60.255 165.810,60.555 164.413,60.673 163.696 C 60.792 162.979,61.049 162.294,61.244 162.173 C 61.440 162.052,61.600 161.511,61.600 160.971 C 61.600 160.431,61.760 159.677,61.955 159.295 C 62.151 158.913,62.882 156.800,63.581 154.600 C 64.279 152.400,65.199 149.837,65.625 148.904 C 66.051 147.972,66.400 147.052,66.400 146.860 C 66.400 145.975,72.671 132.964,74.815 129.400 C 75.477 128.300,76.136 127.130,76.281 126.800 C 77.122 124.878,87.679 109.830,89.189 108.400 C 89.305 108.290,90.383 107.030,91.585 105.600 C 96.721 99.488,106.850 90.050,114.200 84.527 C 118.376 81.389,124.657 77.200,125.185 77.200 C 125.413 77.200,125.600 77.041,125.600 76.847 C 125.600 76.652,125.915 76.390,126.300 76.264 C 126.685 76.138,127.900 75.486,129.000 74.814 C 134.240 71.614,151.060 64.000,152.890 64.000 C 153.192 64.000,153.611 63.857,153.820 63.682 C 154.204 63.360,155.504 62.923,158.800 62.008 C 159.790 61.734,160.960 61.363,161.400 61.185 C 161.840 61.006,162.740 60.749,163.400 60.612 C 164.060 60.476,165.320 60.182,166.200 59.960 C 172.041 58.486,178.085 57.434,184.400 56.793 C 186.710 56.559,188.780 56.290,189.000 56.195 C 189.747 55.874,213.784 56.364,216.800 56.762 M85.906 165.974 C 83.933 166.611,82.127 167.970,80.953 169.700 L 79.800 171.400 79.800 188.400 C 79.800 207.508,79.828 207.747,82.869 214.369 C 84.876 218.740,91.578 227.200,93.034 227.200 C 93.207 227.200,93.720 227.541,94.174 227.959 C 100.152 233.452,120.982 236.765,127.648 233.282 C 133.894 230.020,133.752 221.256,127.400 217.875 C 125.992 217.126,124.911 216.996,118.400 216.791 C 109.150 216.501,106.559 215.647,102.465 211.540 C 98.027 207.089,97.611 205.002,97.605 187.175 C 97.600 171.031,97.514 170.440,94.844 168.077 C 92.525 166.025,88.605 165.103,85.906 165.974 M147.400 165.870 C 145.669 166.354,142.402 169.228,142.400 170.267 C 142.400 170.523,142.212 170.796,141.983 170.872 C 141.419 171.060,141.412 177.737,141.975 177.925 C 142.209 178.003,142.400 178.277,142.400 178.533 C 142.404 181.420,149.383 184.126,153.404 182.799 C 155.203 182.205,158.400 179.156,158.400 178.034 C 158.400 177.601,158.580 177.136,158.800 177.000 C 159.921 176.307,159.117 171.492,157.477 169.078 C 155.728 166.505,150.771 164.926,147.400 165.870 M176.034 165.868 C 172.491 166.620,169.600 170.388,169.600 174.255 C 169.600 176.984,168.929 175.533,181.790 200.600 C 183.934 204.780,188.122 212.970,191.096 218.800 C 196.453 229.302,197.595 231.312,198.785 232.322 C 201.222 234.391,205.431 234.967,208.467 233.646 C 211.630 232.270,211.368 232.685,220.835 214.000 C 223.566 208.610,225.935 204.140,226.100 204.067 C 226.265 203.993,226.400 203.603,226.400 203.200 C 226.400 202.797,226.535 202.407,226.700 202.333 C 226.865 202.260,229.231 197.790,231.958 192.400 C 234.686 187.010,237.546 181.430,238.314 180.000 C 242.945 171.384,235.056 162.137,226.841 166.551 C 223.988 168.085,224.359 167.467,214.172 187.600 C 211.556 192.770,209.322 197.090,209.208 197.200 C 209.093 197.310,208.190 199.058,207.200 201.085 C 204.503 206.606,205.923 208.376,193.493 184.000 C 185.437 168.202,185.249 167.900,182.610 166.550 C 181.338 165.899,177.675 165.519,176.034 165.868 M256.600 166.177 C 251.335 168.121,250.805 170.102,250.802 187.848 C 250.799 205.968,251.507 210.582,255.198 216.520 C 255.859 217.583,256.400 218.542,256.400 218.650 C 256.400 219.475,262.168 225.629,264.400 227.185 C 265.170 227.722,265.890 228.260,266.000 228.381 C 266.194 228.594,266.766 228.932,269.355 230.364 C 286.657 239.938,309.752 232.336,318.183 214.293 C 320.031 210.338,320.133 209.994,321.003 204.800 C 321.765 200.243,321.841 174.929,321.100 172.106 C 319.316 165.307,310.139 163.372,305.482 168.813 C 303.375 171.274,303.201 172.795,303.196 188.731 C 303.191 204.415,303.092 205.228,300.751 208.877 C 294.731 218.258,281.591 219.499,273.760 211.426 C 269.220 206.747,268.805 204.649,268.802 186.346 L 268.800 172.491 267.682 170.352 C 265.667 166.493,260.755 164.643,256.600 166.177 M148.400 194.768 C 145.802 195.295,143.141 197.631,141.985 200.400 C 141.129 202.450,141.124 227.328,141.980 229.040 C 145.235 235.556,151.518 236.935,156.275 232.177 C 157.444 231.008,158.400 229.691,158.400 229.250 C 158.400 228.808,158.580 228.336,158.800 228.200 C 159.054 228.043,159.200 223.137,159.200 214.800 C 159.200 206.463,159.054 201.557,158.800 201.400 C 158.580 201.264,158.400 200.890,158.400 200.568 C 158.400 197.271,152.610 193.913,148.400 194.768 " stroke="none" fill="#6c14fc" fill-rule="evenodd"></path><path id="path2" d="M191.717 56.297 C 193.211 56.374,195.551 56.374,196.917 56.296 C 198.282 56.218,197.060 56.155,194.200 56.155 C 191.340 56.156,190.222 56.220,191.717 56.297 M203.717 56.297 C 205.211 56.374,207.551 56.374,208.917 56.296 C 210.282 56.218,209.060 56.155,206.200 56.155 C 203.340 56.156,202.222 56.220,203.717 56.297 M186.500 56.676 C 186.885 56.776,187.515 56.776,187.900 56.676 C 188.285 56.575,187.970 56.493,187.200 56.493 C 186.430 56.493,186.115 56.575,186.500 56.676 M212.500 56.676 C 212.885 56.776,213.515 56.776,213.900 56.676 C 214.285 56.575,213.970 56.493,213.200 56.493 C 212.430 56.493,212.115 56.575,212.500 56.676 M180.400 57.207 C 179.779 57.411,180.309 57.451,181.800 57.312 C 183.120 57.189,184.275 57.024,184.367 56.944 C 184.689 56.665,181.388 56.884,180.400 57.207 M216.033 56.944 C 216.125 57.024,217.280 57.189,218.600 57.312 C 220.091 57.451,220.621 57.411,220.000 57.207 C 219.012 56.884,215.711 56.665,216.033 56.944 M175.400 58.010 C 174.866 58.247,175.198 58.286,176.400 58.127 C 177.390 57.996,178.275 57.824,178.367 57.744 C 178.714 57.443,176.164 57.672,175.400 58.010 M222.033 57.744 C 222.125 57.824,223.010 57.996,224.000 58.127 C 225.202 58.286,225.534 58.247,225.000 58.010 C 224.236 57.672,221.686 57.443,222.033 57.744 M171.200 58.806 C 170.778 59.082,171.015 59.123,172.000 58.942 C 173.725 58.625,174.051 58.398,172.767 58.406 C 172.235 58.409,171.530 58.589,171.200 58.806 M227.233 58.544 C 227.705 58.950,229.643 59.193,229.410 58.816 C 229.268 58.587,228.683 58.400,228.110 58.400 C 227.536 58.400,227.142 58.465,227.233 58.544 M167.600 59.618 C 167.162 59.915,167.324 59.952,168.200 59.756 C 169.671 59.427,169.990 59.198,168.967 59.206 C 168.545 59.209,167.930 59.395,167.600 59.618 M230.833 59.344 C 230.925 59.423,231.540 59.608,232.200 59.756 C 233.076 59.952,233.238 59.915,232.800 59.618 C 232.260 59.253,230.432 58.998,230.833 59.344 M164.400 60.418 C 163.962 60.715,164.124 60.752,165.000 60.556 C 166.471 60.227,166.790 59.998,165.767 60.006 C 165.345 60.009,164.730 60.195,164.400 60.418 M235.000 60.400 C 236.196 60.914,237.195 60.914,236.400 60.400 C 236.070 60.187,235.440 60.022,235.000 60.034 L 234.200 60.056 235.000 60.400 M255.558 67.237 C 256.525 67.666,257.388 67.945,257.475 67.858 C 257.648 67.686,254.565 66.382,254.092 66.428 C 253.931 66.444,254.591 66.808,255.558 67.237 M136.700 70.625 C 135.215 71.387,134.000 72.101,134.000 72.211 C 134.000 72.389,139.560 69.727,139.967 69.353 C 140.514 68.851,139.037 69.425,136.700 70.625 M263.200 70.572 C 263.200 70.653,264.280 71.281,265.600 71.968 C 266.920 72.655,268.000 73.127,268.000 73.017 C 268.000 72.906,267.235 72.410,266.300 71.913 C 264.276 70.837,263.200 70.372,263.200 70.572 M130.400 74.036 C 129.736 74.579,129.669 74.715,130.200 74.440 C 131.505 73.766,132.228 73.212,131.800 73.215 C 131.580 73.217,130.950 73.586,130.400 74.036 M123.281 78.172 C 121.525 79.414,121.097 79.945,122.600 79.018 C 124.678 77.735,125.391 77.199,124.989 77.220 C 124.775 77.230,124.007 77.659,123.281 78.172 M114.800 84.068 C 110.887 87.011,103.600 93.121,103.600 93.459 C 103.600 93.564,105.359 92.149,107.510 90.316 C 109.660 88.483,113.080 85.751,115.110 84.245 C 118.322 81.862,119.122 81.185,118.700 81.205 C 118.645 81.207,116.890 82.495,114.800 84.068 M282.897 82.233 C 283.027 82.444,283.991 83.232,285.037 83.984 C 286.084 84.735,286.833 85.178,286.703 84.967 C 286.573 84.756,285.609 83.968,284.563 83.216 C 283.516 82.465,282.767 82.022,282.897 82.233 M291.200 88.708 C 292.190 89.594,293.077 90.245,293.171 90.155 C 293.348 89.986,292.657 89.391,290.600 87.942 C 289.940 87.478,290.210 87.822,291.200 88.708 M295.371 92.297 C 296.015 93.009,296.630 93.504,296.738 93.396 C 296.845 93.288,296.858 93.155,296.767 93.100 C 296.675 93.045,296.060 92.551,295.400 92.001 L 294.200 91.003 295.371 92.297 M301.600 98.200 C 304.123 100.730,306.277 102.800,306.387 102.800 C 306.497 102.800,304.523 100.730,302.000 98.200 C 299.477 95.670,297.323 93.600,297.213 93.600 C 297.103 93.600,299.077 95.670,301.600 98.200 M98.187 98.500 L 95.800 101.000 98.300 98.613 C 99.675 97.299,100.800 96.174,100.800 96.113 C 100.800 95.817,100.405 96.178,98.187 98.500 M93.398 103.368 C 93.179 103.681,92.218 104.851,91.263 105.968 C 90.307 107.086,89.600 108.000,89.692 108.000 C 89.783 108.000,90.892 106.830,92.155 105.400 C 93.418 103.970,94.304 102.800,94.124 102.800 C 93.943 102.800,93.617 103.056,93.398 103.368 M306.400 103.325 C 306.400 103.394,306.973 103.979,307.674 104.625 L 308.949 105.800 307.974 104.522 C 307.147 103.437,306.400 102.869,306.400 103.325 M311.065 108.600 C 312.731 110.594,313.313 111.014,312.033 109.300 C 310.484 107.224,310.111 106.800,309.836 106.800 C 309.684 106.800,310.237 107.610,311.065 108.600 M313.200 110.955 C 313.200 111.304,317.633 117.200,317.896 117.200 C 318.005 117.200,317.589 116.525,316.970 115.700 C 313.665 111.293,313.200 110.707,313.200 110.955 M84.575 114.268 C 83.959 115.076,83.659 115.611,83.909 115.456 C 84.421 115.140,86.153 112.800,85.875 112.800 C 85.776 112.800,85.191 113.461,84.575 114.268 M73.814 131.035 C 73.441 131.604,73.205 132.138,73.289 132.222 C 73.373 132.307,73.758 131.841,74.144 131.188 C 75.006 129.728,74.748 129.609,73.814 131.035 M327.160 132.600 C 327.834 133.905,328.388 134.628,328.385 134.200 C 328.383 133.980,328.014 133.350,327.564 132.800 C 327.021 132.136,326.885 132.069,327.160 132.600 M71.381 135.637 C 71.029 136.318,70.812 136.945,70.899 137.032 C 70.986 137.119,71.356 136.562,71.722 135.795 C 72.544 134.070,72.259 133.938,71.381 135.637 M60.249 165.415 C 60.112 165.773,60.015 166.366,60.034 166.733 C 60.053 167.100,60.227 166.869,60.421 166.220 C 60.798 164.958,60.665 164.333,60.249 165.415 M87.905 165.483 C 88.402 165.579,89.122 165.575,89.505 165.475 C 89.887 165.375,89.480 165.296,88.600 165.301 C 87.720 165.305,87.407 165.387,87.905 165.483 M150.857 165.615 C 152.319 165.786,154.029 166.234,154.657 166.610 L 155.800 167.295 154.813 166.480 C 153.678 165.543,152.200 165.178,149.850 165.253 C 148.575 165.293,148.804 165.376,150.857 165.615 M177.905 165.483 C 178.402 165.579,179.122 165.575,179.505 165.475 C 179.887 165.375,179.480 165.296,178.600 165.301 C 177.720 165.305,177.407 165.387,177.905 165.483 M230.305 165.483 C 230.802 165.579,231.522 165.575,231.905 165.475 C 232.287 165.375,231.880 165.296,231.000 165.301 C 230.120 165.305,229.807 165.387,230.305 165.483 M259.105 165.483 C 259.602 165.579,260.322 165.575,260.705 165.475 C 261.087 165.375,260.680 165.296,259.800 165.301 C 258.920 165.305,258.607 165.387,259.105 165.483 M311.905 165.483 C 312.402 165.579,313.122 165.575,313.505 165.475 C 313.887 165.375,313.480 165.296,312.600 165.301 C 311.720 165.305,311.407 165.387,311.905 165.483 M83.403 166.900 C 81.815 167.994,79.459 170.800,80.128 170.800 C 80.242 170.800,80.719 170.179,81.188 169.420 C 82.077 167.981,84.034 166.562,85.906 165.998 C 86.813 165.725,86.854 165.663,86.145 165.634 C 85.675 165.615,84.441 166.185,83.403 166.900 M91.726 166.180 C 92.566 166.479,93.602 167.040,94.029 167.426 C 94.456 167.812,94.888 168.046,94.989 167.945 C 95.314 167.619,91.869 165.599,91.020 165.618 C 90.513 165.628,90.782 165.843,91.726 166.180 M233.694 165.998 C 235.566 166.562,237.523 167.981,238.412 169.420 C 238.881 170.179,239.358 170.800,239.472 170.800 C 239.586 170.800,239.320 170.215,238.881 169.500 C 237.914 167.924,234.634 165.587,233.455 165.634 C 232.746 165.663,232.787 165.725,233.694 165.998 M262.846 166.152 C 265.210 166.997,266.669 168.281,267.766 170.481 C 268.335 171.623,268.800 172.287,268.800 171.957 C 268.800 169.885,264.282 165.569,262.165 165.618 C 261.734 165.627,262.032 165.861,262.846 166.152 M144.662 167.036 C 143.824 167.605,143.225 168.158,143.331 168.264 C 143.437 168.370,143.856 168.178,144.262 167.836 C 144.668 167.495,145.360 166.947,145.800 166.620 C 147.146 165.619,146.282 165.935,144.662 167.036 M173.800 166.467 C 172.655 167.100,171.195 168.473,170.710 169.372 C 170.482 169.797,170.993 169.437,171.847 168.572 C 172.701 167.708,173.760 166.786,174.200 166.524 C 175.211 165.921,174.873 165.873,173.800 166.467 M253.208 168.192 C 252.241 169.177,251.529 170.032,251.625 170.092 C 251.721 170.151,252.632 169.345,253.648 168.300 C 254.665 167.255,255.378 166.400,255.232 166.400 C 255.086 166.400,254.175 167.206,253.208 168.192 M183.600 166.925 C 183.600 166.994,184.185 167.579,184.900 168.225 L 186.200 169.400 185.025 168.100 C 183.930 166.888,183.600 166.616,183.600 166.925 M318.799 168.201 C 319.568 169.080,320.355 169.980,320.548 170.200 C 320.740 170.420,320.711 170.240,320.483 169.800 C 320.255 169.360,319.468 168.460,318.734 167.801 L 317.400 166.602 318.799 168.201 M156.794 168.203 C 158.387 170.121,158.521 170.245,158.086 169.396 C 157.859 168.953,157.252 168.234,156.737 167.798 C 155.833 167.034,155.835 167.048,156.794 168.203 M59.449 168.615 C 59.312 168.973,59.215 169.566,59.234 169.933 C 59.253 170.300,59.427 170.069,59.621 169.420 C 59.998 168.158,59.865 167.533,59.449 168.615 M186.360 170.200 C 187.034 171.505,187.588 172.228,187.585 171.800 C 187.583 171.580,187.214 170.950,186.764 170.400 C 186.221 169.736,186.085 169.669,186.360 170.200 M340.828 169.876 C 340.918 170.915,341.544 171.796,341.572 170.924 C 341.587 170.442,341.420 169.936,341.200 169.800 C 340.980 169.664,340.813 169.698,340.828 169.876 M320.856 171.200 C 320.856 171.530,321.011 172.160,321.200 172.600 C 321.417 173.104,321.544 173.178,321.544 172.800 C 321.544 172.470,321.389 171.840,321.200 171.400 C 320.983 170.896,320.856 170.822,320.856 171.200 M79.453 172.436 C 79.314 173.131,79.239 180.293,79.287 188.350 L 79.373 203.000 79.587 187.200 C 79.704 178.510,79.779 171.349,79.753 171.286 C 79.727 171.223,79.592 171.741,79.453 172.436 M239.782 174.216 C 239.786 177.058,239.825 177.222,240.142 175.738 C 240.351 174.763,240.349 173.448,240.138 172.555 C 239.828 171.244,239.778 171.476,239.782 174.216 M303.449 171.815 C 303.312 172.173,303.215 172.766,303.234 173.133 C 303.253 173.500,303.427 173.269,303.621 172.620 C 303.998 171.358,303.865 170.733,303.449 171.815 M58.649 172.215 C 58.512 172.573,58.418 173.256,58.441 173.733 C 58.467 174.281,58.603 174.086,58.810 173.203 C 59.160 171.716,59.065 171.133,58.649 172.215 M141.080 173.100 C 140.959 173.705,141.001 174.830,141.172 175.600 C 141.444 176.817,141.489 176.673,141.521 174.500 C 141.561 171.796,141.426 171.368,141.080 173.100 M187.919 173.100 C 188.566 174.645,190.825 178.800,191.017 178.800 C 191.131 178.800,190.482 177.360,189.576 175.600 C 188.081 172.697,187.182 171.340,187.919 173.100 M169.309 174.400 C 169.309 175.390,169.387 175.795,169.482 175.300 C 169.578 174.805,169.578 173.995,169.482 173.500 C 169.387 173.005,169.309 173.410,169.309 174.400 M159.293 174.400 C 159.293 175.170,159.375 175.485,159.476 175.100 C 159.576 174.715,159.576 174.085,159.476 173.700 C 159.375 173.315,159.293 173.630,159.293 174.400 M268.980 187.200 C 268.980 195.010,269.034 198.205,269.099 194.300 C 269.165 190.395,269.165 184.005,269.099 180.100 C 269.034 176.195,268.980 179.390,268.980 187.200 M341.838 174.600 C 342.170 176.584,342.402 176.904,342.394 175.367 C 342.391 174.725,342.204 173.930,341.979 173.600 C 341.686 173.170,341.646 173.454,341.838 174.600 M97.780 188.400 C 97.780 196.210,97.834 199.405,97.899 195.500 C 97.965 191.595,97.965 185.205,97.899 181.300 C 97.834 177.395,97.780 180.590,97.780 188.400 M250.579 187.200 C 250.579 194.350,250.633 197.275,250.699 193.700 C 250.766 190.125,250.766 184.275,250.699 180.700 C 250.633 177.125,250.579 180.050,250.579 187.200 M321.779 187.400 C 321.779 194.660,321.833 197.686,321.899 194.125 C 321.965 190.564,321.966 184.624,321.899 180.925 C 321.833 177.226,321.779 180.140,321.779 187.400 M57.849 176.615 C 57.712 176.973,57.618 177.746,57.640 178.333 C 57.673 179.191,57.752 179.095,58.046 177.840 C 58.422 176.239,58.295 175.453,57.849 176.615 M342.650 179.200 C 342.975 181.441,343.202 181.760,343.194 179.967 C 343.191 179.215,343.008 178.330,342.788 178.000 C 342.509 177.581,342.467 177.942,342.650 179.200 M155.669 181.431 C 154.717 182.184,154.102 182.800,154.302 182.800 C 154.503 182.800,155.372 182.177,156.233 181.417 C 158.237 179.647,157.914 179.655,155.669 181.431 M57.056 181.684 C 56.921 182.188,56.830 183.320,56.854 184.200 C 56.892 185.578,56.946 185.471,57.243 183.428 C 57.598 180.999,57.495 180.046,57.056 181.684 M236.800 182.800 C 236.351 183.680,236.074 184.400,236.184 184.400 C 236.294 184.400,236.751 183.680,237.200 182.800 C 237.649 181.920,237.926 181.200,237.816 181.200 C 237.706 181.200,237.249 181.920,236.800 182.800 M147.400 183.220 C 148.178 183.535,152.700 183.747,152.367 183.453 C 152.275 183.372,150.940 183.214,149.400 183.101 C 147.798 182.984,146.942 183.035,147.400 183.220 M343.503 186.000 C 343.617 187.650,343.776 189.075,343.855 189.167 C 344.133 189.487,343.918 184.992,343.608 184.000 C 343.431 183.436,343.386 184.307,343.503 186.000 M214.000 187.200 C 213.334 188.520,212.878 189.600,212.988 189.600 C 213.098 189.600,213.734 188.520,214.400 187.200 C 215.066 185.880,215.522 184.800,215.412 184.800 C 215.302 184.800,214.666 185.880,214.000 187.200 M56.493 188.400 C 56.493 189.170,56.575 189.485,56.676 189.100 C 56.776 188.715,56.776 188.085,56.676 187.700 C 56.575 187.315,56.493 187.630,56.493 188.400 M56.155 195.400 C 56.156 198.260,56.220 199.378,56.297 197.883 C 56.374 196.389,56.374 194.049,56.296 192.683 C 56.218 191.318,56.155 192.540,56.155 195.400 M177.840 193.602 C 178.439 194.703,178.993 195.540,179.071 195.463 C 179.243 195.290,177.208 191.600,176.941 191.600 C 176.836 191.600,177.240 192.501,177.840 193.602 M344.200 200.244 C 344.200 205.060,344.322 208.190,344.470 207.200 C 344.826 204.834,344.830 195.029,344.477 193.044 C 344.325 192.189,344.200 195.429,344.200 200.244 M148.600 194.375 C 147.771 194.569,148.267 194.653,150.200 194.649 C 151.971 194.645,152.633 194.539,152.000 194.361 C 150.766 194.014,150.135 194.016,148.600 194.375 M154.400 195.481 C 155.672 196.396,156.806 197.530,157.717 198.800 C 158.407 199.762,158.407 199.748,157.717 198.454 C 157.050 197.201,155.405 195.690,154.000 195.040 C 153.670 194.888,153.850 195.086,154.400 195.481 M143.800 197.200 C 142.941 198.080,142.409 198.785,142.619 198.766 C 142.986 198.734,145.865 195.600,145.528 195.600 C 145.437 195.600,144.659 196.320,143.800 197.200 M179.479 196.700 C 179.767 197.494,180.800 199.097,180.800 198.750 C 180.800 198.402,179.563 196.000,179.383 196.000 C 179.296 196.000,179.339 196.315,179.479 196.700 M200.800 198.400 C 201.249 199.280,201.706 200.000,201.816 200.000 C 201.926 200.000,201.649 199.280,201.200 198.400 C 200.751 197.520,200.294 196.800,200.184 196.800 C 200.074 196.800,200.351 197.520,200.800 198.400 M141.057 203.100 C 140.737 205.031,140.815 225.027,141.147 226.577 C 141.286 227.225,141.400 221.870,141.400 214.677 C 141.400 207.485,141.379 201.600,141.352 201.600 C 141.326 201.600,141.193 202.275,141.057 203.100 M269.293 202.800 C 269.293 203.570,269.375 203.885,269.476 203.500 C 269.576 203.115,269.576 202.485,269.476 202.100 C 269.375 201.715,269.293 202.030,269.293 202.800 M302.650 203.250 C 302.317 204.917,302.640 205.240,303.000 203.600 C 303.152 202.909,303.193 202.259,303.091 202.158 C 302.989 202.056,302.791 202.547,302.650 203.250 M56.157 207.600 C 56.157 210.570,56.220 211.785,56.297 210.300 C 56.374 208.815,56.374 206.385,56.297 204.900 C 56.220 203.415,56.157 204.630,56.157 207.600 M79.709 204.800 C 79.709 205.790,79.787 206.195,79.882 205.700 C 79.978 205.205,79.978 204.395,79.882 203.900 C 79.787 203.405,79.709 203.810,79.709 204.800 M159.377 214.800 C 159.377 221.290,159.432 223.945,159.499 220.700 C 159.566 217.455,159.566 212.145,159.499 208.900 C 159.432 205.655,159.377 208.310,159.377 214.800 M250.828 204.433 C 250.844 205.185,251.012 206.160,251.203 206.600 C 251.426 207.115,251.467 206.687,251.318 205.400 C 251.044 203.022,250.789 202.519,250.828 204.433 M184.000 205.600 C 184.449 206.480,184.906 207.200,185.016 207.200 C 185.126 207.200,184.849 206.480,184.400 205.600 C 183.951 204.720,183.494 204.000,183.384 204.000 C 183.274 204.000,183.551 204.720,184.000 205.600 M320.893 206.000 C 320.893 206.770,320.975 207.085,321.076 206.700 C 321.176 206.315,321.176 205.685,321.076 205.300 C 320.975 204.915,320.893 205.230,320.893 206.000 M301.530 206.818 C 301.161 207.688,300.931 208.400,301.019 208.400 C 301.313 208.400,302.450 205.951,302.324 205.591 C 302.256 205.396,301.898 205.949,301.530 206.818 M80.068 207.200 C 80.088 208.239,80.718 209.946,80.732 209.000 C 80.738 208.560,80.589 207.840,80.400 207.400 C 80.189 206.910,80.061 206.832,80.068 207.200 M320.249 208.615 C 320.112 208.973,320.015 209.566,320.034 209.933 C 320.053 210.300,320.227 210.069,320.421 209.420 C 320.798 208.158,320.665 207.533,320.249 208.615 M100.314 209.004 C 100.541 209.447,101.148 210.166,101.663 210.602 C 102.567 211.366,102.565 211.352,101.606 210.197 C 100.013 208.279,99.879 208.155,100.314 209.004 M273.600 211.400 C 274.346 212.170,275.047 212.800,275.157 212.800 C 275.267 212.800,274.746 212.170,274.000 211.400 C 273.254 210.630,272.553 210.000,272.443 210.000 C 272.333 210.000,272.854 210.630,273.600 211.400 M298.378 211.500 L 297.000 213.000 298.500 211.622 C 299.896 210.338,300.184 210.000,299.878 210.000 C 299.812 210.000,299.137 210.675,298.378 211.500 M343.664 211.800 C 343.623 212.680,343.496 213.850,343.383 214.400 L 343.177 215.400 343.608 214.414 C 343.844 213.872,343.971 212.702,343.889 211.814 L 343.740 210.200 343.664 211.800 M56.501 214.600 C 56.505 215.480,56.587 215.793,56.683 215.295 C 56.779 214.798,56.775 214.078,56.675 213.695 C 56.575 213.313,56.496 213.720,56.501 214.600 M220.400 214.800 C 219.951 215.680,219.674 216.400,219.784 216.400 C 219.894 216.400,220.351 215.680,220.800 214.800 C 221.249 213.920,221.526 213.200,221.416 213.200 C 221.306 213.200,220.849 213.920,220.400 214.800 M317.482 215.811 C 316.892 217.015,316.494 218.000,316.598 218.000 C 316.867 218.000,318.884 213.951,318.705 213.771 C 318.623 213.689,318.073 214.607,317.482 215.811 M278.582 214.984 C 279.402 215.639,282.034 216.499,282.325 216.209 C 282.418 216.115,281.978 215.915,281.347 215.763 C 280.716 215.612,279.660 215.234,279.000 214.925 C 277.898 214.407,277.864 214.412,278.582 214.984 M82.800 214.998 C 82.800 215.436,84.776 218.800,85.034 218.800 C 85.144 218.800,84.744 217.945,84.146 216.900 C 82.856 214.648,82.800 214.569,82.800 214.998 M108.000 215.319 C 109.078 215.934,111.200 216.535,111.200 216.226 C 111.200 216.123,110.615 215.869,109.900 215.662 C 109.185 215.456,108.240 215.166,107.800 215.018 C 107.304 214.851,107.381 214.966,108.000 215.319 M290.633 215.900 C 290.469 216.065,288.594 216.305,286.467 216.434 L 282.600 216.668 286.000 216.704 C 288.772 216.733,293.906 215.743,291.567 215.630 C 291.218 215.614,290.798 215.735,290.633 215.900 M114.719 216.698 C 116.544 216.772,119.424 216.772,121.119 216.697 C 122.814 216.622,121.320 216.561,117.800 216.562 C 114.280 216.562,112.894 216.624,114.719 216.698 M255.386 217.500 C 255.735 218.215,256.106 218.800,256.210 218.800 C 256.608 218.800,256.352 218.163,255.567 217.200 L 254.752 216.200 255.386 217.500 M342.849 217.200 C 342.816 217.530,342.689 218.250,342.567 218.800 C 342.375 219.664,342.407 219.703,342.799 219.088 C 343.048 218.697,343.175 217.977,343.081 217.488 C 342.986 217.000,342.882 216.870,342.849 217.200 M127.400 217.863 C 128.060 218.210,129.230 219.057,129.999 219.747 L 131.398 221.000 130.199 219.664 C 129.068 218.405,127.229 217.181,126.520 217.216 C 126.344 217.225,126.740 217.516,127.400 217.863 M56.840 219.033 C 56.862 219.895,57.027 221.050,57.207 221.600 C 57.411 222.221,57.451 221.691,57.312 220.200 C 57.054 217.421,56.782 216.749,56.840 219.033 M314.975 219.868 C 314.359 220.676,314.059 221.211,314.309 221.056 C 314.821 220.740,316.553 218.400,316.275 218.400 C 316.176 218.400,315.591 219.061,314.975 219.868 M85.991 220.388 C 86.457 221.041,87.042 221.702,87.291 221.856 C 87.541 222.011,87.241 221.476,86.625 220.668 C 85.288 218.915,84.784 218.692,85.991 220.388 M342.054 221.267 C 342.025 221.634,341.884 222.264,341.741 222.667 C 341.541 223.233,341.595 223.296,341.975 222.946 C 342.246 222.697,342.387 222.067,342.288 221.546 C 342.190 221.026,342.084 220.900,342.054 221.267 M311.088 224.262 C 309.596 225.718,308.427 226.960,308.489 227.022 C 308.623 227.156,310.824 225.121,312.778 223.056 C 315.020 220.688,314.013 221.406,311.088 224.262 M89.396 224.396 C 90.026 225.054,90.611 225.523,90.695 225.438 C 90.880 225.253,88.872 223.200,88.507 223.200 C 88.366 223.200,88.766 223.738,89.396 224.396 M132.170 225.511 C 132.187 227.449,132.270 227.789,132.533 227.000 C 132.726 226.422,132.716 225.330,132.510 224.489 C 132.176 223.119,132.148 223.201,132.170 225.511 M57.628 224.633 C 57.644 225.275,57.816 226.160,58.010 226.600 C 58.247 227.134,58.286 226.802,58.127 225.600 C 57.846 223.480,57.588 222.980,57.628 224.633 M194.200 225.600 C 194.757 226.700,195.303 227.600,195.413 227.600 C 195.523 227.600,195.157 226.700,194.600 225.600 C 194.043 224.500,193.497 223.600,193.387 223.600 C 193.277 223.600,193.643 224.500,194.200 225.600 M58.406 229.233 C 58.409 229.765,58.589 230.470,58.806 230.800 C 59.082 231.222,59.123 230.985,58.942 230.000 C 58.625 228.275,58.398 227.949,58.406 229.233 M95.200 228.979 C 95.200 229.089,95.740 229.459,96.400 229.800 C 97.060 230.141,97.600 230.331,97.600 230.221 C 97.600 230.111,97.060 229.741,96.400 229.400 C 95.740 229.059,95.200 228.869,95.200 228.979 M196.002 229.033 C 196.003 229.235,196.468 229.940,197.035 230.600 L 198.066 231.800 197.163 230.400 C 196.004 228.604,196.000 228.599,196.002 229.033 M156.121 232.247 C 154.045 234.402,154.423 234.668,156.545 232.545 C 157.487 231.604,158.693 229.899,158.314 230.044 C 158.251 230.068,157.264 231.059,156.121 232.247 M210.706 232.211 C 209.884 232.975,209.354 233.600,209.527 233.600 C 209.701 233.600,210.454 232.970,211.200 232.200 C 212.941 230.403,212.643 230.410,210.706 232.211 M143.600 232.199 C 144.601 233.430,147.692 235.202,148.778 235.168 C 149.859 235.135,149.672 235.018,147.931 234.635 C 147.343 234.506,145.993 233.739,144.931 232.931 C 143.869 232.123,143.270 231.794,143.600 232.199 M59.206 233.033 C 59.209 233.455,59.395 234.070,59.618 234.400 C 59.915 234.838,59.952 234.676,59.756 233.800 C 59.427 232.329,59.198 232.010,59.206 233.033 M295.600 233.200 C 294.776 233.464,294.741 233.526,295.400 233.554 C 295.840 233.573,296.470 233.413,296.800 233.200 C 297.501 232.747,297.014 232.747,295.600 233.200 M278.600 233.990 C 279.364 234.328,281.914 234.557,281.567 234.256 C 281.475 234.176,280.590 234.004,279.600 233.873 C 278.398 233.714,278.066 233.753,278.600 233.990 M292.000 234.000 C 290.633 234.288,290.628 234.295,291.800 234.319 C 292.460 234.333,293.360 234.189,293.800 234.000 C 294.762 233.587,293.964 233.587,292.000 234.000 M108.500 234.276 C 108.885 234.376,109.515 234.376,109.900 234.276 C 110.285 234.175,109.970 234.093,109.200 234.093 C 108.430 234.093,108.115 234.175,108.500 234.276 M114.500 234.698 C 116.425 234.771,119.575 234.771,121.500 234.698 C 123.425 234.625,121.850 234.565,118.000 234.565 C 114.150 234.565,112.575 234.625,114.500 234.698 M151.800 234.800 C 150.693 235.082,150.677 235.109,151.600 235.147 C 152.150 235.169,152.870 235.013,153.200 234.800 C 153.881 234.360,153.529 234.360,151.800 234.800 M203.905 234.683 C 204.402 234.779,205.122 234.775,205.505 234.675 C 205.887 234.575,205.480 234.496,204.600 234.501 C 203.720 234.505,203.407 234.587,203.905 234.683 M284.512 234.695 C 285.564 234.777,287.184 234.776,288.112 234.692 C 289.040 234.608,288.180 234.541,286.200 234.542 C 284.220 234.543,283.460 234.612,284.512 234.695 M60.006 236.233 C 60.009 236.655,60.195 237.270,60.418 237.600 C 60.715 238.038,60.752 237.876,60.556 237.000 C 60.227 235.529,59.998 235.210,60.006 236.233 M331.892 252.483 C 330.377 256.265,330.001 257.336,330.304 257.000 C 330.792 256.460,332.448 252.314,332.253 252.120 C 332.168 252.035,332.006 252.198,331.892 252.483 M66.428 255.692 C 66.382 256.165,67.686 259.248,67.858 259.075 C 67.945 258.988,67.666 258.125,67.237 257.158 C 66.808 256.191,66.444 255.531,66.428 255.692 M68.834 261.400 C 68.834 261.620,69.178 262.430,69.600 263.200 C 70.022 263.970,70.366 264.420,70.366 264.200 C 70.366 263.980,70.022 263.170,69.600 262.400 C 69.178 261.630,68.834 261.180,68.834 261.400 M73.215 270.200 C 73.217 270.420,73.586 271.050,74.036 271.600 C 74.579 272.264,74.715 272.331,74.440 271.800 C 73.766 270.495,73.212 269.772,73.215 270.200 M78.015 278.200 C 78.017 278.420,78.386 279.050,78.836 279.600 C 79.379 280.264,79.515 280.331,79.240 279.800 C 78.566 278.495,78.012 277.772,78.015 278.200 M319.829 282.629 C 319.681 283.215,319.638 283.772,319.732 283.866 C 319.827 283.960,320.024 283.558,320.171 282.971 C 320.319 282.385,320.362 281.828,320.268 281.734 C 320.173 281.640,319.976 282.042,319.829 282.629 M82.608 285.158 C 83.415 286.281,84.157 287.200,84.257 287.200 C 84.532 287.200,82.052 283.680,81.566 283.379 C 81.332 283.235,81.801 284.035,82.608 285.158 M319.072 287.404 C 318.927 288.282,318.829 289.540,318.853 290.200 C 318.878 290.860,319.055 290.320,319.248 289.000 C 319.640 286.315,319.485 284.907,319.072 287.404 M84.804 287.869 C 84.806 288.051,85.436 288.990,86.204 289.956 C 88.023 292.245,88.020 291.757,86.200 289.373 C 85.430 288.364,84.802 287.688,84.804 287.869 M89.600 294.125 C 89.600 294.194,90.185 294.779,90.900 295.425 L 92.200 296.600 91.025 295.300 C 89.930 294.088,89.600 293.816,89.600 294.125 M318.840 298.633 C 318.862 299.495,319.027 300.650,319.207 301.200 C 319.411 301.821,319.451 301.291,319.312 299.800 C 319.054 297.021,318.782 296.349,318.840 298.633 M97.400 302.400 C 99.592 304.600,101.475 306.400,101.585 306.400 C 101.695 306.400,99.992 304.600,97.800 302.400 C 95.608 300.200,93.725 298.400,93.615 298.400 C 93.505 298.400,95.208 300.200,97.400 302.400 M320.456 308.000 C 320.456 308.330,320.611 308.960,320.800 309.400 C 321.017 309.904,321.144 309.978,321.144 309.600 C 321.144 309.270,320.989 308.640,320.800 308.200 C 320.583 307.696,320.456 307.622,320.456 308.000 M103.600 308.125 C 103.600 308.194,104.185 308.779,104.900 309.425 L 106.200 310.600 105.025 309.300 C 103.930 308.088,103.600 307.816,103.600 308.125 M111.059 314.508 C 114.768 317.361,119.312 320.504,119.002 320.004 C 118.864 319.779,117.637 318.842,116.275 317.920 C 114.914 316.999,112.696 315.380,111.346 314.322 C 109.997 313.265,108.763 312.400,108.605 312.400 C 108.447 312.400,109.551 313.349,111.059 314.508 M322.240 315.066 C 322.608 316.599,322.800 316.744,322.800 315.490 C 322.800 314.917,322.613 314.332,322.384 314.190 C 322.111 314.021,322.062 314.323,322.240 315.066 M120.400 321.167 C 121.363 321.952,122.000 322.208,122.000 321.810 C 122.000 321.706,121.415 321.335,120.700 320.986 L 119.400 320.352 120.400 321.167 M320.281 325.839 C 319.886 326.368,319.708 326.800,319.885 326.800 C 320.234 326.800,321.338 325.201,321.128 325.000 C 321.057 324.933,320.677 325.311,320.281 325.839 M128.400 325.967 C 129.363 326.752,130.000 327.008,130.000 326.610 C 130.000 326.506,129.415 326.135,128.700 325.786 L 127.400 325.152 128.400 325.967 M278.100 327.497 C 279.805 327.572,282.595 327.572,284.300 327.497 C 286.005 327.422,284.610 327.361,281.200 327.361 C 277.790 327.361,276.395 327.422,278.100 327.497 M270.200 328.000 L 268.600 328.286 270.000 328.303 C 270.770 328.313,271.850 328.176,272.400 328.000 C 273.685 327.588,272.499 327.588,270.200 328.000 M289.800 327.980 C 291.034 328.315,293.864 328.518,293.567 328.250 C 293.475 328.168,292.320 328.000,291.000 327.877 C 289.422 327.730,289.011 327.765,289.800 327.980 M265.600 328.800 C 264.216 329.091,264.214 329.095,265.400 329.141 C 266.060 329.167,266.870 329.013,267.200 328.800 C 267.866 328.370,267.645 328.370,265.600 328.800 M295.000 328.790 C 295.764 329.128,298.314 329.357,297.967 329.056 C 297.875 328.976,296.990 328.804,296.000 328.673 C 294.798 328.514,294.466 328.553,295.000 328.790 M316.697 329.166 C 315.053 330.219,314.825 330.591,316.275 329.854 C 316.976 329.497,317.661 329.024,317.798 328.803 C 318.119 328.284,318.023 328.315,316.697 329.166 M135.200 329.396 C 135.200 329.670,137.649 330.884,137.832 330.701 C 137.919 330.614,137.362 330.244,136.595 329.878 C 135.828 329.512,135.200 329.295,135.200 329.396 M262.000 329.600 C 261.176 329.864,261.141 329.926,261.800 329.954 C 262.240 329.973,262.870 329.813,263.200 329.600 C 263.901 329.147,263.414 329.147,262.000 329.600 M259.200 330.400 C 258.376 330.664,258.341 330.726,259.000 330.754 C 259.440 330.773,260.070 330.613,260.400 330.400 C 261.101 329.947,260.614 329.947,259.200 330.400 M308.700 331.489 C 309.415 331.578,310.585 331.578,311.300 331.489 C 312.015 331.401,311.430 331.328,310.000 331.328 C 308.570 331.328,307.985 331.401,308.700 331.489 M140.854 332.187 C 141.190 332.523,144.000 333.616,144.000 333.411 C 144.000 333.301,143.348 332.938,142.551 332.605 C 141.075 331.989,140.518 331.851,140.854 332.187 M158.800 338.800 C 159.130 339.013,159.670 339.188,160.000 339.188 C 160.533 339.188,160.533 339.145,160.000 338.800 C 159.670 338.587,159.130 338.412,158.800 338.412 C 158.267 338.412,158.267 338.455,158.800 338.800 M164.800 340.400 C 165.130 340.613,165.760 340.778,166.200 340.766 L 167.000 340.744 166.200 340.400 C 165.004 339.886,164.005 339.886,164.800 340.400 M168.400 341.182 C 168.730 341.405,169.345 341.591,169.767 341.594 C 170.790 341.602,170.471 341.373,169.000 341.044 C 168.124 340.848,167.962 340.885,168.400 341.182 M172.400 341.994 C 172.730 342.211,173.435 342.391,173.967 342.394 C 175.251 342.402,174.925 342.175,173.200 341.858 C 172.215 341.677,171.978 341.718,172.400 341.994 M220.800 342.000 C 219.976 342.264,219.941 342.326,220.600 342.354 C 221.040 342.373,221.670 342.213,222.000 342.000 C 222.701 341.547,222.214 341.547,220.800 342.000 M176.800 342.779 C 177.130 343.004,177.925 343.191,178.567 343.194 C 180.104 343.202,179.784 342.970,177.800 342.638 C 176.654 342.446,176.370 342.486,176.800 342.779 M216.600 342.800 L 215.400 343.105 216.600 343.147 C 217.260 343.169,218.070 343.013,218.400 342.800 C 219.143 342.320,218.487 342.320,216.600 342.800 M211.000 343.600 L 209.000 343.874 210.800 343.909 C 211.790 343.928,212.960 343.789,213.400 343.600 C 214.313 343.208,213.862 343.208,211.000 343.600 M184.500 343.887 C 185.105 343.978,186.095 343.978,186.700 343.887 C 187.305 343.795,186.810 343.720,185.600 343.720 C 184.390 343.720,183.895 343.795,184.500 343.887 M191.600 344.470 C 193.844 344.807,204.988 344.794,206.571 344.453 C 207.215 344.314,203.705 344.200,198.771 344.200 C 193.837 344.200,190.610 344.322,191.600 344.470 " stroke="none" fill="#a168fc" fill-rule="evenodd"></path><path id="path3" d="M186.400 56.800 L 184.200 57.070 186.400 57.105 C 187.610 57.125,189.410 56.997,190.400 56.820 L 192.200 56.500 190.400 56.515 C 189.410 56.524,187.610 56.652,186.400 56.800 M210.200 56.801 C 211.779 57.149,216.290 57.343,215.967 57.048 C 215.875 56.965,214.180 56.795,212.200 56.672 C 209.640 56.512,209.062 56.550,210.200 56.801 M179.800 57.600 L 178.200 57.886 179.800 57.903 C 180.680 57.913,181.850 57.776,182.400 57.600 L 183.400 57.280 182.400 57.297 C 181.850 57.306,180.680 57.442,179.800 57.600 M218.000 57.579 C 218.986 57.916,222.290 58.141,221.967 57.850 C 221.875 57.768,220.720 57.596,219.400 57.469 C 217.845 57.320,217.352 57.358,218.000 57.579 M174.800 58.400 C 173.443 58.686,173.437 58.695,174.600 58.707 C 175.260 58.715,176.250 58.576,176.800 58.400 C 178.112 57.980,176.796 57.980,174.800 58.400 M223.600 58.387 C 224.591 58.717,227.487 58.935,227.167 58.654 C 227.075 58.574,226.010 58.406,224.800 58.281 C 223.380 58.134,222.954 58.171,223.600 58.387 M170.600 59.200 C 169.511 59.477,169.493 59.507,170.400 59.525 C 170.950 59.535,171.760 59.389,172.200 59.200 C 173.186 58.776,172.266 58.776,170.600 59.200 M228.200 59.181 C 228.968 59.529,231.110 59.756,230.767 59.453 C 230.675 59.372,229.880 59.196,229.000 59.062 C 227.885 58.893,227.642 58.929,228.200 59.181 M167.200 60.000 L 166.200 60.320 167.200 60.354 C 167.750 60.373,168.470 60.213,168.800 60.000 C 169.564 59.506,168.742 59.506,167.200 60.000 M231.800 59.981 C 232.568 60.329,234.710 60.556,234.367 60.253 C 234.275 60.172,233.480 59.996,232.600 59.862 C 231.485 59.693,231.242 59.729,231.800 59.981 M163.800 60.815 C 163.140 60.998,161.911 61.324,161.068 61.539 C 160.226 61.754,159.416 62.058,159.268 62.215 C 159.121 62.371,159.450 62.381,160.000 62.236 C 163.318 61.361,164.283 61.081,165.000 60.785 C 166.017 60.365,165.362 60.381,163.800 60.815 M234.836 60.570 C 235.146 60.880,240.937 62.396,241.119 62.215 C 241.196 62.137,240.301 61.807,239.130 61.480 C 235.996 60.607,234.572 60.305,234.836 60.570 M154.800 63.434 C 148.689 65.687,145.596 66.930,145.741 67.075 C 145.826 67.160,146.864 66.841,148.048 66.367 C 149.232 65.892,152.180 64.812,154.600 63.965 C 157.020 63.119,158.640 62.437,158.200 62.451 C 157.760 62.464,156.230 62.906,154.800 63.434 M244.960 63.629 C 246.918 64.280,248.587 64.746,248.670 64.663 C 248.863 64.471,242.598 62.393,241.914 62.422 C 241.631 62.434,243.002 62.977,244.960 63.629 M139.600 69.600 C 138.830 70.022,138.380 70.366,138.600 70.366 C 138.820 70.366,139.630 70.022,140.400 69.600 C 141.170 69.178,141.620 68.834,141.400 68.834 C 141.180 68.834,140.370 69.178,139.600 69.600 M131.900 73.429 C 130.405 74.240,130.496 74.578,132.000 73.800 C 132.660 73.459,133.200 73.094,133.200 72.990 C 133.200 72.732,133.157 72.747,131.900 73.429 M269.600 74.364 C 270.150 74.814,270.780 75.183,271.000 75.185 C 271.428 75.188,270.705 74.634,269.400 73.960 C 268.869 73.685,268.936 73.821,269.600 74.364 M127.375 76.052 C 125.849 76.960,124.420 77.890,124.200 78.119 C 123.980 78.347,124.520 78.119,125.400 77.613 C 126.280 77.106,127.630 76.339,128.400 75.908 C 129.802 75.123,130.740 74.400,130.355 74.400 C 130.242 74.400,128.901 75.143,127.375 76.052 M271.600 75.364 C 271.600 75.473,272.725 76.220,274.100 77.024 C 275.475 77.828,278.550 79.824,280.934 81.459 C 283.317 83.094,285.160 84.259,285.030 84.048 C 284.500 83.190,271.600 74.849,271.600 75.364 M120.400 80.433 C 118.750 81.541,117.130 82.725,116.800 83.064 C 116.470 83.404,117.865 82.567,119.900 81.205 C 123.057 79.092,123.996 78.363,123.500 78.409 C 123.445 78.415,122.050 79.325,120.400 80.433 M114.385 84.832 L 113.000 86.063 114.288 85.213 C 115.430 84.459,116.293 83.600,115.908 83.600 C 115.832 83.600,115.147 84.154,114.385 84.832 M285.600 84.506 C 285.600 84.618,286.905 85.750,288.500 87.021 C 292.374 90.109,292.400 90.128,292.400 89.894 C 292.400 89.782,291.095 88.650,289.500 87.379 C 285.626 84.291,285.600 84.272,285.600 84.506 M110.800 87.634 L 109.000 89.265 110.900 87.784 C 112.566 86.486,113.059 85.997,112.700 86.001 C 112.645 86.002,111.790 86.736,110.800 87.634 M107.375 90.500 L 106.200 91.800 107.500 90.625 C 108.712 89.530,108.984 89.200,108.675 89.200 C 108.606 89.200,108.021 89.785,107.375 90.500 M294.659 92.098 C 298.370 95.344,302.519 99.421,305.650 102.897 C 307.383 104.820,308.800 106.194,308.800 105.952 C 308.800 105.372,293.748 90.400,293.166 90.400 C 292.920 90.400,293.592 91.164,294.659 92.098 M104.494 92.812 C 103.775 93.465,103.337 94.000,103.519 94.000 C 103.701 94.000,104.368 93.460,105.000 92.800 C 106.470 91.265,106.186 91.272,104.494 92.812 M98.016 99.010 C 96.405 100.666,95.157 102.076,95.244 102.144 C 95.330 102.212,96.751 100.858,98.401 99.134 C 100.052 97.410,101.300 96.000,101.174 96.000 C 101.048 96.000,99.627 97.355,98.016 99.010 M91.864 105.663 C 90.360 107.389,89.280 108.786,89.464 108.770 C 89.857 108.735,94.960 102.813,94.745 102.642 C 94.665 102.579,93.369 103.938,91.864 105.663 M309.200 106.613 C 309.200 106.765,309.956 107.814,310.881 108.944 C 311.805 110.075,312.615 111.075,312.681 111.167 C 312.746 111.258,312.873 111.258,312.962 111.167 C 313.051 111.075,312.241 109.951,311.162 108.669 C 310.083 107.387,309.200 106.462,309.200 106.613 M88.344 109.900 C 87.075 111.432,86.619 112.142,87.081 111.865 C 87.593 111.558,89.369 109.200,89.089 109.200 C 88.998 109.200,88.663 109.515,88.344 109.900 M313.991 112.788 C 314.457 113.441,315.042 114.102,315.291 114.256 C 315.541 114.411,315.241 113.876,314.625 113.068 C 313.288 111.315,312.784 111.092,313.991 112.788 M85.400 113.555 C 80.014 121.258,74.920 129.200,75.366 129.200 C 75.476 129.200,76.059 128.345,76.661 127.300 C 78.250 124.543,83.047 117.371,85.089 114.700 C 86.056 113.435,86.701 112.402,86.523 112.405 C 86.346 112.408,85.840 112.925,85.400 113.555 M318.868 119.638 C 320.733 122.367,322.748 125.455,323.346 126.500 C 323.944 127.545,324.524 128.400,324.634 128.400 C 325.169 128.400,316.800 115.494,315.906 114.942 C 315.670 114.796,317.003 116.909,318.868 119.638 M324.815 129.000 C 324.817 129.220,325.186 129.850,325.636 130.400 C 326.179 131.064,326.315 131.131,326.040 130.600 C 325.366 129.295,324.812 128.572,324.815 129.000 M327.268 133.500 C 328.279 135.755,330.140 139.193,330.276 139.058 C 330.490 138.843,327.683 133.200,327.362 133.200 C 327.236 133.200,327.194 133.335,327.268 133.500 M333.763 147.400 C 334.061 148.792,337.351 157.583,337.513 157.421 C 337.598 157.335,337.044 155.496,336.281 153.333 C 334.841 149.251,333.465 146.008,333.763 147.400 M63.456 155.576 C 62.875 157.334,62.410 159.003,62.422 159.286 C 62.434 159.569,62.977 158.198,63.629 156.240 C 64.280 154.282,64.746 152.613,64.663 152.530 C 64.580 152.447,64.037 153.818,63.456 155.576 M337.640 158.217 C 337.618 158.447,338.031 160.157,338.559 162.017 C 339.086 163.878,339.739 166.390,340.009 167.600 C 340.279 168.810,340.657 170.322,340.850 170.960 C 341.042 171.598,341.214 172.588,341.232 173.160 C 341.249 173.732,341.362 173.951,341.483 173.647 C 341.714 173.062,341.282 170.902,339.753 165.000 C 338.619 160.625,337.693 157.653,337.640 158.217 M61.849 160.615 C 61.712 160.973,61.615 161.566,61.634 161.933 C 61.653 162.300,61.827 162.069,62.021 161.420 C 62.398 160.158,62.265 159.533,61.849 160.615 M61.064 163.500 C 60.569 165.325,60.408 166.568,60.739 166.000 C 61.134 165.325,61.668 162.800,61.417 162.800 C 61.327 162.800,61.169 163.115,61.064 163.500 M86.283 165.139 C 85.889 165.295,86.932 165.422,88.600 165.422 C 90.268 165.422,91.311 165.295,90.917 165.139 C 90.523 164.984,89.480 164.856,88.600 164.856 C 87.720 164.856,86.677 164.984,86.283 165.139 M147.738 165.106 C 147.484 165.268,148.591 165.400,150.198 165.400 C 151.805 165.400,152.913 165.268,152.660 165.106 C 152.407 164.944,151.300 164.812,150.200 164.812 C 149.100 164.812,147.992 164.944,147.738 165.106 M176.249 165.151 C 175.823 165.318,176.716 165.436,178.311 165.423 C 179.857 165.410,180.915 165.268,180.661 165.106 C 180.077 164.734,177.238 164.763,176.249 165.151 M228.939 165.106 C 228.685 165.268,229.743 165.410,231.289 165.423 C 232.884 165.436,233.777 165.318,233.351 165.151 C 232.362 164.763,229.523 164.734,228.939 165.106 M257.739 165.106 C 257.485 165.268,258.543 165.410,260.089 165.423 C 261.684 165.436,262.577 165.318,262.151 165.151 C 261.162 164.763,258.323 164.734,257.739 165.106 M310.102 165.129 C 309.828 165.303,310.846 165.435,312.363 165.422 C 313.881 165.410,314.915 165.268,314.661 165.106 C 314.045 164.714,310.729 164.730,310.102 165.129 M145.144 166.424 L 144.200 167.247 145.400 166.545 C 146.979 165.620,147.003 165.600,146.511 165.600 C 146.279 165.600,145.664 165.971,145.144 166.424 M154.000 165.705 C 154.989 166.727,158.050 168.748,157.200 167.818 C 156.650 167.216,155.660 166.448,155.000 166.111 C 154.340 165.774,153.890 165.591,154.000 165.705 M173.800 166.066 C 172.439 166.816,170.756 168.543,170.159 169.800 C 169.836 170.478,169.808 170.672,170.094 170.246 C 171.367 168.349,172.611 167.109,173.948 166.402 C 174.747 165.981,175.220 165.633,175.000 165.630 C 174.780 165.627,174.240 165.823,173.800 166.066 M182.852 166.402 C 184.229 167.130,185.313 168.203,186.909 170.417 L 187.618 171.400 187.017 170.200 C 185.960 168.089,183.176 165.577,181.938 165.618 C 181.642 165.627,182.053 165.981,182.852 166.402 M307.800 166.066 C 306.619 166.717,304.787 168.485,304.343 169.400 C 304.130 169.840,304.359 169.680,304.852 169.044 C 305.345 168.409,306.560 167.374,307.552 166.744 C 309.281 165.648,309.464 165.148,307.800 166.066 M316.554 166.124 C 318.179 167.151,319.747 168.622,320.455 169.783 C 320.863 170.452,321.198 170.740,321.199 170.423 C 321.200 169.707,317.006 165.591,316.308 165.624 C 316.019 165.637,316.125 165.852,316.554 166.124 M82.122 167.429 L 81.000 168.458 82.300 167.554 C 83.015 167.057,83.600 166.593,83.600 166.525 C 83.600 166.209,83.158 166.480,82.122 167.429 M95.100 168.023 C 96.035 168.977,96.800 169.982,96.800 170.255 C 96.800 170.529,96.978 170.863,97.195 170.997 C 97.814 171.380,97.176 169.956,96.067 168.481 C 95.522 167.755,94.699 166.965,94.238 166.725 C 93.777 166.484,94.165 167.069,95.100 168.023 M224.651 167.231 C 224.070 167.688,223.394 168.453,223.149 168.931 C 222.867 169.479,223.311 169.217,224.351 168.219 C 225.258 167.349,226.000 166.584,226.000 166.519 C 226.000 166.258,225.661 166.437,224.651 167.231 M236.000 166.511 C 236.000 166.587,236.585 167.078,237.300 167.601 C 238.104 168.190,238.384 168.287,238.033 167.855 C 237.500 167.199,236.000 166.207,236.000 166.511 M253.571 167.302 C 253.005 167.796,252.293 168.560,251.990 169.000 C 251.686 169.440,252.194 169.088,253.119 168.219 C 254.653 166.776,254.983 166.396,254.700 166.402 C 254.645 166.403,254.137 166.808,253.571 167.302 M265.569 167.083 C 266.101 167.471,267.046 168.592,267.669 169.573 C 268.797 171.352,269.204 171.531,268.350 169.874 C 267.719 168.648,266.346 167.195,265.400 166.752 C 264.862 166.500,264.917 166.608,265.569 167.083 M60.049 167.600 C 60.016 167.930,59.889 168.650,59.767 169.200 C 59.575 170.064,59.607 170.103,59.999 169.488 C 60.248 169.097,60.375 168.377,60.281 167.888 C 60.186 167.400,60.082 167.270,60.049 167.600 M142.483 168.900 C 140.879 171.259,140.337 173.668,140.861 176.109 C 141.090 177.180,141.357 177.977,141.453 177.880 C 141.549 177.784,141.450 176.917,141.234 175.953 C 140.731 173.718,141.320 171.196,142.882 168.900 C 143.518 167.965,143.948 167.200,143.838 167.200 C 143.728 167.200,143.118 167.965,142.483 168.900 M239.111 169.974 C 239.482 170.620,239.840 171.093,239.907 171.026 C 240.124 170.809,239.083 168.800,238.754 168.800 C 238.580 168.800,238.740 169.328,239.111 169.974 M220.621 173.558 C 219.615 175.561,218.874 177.200,218.974 177.200 C 219.251 177.200,222.794 170.261,222.610 170.077 C 222.522 169.989,221.627 171.555,220.621 173.558 M59.254 171.000 C 59.219 171.440,59.089 172.250,58.967 172.800 C 58.775 173.663,58.807 173.703,59.198 173.090 C 59.447 172.699,59.577 171.889,59.486 171.290 C 59.378 170.579,59.297 170.479,59.254 171.000 M159.152 172.087 C 159.337 173.198,159.393 173.255,159.519 172.454 C 159.601 171.933,159.503 171.343,159.301 171.141 C 159.079 170.919,159.021 171.293,159.152 172.087 M169.052 172.100 C 168.736 173.279,168.782 176.014,169.133 176.900 C 169.286 177.285,169.411 176.160,169.411 174.400 C 169.411 170.874,169.400 170.804,169.052 172.100 M321.468 172.600 C 321.771 174.577,322.002 174.914,321.994 173.367 C 321.991 172.725,321.816 171.930,321.605 171.600 C 321.345 171.191,321.301 171.510,321.468 172.600 M79.052 172.500 C 78.734 173.687,78.821 202.656,79.147 204.181 C 79.286 204.831,79.400 197.766,79.400 188.482 C 79.400 179.197,79.376 171.600,79.347 171.600 C 79.317 171.600,79.185 172.005,79.052 172.500 M97.909 185.600 C 97.969 193.410,98.073 200.520,98.139 201.400 C 98.206 202.280,98.278 196.700,98.300 189.000 C 98.323 181.300,98.219 174.190,98.070 173.200 C 97.922 172.210,97.849 177.790,97.909 185.600 M269.105 184.112 C 269.163 190.981,269.263 197.770,269.327 199.200 C 269.391 200.630,269.466 195.320,269.494 187.400 C 269.521 179.480,269.421 172.691,269.272 172.312 C 269.122 171.934,269.047 177.244,269.105 184.112 M240.186 174.424 C 240.179 175.713,240.311 176.550,240.480 176.284 C 240.871 175.668,240.881 173.145,240.494 172.540 C 240.332 172.287,240.194 173.135,240.186 174.424 M250.250 173.250 C 249.925 174.877,250.001 199.936,250.340 202.800 C 250.483 204.010,250.600 197.575,250.600 188.500 C 250.600 179.426,250.578 172.001,250.550 172.000 C 250.523 172.000,250.388 172.563,250.250 173.250 M302.890 186.600 C 302.836 194.300,302.704 201.320,302.597 202.200 C 302.408 203.761,302.413 203.769,302.807 202.525 C 303.056 201.737,303.168 195.769,303.100 186.925 L 302.990 172.600 302.890 186.600 M58.459 175.400 C 58.420 176.060,58.296 177.050,58.183 177.600 L 57.977 178.600 58.408 177.614 C 58.644 177.072,58.768 176.082,58.683 175.414 L 58.528 174.200 58.459 175.400 M159.152 176.713 C 159.021 177.507,159.079 177.881,159.301 177.659 C 159.503 177.457,159.601 176.867,159.519 176.346 C 159.393 175.545,159.337 175.602,159.152 176.713 M342.040 177.433 C 342.062 178.075,342.233 179.050,342.420 179.600 C 342.649 180.274,342.684 179.949,342.528 178.600 C 342.269 176.350,341.979 175.659,342.040 177.433 M239.130 178.818 C 238.761 179.688,238.531 180.400,238.619 180.400 C 238.913 180.400,240.050 177.951,239.924 177.591 C 239.856 177.396,239.498 177.949,239.130 178.818 M217.878 179.005 C 217.512 179.772,217.295 180.400,217.396 180.400 C 217.670 180.400,218.884 177.951,218.701 177.768 C 218.614 177.681,218.244 178.238,217.878 179.005 M142.337 179.600 C 143.214 181.108,146.472 183.606,147.544 183.591 C 147.905 183.586,147.476 183.253,146.591 182.851 C 145.112 182.180,143.846 181.077,142.169 179.000 C 141.814 178.560,141.890 178.830,142.337 179.600 M158.400 178.744 C 158.400 179.006,157.552 180.071,156.515 181.111 C 155.479 182.150,155.069 182.711,155.605 182.358 C 156.899 181.505,159.008 178.874,158.668 178.535 C 158.521 178.387,158.400 178.481,158.400 178.744 M57.663 180.200 C 57.623 180.860,57.504 182.120,57.397 183.000 L 57.203 184.600 57.623 183.260 C 57.854 182.523,57.974 181.263,57.889 180.460 C 57.752 179.166,57.726 179.137,57.663 180.200 M170.679 180.300 C 170.967 181.094,172.000 182.697,172.000 182.350 C 172.000 182.002,170.763 179.600,170.583 179.600 C 170.496 179.600,170.539 179.915,170.679 180.300 M342.847 182.833 C 342.873 183.805,343.037 185.140,343.211 185.800 C 343.402 186.528,343.441 185.898,343.309 184.200 C 343.061 181.021,342.776 180.176,342.847 182.833 M173.200 185.200 C 173.866 186.520,174.502 187.600,174.612 187.600 C 174.722 187.600,174.266 186.520,173.600 185.200 C 172.934 183.880,172.298 182.800,172.188 182.800 C 172.078 182.800,172.534 183.880,173.200 185.200 M194.000 184.400 C 194.449 185.280,194.906 186.000,195.016 186.000 C 195.126 186.000,194.849 185.280,194.400 184.400 C 193.951 183.520,193.494 182.800,193.384 182.800 C 193.274 182.800,193.551 183.520,194.000 184.400 M149.505 183.883 C 150.002 183.979,150.722 183.975,151.105 183.875 C 151.487 183.775,151.080 183.696,150.200 183.701 C 149.320 183.705,149.007 183.787,149.505 183.883 M56.652 189.134 C 56.477 191.188,56.423 192.956,56.530 193.064 C 56.803 193.336,57.313 187.592,57.124 186.385 C 57.039 185.843,56.826 187.080,56.652 189.134 M231.911 192.900 C 229.542 197.533,229.148 198.400,229.410 198.400 C 229.511 198.400,230.677 196.240,232.000 193.600 C 233.323 190.960,234.316 188.800,234.207 188.800 C 234.097 188.800,233.064 190.645,231.911 192.900 M343.796 199.800 C 343.798 205.740,343.913 209.340,344.050 207.800 C 344.371 204.209,344.368 195.864,344.044 192.000 C 343.905 190.350,343.794 193.860,343.796 199.800 M196.800 189.650 C 196.800 189.998,198.037 192.400,198.217 192.400 C 198.304 192.400,198.261 192.085,198.121 191.700 C 197.833 190.906,196.800 189.303,196.800 189.650 M210.330 193.700 C 209.814 194.635,208.419 197.343,207.230 199.718 C 205.775 202.625,204.894 203.968,204.534 203.830 C 204.241 203.717,204.000 203.813,204.000 204.042 C 204.000 205.726,205.735 203.424,208.478 198.100 C 211.362 192.502,212.551 189.676,210.330 193.700 M198.407 192.839 C 198.392 193.353,199.696 195.638,199.892 195.442 C 200.006 195.327,199.720 194.641,199.257 193.917 C 198.793 193.193,198.410 192.707,198.407 192.839 M148.465 193.951 C 148.138 194.159,148.793 194.278,150.148 194.258 C 151.368 194.241,152.149 194.088,151.883 193.919 C 151.237 193.509,149.132 193.528,148.465 193.951 M145.358 195.320 C 143.297 196.781,141.172 199.755,141.232 201.095 C 141.256 201.641,141.309 201.665,141.467 201.200 C 142.396 198.472,144.247 196.246,146.600 195.027 C 147.260 194.685,147.530 194.413,147.200 194.422 C 146.870 194.432,146.041 194.835,145.358 195.320 M178.000 194.539 C 178.000 194.966,179.314 197.219,179.471 197.062 C 179.677 196.856,178.495 194.400,178.190 194.400 C 178.085 194.400,178.000 194.462,178.000 194.539 M158.218 199.300 C 158.753 200.235,159.217 201.540,159.250 202.200 C 159.302 203.251,159.332 203.280,159.491 202.432 C 159.675 201.458,158.129 197.600,157.555 197.600 C 157.385 197.600,157.684 198.365,158.218 199.300 M179.609 197.900 C 179.614 198.065,179.985 198.650,180.433 199.200 L 181.248 200.200 180.614 198.900 C 180.011 197.665,179.589 197.245,179.609 197.900 M202.200 200.400 C 202.976 201.940,203.700 203.200,203.810 203.200 C 203.920 203.200,203.376 201.940,202.600 200.400 C 201.824 198.860,201.100 197.600,200.990 197.600 C 200.880 197.600,201.424 198.860,202.200 200.400 M225.810 204.895 C 224.099 208.253,222.882 210.820,223.107 210.600 C 223.660 210.060,229.251 199.117,229.068 198.934 C 228.988 198.855,227.522 201.537,225.810 204.895 M181.200 200.553 C 181.200 200.982,182.390 203.200,182.621 203.200 C 182.731 203.200,182.523 202.615,182.159 201.900 C 181.417 200.440,181.200 200.136,181.200 200.553 M321.668 201.800 C 321.626 202.680,321.504 204.120,321.397 205.000 L 321.203 206.600 321.622 205.265 C 321.852 204.531,321.974 203.091,321.893 202.065 C 321.746 200.219,321.743 200.217,321.668 201.800 M140.594 203.700 C 140.159 206.604,140.610 226.842,141.147 228.490 C 142.010 231.141,145.755 235.200,147.337 235.200 C 147.568 235.200,146.909 234.662,145.873 234.005 C 141.376 231.154,140.669 228.174,140.862 212.900 C 141.008 201.387,140.997 201.013,140.594 203.700 M269.612 203.600 C 269.612 203.930,269.787 204.470,270.000 204.800 C 270.345 205.333,270.388 205.333,270.388 204.800 C 270.388 204.470,270.213 203.930,270.000 203.600 C 269.655 203.067,269.612 203.067,269.612 203.600 M182.800 203.753 C 182.800 204.182,183.990 206.400,184.221 206.400 C 184.331 206.400,184.123 205.815,183.759 205.100 C 183.017 203.640,182.800 203.336,182.800 203.753 M159.775 214.600 C 159.775 220.540,159.831 223.026,159.899 220.124 C 159.967 217.222,159.967 212.362,159.899 209.324 C 159.831 206.286,159.775 208.660,159.775 214.600 M301.829 205.029 C 301.681 205.615,301.638 206.172,301.732 206.266 C 301.827 206.360,302.024 205.958,302.171 205.371 C 302.319 204.785,302.362 204.228,302.268 204.134 C 302.173 204.040,301.976 204.442,301.829 205.029 M250.856 206.600 C 250.856 207.040,251.011 207.760,251.200 208.200 L 251.544 209.000 251.544 208.200 C 251.544 207.760,251.389 207.040,251.200 206.600 L 250.856 205.800 250.856 206.600 M79.606 207.033 C 79.609 207.455,79.795 208.070,80.018 208.400 C 80.315 208.838,80.352 208.676,80.156 207.800 C 79.827 206.329,79.598 206.010,79.606 207.033 M300.225 208.500 C 299.630 209.435,298.211 211.079,297.072 212.153 C 295.228 213.891,295.185 213.966,296.678 212.837 C 298.590 211.390,300.158 209.629,301.025 207.952 C 301.905 206.251,301.463 206.553,300.225 208.500 M320.846 207.667 C 320.821 208.034,320.696 208.664,320.570 209.067 C 320.352 209.762,320.363 209.763,320.797 209.087 C 321.048 208.696,321.173 208.066,321.073 207.687 C 320.911 207.068,320.888 207.066,320.846 207.667 M271.759 208.600 C 272.287 209.699,276.000 213.670,276.000 213.136 C 276.000 213.009,275.229 212.117,274.287 211.153 C 273.345 210.189,272.260 208.950,271.878 208.400 L 271.182 207.400 271.759 208.600 M101.749 210.370 C 102.822 211.686,105.482 214.000,105.922 214.000 C 106.038 214.000,106.058 213.946,105.967 213.880 C 105.875 213.813,104.637 212.688,103.216 211.380 C 101.706 209.989,101.096 209.570,101.749 210.370 M251.656 209.600 C 251.656 209.930,251.811 210.560,252.000 211.000 C 252.217 211.504,252.344 211.578,252.344 211.200 C 252.344 210.870,252.189 210.240,252.000 209.800 C 251.783 209.296,251.656 209.222,251.656 209.600 M56.678 213.600 C 56.801 215.690,56.969 217.475,57.051 217.567 C 57.344 217.894,57.147 212.969,56.804 211.400 C 56.561 210.288,56.522 210.959,56.678 213.600 M343.069 213.156 C 342.921 213.895,342.821 215.063,342.847 215.750 C 342.879 216.612,343.005 216.325,343.255 214.823 C 343.653 212.421,343.497 211.017,343.069 213.156 M317.878 215.805 C 317.512 216.572,317.295 217.200,317.396 217.200 C 317.670 217.200,318.884 214.751,318.701 214.568 C 318.614 214.481,318.244 215.038,317.878 215.805 M189.600 217.200 C 190.266 218.520,190.902 219.600,191.012 219.600 C 191.122 219.600,190.666 218.520,190.000 217.200 C 189.334 215.880,188.698 214.800,188.588 214.800 C 188.478 214.800,188.934 215.880,189.600 217.200 M110.800 215.979 C 111.130 216.204,111.925 216.391,112.567 216.394 C 114.104 216.402,113.784 216.170,111.800 215.838 C 110.654 215.646,110.370 215.686,110.800 215.979 M254.769 217.140 C 256.387 220.311,260.523 224.989,264.211 227.819 C 266.000 229.192,269.600 231.339,269.600 231.034 C 269.600 230.924,268.745 230.344,267.700 229.746 C 263.449 227.311,257.111 220.946,255.191 217.183 C 254.747 216.312,254.294 215.600,254.184 215.600 C 254.074 215.600,254.337 216.293,254.769 217.140 M282.000 215.979 C 282.330 216.204,283.125 216.391,283.767 216.394 C 285.304 216.402,284.984 216.170,283.000 215.838 C 281.854 215.646,281.570 215.686,282.000 215.979 M288.600 216.000 C 287.511 216.277,287.493 216.307,288.400 216.325 C 288.950 216.335,289.760 216.189,290.200 216.000 C 291.186 215.576,290.266 215.576,288.600 216.000 M124.033 216.543 C 124.125 216.621,124.830 216.801,125.600 216.942 C 126.585 217.123,126.822 217.082,126.400 216.806 C 125.858 216.450,123.637 216.203,124.033 216.543 M84.180 218.200 C 86.660 222.298,91.857 227.577,95.200 229.392 C 96.053 229.855,95.453 229.320,92.179 226.698 C 89.366 224.445,87.056 221.960,85.244 219.237 C 84.020 217.397,83.225 216.623,84.180 218.200 M342.256 218.084 C 342.121 218.588,342.028 219.450,342.049 220.000 C 342.072 220.589,342.231 220.271,342.436 219.225 C 342.803 217.352,342.673 216.527,342.256 218.084 M315.264 219.957 C 313.271 222.694,309.653 226.355,307.500 227.813 C 305.970 228.849,305.433 229.540,306.700 228.843 C 309.072 227.538,315.441 220.939,316.825 218.354 C 317.545 217.008,317.016 217.551,315.264 219.957 M128.800 218.125 C 128.800 218.194,129.385 218.779,130.100 219.425 L 131.400 220.600 130.225 219.300 C 129.130 218.088,128.800 217.816,128.800 218.125 M57.469 221.000 C 57.596 222.320,57.768 223.475,57.850 223.567 C 58.141 223.890,57.916 220.586,57.579 219.600 C 57.358 218.952,57.320 219.445,57.469 221.000 M131.977 222.794 C 132.320 223.864,132.659 224.575,132.732 224.374 C 132.898 223.913,132.043 221.274,131.648 221.030 C 131.487 220.930,131.635 221.724,131.977 222.794 M340.857 225.057 C 340.574 226.277,340.416 227.349,340.506 227.440 C 340.597 227.530,340.909 226.612,341.200 225.400 C 341.491 224.188,341.649 223.115,341.551 223.017 C 341.453 222.920,341.141 223.837,340.857 225.057 M214.396 227.209 C 213.508 228.973,212.119 231.178,211.308 232.109 L 209.834 233.800 211.317 232.421 C 212.602 231.227,216.812 224.000,216.223 224.000 C 216.105 224.000,215.283 225.444,214.396 227.209 M58.272 226.200 C 58.399 227.300,58.569 228.275,58.651 228.367 C 58.932 228.682,58.720 226.199,58.380 225.200 C 58.151 224.526,58.116 224.851,58.272 226.200 M159.260 227.067 C 159.227 227.544,159.084 228.264,158.941 228.667 C 158.742 229.231,158.795 229.296,159.172 228.949 C 159.442 228.701,159.585 227.981,159.491 227.349 C 159.370 226.539,159.302 226.456,159.260 227.067 M194.407 226.439 C 194.392 226.953,195.696 229.238,195.892 229.042 C 196.006 228.927,195.720 228.241,195.257 227.517 C 194.793 226.793,194.410 226.307,194.407 226.439 M132.229 227.829 C 132.081 228.415,132.051 228.984,132.161 229.094 C 132.271 229.204,132.481 228.815,132.629 228.229 C 132.776 227.642,132.806 227.073,132.696 226.963 C 132.586 226.853,132.376 227.242,132.229 227.829 M339.771 229.100 C 339.636 229.705,339.093 231.625,338.563 233.366 C 338.033 235.108,337.670 236.603,337.757 236.690 C 337.843 236.777,338.366 235.352,338.919 233.524 C 340.122 229.543,340.484 228.000,340.215 228.000 C 340.105 228.000,339.905 228.495,339.771 229.100 M59.062 230.600 C 59.196 231.480,59.372 232.275,59.453 232.367 C 59.756 232.710,59.529 230.568,59.181 229.800 C 58.929 229.242,58.893 229.485,59.062 230.600 M303.098 230.503 C 301.832 231.177,300.869 231.802,300.959 231.892 C 301.156 232.090,303.884 230.707,305.000 229.844 C 306.142 228.961,305.717 229.108,303.098 230.503 M96.000 229.779 C 96.000 229.889,96.540 230.259,97.200 230.600 C 97.860 230.941,98.400 231.131,98.400 231.021 C 98.400 230.911,97.860 230.541,97.200 230.200 C 96.540 229.859,96.000 229.669,96.000 229.779 M130.936 230.800 C 130.546 231.460,130.086 232.000,129.914 232.000 C 129.741 232.000,129.600 232.202,129.600 232.449 C 129.600 232.765,129.749 232.774,130.100 232.480 C 130.689 231.987,132.136 229.600,131.845 229.600 C 131.735 229.600,131.326 230.140,130.936 230.800 M197.235 231.500 C 197.478 231.885,198.154 232.543,198.738 232.963 C 199.580 233.568,199.514 233.423,198.422 232.263 C 196.905 230.654,196.562 230.433,197.235 231.500 M100.138 232.047 C 100.984 232.493,101.768 232.765,101.881 232.652 C 102.076 232.457,99.380 231.180,98.851 231.218 C 98.713 231.227,99.292 231.600,100.138 232.047 M270.800 231.766 C 271.350 232.060,272.250 232.412,272.800 232.549 C 273.350 232.686,273.080 232.452,272.200 232.029 C 270.390 231.158,269.268 230.948,270.800 231.766 M59.646 233.200 C 59.665 233.530,59.824 234.250,60.000 234.800 L 60.320 235.800 60.354 234.800 C 60.373 234.250,60.213 233.530,60.000 233.200 C 59.655 232.667,59.616 232.667,59.646 233.200 M103.000 233.200 C 103.440 233.389,104.070 233.544,104.400 233.544 C 104.778 233.544,104.704 233.417,104.200 233.200 C 103.760 233.011,103.130 232.856,102.800 232.856 C 102.422 232.856,102.496 232.983,103.000 233.200 M155.636 233.357 C 155.381 233.663,154.634 234.138,153.974 234.411 C 153.314 234.684,152.858 234.992,152.961 235.094 C 153.218 235.351,156.400 233.531,156.400 233.126 C 156.400 232.652,156.161 232.724,155.636 233.357 M296.800 233.200 C 296.267 233.545,296.267 233.588,296.800 233.588 C 297.130 233.588,297.670 233.413,298.000 233.200 C 298.533 232.855,298.533 232.812,298.000 232.812 C 297.670 232.812,297.130 232.987,296.800 233.200 M105.800 234.000 C 106.240 234.189,106.960 234.344,107.400 234.344 L 108.200 234.344 107.400 234.000 C 106.960 233.811,106.240 233.656,105.800 233.656 L 105.000 233.656 105.800 234.000 M208.200 234.095 C 207.760 234.355,206.092 234.569,204.494 234.572 C 202.419 234.576,201.847 234.677,202.494 234.924 C 203.722 235.394,207.264 235.006,208.662 234.249 C 209.288 233.910,209.620 233.630,209.400 233.628 C 209.180 233.626,208.640 233.836,208.200 234.095 M277.000 234.000 C 277.440 234.189,278.160 234.344,278.600 234.344 L 279.400 234.344 278.600 234.000 C 278.160 233.811,277.440 233.656,277.000 233.656 L 276.200 233.656 277.000 234.000 M293.800 234.000 C 293.296 234.217,293.222 234.344,293.600 234.344 C 293.930 234.344,294.560 234.189,295.000 234.000 C 295.504 233.783,295.578 233.656,295.200 233.656 C 294.870 233.656,294.240 233.811,293.800 234.000 M110.075 234.860 C 111.310 235.207,124.814 235.218,125.684 234.872 C 126.060 234.722,122.494 234.600,117.758 234.600 C 113.023 234.600,109.566 234.717,110.075 234.860 M281.276 234.860 C 282.452 235.191,289.424 235.186,290.977 234.853 C 291.625 234.714,289.499 234.600,286.254 234.600 C 283.008 234.600,280.768 234.717,281.276 234.860 M149.300 235.487 C 149.905 235.578,150.895 235.578,151.500 235.487 C 152.105 235.395,151.610 235.320,150.400 235.320 C 149.190 235.320,148.695 235.395,149.300 235.487 M60.612 237.200 C 61.014 239.061,61.683 241.396,62.045 242.200 C 62.460 243.124,62.297 242.214,61.544 239.400 C 61.002 237.378,60.284 235.682,60.612 237.200 M335.877 241.477 C 335.500 242.493,335.258 243.391,335.338 243.472 C 335.419 243.552,335.800 242.793,336.185 241.785 C 336.570 240.776,336.812 239.879,336.723 239.790 C 336.635 239.701,336.254 240.460,335.877 241.477 M62.418 243.600 C 62.407 244.252,65.032 251.965,65.384 252.318 C 65.736 252.670,65.659 252.404,64.008 247.600 C 63.139 245.070,62.423 243.270,62.418 243.600 M333.800 246.800 C 333.650 247.273,333.617 247.750,333.727 247.860 C 333.837 247.970,334.050 247.673,334.200 247.200 C 334.350 246.727,334.383 246.250,334.273 246.140 C 334.163 246.030,333.950 246.327,333.800 246.800 M331.823 251.806 C 330.960 253.872,331.074 254.106,332.047 252.262 C 332.493 251.416,332.765 250.632,332.652 250.519 C 332.539 250.406,332.166 250.985,331.823 251.806 M65.646 253.000 C 65.653 253.220,66.006 254.120,66.429 255.000 C 66.852 255.880,67.086 256.150,66.949 255.600 C 66.667 254.467,65.625 252.388,65.646 253.000 M67.218 256.851 C 67.180 257.380,68.457 260.076,68.652 259.881 C 68.765 259.768,68.493 258.984,68.047 258.138 C 67.600 257.292,67.227 256.713,67.218 256.851 M328.236 260.079 C 327.122 262.313,326.815 263.771,327.866 261.828 C 328.731 260.232,329.649 258.000,329.441 258.000 C 329.348 258.000,328.805 258.935,328.236 260.079 M324.995 267.049 C 324.429 268.287,324.041 269.374,324.133 269.466 C 324.225 269.558,324.630 268.861,325.033 267.917 C 325.436 266.972,325.903 265.885,326.070 265.500 C 326.855 263.693,325.901 265.067,324.995 267.049 M322.983 271.500 C 322.030 273.777,320.397 278.753,320.421 279.308 C 320.433 279.579,321.038 278.090,321.766 276.000 C 322.493 273.910,323.289 271.705,323.535 271.100 C 323.780 270.495,323.897 270.000,323.795 270.000 C 323.694 270.000,323.328 270.675,322.983 271.500 M75.158 273.000 C 76.167 275.011,77.597 277.129,77.588 276.600 C 77.585 276.380,77.230 275.750,76.800 275.200 C 76.370 274.650,76.010 274.020,76.000 273.800 C 75.990 273.580,75.616 272.950,75.168 272.400 L 74.355 271.400 75.158 273.000 M78.237 278.200 C 78.597 278.750,78.957 279.200,79.037 279.200 C 79.117 279.200,78.978 278.750,78.727 278.200 C 78.477 277.650,78.116 277.200,77.927 277.200 C 77.737 277.200,77.876 277.650,78.237 278.200 M79.546 280.200 C 79.756 280.640,80.863 282.260,82.007 283.800 C 83.151 285.340,84.177 286.825,84.286 287.100 C 84.396 287.375,84.651 287.600,84.853 287.600 C 85.165 287.600,81.870 282.765,79.809 280.200 L 79.166 279.400 79.546 280.200 M319.850 281.250 C 319.709 281.953,319.669 282.602,319.759 282.692 C 319.850 282.783,320.048 282.291,320.200 281.600 C 320.352 280.909,320.393 280.259,320.291 280.158 C 320.189 280.056,319.991 280.547,319.850 281.250 M319.015 285.415 C 318.861 286.654,318.824 287.757,318.934 287.867 C 319.044 287.977,319.261 287.054,319.415 285.815 C 319.570 284.577,319.607 283.473,319.497 283.363 C 319.387 283.253,319.170 284.177,319.015 285.415 M85.940 289.116 C 86.433 289.809,87.044 290.504,87.297 290.660 C 87.550 290.817,87.354 290.377,86.860 289.684 C 86.367 288.991,85.756 288.296,85.503 288.140 C 85.250 287.983,85.446 288.423,85.940 289.116 M89.418 293.400 C 90.451 294.610,91.374 295.600,91.467 295.600 C 91.783 295.600,88.203 291.245,87.869 291.222 C 87.687 291.210,88.384 292.190,89.418 293.400 M318.531 294.200 C 318.533 295.740,318.605 296.321,318.692 295.491 C 318.779 294.661,318.777 293.401,318.689 292.691 C 318.600 291.981,318.529 292.660,318.531 294.200 M92.800 297.186 C 92.800 297.525,102.755 307.389,102.886 307.180 C 102.949 307.081,100.705 304.741,97.900 301.980 C 95.095 299.219,92.800 297.062,92.800 297.186 M318.863 301.000 C 318.854 301.440,318.995 302.520,319.177 303.400 L 319.508 305.000 319.514 303.600 C 319.517 302.830,319.376 301.750,319.200 301.200 C 318.941 300.391,318.877 300.353,318.863 301.000 M319.646 306.000 C 319.665 306.330,319.824 307.050,320.000 307.600 L 320.320 308.600 320.354 307.600 C 320.373 307.050,320.213 306.330,320.000 306.000 C 319.655 305.467,319.616 305.467,319.646 306.000 M104.899 309.081 C 105.834 309.895,107.095 311.008,107.700 311.555 C 108.305 312.102,108.789 312.381,108.776 312.175 C 108.752 311.780,103.886 307.600,103.451 307.600 C 103.312 307.600,103.963 308.266,104.899 309.081 M320.468 309.200 C 320.488 310.239,321.118 311.946,321.132 311.000 C 321.138 310.560,320.989 309.840,320.800 309.400 C 320.589 308.910,320.461 308.832,320.468 309.200 M321.444 313.000 C 321.773 314.471,322.002 314.790,321.994 313.767 C 321.991 313.345,321.805 312.730,321.582 312.400 C 321.285 311.962,321.248 312.124,321.444 313.000 M109.200 312.525 C 109.200 312.624,109.861 313.209,110.668 313.825 C 111.476 314.441,112.011 314.741,111.856 314.491 C 111.540 313.979,109.200 312.247,109.200 312.525 M112.550 315.120 C 112.710 315.378,113.669 316.160,114.682 316.857 C 117.079 318.506,116.640 317.795,114.163 316.016 C 113.116 315.265,112.391 314.861,112.550 315.120 M322.184 318.008 C 322.207 322.780,320.512 326.205,316.787 328.919 C 316.244 329.314,316.070 329.509,316.400 329.353 C 319.940 327.677,322.857 322.631,322.760 318.354 C 322.683 314.948,322.168 314.640,322.184 318.008 M118.800 319.603 C 120.014 320.624,125.464 324.109,127.284 325.027 C 128.964 325.875,128.254 325.128,126.400 324.097 C 125.630 323.669,123.380 322.294,121.400 321.040 C 119.420 319.787,118.250 319.140,118.800 319.603 M129.200 326.020 C 130.587 326.961,131.378 327.235,130.400 326.436 C 129.850 325.986,129.220 325.617,129.000 325.615 C 128.780 325.613,128.870 325.796,129.200 326.020 M280.105 327.087 C 280.714 327.179,281.614 327.177,282.105 327.082 C 282.597 326.987,282.100 326.911,281.000 326.914 C 279.900 326.917,279.497 326.995,280.105 327.087 M270.400 327.611 C 269.791 327.812,270.496 327.853,272.200 327.716 C 273.740 327.592,275.075 327.425,275.167 327.345 C 275.496 327.058,271.378 327.287,270.400 327.611 M287.233 327.345 C 287.325 327.425,288.660 327.592,290.200 327.716 C 291.904 327.853,292.609 327.812,292.000 327.611 C 291.022 327.287,286.904 327.058,287.233 327.345 M265.800 328.400 L 265.000 328.744 265.800 328.725 C 266.240 328.714,267.140 328.568,267.800 328.400 L 269.000 328.095 267.800 328.075 C 267.140 328.065,266.240 328.211,265.800 328.400 M294.600 328.400 C 295.260 328.568,296.160 328.714,296.600 328.725 L 297.400 328.744 296.600 328.400 C 296.160 328.211,295.260 328.065,294.600 328.075 L 293.400 328.095 294.600 328.400 M262.400 329.218 C 261.962 329.515,262.124 329.552,263.000 329.356 C 264.471 329.027,264.790 328.798,263.767 328.806 C 263.345 328.809,262.730 328.995,262.400 329.218 M298.800 329.200 C 300.342 329.694,301.164 329.694,300.400 329.200 C 300.070 328.987,299.350 328.827,298.800 328.846 L 297.800 328.880 298.800 329.200 M259.200 330.000 C 258.405 330.514,259.404 330.514,260.600 330.000 L 261.400 329.656 260.600 329.634 C 260.160 329.622,259.530 329.787,259.200 330.000 M302.600 330.000 C 303.040 330.189,303.760 330.344,304.200 330.344 L 305.000 330.344 304.200 330.000 C 303.760 329.811,303.040 329.656,302.600 329.656 L 301.800 329.656 302.600 330.000 M306.400 330.800 C 306.950 330.976,307.850 331.120,308.400 331.120 L 309.400 331.120 308.400 330.800 C 307.850 330.624,306.950 330.480,306.400 330.480 L 305.400 330.480 306.400 330.800 M311.400 330.800 L 310.200 331.105 311.400 331.147 C 312.060 331.169,312.870 331.013,313.200 330.800 C 313.943 330.320,313.287 330.320,311.400 330.800 M247.600 334.000 C 247.067 334.345,247.067 334.388,247.600 334.388 C 247.930 334.388,248.470 334.213,248.800 334.000 C 249.333 333.655,249.333 333.612,248.800 333.612 C 248.470 333.612,247.930 333.787,247.600 334.000 M157.200 337.982 C 157.530 338.205,158.145 338.391,158.567 338.394 C 159.590 338.402,159.271 338.173,157.800 337.844 C 156.924 337.648,156.762 337.685,157.200 337.982 M235.000 338.045 C 234.340 338.251,231.746 338.954,229.236 339.607 C 226.726 340.260,224.567 340.900,224.437 341.029 C 224.177 341.290,225.138 341.085,229.600 339.930 C 234.216 338.735,236.800 337.960,236.800 337.772 C 236.800 337.541,236.425 337.598,235.000 338.045 M160.000 338.782 C 160.330 339.005,160.945 339.191,161.367 339.194 C 162.390 339.202,162.071 338.973,160.600 338.644 C 159.724 338.448,159.562 338.485,160.000 338.782 M163.633 339.743 C 163.725 339.821,164.430 340.001,165.200 340.142 C 166.185 340.323,166.422 340.282,166.000 340.006 C 165.458 339.650,163.237 339.403,163.633 339.743 M166.833 340.547 C 166.925 340.628,167.720 340.804,168.600 340.938 C 169.715 341.107,169.958 341.071,169.400 340.819 C 168.632 340.471,166.490 340.244,166.833 340.547 M170.433 341.349 C 170.525 341.431,171.500 341.601,172.600 341.728 C 173.949 341.884,174.274 341.849,173.600 341.620 C 172.601 341.280,170.118 341.068,170.433 341.349 M221.000 341.610 C 220.466 341.847,220.798 341.886,222.000 341.727 C 222.990 341.596,223.875 341.424,223.967 341.344 C 224.314 341.043,221.764 341.272,221.000 341.610 M174.833 342.146 C 174.925 342.226,175.990 342.394,177.200 342.519 C 178.620 342.666,179.046 342.629,178.400 342.413 C 177.409 342.083,174.513 341.865,174.833 342.146 M217.000 342.410 C 216.466 342.647,216.798 342.686,218.000 342.527 C 218.990 342.396,219.875 342.224,219.967 342.144 C 220.314 341.843,217.764 342.072,217.000 342.410 M179.633 342.945 C 179.725 343.025,181.060 343.192,182.600 343.316 C 184.304 343.453,185.009 343.412,184.400 343.211 C 183.422 342.887,179.304 342.658,179.633 342.945 M212.000 343.213 C 211.354 343.429,211.780 343.466,213.200 343.319 C 214.410 343.194,215.475 343.026,215.567 342.946 C 215.887 342.665,212.991 342.883,212.000 343.213 M190.800 344.053 C 195.093 344.391,203.855 344.393,207.000 344.057 C 208.320 343.915,204.450 343.797,198.400 343.793 C 191.634 343.788,188.709 343.889,190.800 344.053 " stroke="none" fill="#b482fc" fill-rule="evenodd"></path></g></svg>