<?xml version="1.0" encoding="UTF-8"?>
<svg width="214px" height="56px" viewBox="0 0 214 56" version="1.1" xmlns="http://www.w3.org/2000/svg" xmlns:xlink="http://www.w3.org/1999/xlink">
    <title>Group</title>
    <g id="Money-Pay-Web" stroke="none" stroke-width="1" fill="none" fill-rule="evenodd">
        <g id="Money-Pay" transform="translate(-150.000000, -48.000000)">
            <g id="Group" transform="translate(150.000000, 48.000000)">
                <path d="M54.8171641,12.8545548 C53.3367317,12.8590569 52.3427454,13.3521082 51.494075,14.5048341 C50.5985284,15.7155158 50.1483048,17.3591623 50.1540033,19.3916673 C50.1600238,21.4661476 50.6115259,23.129823 51.4951403,24.335391 C52.3109975,25.4346354 53.3173421,25.905101 54.854665,25.9008682 C56.371959,25.896365 57.40856,25.4033137 58.2158943,24.3010862 C59.0839544,23.1021234 59.5239505,21.4384481 59.5180443,19.36482 C59.5120184,17.332102 59.0530588,15.692717 58.1536769,14.4924758 C57.2945659,13.3395369 56.2973834,12.8503209 54.8171641,12.8545548 M118.652395,14.6260727 C119.793614,15.8512434 120.399595,17.3843049 120.404282,19.0592731 C120.409396,20.7502218 119.817905,22.273908 118.695009,23.4660524 C117.857632,24.3473231 116.836159,24.9533032 115.682368,25.2637508 C117.208398,25.4491244 118.537335,26.0985714 119.564561,27.1703295 L119.662788,27.2772922 C120.732202,28.528884 121.258919,29.9747986 121.263819,31.6169535 C121.268507,33.3076891 120.677442,34.8318015 119.553907,36.0235197 C118.379022,37.3243314 116.670814,38.0579424 114.768284,38.0634823 L103.593448,38.0956563 C102.002005,38.1001309 100.552681,37.6205032 99.361815,36.7032232 C98.141545,37.7965016 96.5816363,38.3758475 94.8314533,38.3811744 C92.6657776,38.3873535 90.7176496,37.4029554 89.3452453,35.6103709 L81.7023107,25.6362027 L81.7195696,31.6013992 C81.7251095,33.5981078 81.0571251,35.3116423 79.7878482,36.5579073 C78.5413702,37.7822257 76.9034767,38.4327381 75.0518709,38.4378518 C73.2017565,38.4433917 71.560667,37.8033199 70.3060921,36.586246 C69.271835,35.581606 68.6302716,34.2695014 68.4208207,32.7470936 C68.3396398,32.8406327 68.2571805,32.9331065 68.174295,33.024941 C64.7431778,36.8121035 60.2746072,38.7399896 54.8917397,38.7556373 C49.8713097,38.7700329 45.6256137,37.0978347 42.2571399,33.7839076 C41.9667212,34.8929535 41.3978158,35.8794823 40.5702396,36.6919303 C39.3363329,37.9028251 37.7359403,38.5454538 35.9418642,38.5507806 C32.2844632,38.5610081 29.6790045,36.2749461 29.1420601,32.5840926 L28.8514283,30.6184926 L28.0155423,33.5687037 C27.0903786,36.7558522 24.6289573,38.5831677 21.2592051,38.5929691 C17.8883875,38.6025574 15.4171649,36.792927 14.479856,33.627725 L13.6211711,30.663238 L13.3409799,32.6380001 C12.8247036,36.3250183 10.2324554,38.6245039 6.57654598,38.6351576 C4.78076529,38.6404844 3.17675046,38.0070179 1.9375169,36.8031545 C0.675910659,35.5801145 0.00558246345,33.9515962 0,32.0961551 C0,31.574765 0.026250561,31.1599115 0.087402561,30.7904427 L4.04481056,6.61430843 C4.32457563,4.96363057 5.17473759,3.51047155 6.57292373,2.28487467 C8.00307085,1.02966062 9.71617915,0.390014962 11.6640941,0.384475059 C13.4641362,0.37914823 15.111618,0.930368523 16.5607286,2.0217293 C17.9197093,3.11032013 18.8256964,4.40388735 19.2950966,5.89859564 L21.183138,12.1689129 L23.023664,5.92650823 C23.4992433,4.37874472 24.4216371,3.06557477 25.7714556,2.00447038 C27.1768863,0.899046767 28.8132882,0.335042084 30.6346377,0.329928328 C32.5746689,0.324175352 34.3082322,0.964034084 35.7873862,2.23245867 C37.1651173,3.44356657 38.000151,4.87328755 38.285456,6.4954136 L38.8030108,9.54598218 C39.5393916,8.16249808 40.4494271,6.87787994 41.5311996,5.69596306 C44.9753144,1.93138628 49.4328051,0.0154323277 54.7803025,-1.1226575e-12 C60.0747446,-0.0152502089 64.5322353,1.90794823 68.028553,5.71641808 C68.1299758,5.82700306 68.2303333,5.93907955 68.3287731,6.05115604 C68.5124422,4.47569301 69.1542186,3.11543389 70.2127661,2.07883291 C71.4667017,0.855366767 73.1056605,0.207624328 74.956201,0.202084425 C77.1201721,0.195905303 79.0683001,1.17923799 80.4407044,2.97033106 L88.0857698,13.066164 L88.0682978,6.98185964 C88.0623317,4.98685555 88.7296769,3.27310804 89.9978884,2.02620384 C91.2479887,0.801033108 92.8858822,0.150520718 94.7359965,0.145406962 C96.4627415,0.140293206 98.007522,0.697479547 99.2260874,1.76114082 C100.361981,0.86367662 101.829842,0.384261986 103.528674,0.379361303 L114.269906,0.348465694 C115.475261,0.34484345 116.592616,0.621412425 117.567639,1.15665223 C118.616811,0.445840133 119.851144,0.0729620838 121.198619,0.0689136936 C123.497465,0.0625214984 125.454116,1.03818355 126.708265,2.81798374 L130.143005,7.77236111 L133.534277,2.8199014 C134.789704,1.01559779 136.743585,0.0241683277 139.043071,0.0175630594 C140.884449,0.0124493033 142.518081,0.69769262 143.767755,1.99978277 C144.975028,3.26160208 145.614674,4.85134101 145.619607,6.59960638 C145.623836,8.0384895 145.214096,9.35869086 144.401222,10.5254795 L136.869085,21.1912833 L136.899129,31.659142 C136.904242,33.4348938 136.31339,35.0031123 135.190069,36.1952567 C134.554685,36.9341945 132.991367,38.2712286 130.230791,38.2791123 C127.607008,38.2865699 126.023874,37.1042269 125.158158,36.111519 C124.113034,35.0205843 123.529639,33.4740993 123.524526,31.6977082 L123.494482,21.2309149" id="Fill-272" fill="#F58320"></path>
                <path d="M59.6029793,25.317083 C58.4717738,26.8607981 56.9203881,27.6142248 54.8595444,27.6204405 C52.7703619,27.62637 51.259247,26.9025604 50.1084388,25.352027 C49.0049329,23.846452 48.4415674,21.8422857 48.4344747,19.3966319 C48.4277176,16.9861351 48.9902308,14.9981624 50.1097173,13.4853429 C51.2860942,11.8877202 52.7803764,11.1411119 54.8122421,11.1351124 C56.8436817,11.1293928 58.3417992,11.8672652 59.5303214,13.4614787 C60.6557738,14.9644968 61.2304322,16.9494865 61.237526,19.3597702 C61.2442819,21.8045718 60.6926355,23.8119341 59.6029793,25.317083 M142.527435,3.19049957 C141.611007,2.23593176 140.40757,1.73307908 139.048163,1.73712747 C137.30075,1.74202815 135.887436,2.44900493 134.95311,3.79157898 L130.151932,10.8025386 L125.302813,3.80862484 C124.367848,2.48203127 122.950485,1.78357742 121.203498,1.7884781 C119.843452,1.79252649 118.642998,2.30198444 117.731897,3.26358366 C117.709098,3.28744786 117.69397,3.31557352 117.671597,3.34007693 C116.78777,2.51377918 115.626947,2.06398171 114.274785,2.06781703 L103.533766,2.09871264 C101.488051,2.10467869 99.9818367,2.95952825 99.1600134,4.47149547 C98.9320252,4.01445352 98.6541777,3.59001176 98.2836435,3.22970503 C97.3574144,2.33245391 96.1322437,1.86070991 94.7406628,1.8647583 C93.3484427,1.86859362 92.1256158,2.34822132 91.2034351,3.25250386 C90.259521,4.18065059 89.7833024,5.43373391 89.7875639,6.97680981 L89.8197379,18.2053398 L79.0761625,4.0161581 C78.0225157,2.64162308 76.5996131,1.91696123 74.9610804,1.92164884 C73.5669426,1.92569723 72.341985,2.40362035 71.415969,3.30705059 C70.4680064,4.23604962 69.989231,5.48977215 69.9937055,7.03370035 L70.0077684,11.921812 C69.2298382,10.0913003 68.1585063,8.40120396 66.7622378,6.87943537 C63.606198,3.44213898 59.5763452,1.70580571 54.7851818,1.71936269 C49.9388326,1.73329215 45.9059967,3.46195479 42.7996029,6.85684962 C40.2339889,9.66025332 38.7460989,13.0822084 38.3301801,17.0400426 L36.5921422,6.79335381 C36.376086,5.56583927 35.7343096,4.47533079 34.6683046,3.53802191 C33.510678,2.54552708 32.1553196,2.04480513 30.6395171,2.04927966 C29.2121399,2.05332805 27.9315701,2.49289801 26.8338172,3.35669664 C25.7648291,4.19663108 25.0397411,5.21895615 24.6728291,6.41280513 L21.2005887,18.1906377 L17.654625,6.41387049 C17.2894175,5.25027791 16.5875545,4.24563791 15.5262371,3.39483674 C14.3835256,2.5342342 13.08591,2.09977801 11.6689734,2.10403947 C10.1491225,2.10830093 8.81592369,2.60390913 7.70645169,3.57786659 C6.61296018,4.53648279 5.95264642,5.64893781 5.74191706,6.89221976 L1.78386984,31.0700586 C1.7389114,31.3430053 1.71967848,31.668155 1.71967848,32.0911052 C1.72357013,33.4722455 2.21363842,34.6756828 3.13560603,35.5697378 C4.04649384,36.4546307 5.23458984,36.9195563 6.57162399,36.9159341 C9.39079511,36.9074112 11.2377134,35.2592902 11.6387171,32.3960129 L13.0454261,22.4906674 L16.1283818,33.1394252 C16.8436685,35.5546096 18.6639526,36.880777 21.2542831,36.8733195 C23.8435483,36.8658619 25.6561617,35.5292539 26.3612209,33.0997936 L29.3802546,22.4437913 L30.8434281,32.3363524 C31.2601992,35.2009082 33.1167057,36.8392278 35.9371553,36.831131 C37.272911,36.8275087 38.4582371,36.3555517 39.3652895,35.465332 C40.2821434,34.5642455 40.7649672,33.3591037 40.7609188,31.9788157 C40.7596404,31.5682237 40.7374808,31.2366818 40.691457,30.9596867 L40.2124685,28.1351887 C40.9177407,29.5029054 41.7956021,30.7785745 42.8686386,31.9434455 C45.9948482,35.3362096 50.0381247,37.0499571 54.8866047,37.0361906 C59.7655541,37.0220445 63.8073391,35.2842198 66.8998831,31.8707876 C68.2554546,30.3739485 69.2954648,28.7000457 70.0505961,26.8769917 L70.0644458,31.6349156 C70.0687073,33.1788438 70.5532357,34.4293702 71.503329,35.351977 C72.429345,36.2500804 73.6543026,36.7224637 75.0467358,36.7186283 C76.4402343,36.71458 77.6628482,36.2349522 78.5833243,35.3306697 C79.5278776,34.4035883 80.0045223,33.150505 80.0000478,31.6063638 L79.9680868,20.5457355 L90.7108099,34.5650978 C91.7640306,35.9415505 93.1871463,36.6664254 94.8265313,36.6615247 C96.2215214,36.6576894 97.4466921,36.178914 98.3692989,35.2769753 C98.7417508,34.9132594 99.0195982,34.4849823 99.2465212,34.0234658 C99.461512,34.3748235 99.7067592,34.7080699 100.015076,35.0010455 C100.966874,35.9042627 102.202485,36.3800551 103.588526,36.3760067 L114.763362,36.3440457 C116.195853,36.3397842 117.427629,35.8124282 118.302507,34.8444367 C119.118151,33.9787204 119.54792,32.8643478 119.544084,31.6219181 C119.540888,30.3995173 119.152669,29.3266939 118.390293,28.4339173 L118.323388,28.360194 C117.421023,27.4190498 116.180724,26.9238678 114.736301,26.9281292 L108.442759,26.9462404 L108.43381,23.8012804 L113.81753,23.7857261 C115.26174,23.7816777 116.514184,23.2649753 117.443609,22.2865433 C118.259253,21.4212531 118.688596,20.3066674 118.684973,19.0640246 C118.681564,17.8299048 118.235389,16.7010432 117.394389,15.7984652 C116.784148,15.1439044 115.663383,14.3646959 113.79047,14.3698096 L108.40675,14.385364 L108.39844,11.5005663 L114.301845,11.4835204 C115.651025,11.4798982 116.819092,11.0066627 117.682251,10.142651 L125.212257,20.6767755 L125.244005,31.6926584 C125.24784,33.0384285 125.672069,34.1632418 126.454047,34.9810166 C127.084957,35.7048262 128.251746,36.5654287 130.225869,36.5596758 C132.197648,36.5539228 133.359536,35.6875673 133.938669,35.0159606 C134.766032,34.137673 135.183442,33.0098767 135.179607,31.6641066 L135.148072,20.6480106 L142.990443,9.54221079 C143.597062,8.67159381 143.903249,7.68314737 143.900287,6.60457098 C143.89643,5.30567693 143.422129,4.12567771 142.527435,3.19049957" id="Fill-274" fill="#7F3F98"></path>
                <path d="M39.0416479,31.9837377 C39.0441883,32.9080491 38.7499342,33.6595581 38.1601477,34.2389041 C37.5697219,34.81825 36.8265227,35.1090949 35.9320415,35.1118649 C33.9679331,35.1174048 32.8390714,34.1099948 32.5452435,32.0889958 L29.9389325,14.4686969 L29.8522117,14.4689099 L24.7071338,32.631267 C24.2202616,34.3075137 23.0683881,35.1487265 21.2491694,35.1540534 C19.4303768,35.1591671 18.2725372,34.3245595 17.777142,32.6510828 L12.5274453,14.5187691 L12.4409375,14.5189821 L9.93604935,32.1539831 C9.65287511,34.1764737 8.52976642,35.1907019 6.5667233,35.1962617 C5.67138984,35.1990118 4.92691218,34.9122153 4.3335034,34.3362785 C3.73966847,33.7603418 3.44179218,33.0105373 3.43898464,32.0862258 C3.43816994,31.7689599 3.45180662,31.5237127 3.4805715,31.349845 L7.43883179,7.17030156 C7.58073852,6.33271092 8.04736877,5.56586058 8.84000096,4.8708159 C9.63199394,4.17598429 10.5761212,3.82654429 11.6740872,3.82334819 C12.7134581,3.82036517 13.6522585,4.13592653 14.4917668,4.76811463 C15.2441282,5.371964 15.7516685,6.09257746 16.0141746,6.92888965 L21.1741676,24.0659386 L21.2608884,24.0657256 L26.3224415,6.89927248 C26.5798339,6.06146878 27.104207,5.33126702 27.8968392,4.70760185 C28.6890453,4.08478897 29.6048337,3.77178448 30.6446308,3.7685672 C31.7413184,3.76539229 32.7095229,4.12378136 33.5494574,4.84332946 C34.3020318,5.50513473 34.7514031,6.25451307 34.8986367,7.09125141 L38.9962468,31.2475698 C39.0250117,31.4212245 39.040566,31.6664717 39.0416479,31.9837377" id="Fill-276" fill="#FFFFFF"></path>
                <path d="M39.0416479,31.9837377 C39.0441883,32.9080491 38.7499342,33.6595581 38.1601477,34.2389041 C37.5697219,34.81825 36.8265227,35.1090949 35.9320415,35.1118649 C33.9679331,35.1174048 32.8390714,34.1099948 32.5452435,32.0889958 L29.9389325,14.4686969 L29.8522117,14.4689099 L24.7071338,32.631267 C24.2202616,34.3075137 23.0683881,35.1487265 21.2491694,35.1540534 C19.4303768,35.1591671 18.2725372,34.3245595 17.777142,32.6510828 L12.5274453,14.5187691 L12.4409375,14.5189821 L9.93604935,32.1539831 C9.65287511,34.1764737 8.52976642,35.1907019 6.5667233,35.1962617 C5.67138984,35.1990118 4.92691218,34.9122153 4.3335034,34.3362785 C3.73966847,33.7603418 3.44179218,33.0105373 3.43898464,32.0862258 C3.43816994,31.7689599 3.45180662,31.5237127 3.4805715,31.349845 L7.43883179,7.17030156 C7.58073852,6.33271092 8.04736877,5.56586058 8.84000096,4.8708159 C9.63199394,4.17598429 10.5761212,3.82654429 11.6740872,3.82334819 C12.7134581,3.82036517 13.6522585,4.13592653 14.4917668,4.76811463 C15.2441282,5.371964 15.7516685,6.09257746 16.0141746,6.92888965 L21.1741676,24.0659386 L21.2608884,24.0657256 L26.3224415,6.89927248 C26.5798339,6.06146878 27.104207,5.33126702 27.8968392,4.70760185 C28.6890453,4.08478897 29.6048337,3.77178448 30.6446308,3.7685672 C31.7413184,3.76539229 32.7095229,4.12378136 33.5494574,4.84332946 C34.3020318,5.50513473 34.7514031,6.25451307 34.8986367,7.09125141 L38.9962468,31.2475698 C39.0250117,31.4212245 39.040566,31.6664717 39.0416479,31.9837377 Z" id="Stroke-278" stroke="#FFFFFF" stroke-width="0.819512195"></path>
                <path d="M62.9568677,19.3547843 C62.9486968,16.5539375 62.2653712,14.2455027 60.9068166,12.4307585 C59.4031593,10.414234 57.3700151,9.40831561 54.8073841,9.41573201 C52.2436877,9.42323073 50.2165095,10.4406551 48.7252104,12.4659156 C47.3768834,14.2883304 46.7067683,16.6006005 46.7147925,19.4016604 C46.7231749,22.2316982 47.3913724,24.5537697 48.7220143,26.3685138 C50.1960545,28.3564865 52.2434746,29.3470637 54.8644877,29.3396479 C57.4848615,29.3321486 59.5271679,28.3296393 60.9901283,26.3331437 C62.3092643,24.5107289 62.9648904,22.1850352 62.9568677,19.3547843 M69.757115,19.3351816 C69.7700213,23.8681002 68.3927164,27.661868 65.625322,30.716698 C62.8583538,33.7706758 59.2765938,35.3039503 54.8817466,35.316602 C50.515025,35.329306 46.9321997,33.8164865 44.1332705,30.7784893 C41.3337021,27.7398528 39.9280584,23.9539687 39.9147572,19.4212631 C39.9018504,14.8587273 41.2855476,11.0575019 44.067857,8.01780009 C46.8493142,4.97788517 50.4236166,3.45142897 54.7901251,3.43878365 C59.0980385,3.42649941 62.6674403,4.96190468 65.4955605,8.04251658 C68.3236806,11.1248331 69.7440264,14.8887706 69.757115,19.3351816" id="Fill-280" fill="#FFFFFF"></path>
                <path d="M62.9568677,19.3547843 C62.9486968,16.5539375 62.2653712,14.2455027 60.9068166,12.4307585 C59.4031593,10.414234 57.3700151,9.40831561 54.8073841,9.41573201 C52.2436877,9.42323073 50.2165095,10.4406551 48.7252104,12.4659156 C47.3768834,14.2883304 46.7067683,16.6006005 46.7147925,19.4016604 C46.7231749,22.2316982 47.3913724,24.5537697 48.7220143,26.3685138 C50.1960545,28.3564865 52.2434746,29.3470637 54.8644877,29.3396479 C57.4848615,29.3321486 59.5271679,28.3296393 60.9901283,26.3331437 C62.3092643,24.5107289 62.9648904,22.1850352 62.9568677,19.3547843 Z M69.757115,19.3351816 C69.7700213,23.8681002 68.3927164,27.661868 65.625322,30.716698 C62.8583538,33.7706758 59.2765938,35.3039503 54.8817466,35.316602 C50.515025,35.329306 46.9321997,33.8164865 44.1332705,30.7784893 C41.3337021,27.7398528 39.9280584,23.9539687 39.9147572,19.4212631 C39.9018504,14.8587273 41.2855476,11.0575019 44.067857,8.01780009 C46.8493142,4.97788517 50.4236166,3.45142897 54.7901251,3.43878365 C59.0980385,3.42649941 62.6674403,4.96190468 65.4955605,8.04251658 C68.3236806,11.1248331 69.7440264,14.8887706 69.757115,19.3351816 Z" id="Stroke-282" stroke="#FFFFFF" stroke-width="0.819512195" stroke-linecap="round" stroke-linejoin="round"></path>
                <path d="M98.0745799,31.5542461 C98.0777509,32.6223819 97.775187,33.4533672 97.1677154,34.0469891 C96.5604568,34.6406109 95.7784783,34.9395526 94.8215667,34.9421095 C93.7193392,34.9453056 92.8039768,34.4710047 92.076332,33.5202722 L78.2340334,15.4552896 L78.2806965,31.6113497 C78.2834664,32.6792724 77.9828202,33.5104708 77.3783316,34.1040927 C76.773843,34.6977146 75.9948475,34.9962301 75.0417712,34.9992325 C74.089121,35.001983 73.3090602,34.707729 72.7007363,34.1175163 C72.0924124,33.5275167 71.7868654,32.6980228 71.7838824,31.629887 L71.7131203,7.02867182 C71.7101591,5.96096216 72.0125099,5.12955065 72.6193423,4.5350765 C73.2272401,3.94230694 74.0094317,3.64379143 74.9661302,3.64102148 C76.0681446,3.63782538 76.9828678,4.11127397 77.7113649,5.06200645 L91.5540896,23.3434714 L91.5072135,6.97199436 C91.5040174,5.90385855 91.8046637,5.07287319 92.4091523,4.47839904 C93.0136408,3.88562948 93.7928494,3.58690089 94.7457126,3.58390135 C95.6987889,3.58136099 96.4786367,3.87561504 97.0869606,4.46476236 C97.6952846,5.05582733 98.0006184,5.88510811 98.0038145,6.95324392 L98.0745799,31.5542461 Z" id="Fill-284" fill="#FFFFFF"></path>
                <path d="M98.0745799,31.5542461 C98.0777509,32.6223819 97.775187,33.4533672 97.1677154,34.0469891 C96.5604568,34.6406109 95.7784783,34.9395526 94.8215667,34.9421095 C93.7193392,34.9453056 92.8039768,34.4710047 92.076332,33.5202722 L78.2340334,15.4552896 L78.2806965,31.6113497 C78.2834664,32.6792724 77.9828202,33.5104708 77.3783316,34.1040927 C76.773843,34.6977146 75.9948475,34.9962301 75.0417712,34.9992325 C74.089121,35.001983 73.3090602,34.707729 72.7007363,34.1175163 C72.0924124,33.5275167 71.7868654,32.6980228 71.7838824,31.629887 L71.7131203,7.02867182 C71.7101591,5.96096216 72.0125099,5.12955065 72.6193423,4.5350765 C73.2272401,3.94230694 74.0094317,3.64379143 74.9661302,3.64102148 C76.0681446,3.63782538 76.9828678,4.11127397 77.7113649,5.06200645 L91.5540896,23.3434714 L91.5072135,6.97199436 C91.5040174,5.90385855 91.8046637,5.07287319 92.4091523,4.47839904 C93.0136408,3.88562948 93.7928494,3.58690089 94.7457126,3.58390135 C95.6987889,3.58136099 96.4786367,3.87561504 97.0869606,4.46476236 C97.6952846,5.05582733 98.0006184,5.88510811 98.0038145,6.95324392 L98.0745799,31.5542461 Z" id="Stroke-286" stroke="#FFFFFF" stroke-width="0.819512195"></path>
                <path d="M117.824834,31.6266696 C117.827162,32.4361346 117.569344,33.1151988 117.05115,33.6649276 C116.474787,34.3022294 115.711346,34.6218392 114.758269,34.6243961 L103.583647,34.6567994 C102.630571,34.6593401 101.835595,34.3584808 101.199145,33.7542052 C100.56163,33.1492905 100.24202,32.3709342 100.239463,31.418071 L100.170819,7.59606437 C100.163609,5.08393168 101.286079,3.82488232 103.538475,3.81806398 L113.937938,3.78735948 C114.918926,3.78439842 115.69984,4.08525773 116.279186,4.69059861 C116.771598,5.26696154 117.019189,5.95881012 117.021319,6.76720973 C117.023663,7.57582242 116.766271,8.2557389 116.247864,8.80568076 C115.671714,9.44191724 114.90806,9.761527 113.955197,9.76429695 L106.67406,9.78603042 L106.692171,16.109829 L113.795392,16.089374 C114.805785,16.086391 115.586272,16.380432 116.13664,16.9708577 C116.686581,17.5610704 116.96315,18.2608027 116.965494,19.0689892 C116.967838,19.8776019 116.710446,20.5577315 116.192252,21.1074603 C115.587337,21.7436968 114.793639,22.0635196 113.812651,22.0662895 L106.70943,22.0867446 L106.728394,28.6707055 L114.741223,28.6476936 C115.722425,28.6447106 116.502699,28.9455699 117.082685,29.5500585 C117.574884,30.1272737 117.822475,30.8191223 117.824834,31.6266696" id="Fill-288" fill="#FFFFFF"></path>
                <path d="M117.824834,31.6266696 C117.827162,32.4361346 117.569344,33.1151988 117.05115,33.6649276 C116.474787,34.3022294 115.711346,34.6218392 114.758269,34.6243961 L103.583647,34.6567994 C102.630571,34.6593401 101.835595,34.3584808 101.199145,33.7542052 C100.56163,33.1492905 100.24202,32.3709342 100.239463,31.418071 L100.170819,7.59606437 C100.163609,5.08393168 101.286079,3.82488232 103.538475,3.81806398 L113.937938,3.78735948 C114.918926,3.78439842 115.69984,4.08525773 116.279186,4.69059861 C116.771598,5.26696154 117.019189,5.95881012 117.021319,6.76720973 C117.023663,7.57582242 116.766271,8.2557389 116.247864,8.80568076 C115.671714,9.44191724 114.90806,9.761527 113.955197,9.76429695 L106.67406,9.78603042 L106.692171,16.109829 L113.795392,16.089374 C114.805785,16.086391 115.586272,16.380432 116.13664,16.9708577 C116.686581,17.5610704 116.96315,18.2608027 116.965494,19.0689892 C116.967838,19.8776019 116.710446,20.5577315 116.192252,21.1074603 C115.587337,21.7436968 114.793639,22.0635196 113.812651,22.0662895 L106.70943,22.0867446 L106.728394,28.6707055 L114.741223,28.6476936 C115.722425,28.6447106 116.502699,28.9455699 117.082685,29.5500585 C117.574884,30.1272737 117.822475,30.8191223 117.824834,31.6266696 Z" id="Stroke-290" stroke="#FFFFFF" stroke-width="0.819512195"></path>
                <path d="M142.180718,6.60930121 C142.182832,7.33140618 141.98233,7.9817055 141.579835,8.55977301 L133.427016,20.1047166 L133.460042,31.6690499 C133.462812,32.5641703 133.20542,33.2867014 132.687226,33.8364302 C132.11065,34.5031361 131.288827,34.8370218 130.220904,34.8402409 C129.152342,34.843414 128.328388,34.5140029 127.749468,33.8509192 C127.228291,33.3039603 126.965998,32.5827076 126.963441,31.6878003 L126.930202,20.1234671 L118.711331,8.62561262 C118.305639,8.05010199 118.101515,7.40086804 118.099371,6.67876306 C118.097041,5.81240755 118.391295,5.06856911 118.980868,4.44554316 C119.570655,3.8233695 120.313428,3.51057808 121.208548,3.50780813 C122.392383,3.50461204 123.288568,3.93501984 123.897532,4.79903155 L130.160604,13.833334 L136.371687,4.76302218 C136.975324,3.89581438 137.869166,3.46007974 139.053,3.45644174 C139.947907,3.45390062 140.692811,3.76243057 141.286433,4.38119506 C141.879629,5.00081184 142.178144,5.74294569 142.180718,6.60930121" id="Fill-292" fill="#FFFFFF"></path>
                <path d="M142.180718,6.60930121 C142.182832,7.33140618 141.98233,7.9817055 141.579835,8.55977301 L133.427016,20.1047166 L133.460042,31.6690499 C133.462812,32.5641703 133.20542,33.2867014 132.687226,33.8364302 C132.11065,34.5031361 131.288827,34.8370218 130.220904,34.8402409 C129.152342,34.843414 128.328388,34.5140029 127.749468,33.8509192 C127.228291,33.3039603 126.965998,32.5827076 126.963441,31.6878003 L126.930202,20.1234671 L118.711331,8.62561262 C118.305639,8.05010199 118.101515,7.40086804 118.099371,6.67876306 C118.097041,5.81240755 118.391295,5.06856911 118.980868,4.44554316 C119.570655,3.8233695 120.313428,3.51057808 121.208548,3.50780813 C122.392383,3.50461204 123.288568,3.93501984 123.897532,4.79903155 L130.160604,13.833334 L136.371687,4.76302218 C136.975324,3.89581438 137.869166,3.46007974 139.053,3.45644174 C139.947907,3.45390062 140.692811,3.76243057 141.286433,4.38119506 C141.879629,5.00081184 142.178144,5.74294569 142.180718,6.60930121 Z" id="Stroke-294" stroke="#FFFFFF" stroke-width="0.819512195"></path>
                <path d="M208.729866,18.7902469 L153.373669,18.7589708 C153.300372,18.7589708 153.232828,18.7778887 153.16017,18.7806586 L150.891154,18.770218 C146.47159,18.6151008 145.416025,20.0492963 143.866984,24.0167187 L136.344648,48.9799453 C134.410796,53.530762 137.770747,55.6465786 140.111782,55.6152569 L195.467766,55.6465786 C195.541063,55.6465786 195.60882,55.6276151 195.681265,55.6250582 L197.950281,55.6352858 C202.369845,55.790403 203.425409,54.3562075 204.974451,50.3887851 L212.496786,25.4253455 C214.430639,20.8747418 211.070688,18.7589708 208.729866,18.7902469" id="Fill-296" fill="#FFFFFF"></path>
                <path d="M157.756883,29.4280954 C156.797414,29.4280954 156.032695,29.7460006 155.462937,30.3807456 C154.892753,31.0163428 154.607661,31.8260209 154.607661,32.8108451 L154.607661,37.7483897 C154.607661,38.7076451 154.892753,39.5049649 155.462937,40.1397099 C156.032695,40.7750941 156.797414,41.09236 157.756883,41.09236 C158.690143,41.09236 159.415018,40.7878785 159.934064,40.1787023 C160.452258,39.5697391 160.711781,38.7856299 160.711781,37.8261614 L160.711781,32.7332865 C160.711781,31.7484623 160.452258,30.9509294 159.934064,30.3417532 C159.415018,29.7334293 158.690143,29.4280954 157.756883,29.4280954 L157.756883,29.4280954 Z M153.946708,25.7346851 L154.257582,27.5620006 C155.39795,26.0845512 156.953171,25.3460396 158.923245,25.3460396 C160.996447,25.3460396 162.590661,26.0199901 163.705459,27.3674648 C164.819406,28.7153657 165.377231,30.5041149 165.377231,32.7332865 L165.377231,37.787169 C165.377231,40.0169797 164.819406,41.8053028 163.705459,43.1527776 C162.590661,44.5006785 160.996447,45.1744158 158.923245,45.1744158 C157.108501,45.1744158 155.670044,44.5660919 154.607661,43.3473134 L154.607661,52.05604 L149.903006,52.05604 L149.903006,25.7346851 L153.946708,25.7346851 Z" id="Fill-298" fill="#3B2ED0"></path>
                <path d="M175.874558,41.0924026 C176.833387,41.0924026 177.598107,40.7751367 178.168504,40.1397525 C178.738475,39.5050075 179.023993,38.7076877 179.023993,37.7484323 L179.023993,32.8108877 C179.023993,31.8260635 178.738475,31.0163855 178.168504,30.3807882 C177.598107,29.7460432 176.833387,29.428138 175.874558,29.428138 C174.941298,29.428138 174.215571,29.7332588 173.697163,30.3417958 C173.178756,30.950972 172.919873,31.7482918 172.919873,32.7333291 L172.919873,37.826204 C172.919873,38.7856725 173.178756,39.5697818 173.697163,40.1787449 C174.215571,40.7879211 174.941298,41.0924026 175.874558,41.0924026 M168.215643,37.7872116 L168.215643,32.7333291 C168.215643,30.5041576 168.779009,28.7154083 169.906592,27.3675074 C171.033962,26.0200327 172.634355,25.3460822 174.708409,25.3460822 C176.704052,25.3460822 178.246489,26.0718095 179.334867,27.5232639 L179.684946,25.7347277 L183.689443,25.7347277 L183.689443,44.785813 L179.684946,44.785813 L179.334867,42.9970637 C178.271844,44.4491574 176.730047,45.1744584 174.708409,45.1744584 C172.634355,45.1744584 171.033962,44.5007211 169.906592,43.1528202 C168.779009,41.8053455 168.215643,40.0170223 168.215643,37.7872116" id="Fill-300" fill="#3B2ED0"></path>
                <polygon id="Fill-302" fill="#3B2ED0" points="194.302895 52.0561039 189.782973 52.0158331 192.037714 45.2658881 185.944247 25.734749 190.959776 25.734749 194.316744 38.4415806 197.997157 25.734749 202.779371 25.734749"></polygon>
            </g>
        </g>
    </g>
</svg>