<svg id="svg" version="1.1" xmlns="http://www.w3.org/2000/svg" xmlns:xlink="http://www.w3.org/1999/xlink" width="400" height="353.66666666666663" viewBox="0, 0, 400,353.66666666666663"><g id="svgg"><path id="path0" d="M1.035 11.063 C 1.018 17.170,0.925 45.342,0.827 73.667 C 0.484 173.279,0.305 229.096,0.131 290.574 L -0.044 352.647 18.728 352.622 C 29.053 352.608,60.256 352.692,88.069 352.808 L 138.638 353.021 138.682 344.927 C 138.707 340.475,138.786 320.633,138.858 300.833 C 138.930 281.033,139.054 252.462,139.135 237.342 C 139.215 222.222,139.189 209.703,139.077 209.521 C 138.965 209.340,138.823 208.661,138.762 208.012 C 138.701 207.364,138.557 206.608,138.441 206.333 C 138.326 206.058,138.214 205.683,138.193 205.500 C 137.988 203.695,137.168 199.667,137.005 199.667 C 136.891 199.667,136.760 199.040,136.715 198.274 C 136.670 197.508,136.537 196.726,136.419 196.536 C 136.302 196.346,136.156 195.661,136.095 195.012 C 136.034 194.364,135.890 193.608,135.774 193.333 C 135.659 193.058,135.547 192.683,135.527 192.500 C 135.322 190.695,134.501 186.667,134.338 186.667 C 134.224 186.667,134.093 186.040,134.048 185.274 C 134.003 184.508,133.870 183.726,133.753 183.536 C 133.635 183.346,133.490 182.661,133.429 182.012 C 133.368 181.364,133.223 180.608,133.108 180.333 C 132.992 180.058,132.881 179.683,132.860 179.500 C 132.655 177.695,131.834 173.667,131.672 173.667 C 131.557 173.667,131.427 173.040,131.381 172.274 C 131.336 171.508,131.202 170.724,131.083 170.532 C 130.964 170.339,130.812 169.579,130.745 168.841 C 130.678 168.103,130.483 167.357,130.311 167.183 C 130.140 167.009,130.000 166.643,130.000 166.370 C 130.000 166.096,130.536 166.764,131.192 167.853 C 131.848 168.942,132.598 169.953,132.859 170.100 C 133.120 170.247,133.333 170.519,133.333 170.705 C 133.333 171.106,134.950 173.324,135.667 173.906 C 135.942 174.129,136.039 174.317,135.882 174.323 C 135.726 174.329,136.026 174.837,136.549 175.452 C 138.035 177.201,138.491 177.843,138.610 178.354 C 138.671 178.614,138.824 178.903,138.951 178.997 C 139.078 179.090,139.467 179.617,139.814 180.167 C 140.162 180.717,140.724 181.364,141.062 181.606 C 141.401 181.848,141.591 182.185,141.486 182.356 C 141.380 182.527,141.453 182.667,141.647 182.667 C 141.841 182.667,142.000 182.829,142.000 183.027 C 142.000 183.404,144.314 186.417,144.752 186.612 C 144.891 186.673,144.925 186.852,144.828 187.009 C 144.731 187.165,144.993 187.611,145.409 187.999 C 145.826 188.387,146.167 188.820,146.167 188.960 C 146.167 189.355,147.802 191.662,148.083 191.664 C 148.221 191.666,148.333 191.868,148.333 192.115 C 148.333 192.362,148.649 192.849,149.035 193.198 C 149.422 193.548,150.025 194.396,150.376 195.083 C 150.726 195.771,151.169 196.333,151.360 196.333 C 151.550 196.333,151.613 196.484,151.499 196.669 C 151.384 196.854,151.526 197.095,151.812 197.205 C 152.099 197.315,152.333 197.618,152.333 197.879 C 152.333 198.141,152.557 198.440,152.831 198.545 C 153.105 198.651,153.253 198.860,153.159 199.012 C 153.066 199.163,153.134 199.377,153.310 199.486 C 153.617 199.675,154.168 200.442,156.677 204.167 C 157.294 205.083,157.883 205.908,157.986 206.000 C 158.089 206.092,158.606 206.834,159.135 207.649 C 160.159 209.227,160.492 209.672,161.417 210.691 C 161.737 211.044,162.000 211.463,162.000 211.621 C 162.000 211.780,162.395 212.305,162.879 212.788 C 163.362 213.271,163.647 213.667,163.511 213.667 C 163.375 213.667,163.692 214.170,164.215 214.786 C 165.702 216.534,166.158 217.177,166.277 217.687 C 166.337 217.947,166.491 218.237,166.618 218.330 C 166.745 218.424,167.133 218.950,167.481 219.500 C 167.829 220.050,168.390 220.698,168.729 220.939 C 169.067 221.181,169.258 221.519,169.153 221.689 C 169.047 221.860,169.120 222.000,169.314 222.000 C 169.508 222.000,169.667 222.225,169.667 222.500 C 169.667 222.775,169.795 223.000,169.952 223.000 C 170.108 223.000,170.663 223.675,171.185 224.500 C 171.706 225.325,172.262 226.000,172.419 226.000 C 172.577 226.000,172.625 226.131,172.527 226.290 C 172.428 226.450,172.644 226.923,173.007 227.341 C 173.370 227.760,173.667 228.192,173.667 228.301 C 173.667 228.472,174.246 229.227,175.660 230.903 C 175.847 231.124,176.000 231.399,176.000 231.513 C 176.000 231.628,176.502 232.346,177.115 233.111 C 177.728 233.875,178.324 234.762,178.438 235.083 C 178.552 235.404,178.809 235.667,179.009 235.667 C 179.209 235.667,179.279 235.818,179.165 236.002 C 179.051 236.187,179.192 236.428,179.479 236.538 C 179.765 236.648,180.001 236.909,180.003 237.119 C 180.005 237.329,180.493 238.127,181.087 238.893 C 181.681 239.659,182.692 241.039,183.333 241.960 C 183.975 242.882,184.621 243.642,184.770 243.651 C 184.918 243.660,184.958 243.798,184.860 243.957 C 184.761 244.117,185.115 244.704,185.648 245.261 C 186.180 245.818,186.560 246.329,186.491 246.398 C 186.423 246.466,186.847 247.147,187.434 247.910 C 188.020 248.674,189.025 250.072,189.667 251.017 C 190.308 251.961,191.225 253.206,191.704 253.784 C 192.183 254.361,192.817 255.307,193.113 255.885 C 193.409 256.464,193.842 257.139,194.076 257.385 C 194.309 257.632,195.025 258.621,195.667 259.583 C 196.308 260.545,196.946 261.332,197.083 261.333 C 197.221 261.333,197.333 261.558,197.333 261.833 C 197.333 262.108,197.462 262.333,197.618 262.333 C 197.775 262.333,198.330 263.008,198.851 263.833 C 199.373 264.658,199.929 265.333,200.086 265.333 C 200.244 265.333,200.280 265.483,200.167 265.667 C 200.053 265.850,200.128 266.000,200.333 266.000 C 200.538 266.000,200.613 266.150,200.500 266.333 C 200.387 266.517,200.443 266.667,200.625 266.667 C 200.806 266.667,201.045 266.949,201.154 267.295 C 201.264 267.640,201.787 268.376,202.318 268.931 C 202.848 269.486,203.194 270.029,203.085 270.137 C 202.977 270.245,203.064 270.333,203.278 270.333 C 203.492 270.333,203.667 270.496,203.667 270.694 C 203.667 270.892,204.192 271.695,204.833 272.478 C 205.475 273.261,206.000 274.052,206.000 274.236 C 206.000 274.419,206.375 274.974,206.833 275.468 C 207.292 275.963,207.667 276.488,207.667 276.635 C 207.667 276.782,208.042 277.307,208.500 277.802 C 208.958 278.296,209.333 278.792,209.333 278.903 C 209.333 279.014,209.909 279.869,210.613 280.803 C 211.318 281.736,212.221 283.048,212.620 283.717 C 213.020 284.386,213.578 285.023,213.861 285.131 C 214.144 285.240,214.301 285.450,214.209 285.598 C 214.118 285.745,214.521 286.489,215.105 287.250 C 215.689 288.010,216.692 289.407,217.333 290.354 C 217.975 291.300,218.729 292.325,219.009 292.630 C 219.289 292.935,220.020 294.006,220.634 295.009 C 221.249 296.012,221.957 296.953,222.209 297.100 C 222.461 297.247,222.667 297.519,222.667 297.705 C 222.667 298.081,224.355 300.435,224.750 300.611 C 224.887 300.672,225.000 300.877,225.000 301.067 C 225.000 301.257,225.412 301.898,225.917 302.492 C 227.693 304.584,227.943 304.946,227.750 305.138 C 227.643 305.246,227.739 305.333,227.964 305.333 C 228.189 305.333,228.280 305.483,228.167 305.667 C 228.053 305.850,228.109 306.000,228.291 306.000 C 228.473 306.000,228.711 306.283,228.821 306.628 C 228.931 306.973,229.454 307.710,229.984 308.265 C 230.515 308.820,230.860 309.362,230.752 309.470 C 230.644 309.578,230.731 309.667,230.944 309.667 C 231.158 309.667,231.333 309.829,231.333 310.027 C 231.333 310.226,231.858 311.028,232.500 311.812 C 233.142 312.595,233.667 313.395,233.667 313.589 C 233.667 313.784,234.108 314.360,234.647 314.869 C 235.186 315.378,235.564 315.896,235.487 316.022 C 235.409 316.147,235.718 316.651,236.173 317.142 C 236.628 317.633,237.000 318.150,237.000 318.291 C 237.000 318.431,237.496 319.136,238.102 319.857 C 238.707 320.577,239.614 321.879,240.116 322.750 C 240.617 323.621,241.172 324.333,241.347 324.333 C 241.523 324.333,241.667 324.551,241.667 324.817 C 241.667 325.083,241.929 325.453,242.250 325.640 C 242.571 325.827,242.707 325.984,242.554 325.990 C 242.400 325.995,242.625 326.438,243.054 326.973 C 243.482 327.508,244.358 328.725,245.000 329.677 C 245.642 330.629,246.392 331.656,246.667 331.959 C 246.942 332.261,247.686 333.370,248.320 334.421 C 248.955 335.473,249.596 336.333,249.745 336.333 C 249.894 336.333,250.159 336.708,250.333 337.167 C 250.508 337.625,250.804 338.000,250.992 338.000 C 251.180 338.000,251.333 338.205,251.333 338.455 C 251.333 338.705,251.729 339.305,252.212 339.788 C 252.695 340.271,252.980 340.667,252.844 340.667 C 252.709 340.667,253.026 341.170,253.549 341.786 C 255.035 343.534,255.491 344.177,255.610 344.687 C 255.671 344.947,255.824 345.237,255.951 345.330 C 256.078 345.424,256.467 345.950,256.814 346.500 C 257.162 347.050,257.724 347.698,258.062 347.939 C 258.401 348.181,258.591 348.519,258.486 348.689 C 258.380 348.860,258.453 349.000,258.647 349.000 C 258.841 349.000,259.000 349.162,259.000 349.361 C 259.000 349.559,259.528 350.365,260.173 351.153 L 261.346 352.584 272.256 352.609 C 278.257 352.623,291.642 352.712,302.000 352.807 C 354.759 353.291,375.637 353.455,387.167 353.477 L 399.833 353.500 399.893 178.000 C 399.925 81.475,399.870 2.157,399.770 1.738 C 399.590 0.983,399.550 0.977,394.711 1.066 C 388.930 1.172,302.638 0.753,277.955 0.499 C 264.232 0.357,260.711 0.407,260.589 0.744 C 260.505 0.977,260.487 1.917,260.549 2.833 C 260.611 3.750,260.729 8.625,260.811 13.667 C 260.893 18.708,261.036 26.696,261.129 31.417 C 261.222 36.138,261.372 43.825,261.464 48.500 C 261.556 53.175,261.706 60.825,261.797 65.500 C 261.889 70.175,262.043 77.863,262.139 82.584 C 262.318 91.377,262.504 100.967,262.803 116.833 C 263.358 146.334,263.424 148.340,263.864 149.046 C 264.020 149.296,264.180 149.950,264.220 150.500 C 264.319 151.856,264.491 152.602,264.768 152.879 C 264.896 153.007,265.004 153.799,265.008 154.639 C 265.012 155.479,265.176 156.767,265.371 157.500 C 265.567 158.233,265.856 159.733,266.014 160.833 C 266.172 161.933,266.379 163.208,266.472 163.667 C 266.566 164.125,266.933 166.327,267.287 168.559 C 267.641 170.792,268.006 172.742,268.098 172.892 C 268.190 173.043,268.371 174.142,268.500 175.333 C 268.629 176.525,268.826 177.650,268.938 177.833 C 269.050 178.016,269.253 178.991,269.390 180.000 C 269.722 182.459,269.829 182.940,270.101 183.213 C 270.229 183.340,270.337 184.132,270.341 184.972 C 270.346 185.812,270.510 187.100,270.707 187.833 C 270.904 188.567,271.193 190.067,271.351 191.167 C 271.858 194.714,271.928 195.150,272.155 196.167 C 272.368 197.119,272.354 197.135,271.867 196.500 C 271.586 196.133,271.201 195.652,271.011 195.431 C 270.822 195.209,270.667 194.900,270.667 194.744 C 270.667 194.587,270.329 194.096,269.917 193.653 C 269.504 193.209,269.204 192.731,269.250 192.590 C 269.296 192.449,269.183 192.333,269.000 192.333 C 268.817 192.333,268.667 192.176,268.667 191.984 C 268.667 191.495,265.958 187.596,265.250 187.066 C 264.929 186.825,264.667 186.484,264.667 186.307 C 264.667 185.916,262.933 183.211,262.583 183.056 C 262.446 182.994,262.333 182.732,262.333 182.472 C 262.333 182.213,262.183 182.000,262.000 182.000 C 261.817 182.000,261.667 181.775,261.667 181.500 C 261.667 181.225,261.553 181.000,261.415 181.000 C 261.276 181.000,260.979 180.588,260.755 180.083 C 260.530 179.579,260.006 178.788,259.590 178.325 C 259.174 177.862,258.550 176.929,258.203 176.251 C 257.856 175.574,257.458 175.090,257.318 175.176 C 257.179 175.262,256.917 174.920,256.735 174.416 C 256.554 173.912,256.098 173.178,255.723 172.785 C 255.347 172.392,255.131 171.980,255.242 171.869 C 255.353 171.758,255.269 171.667,255.056 171.667 C 254.842 171.667,254.667 171.442,254.667 171.167 C 254.667 170.892,254.517 170.667,254.333 170.667 C 254.150 170.667,254.000 170.518,254.000 170.336 C 254.000 170.154,253.663 169.617,253.250 169.142 C 252.838 168.668,252.500 168.173,252.500 168.043 C 252.500 167.913,252.030 167.212,251.455 166.487 C 250.880 165.761,250.406 165.044,250.401 164.894 C 250.392 164.602,249.626 163.481,248.417 161.993 C 248.004 161.486,247.667 160.905,247.667 160.702 C 247.667 160.499,247.517 160.333,247.333 160.333 C 247.150 160.333,247.000 160.108,247.000 159.833 C 247.000 159.558,246.850 159.333,246.667 159.333 C 246.483 159.333,246.333 159.132,246.333 158.885 C 246.333 158.638,246.033 158.165,245.667 157.833 C 245.300 157.502,245.000 157.105,245.000 156.951 C 245.000 156.700,243.296 154.261,242.246 153.008 C 242.019 152.738,241.884 152.465,241.945 152.401 C 242.007 152.338,241.655 151.809,241.164 151.226 C 240.672 150.643,239.827 149.391,239.285 148.444 C 238.743 147.496,238.083 146.540,237.817 146.320 C 237.551 146.099,237.333 145.707,237.333 145.449 C 237.333 145.190,237.108 144.893,236.833 144.787 C 236.558 144.682,236.333 144.386,236.333 144.131 C 236.333 143.876,236.211 143.667,236.062 143.667 C 235.912 143.667,235.553 143.170,235.263 142.562 C 234.974 141.954,233.971 140.433,233.035 139.181 C 232.099 137.929,231.333 136.798,231.333 136.668 C 231.333 136.537,230.958 136.026,230.500 135.532 C 230.042 135.037,229.667 134.480,229.667 134.294 C 229.667 133.919,227.978 131.564,227.583 131.389 C 227.446 131.328,227.333 131.079,227.333 130.837 C 227.333 130.595,226.846 129.790,226.250 129.049 C 224.753 127.188,223.838 125.878,223.835 125.594 C 223.834 125.463,223.546 125.019,223.195 124.609 C 222.844 124.199,222.388 123.557,222.182 123.182 C 221.454 121.857,218.523 117.491,217.936 116.858 C 217.609 116.505,217.254 115.942,217.148 115.608 C 217.042 115.274,216.815 115.000,216.644 115.000 C 216.473 115.000,216.333 114.813,216.333 114.583 C 216.332 114.354,215.882 113.642,215.333 113.000 C 214.784 112.358,214.335 111.714,214.334 111.567 C 214.333 111.139,211.556 107.211,210.917 106.732 C 210.596 106.492,210.333 106.131,210.333 105.929 C 210.333 105.728,209.958 105.071,209.500 104.470 C 209.042 103.869,208.667 103.218,208.667 103.022 C 208.667 102.827,208.517 102.667,208.333 102.667 C 208.150 102.667,208.000 102.458,208.000 102.202 C 208.000 101.947,207.765 101.648,207.479 101.538 C 207.192 101.428,207.051 101.187,207.165 101.002 C 207.279 100.818,207.250 100.667,207.101 100.667 C 206.952 100.667,206.646 100.254,206.421 99.750 C 206.197 99.246,205.673 98.455,205.257 97.991 C 204.841 97.528,204.216 96.595,203.869 95.918 C 203.522 95.240,203.126 94.755,202.988 94.841 C 202.850 94.926,202.651 94.659,202.546 94.248 C 202.440 93.836,201.983 93.104,201.530 92.619 C 201.077 92.135,200.797 91.647,200.909 91.536 C 201.020 91.424,200.936 91.333,200.722 91.333 C 200.508 91.333,200.333 91.146,200.333 90.917 C 200.332 90.688,199.882 89.975,199.333 89.333 C 198.784 88.692,198.335 87.998,198.334 87.791 C 198.334 87.584,198.107 87.227,197.831 86.998 C 197.554 86.768,196.933 85.854,196.450 84.967 C 195.967 84.079,195.454 83.426,195.310 83.515 C 195.166 83.604,194.941 83.340,194.810 82.928 C 194.550 82.107,193.314 80.232,192.917 80.056 C 192.779 79.994,192.667 79.732,192.667 79.472 C 192.667 79.212,192.517 79.000,192.333 79.000 C 192.150 79.000,192.000 78.801,192.000 78.558 C 192.000 78.315,191.626 77.764,191.168 77.335 C 190.710 76.905,190.405 76.484,190.489 76.400 C 190.572 76.316,190.122 75.614,189.487 74.840 C 188.853 74.065,188.333 73.259,188.333 73.049 C 188.333 72.839,188.158 72.667,187.944 72.667 C 187.731 72.667,187.648 72.574,187.762 72.460 C 187.875 72.347,187.788 72.063,187.567 71.831 C 186.921 71.148,185.895 69.704,184.999 68.218 C 183.127 65.111,182.587 64.333,182.300 64.333 C 182.135 64.333,182.000 64.108,182.000 63.833 C 182.000 63.558,181.868 63.333,181.707 63.333 C 181.546 63.333,181.230 62.889,181.005 62.347 C 180.781 61.804,179.922 60.491,179.098 59.430 C 178.273 58.368,177.368 57.050,177.087 56.500 C 176.806 55.950,176.372 55.380,176.122 55.233 C 175.871 55.087,175.667 54.810,175.667 54.618 C 175.667 54.227,171.210 47.582,169.849 45.945 C 169.596 45.639,169.445 45.333,169.513 45.264 C 169.582 45.195,169.195 44.620,168.654 43.986 C 168.112 43.352,167.668 42.711,167.667 42.561 C 167.667 42.299,166.054 40.008,165.630 39.667 C 165.516 39.575,165.326 39.189,165.208 38.809 C 165.089 38.429,164.732 37.828,164.413 37.475 C 163.424 36.379,162.000 34.391,161.999 34.106 C 161.999 33.956,161.549 33.308,161.000 32.667 C 160.451 32.025,160.001 31.397,160.001 31.271 C 160.000 31.146,159.175 29.810,158.167 28.304 C 157.158 26.797,156.333 25.698,156.333 25.861 C 156.333 26.024,156.015 25.559,155.627 24.828 C 155.238 24.098,154.788 23.450,154.627 23.389 C 154.465 23.328,154.333 23.065,154.333 22.806 C 154.333 22.546,154.183 22.333,154.000 22.333 C 153.817 22.333,153.667 22.124,153.667 21.869 C 153.667 21.614,153.432 21.315,153.146 21.205 C 152.859 21.095,152.718 20.854,152.832 20.669 C 152.946 20.484,152.880 20.333,152.686 20.333 C 152.492 20.333,152.333 20.185,152.333 20.003 C 152.333 19.572,149.350 15.201,148.955 15.053 C 148.787 14.990,148.446 14.465,148.198 13.886 C 147.949 13.307,147.436 12.512,147.059 12.119 C 146.682 11.726,146.464 11.313,146.576 11.202 C 146.687 11.091,146.603 11.000,146.389 11.000 C 146.175 11.000,146.000 10.775,146.000 10.500 C 146.000 10.225,145.850 10.000,145.667 10.000 C 145.483 10.000,145.333 9.775,145.333 9.500 C 145.333 9.225,145.220 9.000,145.081 9.000 C 144.943 9.000,144.646 8.588,144.421 8.083 C 144.197 7.579,143.673 6.788,143.257 6.325 C 142.841 5.862,142.216 4.929,141.869 4.251 C 141.522 3.574,141.121 3.092,140.977 3.181 C 140.833 3.270,140.612 3.003,140.486 2.588 C 139.784 0.276,141.123 0.417,119.563 0.387 C 108.895 0.372,77.869 0.269,50.616 0.159 L 1.066 -0.042 1.035 11.063 " stroke="none" fill="#4ca424" fill-rule="evenodd"></path><path id="path1" d="" stroke="none" fill="#4ca42c" fill-rule="evenodd"></path><path id="path2" d="M29.592 0.244 C 30.376 0.315,31.576 0.314,32.259 0.242 C 32.941 0.171,32.300 0.113,30.833 0.114 C 29.367 0.115,28.808 0.174,29.592 0.244 M50.925 0.244 C 51.709 0.315,52.909 0.314,53.592 0.242 C 54.275 0.171,53.633 0.113,52.167 0.114 C 50.700 0.115,50.141 0.174,50.925 0.244 M72.592 0.244 C 73.376 0.315,74.576 0.314,75.259 0.242 C 75.941 0.171,75.300 0.113,73.833 0.114 C 72.367 0.115,71.808 0.174,72.592 0.244 M107.250 0.577 C 108.029 0.648,109.304 0.648,110.083 0.577 C 110.862 0.507,110.225 0.450,108.667 0.450 C 107.108 0.450,106.471 0.507,107.250 0.577 M128.925 0.578 C 129.709 0.648,130.909 0.647,131.592 0.576 C 132.275 0.504,131.633 0.446,130.167 0.448 C 128.700 0.449,128.141 0.507,128.925 0.578 M271.917 0.577 C 272.696 0.648,273.971 0.648,274.750 0.577 C 275.529 0.507,274.892 0.450,273.333 0.450 C 271.775 0.450,271.137 0.507,271.917 0.577 M312.592 0.911 C 313.376 0.982,314.576 0.981,315.259 0.909 C 315.941 0.837,315.300 0.780,313.833 0.781 C 312.367 0.782,311.808 0.841,312.592 0.911 M334.250 0.911 C 335.029 0.981,336.304 0.981,337.083 0.911 C 337.862 0.841,337.225 0.783,335.667 0.783 C 334.108 0.783,333.471 0.841,334.250 0.911 M355.917 0.911 C 356.696 0.981,357.971 0.981,358.750 0.911 C 359.529 0.841,358.892 0.783,357.333 0.783 C 355.775 0.783,355.137 0.841,355.917 0.911 M391.259 1.244 C 392.043 1.315,393.243 1.314,393.925 1.242 C 394.608 1.171,393.967 1.113,392.500 1.114 C 391.033 1.115,390.475 1.174,391.259 1.244 M11.925 352.578 C 12.709 352.648,13.909 352.647,14.592 352.576 C 15.275 352.504,14.633 352.446,13.167 352.448 C 11.700 352.449,11.141 352.507,11.925 352.578 M33.592 352.578 C 34.376 352.648,35.576 352.647,36.259 352.576 C 36.941 352.504,36.300 352.446,34.833 352.448 C 33.367 352.449,32.808 352.507,33.592 352.578 M267.250 352.569 C 267.662 352.648,268.337 352.648,268.750 352.569 C 269.162 352.489,268.825 352.424,268.000 352.424 C 267.175 352.424,266.837 352.489,267.250 352.569 M277.921 352.569 C 278.335 352.649,278.935 352.646,279.254 352.562 C 279.573 352.479,279.233 352.414,278.500 352.417 C 277.767 352.421,277.506 352.489,277.921 352.569 M71.250 352.911 C 72.029 352.981,73.304 352.981,74.083 352.911 C 74.862 352.841,74.225 352.783,72.667 352.783 C 71.108 352.783,70.471 352.841,71.250 352.911 M93.093 352.912 C 93.970 352.981,95.320 352.980,96.093 352.910 C 96.867 352.840,96.150 352.784,94.500 352.785 C 92.850 352.786,92.217 352.843,93.093 352.912 M114.427 352.912 C 115.303 352.981,116.653 352.980,117.427 352.910 C 118.200 352.840,117.483 352.784,115.833 352.785 C 114.183 352.786,113.550 352.843,114.427 352.912 M296.921 352.902 C 297.335 352.982,297.935 352.979,298.254 352.896 C 298.573 352.812,298.233 352.747,297.500 352.751 C 296.767 352.754,296.506 352.823,296.921 352.902 M307.921 352.902 C 308.335 352.982,308.935 352.979,309.254 352.896 C 309.573 352.812,309.233 352.747,308.500 352.751 C 307.767 352.754,307.506 352.823,307.921 352.902 M318.583 352.902 C 318.996 352.981,319.671 352.981,320.083 352.902 C 320.496 352.822,320.158 352.757,319.333 352.757 C 318.508 352.757,318.171 352.822,318.583 352.902 M339.254 353.236 C 339.669 353.315,340.269 353.312,340.587 353.229 C 340.906 353.146,340.567 353.080,339.833 353.084 C 339.100 353.088,338.839 353.156,339.254 353.236 M349.921 353.236 C 350.335 353.315,350.935 353.312,351.254 353.229 C 351.573 353.146,351.233 353.080,350.500 353.084 C 349.767 353.088,349.506 353.156,349.921 353.236 M360.921 353.236 C 361.335 353.315,361.935 353.312,362.254 353.229 C 362.573 353.146,362.233 353.080,361.500 353.084 C 360.767 353.088,360.506 353.156,360.921 353.236 M378.583 353.569 C 378.996 353.648,379.671 353.648,380.083 353.569 C 380.496 353.489,380.158 353.424,379.333 353.424 C 378.508 353.424,378.171 353.489,378.583 353.569 M389.254 353.569 C 389.669 353.649,390.269 353.646,390.587 353.562 C 390.906 353.479,390.567 353.414,389.833 353.417 C 389.100 353.421,388.839 353.489,389.254 353.569 " stroke="none" fill="#50a424" fill-rule="evenodd"></path><path id="path3" d="M29.592 0.244 C 30.376 0.315,31.576 0.314,32.259 0.242 C 32.941 0.171,32.300 0.113,30.833 0.114 C 29.367 0.115,28.808 0.174,29.592 0.244 M50.925 0.244 C 51.709 0.315,52.909 0.314,53.592 0.242 C 54.275 0.171,53.633 0.113,52.167 0.114 C 50.700 0.115,50.141 0.174,50.925 0.244 M72.592 0.244 C 73.376 0.315,74.576 0.314,75.259 0.242 C 75.941 0.171,75.300 0.113,73.833 0.114 C 72.367 0.115,71.808 0.174,72.592 0.244 M107.250 0.577 C 108.029 0.648,109.304 0.648,110.083 0.577 C 110.862 0.507,110.225 0.450,108.667 0.450 C 107.108 0.450,106.471 0.507,107.250 0.577 M128.925 0.578 C 129.709 0.648,130.909 0.647,131.592 0.576 C 132.275 0.504,131.633 0.446,130.167 0.448 C 128.700 0.449,128.141 0.507,128.925 0.578 M271.917 0.577 C 272.696 0.648,273.971 0.648,274.750 0.577 C 275.529 0.507,274.892 0.450,273.333 0.450 C 271.775 0.450,271.137 0.507,271.917 0.577 M312.592 0.911 C 313.376 0.982,314.576 0.981,315.259 0.909 C 315.941 0.837,315.300 0.780,313.833 0.781 C 312.367 0.782,311.808 0.841,312.592 0.911 M334.250 0.911 C 335.029 0.981,336.304 0.981,337.083 0.911 C 337.862 0.841,337.225 0.783,335.667 0.783 C 334.108 0.783,333.471 0.841,334.250 0.911 M355.917 0.911 C 356.696 0.981,357.971 0.981,358.750 0.911 C 359.529 0.841,358.892 0.783,357.333 0.783 C 355.775 0.783,355.137 0.841,355.917 0.911 M391.259 1.244 C 392.043 1.315,393.243 1.314,393.925 1.242 C 394.608 1.171,393.967 1.113,392.500 1.114 C 391.033 1.115,390.475 1.174,391.259 1.244 M11.925 352.578 C 12.709 352.648,13.909 352.647,14.592 352.576 C 15.275 352.504,14.633 352.446,13.167 352.448 C 11.700 352.449,11.141 352.507,11.925 352.578 M33.592 352.578 C 34.376 352.648,35.576 352.647,36.259 352.576 C 36.941 352.504,36.300 352.446,34.833 352.448 C 33.367 352.449,32.808 352.507,33.592 352.578 M267.250 352.569 C 267.662 352.648,268.337 352.648,268.750 352.569 C 269.162 352.489,268.825 352.424,268.000 352.424 C 267.175 352.424,266.837 352.489,267.250 352.569 M277.921 352.569 C 278.335 352.649,278.935 352.646,279.254 352.562 C 279.573 352.479,279.233 352.414,278.500 352.417 C 277.767 352.421,277.506 352.489,277.921 352.569 M71.250 352.911 C 72.029 352.981,73.304 352.981,74.083 352.911 C 74.862 352.841,74.225 352.783,72.667 352.783 C 71.108 352.783,70.471 352.841,71.250 352.911 M93.093 352.912 C 93.970 352.981,95.320 352.980,96.093 352.910 C 96.867 352.840,96.150 352.784,94.500 352.785 C 92.850 352.786,92.217 352.843,93.093 352.912 M114.427 352.912 C 115.303 352.981,116.653 352.980,117.427 352.910 C 118.200 352.840,117.483 352.784,115.833 352.785 C 114.183 352.786,113.550 352.843,114.427 352.912 M296.921 352.902 C 297.335 352.982,297.935 352.979,298.254 352.896 C 298.573 352.812,298.233 352.747,297.500 352.751 C 296.767 352.754,296.506 352.823,296.921 352.902 M307.921 352.902 C 308.335 352.982,308.935 352.979,309.254 352.896 C 309.573 352.812,309.233 352.747,308.500 352.751 C 307.767 352.754,307.506 352.823,307.921 352.902 M318.583 352.902 C 318.996 352.981,319.671 352.981,320.083 352.902 C 320.496 352.822,320.158 352.757,319.333 352.757 C 318.508 352.757,318.171 352.822,318.583 352.902 M339.254 353.236 C 339.669 353.315,340.269 353.312,340.587 353.229 C 340.906 353.146,340.567 353.080,339.833 353.084 C 339.100 353.088,338.839 353.156,339.254 353.236 M349.921 353.236 C 350.335 353.315,350.935 353.312,351.254 353.229 C 351.573 353.146,351.233 353.080,350.500 353.084 C 349.767 353.088,349.506 353.156,349.921 353.236 M360.921 353.236 C 361.335 353.315,361.935 353.312,362.254 353.229 C 362.573 353.146,362.233 353.080,361.500 353.084 C 360.767 353.088,360.506 353.156,360.921 353.236 M378.583 353.569 C 378.996 353.648,379.671 353.648,380.083 353.569 C 380.496 353.489,380.158 353.424,379.333 353.424 C 378.508 353.424,378.171 353.489,378.583 353.569 M389.254 353.569 C 389.669 353.649,390.269 353.646,390.587 353.562 C 390.906 353.479,390.567 353.414,389.833 353.417 C 389.100 353.421,388.839 353.489,389.254 353.569 " stroke="none" fill="#50a424" fill-rule="evenodd"></path><path id="path4" d="M29.592 0.244 C 30.376 0.315,31.576 0.314,32.259 0.242 C 32.941 0.171,32.300 0.113,30.833 0.114 C 29.367 0.115,28.808 0.174,29.592 0.244 M50.925 0.244 C 51.709 0.315,52.909 0.314,53.592 0.242 C 54.275 0.171,53.633 0.113,52.167 0.114 C 50.700 0.115,50.141 0.174,50.925 0.244 M72.592 0.244 C 73.376 0.315,74.576 0.314,75.259 0.242 C 75.941 0.171,75.300 0.113,73.833 0.114 C 72.367 0.115,71.808 0.174,72.592 0.244 M107.250 0.577 C 108.029 0.648,109.304 0.648,110.083 0.577 C 110.862 0.507,110.225 0.450,108.667 0.450 C 107.108 0.450,106.471 0.507,107.250 0.577 M128.925 0.578 C 129.709 0.648,130.909 0.647,131.592 0.576 C 132.275 0.504,131.633 0.446,130.167 0.448 C 128.700 0.449,128.141 0.507,128.925 0.578 M271.917 0.577 C 272.696 0.648,273.971 0.648,274.750 0.577 C 275.529 0.507,274.892 0.450,273.333 0.450 C 271.775 0.450,271.137 0.507,271.917 0.577 M312.592 0.911 C 313.376 0.982,314.576 0.981,315.259 0.909 C 315.941 0.837,315.300 0.780,313.833 0.781 C 312.367 0.782,311.808 0.841,312.592 0.911 M334.250 0.911 C 335.029 0.981,336.304 0.981,337.083 0.911 C 337.862 0.841,337.225 0.783,335.667 0.783 C 334.108 0.783,333.471 0.841,334.250 0.911 M355.917 0.911 C 356.696 0.981,357.971 0.981,358.750 0.911 C 359.529 0.841,358.892 0.783,357.333 0.783 C 355.775 0.783,355.137 0.841,355.917 0.911 M391.259 1.244 C 392.043 1.315,393.243 1.314,393.925 1.242 C 394.608 1.171,393.967 1.113,392.500 1.114 C 391.033 1.115,390.475 1.174,391.259 1.244 M11.925 352.578 C 12.709 352.648,13.909 352.647,14.592 352.576 C 15.275 352.504,14.633 352.446,13.167 352.448 C 11.700 352.449,11.141 352.507,11.925 352.578 M33.592 352.578 C 34.376 352.648,35.576 352.647,36.259 352.576 C 36.941 352.504,36.300 352.446,34.833 352.448 C 33.367 352.449,32.808 352.507,33.592 352.578 M267.250 352.569 C 267.662 352.648,268.337 352.648,268.750 352.569 C 269.162 352.489,268.825 352.424,268.000 352.424 C 267.175 352.424,266.837 352.489,267.250 352.569 M277.921 352.569 C 278.335 352.649,278.935 352.646,279.254 352.562 C 279.573 352.479,279.233 352.414,278.500 352.417 C 277.767 352.421,277.506 352.489,277.921 352.569 M71.250 352.911 C 72.029 352.981,73.304 352.981,74.083 352.911 C 74.862 352.841,74.225 352.783,72.667 352.783 C 71.108 352.783,70.471 352.841,71.250 352.911 M93.093 352.912 C 93.970 352.981,95.320 352.980,96.093 352.910 C 96.867 352.840,96.150 352.784,94.500 352.785 C 92.850 352.786,92.217 352.843,93.093 352.912 M114.427 352.912 C 115.303 352.981,116.653 352.980,117.427 352.910 C 118.200 352.840,117.483 352.784,115.833 352.785 C 114.183 352.786,113.550 352.843,114.427 352.912 M296.921 352.902 C 297.335 352.982,297.935 352.979,298.254 352.896 C 298.573 352.812,298.233 352.747,297.500 352.751 C 296.767 352.754,296.506 352.823,296.921 352.902 M307.921 352.902 C 308.335 352.982,308.935 352.979,309.254 352.896 C 309.573 352.812,309.233 352.747,308.500 352.751 C 307.767 352.754,307.506 352.823,307.921 352.902 M318.583 352.902 C 318.996 352.981,319.671 352.981,320.083 352.902 C 320.496 352.822,320.158 352.757,319.333 352.757 C 318.508 352.757,318.171 352.822,318.583 352.902 M339.254 353.236 C 339.669 353.315,340.269 353.312,340.587 353.229 C 340.906 353.146,340.567 353.080,339.833 353.084 C 339.100 353.088,338.839 353.156,339.254 353.236 M349.921 353.236 C 350.335 353.315,350.935 353.312,351.254 353.229 C 351.573 353.146,351.233 353.080,350.500 353.084 C 349.767 353.088,349.506 353.156,349.921 353.236 M360.921 353.236 C 361.335 353.315,361.935 353.312,362.254 353.229 C 362.573 353.146,362.233 353.080,361.500 353.084 C 360.767 353.088,360.506 353.156,360.921 353.236 M378.583 353.569 C 378.996 353.648,379.671 353.648,380.083 353.569 C 380.496 353.489,380.158 353.424,379.333 353.424 C 378.508 353.424,378.171 353.489,378.583 353.569 M389.254 353.569 C 389.669 353.649,390.269 353.646,390.587 353.562 C 390.906 353.479,390.567 353.414,389.833 353.417 C 389.100 353.421,388.839 353.489,389.254 353.569 " stroke="none" fill="#50a424" fill-rule="evenodd"></path><path id="path5" d="M29.592 0.244 C 30.376 0.315,31.576 0.314,32.259 0.242 C 32.941 0.171,32.300 0.113,30.833 0.114 C 29.367 0.115,28.808 0.174,29.592 0.244 M50.925 0.244 C 51.709 0.315,52.909 0.314,53.592 0.242 C 54.275 0.171,53.633 0.113,52.167 0.114 C 50.700 0.115,50.141 0.174,50.925 0.244 M72.592 0.244 C 73.376 0.315,74.576 0.314,75.259 0.242 C 75.941 0.171,75.300 0.113,73.833 0.114 C 72.367 0.115,71.808 0.174,72.592 0.244 M107.250 0.577 C 108.029 0.648,109.304 0.648,110.083 0.577 C 110.862 0.507,110.225 0.450,108.667 0.450 C 107.108 0.450,106.471 0.507,107.250 0.577 M128.925 0.578 C 129.709 0.648,130.909 0.647,131.592 0.576 C 132.275 0.504,131.633 0.446,130.167 0.448 C 128.700 0.449,128.141 0.507,128.925 0.578 M271.917 0.577 C 272.696 0.648,273.971 0.648,274.750 0.577 C 275.529 0.507,274.892 0.450,273.333 0.450 C 271.775 0.450,271.137 0.507,271.917 0.577 M312.592 0.911 C 313.376 0.982,314.576 0.981,315.259 0.909 C 315.941 0.837,315.300 0.780,313.833 0.781 C 312.367 0.782,311.808 0.841,312.592 0.911 M334.250 0.911 C 335.029 0.981,336.304 0.981,337.083 0.911 C 337.862 0.841,337.225 0.783,335.667 0.783 C 334.108 0.783,333.471 0.841,334.250 0.911 M355.917 0.911 C 356.696 0.981,357.971 0.981,358.750 0.911 C 359.529 0.841,358.892 0.783,357.333 0.783 C 355.775 0.783,355.137 0.841,355.917 0.911 M391.259 1.244 C 392.043 1.315,393.243 1.314,393.925 1.242 C 394.608 1.171,393.967 1.113,392.500 1.114 C 391.033 1.115,390.475 1.174,391.259 1.244 M11.925 352.578 C 12.709 352.648,13.909 352.647,14.592 352.576 C 15.275 352.504,14.633 352.446,13.167 352.448 C 11.700 352.449,11.141 352.507,11.925 352.578 M33.592 352.578 C 34.376 352.648,35.576 352.647,36.259 352.576 C 36.941 352.504,36.300 352.446,34.833 352.448 C 33.367 352.449,32.808 352.507,33.592 352.578 M267.250 352.569 C 267.662 352.648,268.337 352.648,268.750 352.569 C 269.162 352.489,268.825 352.424,268.000 352.424 C 267.175 352.424,266.837 352.489,267.250 352.569 M277.921 352.569 C 278.335 352.649,278.935 352.646,279.254 352.562 C 279.573 352.479,279.233 352.414,278.500 352.417 C 277.767 352.421,277.506 352.489,277.921 352.569 M71.250 352.911 C 72.029 352.981,73.304 352.981,74.083 352.911 C 74.862 352.841,74.225 352.783,72.667 352.783 C 71.108 352.783,70.471 352.841,71.250 352.911 M93.093 352.912 C 93.970 352.981,95.320 352.980,96.093 352.910 C 96.867 352.840,96.150 352.784,94.500 352.785 C 92.850 352.786,92.217 352.843,93.093 352.912 M114.427 352.912 C 115.303 352.981,116.653 352.980,117.427 352.910 C 118.200 352.840,117.483 352.784,115.833 352.785 C 114.183 352.786,113.550 352.843,114.427 352.912 M296.921 352.902 C 297.335 352.982,297.935 352.979,298.254 352.896 C 298.573 352.812,298.233 352.747,297.500 352.751 C 296.767 352.754,296.506 352.823,296.921 352.902 M307.921 352.902 C 308.335 352.982,308.935 352.979,309.254 352.896 C 309.573 352.812,309.233 352.747,308.500 352.751 C 307.767 352.754,307.506 352.823,307.921 352.902 M318.583 352.902 C 318.996 352.981,319.671 352.981,320.083 352.902 C 320.496 352.822,320.158 352.757,319.333 352.757 C 318.508 352.757,318.171 352.822,318.583 352.902 M339.254 353.236 C 339.669 353.315,340.269 353.312,340.587 353.229 C 340.906 353.146,340.567 353.080,339.833 353.084 C 339.100 353.088,338.839 353.156,339.254 353.236 M349.921 353.236 C 350.335 353.315,350.935 353.312,351.254 353.229 C 351.573 353.146,351.233 353.080,350.500 353.084 C 349.767 353.088,349.506 353.156,349.921 353.236 M360.921 353.236 C 361.335 353.315,361.935 353.312,362.254 353.229 C 362.573 353.146,362.233 353.080,361.500 353.084 C 360.767 353.088,360.506 353.156,360.921 353.236 M378.583 353.569 C 378.996 353.648,379.671 353.648,380.083 353.569 C 380.496 353.489,380.158 353.424,379.333 353.424 C 378.508 353.424,378.171 353.489,378.583 353.569 M389.254 353.569 C 389.669 353.649,390.269 353.646,390.587 353.562 C 390.906 353.479,390.567 353.414,389.833 353.417 C 389.100 353.421,388.839 353.489,389.254 353.569 " stroke="none" fill="#50a424" fill-rule="evenodd"></path><path id="path6" d="M29.592 0.244 C 30.376 0.315,31.576 0.314,32.259 0.242 C 32.941 0.171,32.300 0.113,30.833 0.114 C 29.367 0.115,28.808 0.174,29.592 0.244 M50.925 0.244 C 51.709 0.315,52.909 0.314,53.592 0.242 C 54.275 0.171,53.633 0.113,52.167 0.114 C 50.700 0.115,50.141 0.174,50.925 0.244 M72.592 0.244 C 73.376 0.315,74.576 0.314,75.259 0.242 C 75.941 0.171,75.300 0.113,73.833 0.114 C 72.367 0.115,71.808 0.174,72.592 0.244 M107.250 0.577 C 108.029 0.648,109.304 0.648,110.083 0.577 C 110.862 0.507,110.225 0.450,108.667 0.450 C 107.108 0.450,106.471 0.507,107.250 0.577 M128.925 0.578 C 129.709 0.648,130.909 0.647,131.592 0.576 C 132.275 0.504,131.633 0.446,130.167 0.448 C 128.700 0.449,128.141 0.507,128.925 0.578 M271.917 0.577 C 272.696 0.648,273.971 0.648,274.750 0.577 C 275.529 0.507,274.892 0.450,273.333 0.450 C 271.775 0.450,271.137 0.507,271.917 0.577 M312.592 0.911 C 313.376 0.982,314.576 0.981,315.259 0.909 C 315.941 0.837,315.300 0.780,313.833 0.781 C 312.367 0.782,311.808 0.841,312.592 0.911 M334.250 0.911 C 335.029 0.981,336.304 0.981,337.083 0.911 C 337.862 0.841,337.225 0.783,335.667 0.783 C 334.108 0.783,333.471 0.841,334.250 0.911 M355.917 0.911 C 356.696 0.981,357.971 0.981,358.750 0.911 C 359.529 0.841,358.892 0.783,357.333 0.783 C 355.775 0.783,355.137 0.841,355.917 0.911 M391.259 1.244 C 392.043 1.315,393.243 1.314,393.925 1.242 C 394.608 1.171,393.967 1.113,392.500 1.114 C 391.033 1.115,390.475 1.174,391.259 1.244 M11.925 352.578 C 12.709 352.648,13.909 352.647,14.592 352.576 C 15.275 352.504,14.633 352.446,13.167 352.448 C 11.700 352.449,11.141 352.507,11.925 352.578 M33.592 352.578 C 34.376 352.648,35.576 352.647,36.259 352.576 C 36.941 352.504,36.300 352.446,34.833 352.448 C 33.367 352.449,32.808 352.507,33.592 352.578 M267.250 352.569 C 267.662 352.648,268.337 352.648,268.750 352.569 C 269.162 352.489,268.825 352.424,268.000 352.424 C 267.175 352.424,266.837 352.489,267.250 352.569 M277.921 352.569 C 278.335 352.649,278.935 352.646,279.254 352.562 C 279.573 352.479,279.233 352.414,278.500 352.417 C 277.767 352.421,277.506 352.489,277.921 352.569 M71.250 352.911 C 72.029 352.981,73.304 352.981,74.083 352.911 C 74.862 352.841,74.225 352.783,72.667 352.783 C 71.108 352.783,70.471 352.841,71.250 352.911 M93.093 352.912 C 93.970 352.981,95.320 352.980,96.093 352.910 C 96.867 352.840,96.150 352.784,94.500 352.785 C 92.850 352.786,92.217 352.843,93.093 352.912 M114.427 352.912 C 115.303 352.981,116.653 352.980,117.427 352.910 C 118.200 352.840,117.483 352.784,115.833 352.785 C 114.183 352.786,113.550 352.843,114.427 352.912 M296.921 352.902 C 297.335 352.982,297.935 352.979,298.254 352.896 C 298.573 352.812,298.233 352.747,297.500 352.751 C 296.767 352.754,296.506 352.823,296.921 352.902 M307.921 352.902 C 308.335 352.982,308.935 352.979,309.254 352.896 C 309.573 352.812,309.233 352.747,308.500 352.751 C 307.767 352.754,307.506 352.823,307.921 352.902 M318.583 352.902 C 318.996 352.981,319.671 352.981,320.083 352.902 C 320.496 352.822,320.158 352.757,319.333 352.757 C 318.508 352.757,318.171 352.822,318.583 352.902 M339.254 353.236 C 339.669 353.315,340.269 353.312,340.587 353.229 C 340.906 353.146,340.567 353.080,339.833 353.084 C 339.100 353.088,338.839 353.156,339.254 353.236 M349.921 353.236 C 350.335 353.315,350.935 353.312,351.254 353.229 C 351.573 353.146,351.233 353.080,350.500 353.084 C 349.767 353.088,349.506 353.156,349.921 353.236 M360.921 353.236 C 361.335 353.315,361.935 353.312,362.254 353.229 C 362.573 353.146,362.233 353.080,361.500 353.084 C 360.767 353.088,360.506 353.156,360.921 353.236 M378.583 353.569 C 378.996 353.648,379.671 353.648,380.083 353.569 C 380.496 353.489,380.158 353.424,379.333 353.424 C 378.508 353.424,378.171 353.489,378.583 353.569 M389.254 353.569 C 389.669 353.649,390.269 353.646,390.587 353.562 C 390.906 353.479,390.567 353.414,389.833 353.417 C 389.100 353.421,388.839 353.489,389.254 353.569 " stroke="none" fill="#50a424" fill-rule="evenodd"></path><path id="path7" d="M29.592 0.244 C 30.376 0.315,31.576 0.314,32.259 0.242 C 32.941 0.171,32.300 0.113,30.833 0.114 C 29.367 0.115,28.808 0.174,29.592 0.244 M50.925 0.244 C 51.709 0.315,52.909 0.314,53.592 0.242 C 54.275 0.171,53.633 0.113,52.167 0.114 C 50.700 0.115,50.141 0.174,50.925 0.244 M72.592 0.244 C 73.376 0.315,74.576 0.314,75.259 0.242 C 75.941 0.171,75.300 0.113,73.833 0.114 C 72.367 0.115,71.808 0.174,72.592 0.244 M107.250 0.577 C 108.029 0.648,109.304 0.648,110.083 0.577 C 110.862 0.507,110.225 0.450,108.667 0.450 C 107.108 0.450,106.471 0.507,107.250 0.577 M128.925 0.578 C 129.709 0.648,130.909 0.647,131.592 0.576 C 132.275 0.504,131.633 0.446,130.167 0.448 C 128.700 0.449,128.141 0.507,128.925 0.578 M271.917 0.577 C 272.696 0.648,273.971 0.648,274.750 0.577 C 275.529 0.507,274.892 0.450,273.333 0.450 C 271.775 0.450,271.137 0.507,271.917 0.577 M312.592 0.911 C 313.376 0.982,314.576 0.981,315.259 0.909 C 315.941 0.837,315.300 0.780,313.833 0.781 C 312.367 0.782,311.808 0.841,312.592 0.911 M334.250 0.911 C 335.029 0.981,336.304 0.981,337.083 0.911 C 337.862 0.841,337.225 0.783,335.667 0.783 C 334.108 0.783,333.471 0.841,334.250 0.911 M355.917 0.911 C 356.696 0.981,357.971 0.981,358.750 0.911 C 359.529 0.841,358.892 0.783,357.333 0.783 C 355.775 0.783,355.137 0.841,355.917 0.911 M391.259 1.244 C 392.043 1.315,393.243 1.314,393.925 1.242 C 394.608 1.171,393.967 1.113,392.500 1.114 C 391.033 1.115,390.475 1.174,391.259 1.244 M11.925 352.578 C 12.709 352.648,13.909 352.647,14.592 352.576 C 15.275 352.504,14.633 352.446,13.167 352.448 C 11.700 352.449,11.141 352.507,11.925 352.578 M33.592 352.578 C 34.376 352.648,35.576 352.647,36.259 352.576 C 36.941 352.504,36.300 352.446,34.833 352.448 C 33.367 352.449,32.808 352.507,33.592 352.578 M267.250 352.569 C 267.662 352.648,268.337 352.648,268.750 352.569 C 269.162 352.489,268.825 352.424,268.000 352.424 C 267.175 352.424,266.837 352.489,267.250 352.569 M277.921 352.569 C 278.335 352.649,278.935 352.646,279.254 352.562 C 279.573 352.479,279.233 352.414,278.500 352.417 C 277.767 352.421,277.506 352.489,277.921 352.569 M71.250 352.911 C 72.029 352.981,73.304 352.981,74.083 352.911 C 74.862 352.841,74.225 352.783,72.667 352.783 C 71.108 352.783,70.471 352.841,71.250 352.911 M93.093 352.912 C 93.970 352.981,95.320 352.980,96.093 352.910 C 96.867 352.840,96.150 352.784,94.500 352.785 C 92.850 352.786,92.217 352.843,93.093 352.912 M114.427 352.912 C 115.303 352.981,116.653 352.980,117.427 352.910 C 118.200 352.840,117.483 352.784,115.833 352.785 C 114.183 352.786,113.550 352.843,114.427 352.912 M296.921 352.902 C 297.335 352.982,297.935 352.979,298.254 352.896 C 298.573 352.812,298.233 352.747,297.500 352.751 C 296.767 352.754,296.506 352.823,296.921 352.902 M307.921 352.902 C 308.335 352.982,308.935 352.979,309.254 352.896 C 309.573 352.812,309.233 352.747,308.500 352.751 C 307.767 352.754,307.506 352.823,307.921 352.902 M318.583 352.902 C 318.996 352.981,319.671 352.981,320.083 352.902 C 320.496 352.822,320.158 352.757,319.333 352.757 C 318.508 352.757,318.171 352.822,318.583 352.902 M339.254 353.236 C 339.669 353.315,340.269 353.312,340.587 353.229 C 340.906 353.146,340.567 353.080,339.833 353.084 C 339.100 353.088,338.839 353.156,339.254 353.236 M349.921 353.236 C 350.335 353.315,350.935 353.312,351.254 353.229 C 351.573 353.146,351.233 353.080,350.500 353.084 C 349.767 353.088,349.506 353.156,349.921 353.236 M360.921 353.236 C 361.335 353.315,361.935 353.312,362.254 353.229 C 362.573 353.146,362.233 353.080,361.500 353.084 C 360.767 353.088,360.506 353.156,360.921 353.236 M378.583 353.569 C 378.996 353.648,379.671 353.648,380.083 353.569 C 380.496 353.489,380.158 353.424,379.333 353.424 C 378.508 353.424,378.171 353.489,378.583 353.569 M389.254 353.569 C 389.669 353.649,390.269 353.646,390.587 353.562 C 390.906 353.479,390.567 353.414,389.833 353.417 C 389.100 353.421,388.839 353.489,389.254 353.569 " stroke="none" fill="#50a424" fill-rule="evenodd"></path></g></svg>