<svg id="svg" version="1.1" xmlns="http://www.w3.org/2000/svg" xmlns:xlink="http://www.w3.org/1999/xlink" width="400" height="400" viewBox="0, 0, 400,400"><g id="svgg"><path id="path0" d="M204.256 102.500 C 203.947 102.995,201.851 106.550,199.598 110.400 C 197.345 114.250,194.287 119.470,192.803 122.000 C 186.236 133.190,182.839 138.976,179.770 144.200 C 177.960 147.280,171.040 159.070,164.393 170.400 C 150.431 194.200,149.340 196.058,146.257 201.280 L 143.966 205.161 139.683 200.848 C 133.687 194.812,128.576 191.894,121.665 190.565 C 118.563 189.968,36.400 189.680,36.400 190.266 C 36.400 190.607,39.107 195.575,41.813 200.200 C 43.565 203.194,50.895 216.074,68.104 246.400 C 88.406 282.174,110.423 297.225,144.000 298.280 C 167.101 299.005,185.939 292.950,201.019 279.952 C 219.430 264.082,231.441 247.436,259.286 199.200 C 260.492 197.110,263.684 191.620,266.379 187.000 C 269.073 182.380,272.590 176.350,274.193 173.600 C 275.796 170.850,278.897 165.540,281.083 161.800 C 285.938 153.496,296.736 134.984,307.762 116.063 C 312.293 108.288,316.000 101.853,316.000 101.763 C 316.000 101.673,290.984 101.600,260.409 101.600 L 204.818 101.600 204.256 102.500 " stroke="none" fill="#0ecfae" fill-rule="evenodd"></path><path id="path1" d="M330.191 129.245 C 325.498 129.818,319.478 132.283,315.353 135.319 C 311.179 138.391,310.956 138.722,297.218 162.200 C 294.514 166.820,291.354 172.220,290.195 174.200 C 289.036 176.180,285.880 181.580,283.182 186.200 C 280.484 190.820,276.898 196.940,275.213 199.800 C 270.930 207.068,269.949 208.795,270.083 208.831 C 271.171 209.116,273.702 209.185,284.000 209.213 C 316.986 209.302,322.514 204.956,345.620 160.766 C 351.297 149.910,351.842 148.927,357.891 138.670 C 360.852 133.649,363.153 129.419,363.004 129.270 C 362.666 128.933,332.936 128.910,330.191 129.245 " stroke="none" fill="#5453f9" fill-rule="evenodd"></path><path id="path2" d="M0.000 200.000 L 0.000 400.000 200.000 400.000 L 400.000 400.000 400.000 200.000 L 400.000 0.000 200.000 0.000 L 0.000 0.000 0.000 200.000 M316.000 101.763 C 316.000 101.853,312.293 108.288,307.762 116.063 C 296.736 134.984,285.938 153.496,281.083 161.800 C 278.897 165.540,275.796 170.850,274.193 173.600 C 272.590 176.350,269.073 182.380,266.379 187.000 C 263.684 191.620,260.492 197.110,259.286 199.200 C 231.441 247.436,219.430 264.082,201.019 279.952 C 185.939 292.950,167.101 299.005,144.000 298.280 C 110.423 297.225,88.406 282.174,68.104 246.400 C 50.895 216.074,43.565 203.194,41.813 200.200 C 39.107 195.575,36.400 190.607,36.400 190.266 C 36.400 189.680,118.563 189.968,121.665 190.565 C 128.576 191.894,133.687 194.812,139.683 200.848 L 143.966 205.161 146.257 201.280 C 149.340 196.058,150.431 194.200,164.393 170.400 C 171.040 159.070,177.960 147.280,179.770 144.200 C 182.839 138.976,186.236 133.190,192.803 122.000 C 194.287 119.470,197.345 114.250,199.598 110.400 C 201.851 106.550,203.947 102.995,204.256 102.500 L 204.818 101.600 260.409 101.600 C 290.984 101.600,316.000 101.673,316.000 101.763 M363.004 129.270 C 363.153 129.419,360.852 133.649,357.891 138.670 C 351.842 148.927,351.297 149.910,345.620 160.766 C 322.514 204.956,316.986 209.302,284.000 209.213 C 273.702 209.185,271.171 209.116,270.083 208.831 C 269.949 208.795,270.930 207.068,275.213 199.800 C 276.898 196.940,280.484 190.820,283.182 186.200 C 285.880 181.580,289.036 176.180,290.195 174.200 C 291.354 172.220,294.514 166.820,297.218 162.200 C 310.956 138.722,311.179 138.391,315.353 135.319 C 319.478 132.283,325.498 129.818,330.191 129.245 C 332.936 128.910,362.666 128.933,363.004 129.270 " stroke="none" fill="#fbfbfb" fill-rule="evenodd"></path></g></svg>