<svg id="svg" version="1.1" xmlns="http://www.w3.org/2000/svg" xmlns:xlink="http://www.w3.org/1999/xlink" width="400" height="400" viewBox="0, 0, 400,400"><g id="svgg"><path id="path0" d="M232.400 25.600 C 232.400 25.820,231.500 26.000,230.400 26.000 C 229.300 26.000,228.400 26.180,228.400 26.400 C 228.400 26.620,227.860 26.800,227.200 26.800 C 226.540 26.800,226.000 26.980,226.000 27.200 C 226.000 27.420,225.280 27.600,224.400 27.600 C 223.520 27.600,222.800 27.780,222.800 28.000 C 222.800 28.220,222.440 28.400,222.000 28.400 C 221.560 28.400,221.200 28.580,221.200 28.800 C 221.200 29.020,220.660 29.200,220.000 29.200 C 219.340 29.200,218.800 29.380,218.800 29.600 C 218.800 29.820,218.440 30.000,218.000 30.000 C 217.560 30.000,217.200 30.180,217.200 30.400 C 217.200 30.620,216.660 30.800,216.000 30.800 C 215.340 30.800,214.800 30.980,214.800 31.200 C 214.800 31.420,214.440 31.600,214.000 31.600 C 213.560 31.600,213.200 31.780,213.200 32.000 C 213.200 32.220,212.840 32.400,212.400 32.400 C 211.960 32.400,211.600 32.580,211.600 32.800 C 211.600 33.020,211.240 33.200,210.800 33.200 C 210.360 33.200,210.000 33.380,210.000 33.600 C 210.000 33.820,209.640 34.000,209.200 34.000 C 208.760 34.000,208.400 34.180,208.400 34.400 C 208.400 34.620,208.040 34.800,207.600 34.800 C 207.160 34.800,206.800 34.980,206.800 35.200 C 206.800 35.420,206.440 35.600,206.000 35.600 C 205.560 35.600,205.200 35.780,205.200 36.000 C 205.200 36.220,204.840 36.400,204.400 36.400 C 203.960 36.400,203.600 36.580,203.600 36.800 C 203.600 37.020,203.240 37.200,202.800 37.200 C 202.360 37.200,202.000 37.380,202.000 37.600 C 202.000 37.820,201.640 38.000,201.200 38.000 C 200.760 38.000,200.400 38.180,200.400 38.400 C 200.400 38.620,200.080 38.800,199.688 38.800 C 199.297 38.800,198.717 39.160,198.400 39.600 C 198.083 40.040,197.503 40.400,197.112 40.400 C 196.720 40.400,196.400 40.580,196.400 40.800 C 196.400 41.020,196.040 41.200,195.600 41.200 C 195.160 41.200,194.800 41.380,194.800 41.600 C 194.800 41.820,194.480 42.000,194.088 42.000 C 193.697 42.000,193.117 42.360,192.800 42.800 C 192.483 43.240,191.903 43.600,191.512 43.600 C 191.120 43.600,190.800 43.780,190.800 44.000 C 190.800 44.220,190.480 44.400,190.088 44.400 C 189.697 44.400,189.117 44.760,188.800 45.200 C 188.483 45.640,187.903 46.000,187.512 46.000 C 187.120 46.000,186.800 46.180,186.800 46.400 C 186.800 46.620,186.480 46.800,186.088 46.800 C 185.697 46.800,185.117 47.160,184.800 47.600 C 184.483 48.040,183.943 48.400,183.600 48.400 C 183.257 48.400,182.717 48.760,182.400 49.200 C 182.083 49.640,181.543 50.000,181.200 50.000 C 180.857 50.000,180.317 50.360,180.000 50.800 C 179.683 51.240,179.143 51.600,178.800 51.600 C 178.457 51.600,177.917 51.960,177.600 52.400 C 177.283 52.840,176.743 53.200,176.400 53.200 C 176.057 53.200,175.517 53.560,175.200 54.000 C 174.883 54.440,174.343 54.800,174.000 54.800 C 173.657 54.800,173.117 55.160,172.800 55.600 C 172.483 56.040,171.975 56.400,171.672 56.400 C 171.369 56.400,170.617 56.940,170.000 57.600 C 169.383 58.260,168.631 58.800,168.328 58.800 C 168.025 58.800,167.517 59.160,167.200 59.600 C 166.883 60.040,166.375 60.400,166.072 60.400 C 165.769 60.400,165.017 60.940,164.400 61.600 C 163.783 62.260,163.067 62.800,162.808 62.800 C 162.549 62.800,161.646 63.520,160.800 64.400 C 159.954 65.280,159.054 66.000,158.800 66.000 C 158.546 66.000,157.646 66.720,156.800 67.600 C 155.954 68.480,155.054 69.200,154.800 69.200 C 154.546 69.200,153.646 69.920,152.800 70.800 C 151.954 71.680,151.018 72.400,150.720 72.400 C 150.421 72.400,149.917 72.760,149.600 73.200 C 148.989 74.047,146.000 74.379,146.000 73.600 C 146.000 73.371,144.800 73.200,143.200 73.200 C 141.600 73.200,140.400 73.029,140.400 72.800 C 140.400 72.571,139.200 72.400,137.600 72.400 C 136.000 72.400,134.800 72.229,134.800 72.000 C 134.800 71.771,133.600 71.600,132.000 71.600 C 130.400 71.600,129.200 71.429,129.200 71.200 C 129.200 70.971,128.000 70.800,126.400 70.800 C 124.800 70.800,123.600 70.629,123.600 70.400 C 123.600 70.171,122.400 70.000,120.800 70.000 C 119.200 70.000,118.000 69.829,118.000 69.600 C 118.000 69.367,116.667 69.200,114.800 69.200 C 112.933 69.200,111.600 69.033,111.600 68.800 C 111.600 68.571,110.400 68.400,108.800 68.400 C 107.200 68.400,106.000 68.229,106.000 68.000 C 106.000 67.771,104.800 67.600,103.200 67.600 C 101.600 67.600,100.400 67.429,100.400 67.200 C 100.400 66.971,99.200 66.800,97.600 66.800 C 96.000 66.800,94.800 66.629,94.800 66.400 C 94.800 66.171,93.600 66.000,92.000 66.000 C 90.400 66.000,89.200 65.829,89.200 65.600 C 89.200 65.367,87.867 65.200,86.000 65.200 C 84.133 65.200,82.800 65.033,82.800 64.800 C 82.800 64.571,81.600 64.400,80.000 64.400 C 78.400 64.400,77.200 64.229,77.200 64.000 C 77.200 63.771,76.000 63.600,74.400 63.600 C 72.800 63.600,71.600 63.429,71.600 63.200 C 71.600 62.967,70.267 62.800,68.400 62.800 C 66.533 62.800,65.200 62.633,65.200 62.400 C 65.200 62.171,64.000 62.000,62.400 62.000 C 60.800 62.000,59.600 61.829,59.600 61.600 C 59.600 61.367,58.267 61.200,56.400 61.200 C 54.533 61.200,53.200 61.033,53.200 60.800 C 53.200 60.571,52.000 60.400,50.400 60.400 C 48.800 60.400,47.600 60.229,47.600 60.000 C 47.600 59.767,46.267 59.600,44.400 59.600 C 42.533 59.600,41.200 59.433,41.200 59.200 C 41.200 58.967,39.867 58.800,38.000 58.800 C 36.133 58.800,34.800 58.633,34.800 58.400 C 34.800 58.163,33.333 58.000,31.200 58.000 C 29.067 58.000,27.600 57.837,27.600 57.600 C 27.600 57.348,24.861 57.200,20.182 57.200 C 12.277 57.200,10.800 57.606,10.800 59.782 C 10.800 60.122,10.620 60.400,10.400 60.400 C 10.158 60.400,10.000 62.133,10.000 64.800 C 10.000 67.467,10.158 69.200,10.400 69.200 C 10.629 69.200,10.800 70.400,10.800 72.000 C 10.800 73.600,10.971 74.800,11.200 74.800 C 11.429 74.800,11.600 76.000,11.600 77.600 C 11.600 79.200,11.771 80.400,12.000 80.400 C 12.222 80.400,12.400 81.467,12.400 82.800 C 12.400 84.133,12.578 85.200,12.800 85.200 C 13.029 85.200,13.200 86.400,13.200 88.000 C 13.200 89.600,13.371 90.800,13.600 90.800 C 13.829 90.800,14.000 92.000,14.000 93.600 C 14.000 95.200,14.171 96.400,14.400 96.400 C 14.622 96.400,14.800 97.467,14.800 98.800 C 14.800 100.133,14.978 101.200,15.200 101.200 C 15.429 101.200,15.600 102.400,15.600 104.000 C 15.600 105.600,15.771 106.800,16.000 106.800 C 16.222 106.800,16.400 107.867,16.400 109.200 C 16.400 110.533,16.578 111.600,16.800 111.600 C 17.022 111.600,17.200 112.667,17.200 114.000 C 17.200 115.333,17.378 116.400,17.600 116.400 C 17.829 116.400,18.000 117.600,18.000 119.200 C 18.000 120.800,18.171 122.000,18.400 122.000 C 18.622 122.000,18.800 123.067,18.800 124.400 C 18.800 125.733,18.978 126.800,19.200 126.800 C 19.422 126.800,19.600 127.867,19.600 129.200 C 19.600 130.533,19.778 131.600,20.000 131.600 C 20.229 131.600,20.400 132.800,20.400 134.400 C 20.400 136.000,20.571 137.200,20.800 137.200 C 21.022 137.200,21.200 138.267,21.200 139.600 C 21.200 140.933,21.378 142.000,21.600 142.000 C 21.822 142.000,22.000 143.067,22.000 144.400 C 22.000 145.733,22.178 146.800,22.400 146.800 C 22.622 146.800,22.800 147.867,22.800 149.200 C 22.800 150.533,22.978 151.600,23.200 151.600 C 23.429 151.600,23.600 152.800,23.600 154.400 C 23.600 156.000,23.771 157.200,24.000 157.200 C 24.222 157.200,24.400 158.267,24.400 159.600 C 24.400 160.933,24.578 162.000,24.800 162.000 C 25.022 162.000,25.200 163.067,25.200 164.400 C 25.200 165.733,25.378 166.800,25.600 166.800 C 25.822 166.800,26.000 167.867,26.000 169.200 C 26.000 170.533,26.178 171.600,26.400 171.600 C 26.629 171.600,26.800 172.800,26.800 174.400 C 26.800 176.000,26.971 177.200,27.200 177.200 C 27.422 177.200,27.600 178.267,27.600 179.600 C 27.600 180.933,27.778 182.000,28.000 182.000 C 28.222 182.000,28.400 183.067,28.400 184.400 C 28.400 185.733,28.578 186.800,28.800 186.800 C 29.022 186.800,29.200 187.867,29.200 189.200 C 29.200 190.533,29.378 191.600,29.600 191.600 C 29.822 191.600,30.000 192.667,30.000 194.000 C 30.000 195.333,30.178 196.400,30.400 196.400 C 30.620 196.400,30.800 196.940,30.800 197.600 C 30.800 198.260,30.980 198.800,31.200 198.800 C 31.420 198.800,31.600 199.340,31.600 200.000 C 31.600 200.660,31.780 201.200,32.000 201.200 C 32.220 201.200,32.400 201.560,32.400 202.000 C 32.400 202.440,32.580 202.800,32.800 202.800 C 33.020 202.800,33.200 203.083,33.200 203.429 C 33.200 204.200,34.151 205.200,34.883 205.200 C 35.180 205.200,35.683 205.560,36.000 206.000 C 36.438 206.608,37.035 206.800,38.488 206.800 C 39.540 206.800,40.400 206.980,40.400 207.200 C 40.400 207.449,42.667 207.600,46.400 207.600 C 50.133 207.600,52.400 207.449,52.400 207.200 C 52.400 206.945,55.733 206.800,61.600 206.800 C 67.467 206.800,70.800 206.655,70.800 206.400 C 70.800 206.146,73.867 206.000,79.200 206.000 C 84.533 206.000,87.600 205.854,87.600 205.600 C 87.600 205.380,88.320 205.200,89.200 205.200 L 90.800 205.200 90.800 222.800 C 90.800 234.267,90.939 240.400,91.200 240.400 C 91.437 240.400,91.600 241.867,91.600 244.000 C 91.600 246.133,91.763 247.600,92.000 247.600 C 92.229 247.600,92.400 248.800,92.400 250.400 C 92.400 252.000,92.571 253.200,92.800 253.200 C 93.022 253.200,93.200 254.267,93.200 255.600 C 93.200 256.933,93.378 258.000,93.600 258.000 C 93.820 258.000,94.000 258.900,94.000 260.000 C 94.000 261.100,94.180 262.000,94.400 262.000 C 94.620 262.000,94.800 262.900,94.800 264.000 C 94.800 265.100,94.980 266.000,95.200 266.000 C 95.420 266.000,95.600 266.720,95.600 267.600 C 95.600 268.480,95.780 269.200,96.000 269.200 C 96.220 269.200,96.400 269.920,96.400 270.800 C 96.400 271.680,96.580 272.400,96.800 272.400 C 97.020 272.400,97.200 272.940,97.200 273.600 C 97.200 274.260,97.380 274.800,97.600 274.800 C 97.820 274.800,98.000 275.520,98.000 276.400 C 98.000 277.280,98.180 278.000,98.400 278.000 C 98.620 278.000,98.800 278.540,98.800 279.200 C 98.800 279.860,98.980 280.400,99.200 280.400 C 99.420 280.400,99.600 280.940,99.600 281.600 C 99.600 282.260,99.780 282.800,100.000 282.800 C 100.220 282.800,100.400 283.340,100.400 284.000 C 100.400 284.660,100.580 285.200,100.800 285.200 C 101.020 285.200,101.200 285.560,101.200 286.000 C 101.200 286.440,101.380 286.800,101.600 286.800 C 101.820 286.800,102.000 287.340,102.000 288.000 C 102.000 288.660,102.180 289.200,102.400 289.200 C 102.620 289.200,102.800 289.560,102.800 290.000 C 102.800 290.440,102.980 290.800,103.200 290.800 C 103.420 290.800,103.600 291.340,103.600 292.000 C 103.600 292.660,103.780 293.200,104.000 293.200 C 104.220 293.200,104.400 293.560,104.400 294.000 C 104.400 294.440,104.580 294.800,104.800 294.800 C 105.020 294.800,105.200 295.160,105.200 295.600 C 105.200 296.040,105.380 296.400,105.600 296.400 C 105.820 296.400,106.000 296.760,106.000 297.200 C 106.000 297.640,106.180 298.000,106.400 298.000 C 106.620 298.000,106.800 298.360,106.800 298.800 C 106.800 299.240,106.980 299.600,107.200 299.600 C 107.420 299.600,107.600 299.960,107.600 300.400 C 107.600 300.840,107.780 301.200,108.000 301.200 C 108.220 301.200,108.400 301.560,108.400 302.000 C 108.400 302.440,108.580 302.800,108.800 302.800 C 109.020 302.800,109.200 303.160,109.200 303.600 C 109.200 304.040,109.380 304.400,109.600 304.400 C 109.820 304.400,110.000 304.760,110.000 305.200 C 110.000 305.640,110.180 306.000,110.400 306.000 C 110.620 306.000,110.800 306.320,110.800 306.712 C 110.800 307.103,111.160 307.683,111.600 308.000 C 112.040 308.317,112.400 308.897,112.400 309.288 C 112.400 309.680,112.580 310.000,112.800 310.000 C 113.020 310.000,113.200 310.320,113.200 310.712 C 113.200 311.103,113.560 311.683,114.000 312.000 C 114.440 312.317,114.800 312.857,114.800 313.200 C 114.800 313.543,115.160 314.083,115.600 314.400 C 116.040 314.717,116.400 315.257,116.400 315.600 C 116.400 315.943,116.760 316.483,117.200 316.800 C 117.640 317.117,118.000 317.625,118.000 317.928 C 118.000 318.231,118.540 318.983,119.200 319.600 C 119.860 320.217,120.400 320.933,120.400 321.192 C 120.400 321.451,121.120 322.354,122.000 323.200 C 122.880 324.046,123.600 324.933,123.600 325.171 C 123.600 325.735,139.060 341.200,139.623 341.200 C 139.859 341.200,140.929 342.100,142.000 343.200 C 143.071 344.300,144.158 345.200,144.414 345.200 C 144.670 345.200,145.383 345.740,146.000 346.400 C 146.617 347.060,147.369 347.600,147.672 347.600 C 147.975 347.600,148.483 347.960,148.800 348.400 C 149.117 348.840,149.657 349.200,150.000 349.200 C 150.343 349.200,150.883 349.560,151.200 350.000 C 151.517 350.440,152.057 350.800,152.400 350.800 C 152.743 350.800,153.283 351.160,153.600 351.600 C 153.917 352.040,154.457 352.400,154.800 352.400 C 155.143 352.400,155.683 352.760,156.000 353.200 C 156.317 353.640,156.897 354.000,157.288 354.000 C 157.680 354.000,158.000 354.180,158.000 354.400 C 158.000 354.620,158.320 354.800,158.712 354.800 C 159.103 354.800,159.683 355.160,160.000 355.600 C 160.317 356.040,160.897 356.400,161.288 356.400 C 161.680 356.400,162.000 356.580,162.000 356.800 C 162.000 357.020,162.360 357.200,162.800 357.200 C 163.240 357.200,163.600 357.380,163.600 357.600 C 163.600 357.820,163.920 358.000,164.312 358.000 C 164.703 358.000,165.283 358.360,165.600 358.800 C 165.917 359.240,166.497 359.600,166.888 359.600 C 167.280 359.600,167.600 359.780,167.600 360.000 C 167.600 360.220,167.960 360.400,168.400 360.400 C 168.840 360.400,169.200 360.580,169.200 360.800 C 169.200 361.020,169.560 361.200,170.000 361.200 C 170.440 361.200,170.800 361.380,170.800 361.600 C 170.800 361.820,171.340 362.000,172.000 362.000 C 172.660 362.000,173.200 362.180,173.200 362.400 C 173.200 362.620,173.560 362.800,174.000 362.800 C 174.440 362.800,174.800 362.980,174.800 363.200 C 174.800 363.420,175.160 363.600,175.600 363.600 C 176.040 363.600,176.400 363.780,176.400 364.000 C 176.400 364.220,176.940 364.400,177.600 364.400 C 178.260 364.400,178.800 364.580,178.800 364.800 C 178.800 365.020,179.160 365.200,179.600 365.200 C 180.040 365.200,180.400 365.380,180.400 365.600 C 180.400 365.820,180.940 366.000,181.600 366.000 C 182.260 366.000,182.800 366.180,182.800 366.400 C 182.800 366.620,183.340 366.800,184.000 366.800 C 184.660 366.800,185.200 366.980,185.200 367.200 C 185.200 367.420,185.740 367.600,186.400 367.600 C 187.060 367.600,187.600 367.780,187.600 368.000 C 187.600 368.220,188.140 368.400,188.800 368.400 C 189.460 368.400,190.000 368.580,190.000 368.800 C 190.000 369.020,190.540 369.200,191.200 369.200 C 191.860 369.200,192.400 369.380,192.400 369.600 C 192.400 369.820,193.120 370.000,194.000 370.000 C 194.880 370.000,195.600 370.180,195.600 370.400 C 195.600 370.620,196.320 370.800,197.200 370.800 C 198.080 370.800,198.800 370.980,198.800 371.200 C 198.800 371.420,199.520 371.600,200.400 371.600 C 201.280 371.600,202.000 371.780,202.000 372.000 C 202.000 372.222,203.067 372.400,204.400 372.400 C 205.733 372.400,206.800 372.578,206.800 372.800 C 206.800 373.022,207.867 373.200,209.200 373.200 C 210.533 373.200,211.600 373.378,211.600 373.600 C 211.600 373.840,213.200 374.000,215.600 374.000 C 218.000 374.000,219.600 374.160,219.600 374.400 C 219.600 374.655,222.933 374.800,228.800 374.800 C 234.667 374.800,238.000 374.655,238.000 374.400 C 238.000 374.163,239.467 374.000,241.600 374.000 C 243.733 374.000,245.200 373.837,245.200 373.600 C 245.200 373.378,246.267 373.200,247.600 373.200 C 248.933 373.200,250.000 373.022,250.000 372.800 C 250.000 372.580,250.900 372.400,252.000 372.400 C 253.100 372.400,254.000 372.220,254.000 372.000 C 254.000 371.780,254.720 371.600,255.600 371.600 C 256.480 371.600,257.200 371.420,257.200 371.200 C 257.200 370.980,257.740 370.800,258.400 370.800 C 259.060 370.800,259.600 370.620,259.600 370.400 C 259.600 370.180,260.320 370.000,261.200 370.000 C 262.080 370.000,262.800 369.820,262.800 369.600 C 262.800 369.380,263.340 369.200,264.000 369.200 C 264.660 369.200,265.200 369.020,265.200 368.800 C 265.200 368.580,265.740 368.400,266.400 368.400 C 267.060 368.400,267.600 368.220,267.600 368.000 C 267.600 367.780,267.960 367.600,268.400 367.600 C 268.840 367.600,269.200 367.420,269.200 367.200 C 269.200 366.980,269.740 366.800,270.400 366.800 C 271.060 366.800,271.600 366.620,271.600 366.400 C 271.600 366.180,271.960 366.000,272.400 366.000 C 272.840 366.000,273.200 365.820,273.200 365.600 C 273.200 365.380,273.560 365.200,274.000 365.200 C 274.440 365.200,274.800 365.020,274.800 364.800 C 274.800 364.580,275.340 364.400,276.000 364.400 C 276.660 364.400,277.200 364.220,277.200 364.000 C 277.200 363.780,277.560 363.600,278.000 363.600 C 278.440 363.600,278.800 363.420,278.800 363.200 C 278.800 362.980,279.160 362.800,279.600 362.800 C 280.040 362.800,280.400 362.620,280.400 362.400 C 280.400 362.180,280.720 362.000,281.112 362.000 C 281.503 362.000,282.083 361.640,282.400 361.200 C 282.717 360.760,283.297 360.400,283.688 360.400 C 284.080 360.400,284.400 360.220,284.400 360.000 C 284.400 359.780,284.760 359.600,285.200 359.600 C 285.640 359.600,286.000 359.420,286.000 359.200 C 286.000 358.980,286.320 358.800,286.712 358.800 C 287.103 358.800,287.683 358.440,288.000 358.000 C 288.317 357.560,288.857 357.200,289.200 357.200 C 289.543 357.200,290.083 356.840,290.400 356.400 C 290.717 355.960,291.225 355.600,291.528 355.600 C 291.831 355.600,292.583 355.060,293.200 354.400 C 293.817 353.740,294.533 353.200,294.792 353.200 C 295.051 353.200,295.954 352.480,296.800 351.600 C 297.646 350.720,298.533 350.000,298.773 350.000 C 299.342 350.000,308.400 340.942,308.400 340.373 C 308.400 340.133,309.120 339.246,310.000 338.400 C 310.880 337.554,311.600 336.651,311.600 336.392 C 311.600 336.133,312.140 335.417,312.800 334.800 C 313.460 334.183,314.000 333.431,314.000 333.128 C 314.000 332.825,314.360 332.317,314.800 332.000 C 315.240 331.683,315.600 331.103,315.600 330.712 C 315.600 330.320,315.780 330.000,316.000 330.000 C 316.220 330.000,316.400 329.680,316.400 329.288 C 316.400 328.897,316.760 328.317,317.200 328.000 C 317.640 327.683,318.000 327.103,318.000 326.712 C 318.000 326.320,318.180 326.000,318.400 326.000 C 318.620 326.000,318.800 325.640,318.800 325.200 C 318.800 324.760,318.980 324.400,319.200 324.400 C 319.420 324.400,319.600 324.040,319.600 323.600 C 319.600 323.160,319.780 322.800,320.000 322.800 C 320.220 322.800,320.400 322.440,320.400 322.000 C 320.400 321.560,320.580 321.200,320.800 321.200 C 321.020 321.200,321.200 320.840,321.200 320.400 C 321.200 319.960,321.380 319.600,321.600 319.600 C 321.820 319.600,322.000 319.240,322.000 318.800 C 322.000 318.360,322.180 318.000,322.400 318.000 C 322.620 318.000,322.800 317.460,322.800 316.800 C 322.800 316.140,322.980 315.600,323.200 315.600 C 323.420 315.600,323.600 315.240,323.600 314.800 C 323.600 314.360,323.780 314.000,324.000 314.000 C 324.220 314.000,324.400 313.460,324.400 312.800 C 324.400 312.140,324.580 311.600,324.800 311.600 C 325.020 311.600,325.200 311.060,325.200 310.400 C 325.200 309.740,325.380 309.200,325.600 309.200 C 325.820 309.200,326.000 308.480,326.000 307.600 C 326.000 306.720,326.180 306.000,326.400 306.000 C 326.620 306.000,326.800 305.100,326.800 304.000 C 326.800 302.900,326.980 302.000,327.200 302.000 C 327.429 302.000,327.600 300.800,327.600 299.200 C 327.600 297.600,327.771 296.400,328.000 296.400 C 328.252 296.400,328.400 293.733,328.400 289.200 C 328.400 284.667,328.252 282.000,328.000 282.000 C 327.771 282.000,327.600 280.800,327.600 279.200 C 327.600 277.600,327.429 276.400,327.200 276.400 C 326.980 276.400,326.800 275.500,326.800 274.400 C 326.800 273.300,326.620 272.400,326.400 272.400 C 326.180 272.400,326.000 271.680,326.000 270.800 C 326.000 269.920,325.820 269.200,325.600 269.200 C 325.380 269.200,325.200 268.660,325.200 268.000 C 325.200 267.340,325.020 266.800,324.800 266.800 C 324.580 266.800,324.400 266.260,324.400 265.600 C 324.400 264.940,324.220 264.400,324.000 264.400 C 323.780 264.400,323.600 263.860,323.600 263.200 C 323.600 262.540,323.420 262.000,323.200 262.000 C 322.980 262.000,322.800 261.640,322.800 261.200 C 322.800 260.760,322.620 260.400,322.400 260.400 C 322.180 260.400,322.000 260.040,322.000 259.600 C 322.000 259.160,321.820 258.800,321.600 258.800 C 321.380 258.800,321.200 258.440,321.200 258.000 C 321.200 257.560,321.020 257.200,320.800 257.200 C 320.580 257.200,320.400 256.840,320.400 256.400 C 320.400 255.960,320.220 255.600,320.000 255.600 C 319.780 255.600,319.600 255.240,319.600 254.800 C 319.600 254.360,319.420 254.000,319.200 254.000 C 318.980 254.000,318.800 253.680,318.800 253.288 C 318.800 252.897,318.440 252.317,318.000 252.000 C 317.560 251.683,317.200 251.175,317.200 250.872 C 317.200 250.569,316.660 249.817,316.000 249.200 C 315.340 248.583,314.800 247.879,314.800 247.634 C 314.800 247.053,308.147 240.400,307.566 240.400 C 307.321 240.400,306.617 239.860,306.000 239.200 C 305.383 238.540,304.631 238.000,304.328 238.000 C 304.025 238.000,303.517 237.640,303.200 237.200 C 302.883 236.760,302.303 236.400,301.912 236.400 C 301.520 236.400,301.200 236.220,301.200 236.000 C 301.200 235.780,300.840 235.600,300.400 235.600 C 299.960 235.600,299.600 235.420,299.600 235.200 C 299.600 234.980,299.240 234.800,298.800 234.800 C 298.360 234.800,298.000 234.620,298.000 234.400 C 298.000 234.180,297.640 234.000,297.200 234.000 C 296.760 234.000,296.400 233.820,296.400 233.600 C 296.400 233.380,295.860 233.200,295.200 233.200 C 294.540 233.200,294.000 233.020,294.000 232.800 C 294.000 232.580,293.460 232.400,292.800 232.400 C 292.140 232.400,291.600 232.220,291.600 232.000 C 291.600 231.780,291.060 231.600,290.400 231.600 C 289.740 231.600,289.200 231.420,289.200 231.200 C 289.200 230.980,288.300 230.800,287.200 230.800 C 286.100 230.800,285.200 230.620,285.200 230.400 C 285.200 230.158,283.467 230.000,280.800 230.000 C 278.133 230.000,276.400 229.842,276.400 229.600 C 276.400 229.380,275.860 229.200,275.200 229.200 C 274.540 229.200,274.000 229.380,274.000 229.600 C 274.000 229.842,272.267 230.000,269.600 230.000 C 266.933 230.000,265.200 230.158,265.200 230.400 C 265.200 230.620,264.300 230.800,263.200 230.800 C 262.100 230.800,261.200 230.980,261.200 231.200 C 261.200 231.420,260.480 231.600,259.600 231.600 C 258.720 231.600,258.000 231.780,258.000 232.000 C 258.000 232.220,257.460 232.400,256.800 232.400 C 256.140 232.400,255.600 232.580,255.600 232.800 C 255.600 233.020,255.240 233.200,254.800 233.200 C 254.360 233.200,254.000 233.380,254.000 233.600 C 254.000 233.820,253.640 234.000,253.200 234.000 C 252.760 234.000,252.400 234.180,252.400 234.400 C 252.400 234.620,252.040 234.800,251.600 234.800 C 251.160 234.800,250.800 234.980,250.800 235.200 C 250.800 235.420,250.440 235.600,250.000 235.600 C 249.560 235.600,249.200 235.780,249.200 236.000 C 249.200 236.220,248.880 236.400,248.488 236.400 C 248.097 236.400,247.517 236.760,247.200 237.200 C 246.883 237.640,246.391 238.000,246.107 238.000 C 245.432 238.000,238.000 245.432,238.000 246.107 C 238.000 246.391,237.640 246.883,237.200 247.200 C 236.760 247.517,236.400 248.097,236.400 248.488 C 236.400 248.880,236.220 249.200,236.000 249.200 C 235.780 249.200,235.600 249.560,235.600 250.000 C 235.600 250.440,235.420 250.800,235.200 250.800 C 234.980 250.800,234.800 251.160,234.800 251.600 C 234.800 252.040,234.620 252.400,234.400 252.400 C 234.180 252.400,234.000 252.760,234.000 253.200 C 234.000 253.640,233.820 254.000,233.600 254.000 C 233.380 254.000,233.200 254.540,233.200 255.200 C 233.200 255.860,233.020 256.400,232.800 256.400 C 232.580 256.400,232.400 256.940,232.400 257.600 C 232.400 258.260,232.220 258.800,232.000 258.800 C 231.778 258.800,231.600 259.867,231.600 261.200 C 231.600 262.533,231.422 263.600,231.200 263.600 C 230.958 263.600,230.800 265.333,230.800 268.000 C 230.800 270.667,230.958 272.400,231.200 272.400 C 231.420 272.400,231.600 273.300,231.600 274.400 C 231.600 275.500,231.780 276.400,232.000 276.400 C 232.220 276.400,232.400 277.120,232.400 278.000 C 232.400 278.880,232.580 279.600,232.800 279.600 C 233.020 279.600,233.200 279.960,233.200 280.400 C 233.200 280.840,233.380 281.200,233.600 281.200 C 233.820 281.200,234.000 281.700,234.000 282.312 C 234.000 282.965,234.330 283.661,234.800 284.000 C 235.240 284.317,235.600 284.897,235.600 285.288 C 235.600 285.680,235.780 286.000,236.000 286.000 C 236.220 286.000,236.400 286.274,236.400 286.609 C 236.400 287.350,240.575 291.600,241.303 291.600 C 241.589 291.600,242.083 291.960,242.400 292.400 C 242.717 292.840,243.297 293.200,243.688 293.200 C 244.080 293.200,244.400 293.380,244.400 293.600 C 244.400 293.820,244.760 294.000,245.200 294.000 C 245.640 294.000,246.000 294.180,246.000 294.400 C 246.000 294.620,246.540 294.800,247.200 294.800 C 247.860 294.800,248.400 294.980,248.400 295.200 C 248.400 296.072,259.356 295.694,260.000 294.800 C 260.317 294.360,260.815 294.000,261.106 294.000 C 261.837 294.000,263.600 292.174,263.600 291.418 C 263.600 291.078,263.780 290.800,264.000 290.800 C 264.233 290.800,264.400 289.467,264.400 287.600 C 264.400 285.733,264.233 284.400,264.000 284.400 C 263.780 284.400,263.600 284.122,263.600 283.783 C 263.600 283.443,262.160 281.741,260.400 280.000 C 258.640 278.259,257.200 276.557,257.200 276.217 C 257.200 275.878,257.020 275.600,256.800 275.600 C 256.567 275.600,256.400 274.267,256.400 272.400 C 256.400 270.533,256.567 269.200,256.800 269.200 C 257.020 269.200,257.200 268.925,257.200 268.589 C 257.200 267.796,260.596 264.400,261.389 264.400 C 261.725 264.400,262.000 264.220,262.000 264.000 C 262.000 263.780,262.540 263.600,263.200 263.600 C 263.860 263.600,264.400 263.420,264.400 263.200 C 264.400 262.980,265.120 262.800,266.000 262.800 C 266.880 262.800,267.600 262.620,267.600 262.400 C 267.600 262.180,268.320 262.000,269.200 262.000 C 270.080 262.000,270.800 262.180,270.800 262.400 C 270.800 262.620,271.520 262.800,272.400 262.800 C 273.280 262.800,274.000 262.980,274.000 263.200 C 274.000 263.420,274.500 263.600,275.112 263.600 C 275.765 263.600,276.461 263.930,276.800 264.400 C 277.117 264.840,277.610 265.200,277.896 265.200 C 278.624 265.200,283.600 270.253,283.600 270.993 C 283.600 271.327,283.780 271.600,284.000 271.600 C 284.220 271.600,284.400 271.960,284.400 272.400 C 284.400 272.840,284.580 273.200,284.800 273.200 C 285.020 273.200,285.200 273.560,285.200 274.000 C 285.200 274.440,285.380 274.800,285.600 274.800 C 285.820 274.800,286.000 275.160,286.000 275.600 C 286.000 276.040,286.180 276.400,286.400 276.400 C 286.620 276.400,286.800 277.120,286.800 278.000 C 286.800 278.880,286.980 279.600,287.200 279.600 C 287.442 279.600,287.600 281.333,287.600 284.000 C 287.600 286.667,287.442 288.400,287.200 288.400 C 286.980 288.400,286.800 289.300,286.800 290.400 C 286.800 291.500,286.620 292.400,286.400 292.400 C 286.180 292.400,286.000 292.940,286.000 293.600 C 286.000 294.260,285.820 294.800,285.600 294.800 C 285.380 294.800,285.200 295.340,285.200 296.000 C 285.200 296.660,285.020 297.200,284.800 297.200 C 284.580 297.200,284.400 297.560,284.400 298.000 C 284.400 298.440,284.220 298.800,284.000 298.800 C 283.780 298.800,283.600 299.160,283.600 299.600 C 283.600 300.040,283.420 300.400,283.200 300.400 C 282.980 300.400,282.800 300.688,282.800 301.040 C 282.800 301.391,282.260 302.183,281.600 302.800 C 280.940 303.417,280.400 304.122,280.400 304.368 C 280.400 304.993,275.329 310.000,274.696 310.000 C 274.410 310.000,273.917 310.360,273.600 310.800 C 273.283 311.240,272.743 311.600,272.400 311.600 C 272.057 311.600,271.517 311.960,271.200 312.400 C 270.883 312.840,270.303 313.200,269.912 313.200 C 269.520 313.200,269.200 313.380,269.200 313.600 C 269.200 313.820,268.840 314.000,268.400 314.000 C 267.960 314.000,267.600 314.180,267.600 314.400 C 267.600 314.620,267.240 314.800,266.800 314.800 C 266.360 314.800,266.000 314.980,266.000 315.200 C 266.000 315.420,265.460 315.600,264.800 315.600 C 264.140 315.600,263.600 315.780,263.600 316.000 C 263.600 316.220,263.060 316.400,262.400 316.400 C 261.740 316.400,261.200 316.580,261.200 316.800 C 261.200 317.020,260.660 317.200,260.000 317.200 C 259.340 317.200,258.800 317.380,258.800 317.600 C 258.800 317.822,257.733 318.000,256.400 318.000 C 255.067 318.000,254.000 318.178,254.000 318.400 C 254.000 318.640,252.400 318.800,250.000 318.800 C 247.600 318.800,246.000 318.640,246.000 318.400 C 246.000 318.178,244.933 318.000,243.600 318.000 C 242.267 318.000,241.200 317.822,241.200 317.600 C 241.200 317.380,240.480 317.200,239.600 317.200 C 238.720 317.200,238.000 317.020,238.000 316.800 C 238.000 316.580,237.460 316.400,236.800 316.400 C 236.140 316.400,235.600 316.220,235.600 316.000 C 235.600 315.780,235.240 315.600,234.800 315.600 C 234.360 315.600,234.000 315.420,234.000 315.200 C 234.000 314.980,233.460 314.800,232.800 314.800 C 232.140 314.800,231.600 314.620,231.600 314.400 C 231.600 314.180,231.280 314.000,230.888 314.000 C 230.497 314.000,229.917 313.640,229.600 313.200 C 229.283 312.760,228.703 312.400,228.312 312.400 C 227.920 312.400,227.600 312.220,227.600 312.000 C 227.600 311.780,227.280 311.600,226.888 311.600 C 226.497 311.600,225.917 311.240,225.600 310.800 C 225.283 310.360,224.791 310.000,224.507 310.000 C 223.879 310.000,214.800 300.989,214.800 300.365 C 214.800 300.121,214.260 299.417,213.600 298.800 C 212.940 298.183,212.400 297.391,212.400 297.040 C 212.400 296.688,212.220 296.400,212.000 296.400 C 211.780 296.400,211.600 296.040,211.600 295.600 C 211.600 295.160,211.420 294.800,211.200 294.800 C 210.980 294.800,210.800 294.440,210.800 294.000 C 210.800 293.560,210.620 293.200,210.400 293.200 C 210.180 293.200,210.000 292.840,210.000 292.400 C 210.000 291.960,209.820 291.600,209.600 291.600 C 209.380 291.600,209.200 291.240,209.200 290.800 C 209.200 290.360,209.020 290.000,208.800 290.000 C 208.580 290.000,208.400 289.640,208.400 289.200 C 208.400 288.760,208.220 288.400,208.000 288.400 C 207.780 288.400,207.600 287.860,207.600 287.200 C 207.600 286.540,207.420 286.000,207.200 286.000 C 206.980 286.000,206.800 285.460,206.800 284.800 C 206.800 284.140,206.620 283.600,206.400 283.600 C 206.180 283.600,206.000 282.880,206.000 282.000 C 206.000 281.120,205.820 280.400,205.600 280.400 C 205.380 280.400,205.200 279.680,205.200 278.800 C 205.200 277.920,205.020 277.200,204.800 277.200 C 204.578 277.200,204.400 276.133,204.400 274.800 C 204.400 273.467,204.222 272.400,204.000 272.400 C 203.747 272.400,203.600 269.600,203.600 264.800 C 203.600 260.000,203.747 257.200,204.000 257.200 C 204.229 257.200,204.400 256.000,204.400 254.400 C 204.400 252.800,204.571 251.600,204.800 251.600 C 205.020 251.600,205.200 250.700,205.200 249.600 C 205.200 248.500,205.380 247.600,205.600 247.600 C 205.820 247.600,206.000 246.880,206.000 246.000 C 206.000 245.120,206.180 244.400,206.400 244.400 C 206.620 244.400,206.800 243.860,206.800 243.200 C 206.800 242.540,206.980 242.000,207.200 242.000 C 207.420 242.000,207.600 241.640,207.600 241.200 C 207.600 240.760,207.780 240.400,208.000 240.400 C 208.220 240.400,208.400 239.860,208.400 239.200 C 208.400 238.540,208.580 238.000,208.800 238.000 C 209.020 238.000,209.200 237.640,209.200 237.200 C 209.200 236.760,209.380 236.400,209.600 236.400 C 209.820 236.400,210.000 236.040,210.000 235.600 C 210.000 235.160,210.180 234.800,210.400 234.800 C 210.620 234.800,210.800 234.440,210.800 234.000 C 210.800 233.560,210.980 233.200,211.200 233.200 C 211.420 233.200,211.600 232.840,211.600 232.400 C 211.600 231.960,211.780 231.600,212.000 231.600 C 212.220 231.600,212.400 231.240,212.400 230.800 C 212.400 230.360,212.580 230.000,212.800 230.000 C 213.020 230.000,213.200 229.680,213.200 229.288 C 213.200 228.897,213.560 228.317,214.000 228.000 C 214.440 227.683,214.800 227.143,214.800 226.800 C 214.800 226.457,215.160 225.917,215.600 225.600 C 216.040 225.283,216.400 224.779,216.400 224.480 C 216.400 224.182,217.120 223.246,218.000 222.400 C 218.880 221.554,219.600 220.666,219.600 220.426 C 219.600 219.857,227.057 212.400,227.626 212.400 C 227.866 212.400,228.754 211.680,229.600 210.800 C 230.446 209.920,231.382 209.200,231.680 209.200 C 231.979 209.200,232.483 208.840,232.800 208.400 C 233.117 207.960,233.697 207.600,234.088 207.600 C 234.480 207.600,234.800 207.420,234.800 207.200 C 234.800 206.980,235.120 206.800,235.512 206.800 C 235.903 206.800,236.483 206.440,236.800 206.000 C 237.117 205.560,237.697 205.200,238.088 205.200 C 238.480 205.200,238.800 205.020,238.800 204.800 C 238.800 204.580,239.160 204.400,239.600 204.400 C 240.040 204.400,240.400 204.220,240.400 204.000 C 240.400 203.780,240.760 203.600,241.200 203.600 C 241.640 203.600,242.000 203.420,242.000 203.200 C 242.000 202.980,242.540 202.800,243.200 202.800 C 243.860 202.800,244.400 202.620,244.400 202.400 C 244.400 202.180,244.940 202.000,245.600 202.000 C 246.260 202.000,246.800 201.820,246.800 201.600 C 246.800 201.380,247.340 201.200,248.000 201.200 C 248.660 201.200,249.200 201.020,249.200 200.800 C 249.200 200.580,249.920 200.400,250.800 200.400 C 251.680 200.400,252.400 200.220,252.400 200.000 C 252.400 199.780,253.120 199.600,254.000 199.600 C 254.880 199.600,255.600 199.420,255.600 199.200 C 255.600 198.971,256.800 198.800,258.400 198.800 C 260.000 198.800,261.200 198.629,261.200 198.400 C 261.200 198.167,262.533 198.000,264.400 198.000 C 266.267 198.000,267.600 197.833,267.600 197.600 C 267.600 197.363,269.067 197.200,271.200 197.200 C 273.333 197.200,274.800 197.037,274.800 196.800 C 274.800 196.560,276.400 196.400,278.800 196.400 C 281.200 196.400,282.800 196.240,282.800 196.000 C 282.800 195.756,284.667 195.600,287.600 195.600 C 290.533 195.600,292.400 195.444,292.400 195.200 C 292.400 194.952,294.533 194.800,298.000 194.800 C 301.467 194.800,303.600 194.648,303.600 194.400 C 303.600 194.150,306.000 194.000,310.000 194.000 C 314.000 194.000,316.400 193.850,316.400 193.600 C 316.400 193.349,318.933 193.200,323.200 193.200 C 327.467 193.200,330.000 193.051,330.000 192.800 C 330.000 192.547,332.800 192.400,337.600 192.400 C 342.400 192.400,345.200 192.253,345.200 192.000 C 345.200 191.756,347.067 191.600,350.000 191.600 C 352.933 191.600,354.800 191.444,354.800 191.200 C 354.800 190.980,355.340 190.800,356.000 190.800 C 356.660 190.800,357.200 190.620,357.200 190.400 C 357.200 190.180,357.474 190.000,357.809 190.000 C 358.601 190.000,362.800 185.801,362.800 185.009 C 362.800 184.674,362.980 184.400,363.200 184.400 C 363.420 184.400,363.600 184.040,363.600 183.600 C 363.600 183.160,363.780 182.800,364.000 182.800 C 364.220 182.800,364.400 182.440,364.400 182.000 C 364.400 181.560,364.580 181.200,364.800 181.200 C 365.020 181.200,365.200 180.660,365.200 180.000 C 365.200 179.340,365.380 178.800,365.600 178.800 C 365.820 178.800,366.000 178.260,366.000 177.600 C 366.000 176.940,366.180 176.400,366.400 176.400 C 366.620 176.400,366.800 176.040,366.800 175.600 C 366.800 175.160,366.980 174.800,367.200 174.800 C 367.420 174.800,367.600 174.260,367.600 173.600 C 367.600 172.940,367.780 172.400,368.000 172.400 C 368.220 172.400,368.400 171.860,368.400 171.200 C 368.400 170.540,368.580 170.000,368.800 170.000 C 369.020 170.000,369.200 169.640,369.200 169.200 C 369.200 168.760,369.380 168.400,369.600 168.400 C 369.820 168.400,370.000 167.860,370.000 167.200 C 370.000 166.540,370.180 166.000,370.400 166.000 C 370.620 166.000,370.800 165.460,370.800 164.800 C 370.800 164.140,370.980 163.600,371.200 163.600 C 371.420 163.600,371.600 163.240,371.600 162.800 C 371.600 162.360,371.780 162.000,372.000 162.000 C 372.220 162.000,372.400 161.460,372.400 160.800 C 372.400 160.140,372.580 159.600,372.800 159.600 C 373.020 159.600,373.200 159.240,373.200 158.800 C 373.200 158.360,373.380 158.000,373.600 158.000 C 373.820 158.000,374.000 157.460,374.000 156.800 C 374.000 156.140,374.180 155.600,374.400 155.600 C 374.620 155.600,374.800 155.060,374.800 154.400 C 374.800 153.740,374.980 153.200,375.200 153.200 C 375.420 153.200,375.600 152.840,375.600 152.400 C 375.600 151.960,375.780 151.600,376.000 151.600 C 376.220 151.600,376.400 151.060,376.400 150.400 C 376.400 149.740,376.580 149.200,376.800 149.200 C 377.020 149.200,377.200 148.840,377.200 148.400 C 377.200 147.960,377.380 147.600,377.600 147.600 C 377.820 147.600,378.000 147.060,378.000 146.400 C 378.000 145.740,378.180 145.200,378.400 145.200 C 378.620 145.200,378.800 144.840,378.800 144.400 C 378.800 143.960,378.980 143.600,379.200 143.600 C 379.420 143.600,379.600 143.060,379.600 142.400 C 379.600 141.740,379.780 141.200,380.000 141.200 C 380.220 141.200,380.400 140.840,380.400 140.400 C 380.400 139.960,380.580 139.600,380.800 139.600 C 381.020 139.600,381.200 139.060,381.200 138.400 C 381.200 137.740,381.380 137.200,381.600 137.200 C 381.820 137.200,382.000 136.660,382.000 136.000 C 382.000 135.340,382.180 134.800,382.400 134.800 C 382.620 134.800,382.800 134.440,382.800 134.000 C 382.800 133.560,382.980 133.200,383.200 133.200 C 383.420 133.200,383.600 132.660,383.600 132.000 C 383.600 131.340,383.780 130.800,384.000 130.800 C 384.220 130.800,384.400 130.440,384.400 130.000 C 384.400 129.560,384.580 129.200,384.800 129.200 C 385.020 129.200,385.200 128.660,385.200 128.000 C 385.200 127.340,385.380 126.800,385.600 126.800 C 385.820 126.800,386.000 126.440,386.000 126.000 C 386.000 125.560,386.180 125.200,386.400 125.200 C 386.620 125.200,386.800 124.660,386.800 124.000 C 386.800 123.340,386.980 122.800,387.200 122.800 C 387.420 122.800,387.600 122.260,387.600 121.600 C 387.600 120.940,387.780 120.400,388.000 120.400 C 388.220 120.400,388.400 120.040,388.400 119.600 C 388.400 119.160,388.580 118.800,388.800 118.800 C 389.020 118.800,389.200 118.260,389.200 117.600 C 389.200 116.940,389.380 116.400,389.600 116.400 C 389.822 116.400,390.000 115.333,390.000 114.000 C 390.000 112.667,389.822 111.600,389.600 111.600 C 389.380 111.600,389.200 111.317,389.200 110.971 C 389.200 110.163,388.237 109.200,387.429 109.200 C 387.083 109.200,386.800 109.020,386.800 108.800 C 386.800 108.580,386.260 108.400,385.600 108.400 C 384.940 108.400,384.400 108.220,384.400 108.000 C 384.400 107.778,383.333 107.600,382.000 107.600 C 380.667 107.600,379.600 107.422,379.600 107.200 C 379.600 106.971,378.400 106.800,376.800 106.800 C 375.200 106.800,374.000 106.629,374.000 106.400 C 374.000 106.171,372.800 106.000,371.200 106.000 C 369.600 106.000,368.400 105.829,368.400 105.600 C 368.400 105.371,367.200 105.200,365.600 105.200 C 364.000 105.200,362.800 105.029,362.800 104.800 C 362.800 104.571,361.600 104.400,360.000 104.400 C 358.400 104.400,357.200 104.229,357.200 104.000 C 357.200 103.771,356.000 103.600,354.400 103.600 C 352.800 103.600,351.600 103.429,351.600 103.200 C 351.600 102.971,350.400 102.800,348.800 102.800 C 347.200 102.800,346.000 102.629,346.000 102.400 C 346.000 102.171,344.800 102.000,343.200 102.000 C 341.600 102.000,340.400 101.829,340.400 101.600 C 340.400 101.371,339.200 101.200,337.600 101.200 C 336.000 101.200,334.800 101.029,334.800 100.800 C 334.800 100.571,333.600 100.400,332.000 100.400 C 330.400 100.400,329.200 100.229,329.200 100.000 C 329.200 99.771,328.000 99.600,326.400 99.600 C 324.800 99.600,323.600 99.429,323.600 99.200 C 323.600 98.967,322.267 98.800,320.400 98.800 C 318.533 98.800,317.200 98.633,317.200 98.400 C 317.200 98.171,316.000 98.000,314.400 98.000 C 312.800 98.000,311.600 97.829,311.600 97.600 C 311.600 97.371,310.400 97.200,308.800 97.200 C 307.200 97.200,306.000 97.029,306.000 96.800 C 306.000 96.571,304.800 96.400,303.200 96.400 C 301.600 96.400,300.400 96.229,300.400 96.000 C 300.400 95.771,299.200 95.600,297.600 95.600 C 296.000 95.600,294.800 95.429,294.800 95.200 C 294.800 94.967,293.467 94.800,291.600 94.800 C 289.733 94.800,288.400 94.633,288.400 94.400 C 288.400 94.171,287.200 94.000,285.600 94.000 C 284.000 94.000,282.800 93.829,282.800 93.600 C 282.800 93.380,282.080 93.200,281.200 93.200 C 280.320 93.200,279.600 93.020,279.600 92.800 C 279.600 92.580,279.324 92.400,278.987 92.400 C 278.191 92.400,275.600 89.809,275.600 89.013 C 275.600 88.676,275.420 88.400,275.200 88.400 C 274.980 88.400,274.800 88.080,274.800 87.688 C 274.800 87.297,274.440 86.717,274.000 86.400 C 273.560 86.083,273.200 85.503,273.200 85.112 C 273.200 84.720,273.020 84.400,272.800 84.400 C 272.580 84.400,272.400 84.040,272.400 83.600 C 272.400 83.160,272.220 82.800,272.000 82.800 C 271.780 82.800,271.600 82.440,271.600 82.000 C 271.600 81.560,271.420 81.200,271.200 81.200 C 270.980 81.200,270.800 80.840,270.800 80.400 C 270.800 79.960,270.620 79.600,270.400 79.600 C 270.180 79.600,270.000 79.240,270.000 78.800 C 270.000 78.360,269.820 78.000,269.600 78.000 C 269.380 78.000,269.200 77.640,269.200 77.200 C 269.200 76.760,269.020 76.400,268.800 76.400 C 268.580 76.400,268.400 76.040,268.400 75.600 C 268.400 75.160,268.220 74.800,268.000 74.800 C 267.780 74.800,267.600 74.260,267.600 73.600 C 267.600 72.940,267.420 72.400,267.200 72.400 C 266.980 72.400,266.800 72.040,266.800 71.600 C 266.800 71.160,266.620 70.800,266.400 70.800 C 266.180 70.800,266.000 70.440,266.000 70.000 C 266.000 69.560,265.820 69.200,265.600 69.200 C 265.380 69.200,265.200 68.840,265.200 68.400 C 265.200 67.960,265.020 67.600,264.800 67.600 C 264.580 67.600,264.400 67.060,264.400 66.400 C 264.400 65.740,264.220 65.200,264.000 65.200 C 263.780 65.200,263.600 64.840,263.600 64.400 C 263.600 63.960,263.420 63.600,263.200 63.600 C 262.980 63.600,262.800 63.240,262.800 62.800 C 262.800 62.360,262.620 62.000,262.400 62.000 C 262.180 62.000,262.000 61.460,262.000 60.800 C 262.000 60.140,261.820 59.600,261.600 59.600 C 261.380 59.600,261.200 59.240,261.200 58.800 C 261.200 58.360,261.020 58.000,260.800 58.000 C 260.580 58.000,260.400 57.460,260.400 56.800 C 260.400 56.140,260.220 55.600,260.000 55.600 C 259.780 55.600,259.600 55.240,259.600 54.800 C 259.600 54.360,259.420 54.000,259.200 54.000 C 258.980 54.000,258.800 53.640,258.800 53.200 C 258.800 52.760,258.620 52.400,258.400 52.400 C 258.180 52.400,258.000 51.860,258.000 51.200 C 258.000 50.540,257.820 50.000,257.600 50.000 C 257.380 50.000,257.200 49.640,257.200 49.200 C 257.200 48.760,257.020 48.400,256.800 48.400 C 256.580 48.400,256.400 48.040,256.400 47.600 C 256.400 47.160,256.220 46.800,256.000 46.800 C 255.780 46.800,255.600 46.260,255.600 45.600 C 255.600 44.940,255.420 44.400,255.200 44.400 C 254.980 44.400,254.800 44.040,254.800 43.600 C 254.800 43.160,254.620 42.800,254.400 42.800 C 254.180 42.800,254.000 42.260,254.000 41.600 C 254.000 40.940,253.820 40.400,253.600 40.400 C 253.380 40.400,253.200 40.040,253.200 39.600 C 253.200 39.160,253.020 38.800,252.800 38.800 C 252.580 38.800,252.400 38.440,252.400 38.000 C 252.400 37.560,252.220 37.200,252.000 37.200 C 251.780 37.200,251.600 36.840,251.600 36.400 C 251.600 35.960,251.420 35.600,251.200 35.600 C 250.980 35.600,250.800 35.100,250.800 34.488 C 250.800 33.835,250.470 33.139,250.000 32.800 C 249.560 32.483,249.200 31.989,249.200 31.703 C 249.200 30.975,244.950 26.800,244.209 26.800 C 243.874 26.800,243.600 26.620,243.600 26.400 C 243.600 26.180,242.880 26.000,242.000 26.000 C 241.120 26.000,240.400 25.820,240.400 25.600 C 240.400 25.360,238.800 25.200,236.400 25.200 C 234.000 25.200,232.400 25.360,232.400 25.600 " stroke="none" fill="#1cac74" fill-rule="evenodd"></path><path id="path1" d="" stroke="none" fill="#1cac7c" fill-rule="evenodd"></path></g></svg>