<?xml version="1.0" standalone="no"?>
<!DOCTYPE svg PUBLIC "-//W3C//DTD SVG 20010904//EN"
 "http://www.w3.org/TR/2001/REC-SVG-20010904/DTD/svg10.dtd">
<svg version="1.0" xmlns="http://www.w3.org/2000/svg"
 width="64.000000pt" height="64.000000pt" viewBox="0 0 64.000000 64.000000"
 preserveAspectRatio="xMidYMid meet">

<g transform="translate(0.000000,64.000000) scale(0.100000,-0.100000)"
fill="#000000" stroke="none">
<path d="M0 320 l0 -320 320 0 320 0 0 320 0 320 -320 0 -320 0 0 -320z m368
83 c2 -40 6 -73 11 -73 10 0 44 47 70 98 21 41 22 42 74 42 28 0 58 -4 66 -9
16 -10 7 -31 -45 -102 -39 -53 -40 -61 -17 -80 31 -26 72 -90 66 -105 -4 -10
-22 -14 -64 -14 -53 0 -63 3 -98 35 -21 19 -41 35 -44 35 -4 0 -10 -15 -15
-32 -7 -28 -13 -34 -42 -36 -53 -5 -115 24 -163 78 -49 54 -132 204 -122 220
3 6 29 10 56 10 45 0 51 -3 67 -31 9 -17 30 -49 46 -71 21 -31 30 -38 37 -27
15 24 10 78 -10 98 -29 29 -7 42 64 39 l60 -3 3 -72z"/>
</g>
</svg>
