<?xml version="1.0" encoding="iso-8859-1"?>
<!-- Generator: Adobe Illustrator 19.0.0, SVG Export Plug-In . SVG Version: 6.00 Build 0)  -->
<svg version="1.1" id="Layer_1" xmlns="http://www.w3.org/2000/svg" xmlns:xlink="http://www.w3.org/1999/xlink" x="0px" y="0px"
	 viewBox="0 0 512 512" style="enable-background:new 0 0 512 512;" xml:space="preserve">
<g>
	<path style="fill:#FFC61B;" d="M60.76,139.883c-7.812,0-14.144-6.334-14.144-14.144V60.761c0-7.81,6.332-14.144,14.144-14.144
		h64.98c7.812,0,14.144,6.334,14.144,14.144s-6.332,14.144-14.144,14.144H74.903v50.835
		C74.903,133.551,68.571,139.883,60.76,139.883z"/>
	<path style="fill:#FFC61B;" d="M451.24,465.383h-64.98c-7.812,0-14.144-6.334-14.144-14.144s6.332-14.144,14.144-14.144h50.836
		V386.26c0-7.81,6.332-14.144,14.144-14.144s14.144,6.334,14.144,14.144v64.979C465.384,459.05,459.05,465.383,451.24,465.383z"/>
	<path style="fill:#FFC61B;" d="M497.856,512H14.144C6.332,512,0,505.667,0,497.856V14.144C0,6.334,6.332,0,14.144,0h483.713
		C505.668,0,512,6.334,512,14.144v483.713C512,505.667,505.668,512,497.856,512z M28.287,483.713h455.425V28.287H28.287V483.713z"/>
</g>
<path style="fill:#FEE187;" d="M344.266,190.939l-0.047-89.934c-0.003-5.294-4.294-9.582-9.588-9.582h-53.459
	c-48.637,0-97.714,35.915-97.714,116.153c0,41.561,17.614,73.932,49.904,92.34l-65.734,120.662h63.795l55.365-108.683h4.044v108.683
	h53.538l-0.069-146.192 M279.908,139.568h10.925v124.181h-7.134c-27.662,0-44.175-22.579-44.175-60.399
	C239.524,156.324,260.385,139.568,279.908,139.568z"/>
<path style="fill:#FFC61B;" d="M344.371,434.721h-53.539c-7.812,0-14.144-6.334-14.144-14.144v-57.698l-32.662,64.117
	c-2.414,4.74-7.284,7.724-12.603,7.724h-63.795c-4.99,0-9.612-2.629-12.161-6.922c-2.549-4.29-2.648-9.606-0.26-13.989
	l59.49-109.199c-29.382-21.764-45.384-55.712-45.384-97.035c0-40.664,11.96-74.548,34.587-97.989
	c20.111-20.834,47.554-32.308,77.272-32.308h53.459c13.08,0,23.726,10.64,23.73,23.72l0.047,89.932
	c0.004,7.81-6.325,14.146-14.137,14.151c-0.003,0-0.006,0-0.007,0c-7.809,0-14.139-6.328-14.144-14.137l-0.045-85.38H281.17
	c-38.551,0-83.571,26.716-83.571,102.01c0,36.42,14.789,64.102,42.766,80.053c6.693,3.816,9.101,12.288,5.416,19.054l-54.343,99.751
	h31.315l51.431-100.959c2.414-4.74,7.284-7.724,12.603-7.724h4.044c7.812,0,14.144,6.334,14.144,14.144v94.539h25.245
	l-0.062-132.039c-0.003-7.81,6.325-14.146,14.137-14.151c0.001,0,0.004,0,0.007,0c7.809,0,14.141,6.328,14.144,14.137l0.069,146.19
	c0.001,3.752-1.488,7.352-4.14,10.005C351.723,433.228,348.123,434.721,344.371,434.721z M290.833,277.893H283.7
	c-35.973,0-58.318-28.563-58.318-74.543c0-57.517,29.374-77.926,54.528-77.926h10.925c7.812,0,14.144,6.334,14.144,14.144v124.181
	C304.977,271.561,298.645,277.893,290.833,277.893z M276.689,153.975c-14.288,2.383-23.02,20.843-23.02,49.375
	c0,15.593,3.181,40.728,23.02,45.47V153.975z"/>
<g>
</g>
<g>
</g>
<g>
</g>
<g>
</g>
<g>
</g>
<g>
</g>
<g>
</g>
<g>
</g>
<g>
</g>
<g>
</g>
<g>
</g>
<g>
</g>
<g>
</g>
<g>
</g>
<g>
</g>
</svg>
