<svg id="svg" version="1.1" xmlns="http://www.w3.org/2000/svg" xmlns:xlink="http://www.w3.org/1999/xlink" width="400" height="400" viewBox="0, 0, 400,400"><g id="svgg"><path id="path0" d="M264.763 67.173 C 260.834 67.941,256.442 71.588,253.629 76.419 C 250.997 80.940,248.923 84.548,247.893 86.400 C 247.220 87.610,246.366 89.140,245.995 89.800 C 245.355 90.937,242.404 95.913,241.605 97.200 C 241.285 97.716,239.075 101.499,237.805 103.704 C 237.582 104.091,236.230 106.333,234.800 108.686 C 233.370 111.040,232.126 113.153,232.036 113.382 C 231.946 113.612,231.001 115.193,229.936 116.896 C 228.871 118.598,228.000 120.069,228.000 120.164 C 228.000 120.259,227.093 121.836,225.984 123.668 C 224.875 125.501,223.810 127.270,223.616 127.600 C 222.987 128.672,212.214 146.944,211.716 147.784 C 211.449 148.233,211.100 148.870,210.940 149.200 C 210.780 149.530,210.053 150.736,209.324 151.881 C 208.596 153.025,208.000 154.062,208.000 154.185 C 208.000 154.385,204.123 160.745,203.738 161.176 C 202.977 162.029,202.102 159.151,199.006 145.600 C 198.428 143.070,197.702 140.010,197.393 138.800 C 197.084 137.590,196.643 135.700,196.413 134.600 C 196.183 133.500,195.567 130.710,195.044 128.400 C 194.522 126.090,193.608 122.040,193.014 119.400 C 192.420 116.760,191.510 112.800,190.993 110.600 C 190.475 108.400,189.961 106.150,189.849 105.600 C 189.737 105.050,189.356 103.430,189.001 102.000 C 188.646 100.570,188.207 98.770,188.024 98.000 C 184.208 81.918,164.544 70.009,144.967 71.923 C 132.342 73.157,130.865 79.896,137.057 108.000 C 138.178 113.087,138.484 114.369,139.354 117.600 C 139.680 118.810,140.427 121.690,141.015 124.000 C 142.951 131.605,149.005 151.089,149.647 151.780 C 149.841 151.989,150.000 152.563,150.000 153.056 C 150.000 153.549,150.159 154.051,150.352 154.170 C 150.546 154.290,150.798 154.796,150.913 155.294 C 151.128 156.230,152.926 161.187,153.563 162.600 C 153.761 163.040,154.688 165.290,155.623 167.600 C 156.558 169.910,157.476 171.971,157.662 172.180 C 157.848 172.389,158.000 172.787,158.000 173.065 C 158.000 174.315,166.866 191.574,167.694 191.933 C 167.862 192.007,168.000 192.230,168.000 192.429 C 168.000 192.629,168.855 194.099,169.900 195.696 C 170.944 197.293,171.890 198.780,172.002 199.000 C 172.114 199.220,173.102 200.750,174.197 202.400 C 177.097 206.766,177.016 208.311,173.506 215.600 C 172.076 218.570,170.050 222.800,169.003 225.000 C 167.956 227.200,165.952 231.400,164.550 234.333 C 163.147 237.266,162.000 239.720,162.000 239.788 C 162.000 239.855,161.100 241.823,160.000 244.161 C 158.900 246.499,158.000 248.494,158.000 248.595 C 158.000 248.696,157.569 249.728,157.043 250.889 C 154.031 257.530,150.753 265.454,149.055 270.200 C 147.083 275.711,144.001 287.602,143.998 289.716 C 143.997 290.422,143.824 291.630,143.614 292.400 C 142.432 296.742,142.439 312.189,143.625 315.891 C 147.038 326.542,158.846 334.000,172.298 334.000 C 188.272 334.000,195.455 328.398,198.967 313.200 C 200.585 306.198,202.838 297.603,204.367 292.600 C 204.569 291.940,204.862 290.776,205.018 290.013 C 205.174 289.250,205.441 288.350,205.612 288.013 C 205.782 287.676,206.137 286.590,206.399 285.600 C 206.662 284.610,207.130 283.209,207.438 282.486 C 207.747 281.764,208.001 280.954,208.001 280.686 C 208.002 280.170,211.769 268.354,212.364 267.000 C 212.557 266.560,213.021 265.300,213.395 264.200 C 214.517 260.898,216.041 256.652,216.411 255.800 C 216.602 255.360,217.767 252.390,219.000 249.200 C 220.233 246.010,221.485 242.860,221.784 242.200 C 222.082 241.540,223.231 238.826,224.338 236.168 C 226.198 231.698,227.143 229.527,229.287 224.800 C 231.502 219.915,241.237 200.455,243.467 196.454 C 244.860 193.954,246.000 191.851,246.000 191.782 C 246.000 191.712,247.350 189.374,249.000 186.587 C 250.650 183.800,252.000 181.453,252.000 181.373 C 252.000 181.292,252.877 179.826,253.950 178.113 C 255.022 176.401,257.744 172.030,259.999 168.400 C 262.253 164.770,264.333 161.530,264.621 161.199 C 264.909 160.869,265.387 160.149,265.683 159.599 C 266.216 158.608,267.764 156.219,274.363 146.200 C 276.247 143.340,277.971 140.692,278.194 140.316 C 278.417 139.939,283.318 132.615,289.083 124.039 C 303.102 103.189,303.531 102.315,302.375 96.960 C 300.062 86.244,284.774 70.773,273.688 67.928 C 269.128 66.759,267.561 66.626,264.763 67.173 " stroke="none" fill="#fbf9fa" fill-rule="evenodd"></path><path id="path1" d="M0.000 200.000 L 0.000 400.000 200.000 400.000 L 400.000 400.000 400.000 200.000 L 400.000 0.000 200.000 0.000 L 0.000 0.000 0.000 200.000 M270.600 67.191 C 274.251 68.003,275.342 68.394,278.761 70.116 C 292.479 77.024,304.212 92.736,302.392 101.760 C 301.714 105.119,300.995 106.322,289.083 124.039 C 283.318 132.615,278.417 139.939,278.194 140.316 C 277.971 140.692,276.247 143.340,274.363 146.200 C 267.764 156.219,266.216 158.608,265.683 159.599 C 265.387 160.149,264.909 160.869,264.621 161.199 C 264.333 161.530,262.253 164.770,259.999 168.400 C 257.744 172.030,255.022 176.401,253.950 178.113 C 252.877 179.826,252.000 181.292,252.000 181.373 C 252.000 181.453,250.650 183.800,249.000 186.587 C 247.350 189.374,246.000 191.712,246.000 191.782 C 246.000 191.851,244.860 193.954,243.467 196.454 C 241.237 200.455,231.502 219.915,229.287 224.800 C 227.143 229.527,226.198 231.698,224.338 236.168 C 223.231 238.826,222.082 241.540,221.784 242.200 C 221.485 242.860,220.233 246.010,219.000 249.200 C 217.767 252.390,216.602 255.360,216.411 255.800 C 216.041 256.652,214.517 260.898,213.395 264.200 C 213.021 265.300,212.557 266.560,212.364 267.000 C 211.769 268.354,208.002 280.170,208.001 280.686 C 208.001 280.954,207.747 281.764,207.438 282.486 C 207.130 283.209,206.662 284.610,206.399 285.600 C 206.137 286.590,205.782 287.676,205.612 288.013 C 205.441 288.350,205.174 289.250,205.018 290.013 C 204.862 290.776,204.569 291.940,204.367 292.600 C 202.838 297.603,200.585 306.198,198.967 313.200 C 197.560 319.286,196.584 321.991,194.798 324.755 C 188.719 334.160,169.158 337.107,157.023 330.447 C 149.598 326.371,145.587 322.014,143.625 315.891 C 142.439 312.189,142.432 296.742,143.614 292.400 C 143.824 291.630,143.997 290.422,143.998 289.716 C 144.001 287.602,147.083 275.711,149.055 270.200 C 150.753 265.454,154.031 257.530,157.043 250.889 C 157.569 249.728,158.000 248.696,158.000 248.595 C 158.000 248.494,158.900 246.499,160.000 244.161 C 161.100 241.823,162.000 239.855,162.000 239.788 C 162.000 239.720,163.147 237.266,164.550 234.333 C 165.952 231.400,167.956 227.200,169.003 225.000 C 170.050 222.800,172.076 218.570,173.506 215.600 C 177.016 208.311,177.097 206.766,174.197 202.400 C 173.102 200.750,172.114 199.220,172.002 199.000 C 171.890 198.780,170.944 197.293,169.900 195.696 C 168.855 194.099,168.000 192.629,168.000 192.429 C 168.000 192.230,167.862 192.007,167.694 191.933 C 166.866 191.574,158.000 174.315,158.000 173.065 C 158.000 172.787,157.848 172.389,157.662 172.180 C 157.476 171.971,156.558 169.910,155.623 167.600 C 154.688 165.290,153.761 163.040,153.563 162.600 C 152.926 161.187,151.128 156.230,150.913 155.294 C 150.798 154.796,150.546 154.290,150.352 154.170 C 150.159 154.051,150.000 153.549,150.000 153.056 C 150.000 152.563,149.841 151.989,149.647 151.780 C 149.005 151.089,142.951 131.605,141.015 124.000 C 140.427 121.690,139.680 118.810,139.354 117.600 C 138.484 114.369,138.178 113.087,137.057 108.000 C 130.865 79.896,132.342 73.157,144.967 71.923 C 164.544 70.009,184.208 81.918,188.024 98.000 C 188.207 98.770,188.646 100.570,189.001 102.000 C 189.356 103.430,189.737 105.050,189.849 105.600 C 189.961 106.150,190.475 108.400,190.993 110.600 C 191.510 112.800,192.420 116.760,193.014 119.400 C 193.608 122.040,194.522 126.090,195.044 128.400 C 195.567 130.710,196.183 133.500,196.413 134.600 C 196.643 135.700,197.084 137.590,197.393 138.800 C 197.702 140.010,198.428 143.070,199.006 145.600 C 202.102 159.151,202.977 162.029,203.738 161.176 C 204.123 160.745,208.000 154.385,208.000 154.185 C 208.000 154.062,208.596 153.025,209.324 151.881 C 210.053 150.736,210.780 149.530,210.940 149.200 C 211.100 148.870,211.449 148.233,211.716 147.784 C 212.214 146.944,222.987 128.672,223.616 127.600 C 223.810 127.270,224.875 125.501,225.984 123.668 C 227.093 121.836,228.000 120.259,228.000 120.164 C 228.000 120.069,228.871 118.598,229.936 116.896 C 231.001 115.193,231.946 113.612,232.036 113.382 C 232.126 113.153,233.370 111.040,234.800 108.686 C 236.230 106.333,237.582 104.091,237.805 103.704 C 239.075 101.499,241.285 97.716,241.605 97.200 C 242.404 95.913,245.355 90.937,245.995 89.800 C 246.366 89.140,247.220 87.610,247.893 86.400 C 248.923 84.548,250.997 80.940,253.629 76.419 C 257.839 69.188,264.151 65.756,270.600 67.191 " stroke="none" fill="#fb0453" fill-rule="evenodd"></path></g></svg>